<?xml version="1.0" encoding="UTF-8" standalone="no"?>
<!-- Created with Inkscape (http://www.inkscape.org/) -->

<svg
   xmlns:dc="http://purl.org/dc/elements/1.1/"
   xmlns:cc="http://creativecommons.org/ns#"
   xmlns:rdf="http://www.w3.org/1999/02/22-rdf-syntax-ns#"
   xmlns:svg="http://www.w3.org/2000/svg"
   xmlns="http://www.w3.org/2000/svg"
   xmlns:xlink="http://www.w3.org/1999/xlink"
   xmlns:sodipodi="http://sodipodi.sourceforge.net/DTD/sodipodi-0.dtd"
   xmlns:inkscape="http://www.inkscape.org/namespaces/inkscape"
   width="237.17407"
   height="328.96448"
   id="svg2"
   version="1.1"
   inkscape:version="0.48.3.1 r9886"
   sodipodi:docname="Biceps-curl-1.svg">
  <defs
     id="defs4">
    <filter
       inkscape:collect="always"
       id="filter5283"
       color-interpolation-filters="sRGB">
      <feGaussianBlur
         inkscape:collect="always"
         stdDeviation="10.211719"
         id="feGaussianBlur5285" />
    </filter>
    <filter
       inkscape:collect="always"
       id="filter5427"
       x="-0.28619286"
       width="1.5723857"
       y="-0.28619286"
       height="1.5723857"
       color-interpolation-filters="sRGB">
      <feGaussianBlur
         inkscape:collect="always"
         stdDeviation="15.757641"
         id="feGaussianBlur5429" />
    </filter>
    <radialGradient
       gradientUnits="userSpaceOnUse"
       gradientTransform="matrix(1,0,0,0.91819829,-19.285714,-7.9105395)"
       r="209.56604"
       fy="287.50052"
       fx="398.1105"
       cy="287.50052"
       cx="398.1105"
       id="radialGradient5255"
       xlink:href="#linearGradient5249"
       inkscape:collect="always" />
    <linearGradient
       id="linearGradient5249"
       inkscape:collect="always">
      <stop
         id="stop5251"
         offset="0"
         style="stop-color:#e3e3e3;stop-opacity:1;" />
      <stop
         id="stop5253"
         offset="1"
         style="stop-color:#e3e3e3;stop-opacity:0;" />
    </linearGradient>
  </defs>
  <sodipodi:namedview
     id="base"
     pagecolor="#ffffff"
     bordercolor="#666666"
     borderopacity="1.0"
     inkscape:pageopacity="0.0"
     inkscape:pageshadow="2"
     inkscape:zoom="0.98994949"
     inkscape:cx="-312.19083"
     inkscape:cy="64.573839"
     inkscape:document-units="px"
     inkscape:current-layer="layer1"
     showgrid="false"
     showguides="true"
     inkscape:guide-bbox="true"
     fit-margin-top="0"
     fit-margin-left="0"
     fit-margin-right="0"
     fit-margin-bottom="0"
     inkscape:window-width="1615"
     inkscape:window-height="1026"
     inkscape:window-x="65"
     inkscape:window-y="24"
     inkscape:window-maximized="1">
    <sodipodi:guide
       orientation="-0.70710678,0.70710678"
       position="-2199.5073,475.14227"
       id="guide2985" />
  </sodipodi:namedview>
  <metadata
     id="metadata7">
    <rdf:RDF>
      <cc:Work
         rdf:about="">
        <dc:format>image/svg+xml</dc:format>
        <dc:type
           rdf:resource="http://purl.org/dc/dcmitype/StillImage" />
        <dc:title></dc:title>
      </cc:Work>
    </rdf:RDF>
  </metadata>
  <g
     inkscape:label="Ebene 1"
     inkscape:groupmode="layer"
     id="layer1"
     transform="translate(-770.93584,-172.82568)">
    <path
       style="fill:#000000"
       d="m 870.24386,467.81892 c -2.34277,-1.84638 -3.62108,-3.82818 -3.62108,-5.61386 0,-1.51801 -0.79773,-4.30267 -1.77274,-6.18813 -1.22904,-2.37669 -1.89925,-7.4001 -2.18521,-16.3788 -0.22685,-7.12288 -1.178,-15.70828 -2.11366,-19.07867 -2.2931,-8.26011 -2.14927,-11.21676 1.08118,-22.22635 1.51914,-5.1773 2.76207,-10.8465 2.76207,-12.59821 0,-4.68786 2.31931,-13.08511 3.61408,-13.08511 0.7172,0 0.77854,1.30472 0.17022,3.62108 -1.36175,5.1853 -1.02864,17.40787 0.60974,22.37221 1.8798,5.69583 0.66386,6.52933 -1.67178,1.14596 l -1.865,-4.2986 -1.69904,3.89963 c -2.69554,6.18672 -2.95311,13.44582 -0.77584,21.86444 1.08978,4.2137 2.10142,12.17371 2.24809,17.68889 0.263,9.88898 3.60433,22.44539 7.09073,26.64623 1.90391,2.29408 7.32411,3.25396 10.07152,1.78359 3.12882,-1.6745 1.63064,-3.73582 -2.16368,-2.97695 -3.39455,0.6789 -7.82979,-0.178 -7.82979,-1.51275 0,-0.47795 2.78048,-0.90221 6.17884,-0.9428 4.44571,-0.0531 6.35428,0.38336 6.80428,1.55603 0.57361,1.49481 4.84373,2.40597 4.84373,1.03355 0,-0.92841 -3.59986,-6.51806 -4.99764,-7.76005 -3.21533,-2.85694 -9.44601,-15.12118 -10.58415,-20.83345 -1.30113,-6.53025 -0.28543,-16.28238 2.17455,-20.87891 0.6332,-1.18315 1.11056,-4.81639 1.06079,-8.07387 l -0.0905,-5.92268 -1.53053,3.34253 c -0.84178,1.83839 -1.55313,5.22271 -1.58077,7.5207 -0.0283,2.35381 -0.60451,4.17817 -1.31962,4.17817 -2.03367,0 -0.32882,-10.25103 2.7187,-16.34728 1.47899,-2.95855 3.61309,-8.38748 4.74247,-12.06427 1.12936,-3.67678 3.03224,-8.36013 4.2286,-10.40744 1.19636,-2.0473 2.80562,-6.43438 3.57615,-9.74906 1.32597,-5.70417 1.28521,-6.02669 -0.76188,-6.02669 -1.18956,0 -2.47936,0.87742 -2.86625,1.94982 -1.37939,3.8235 -5.02505,8.13822 -8.31281,9.83838 -3.03301,1.56844 -3.59238,1.56134 -6.09333,-0.0773 -4.81699,-3.15622 -7.09532,-8.23167 -7.0999,-15.81649 -0.002,-3.7901 0.47853,-8.16067 1.06849,-9.71237 0.78052,-2.05295 0.59666,-3.9605 -0.67514,-7.00435 -1.28001,-3.0635 -1.52738,-5.68255 -0.92424,-9.78575 1.83769,-12.50215 0.80948,-24.65136 -1.74451,-20.61287 -1.72137,2.72192 -1.33808,-1.8432 0.45161,-5.37891 1.8906,-3.73503 3.05523,-21.45263 1.58307,-24.08323 -1.58264,-2.82802 0.13085,-3.81704 2.09158,-1.20724 1.17954,1.57001 1.51037,3.86939 1.12189,7.79749 -0.30302,3.064 -0.30294,4.94417 1.8e-4,4.17817 1.71953,-4.3453 5.93633,3.77261 5.93633,11.42823 0,7.09543 2.715,8.43582 17.61579,8.69687 8.18053,0.1433 13.08016,-0.28486 15.64706,-1.36732 3.4799,-1.4675 3.69164,-1.85094 3.07626,-5.5709 -0.36348,-2.19721 -0.6674,-4.99769 -0.67535,-6.22328 -0.0111,-1.67166 -0.83991,-2.28603 -3.31853,-2.45921 -1.81722,-0.12696 -3.60064,0.24908 -3.96316,0.83564 -0.36252,0.58657 -2.00833,1.07415 -3.65736,1.08353 -1.64903,0.009 -3.72328,0.47579 -4.60947,1.03645 -1.7824,1.12767 -5.63092,-0.40745 -5.63092,-2.24609 0,-0.72827 0.74839,-0.71365 2.16074,0.0422 1.4369,0.76901 2.39204,0.78214 2.8512,0.0392 0.37976,-0.61445 2.36206,-1.11719 4.40513,-1.11719 3.83584,0 4.9844,-1.32279 5.15813,-5.94056 0.0718,-1.90702 0.44694,-1.59791 1.78157,1.46777 l 1.69067,3.88356 2.6672,-3.1008 c 3.72886,-4.33506 4.2842,-7.62486 2.58219,-15.29675 l -1.47606,-6.65347 -3.57136,0.66999 c -3.68138,0.6906 -8.2218,-0.19544 -8.2218,-1.60447 0,-0.43914 3.01065,-0.70357 6.69035,-0.58762 6.21667,0.19589 6.73797,0.0211 7.36294,-2.46902 0.67945,-2.70716 2.65938,-3.75688 2.65938,-1.40994 0,0.69844 0.87742,1.9891 1.94981,2.86814 1.8032,1.47807 1.75618,1.55664 -0.62524,1.04495 -3.54519,-0.76174 -4.11127,1.42004 -2.42729,9.35531 1.2406,5.846 1.17381,7.23769 -0.56608,11.79351 -2.53789,6.64536 -1.79156,21.26399 1.19717,23.4494 1.45827,1.06631 1.72942,2.35042 1.18357,5.60526 -0.71183,4.24464 2.94423,17.72825 6.85617,25.28572 1.44244,2.78665 1.45573,3.40644 0.0955,4.45672 -1.27795,0.98675 -1.41141,3.13654 -0.69824,11.24753 0.96633,10.9903 1.03288,13.00756 0.80868,24.51192 -0.0836,4.28959 0.29811,14.70596 0.84822,23.14751 l 1.00022,15.34825 7.4666,7.21386 c 4.8304,4.6669 8.38133,7.21385 10.05745,7.21385 1.42498,0 3.46584,0.96683 4.53526,2.14852 6.24335,6.89883 -9.98559,12.50208 -20.18826,6.97025 -1.33846,-0.72574 -5.41346,-1.31952 -9.0555,-1.31952 -8.82556,0 -9.72063,-1.14583 -8.50684,-10.88998 1.77374,-14.23931 1.28073,-21.40684 -1.94114,-28.2209 -2.95468,-6.24896 -3.20798,-9.68093 -1.44886,-19.63099 0.39062,-2.20939 -0.0252,-4.86616 -1.08122,-6.90828 -0.94376,-1.82504 -1.71593,-4.81398 -1.71593,-6.64208 0,-4.08317 -6.35034,-14.67219 -8.34096,-13.90832 -0.80894,0.31042 -1.63264,3.08508 -1.9105,6.43553 -0.26862,3.23941 -1.64084,8.09707 -3.04935,10.79479 -4.43941,8.50287 -6.7544,17.50134 -6.7544,26.25466 0,5.4462 -0.79636,10.59897 -2.34527,15.17481 -3.60671,10.65506 -2.61779,21.47991 2.77048,30.32621 2.23952,3.67678 4.68951,7.18773 5.4444,7.8021 1.69617,1.3804 5.27217,7.71216 5.27217,9.33502 0,1.99284 -9.03747,5.70433 -13.85796,5.69118 -3.15819,-0.009 -5.62029,-0.87481 -8.14706,-2.86621 z m 71.4881,-22.90569 c 2.27317,-1.03571 2.58641,-1.65728 1.68449,-3.34253 -0.60937,-1.13861 -2.2322,-2.07021 -3.60628,-2.07021 -5.46006,0 -17.36233,-12.14349 -19.34255,-19.73454 -1.70558,-6.53826 -2.677,-38.36083 -1.32094,-43.2721 0.69609,-2.52101 0.6563,-4.55179 -0.11751,-5.99766 -1.13853,-2.12737 -1.24318,-2.11284 -3.89687,0.54086 -3.52898,3.52898 -4.6323,3.4367 -6.69922,-0.56029 -2.49917,-4.83287 -2.06525,-5.52255 1.08631,-1.7266 2.69992,3.25194 2.82057,3.28392 4.45119,1.17977 0.92182,-1.18952 1.67605,-3.09929 1.67605,-4.24393 0,-1.14462 0.50138,-1.77128 1.11417,-1.39255 0.69849,0.43169 1.11418,-1.97366 1.11418,-6.44699 l 0,-7.1356 -6.28499,3.17021 c -6.9402,3.50072 -8.96394,3.78937 -13.16071,1.87719 -4.42452,-2.01594 -3.36915,-2.83186 3.01157,-2.32827 5.14183,0.40581 6.52335,0.0212 11.42033,-3.17954 3.06399,-2.00266 5.70521,-3.72406 5.86937,-3.8253 0.16415,-0.10128 -0.45949,-1.6375 -1.38586,-3.41387 -0.92638,-1.77636 -1.69843,-4.23252 -1.71567,-5.45811 -0.0173,-1.2256 -1.05821,-4.48457 -2.31329,-7.24216 -1.66346,-3.65486 -2.09969,-6.24129 -1.60949,-9.54262 0.52685,-3.54813 0.23253,-4.92694 -1.35917,-6.3674 -1.84784,-1.67228 -2.58198,-1.68895 -8.1151,-0.18425 -6.98366,1.89916 -20.79254,1.23533 -25.95017,-1.24749 -2.8079,-1.35169 -3.40101,-1.28823 -5.40453,0.57836 -2.4535,2.28578 -2.61276,3.70382 -1.63239,14.53504 0.46165,5.10028 0.19041,8.23073 -0.91715,10.5847 -1.52228,3.23541 -1.5696,3.10078 -1.47658,-4.20163 0.0528,-4.14928 -0.19526,-7.83553 -0.55137,-8.19165 -1.20686,-1.20684 -2.15853,7.35457 -1.28473,11.55764 0.47774,2.298 0.75352,4.67955 0.61284,5.29235 -0.14067,0.6128 1.25081,-0.51531 3.09219,-2.5069 6.49631,-7.02624 14.1851,-3.56171 16.8623,7.5981 0.73001,3.04306 1.01493,6.77744 0.63313,8.29862 -0.80328,3.20059 0.0901,3.45963 3.5571,1.03133 1.73404,-1.21458 2.47627,-2.87098 2.47627,-5.52617 0,-3.46869 0.38601,-3.90738 4.53077,-5.14918 3.08022,-0.92285 5.05733,-2.37568 6.17544,-4.53787 0.90455,-1.74923 2.12284,-2.88487 2.70729,-2.52367 1.46981,0.90839 -1.91434,7.1795 -4.27979,7.93081 -5.33749,1.69529 -6.90535,3.09345 -6.90535,6.1579 0,1.73484 0.49625,3.15426 1.1028,3.15426 2.24438,0 8.89529,11.7962 10.03284,17.79448 0.63439,3.34513 1.64737,6.57599 2.25105,7.17967 1.38458,1.38458 1.44647,7.33702 0.0763,7.33702 -0.56172,0 -1.31788,-0.62672 -1.68033,-1.39272 -1.95913,-4.14032 0.8175,15.25769 2.8377,19.8247 2.10732,4.76393 2.28682,6.52578 1.57683,15.47699 -0.44066,5.5556 -0.88098,12.1066 -0.97848,14.55779 l -0.17729,4.45671 7.79925,0.56133 c 4.28958,0.30874 8.80201,1.1709 10.0276,1.91594 2.83472,1.7232 10.75251,1.80577 14.38646,0.15003 z m -28.68508,-9.49807 c -1.23627,-1.23625 -0.83162,-7.05646 0.49059,-7.05646 0.67836,0 0.93086,0.7884 0.56108,1.75198 -0.36976,0.9636 -0.15507,2.71843 0.47709,3.89963 1.09152,2.03951 0.0568,2.9904 -1.52876,1.40485 z m -30.21281,-98.27491 c 0.58216,-0.53349 6.13177,-1.52672 12.33249,-2.20717 6.2007,-0.68044 12.21726,-1.56858 13.37014,-1.97362 1.91234,-0.67189 1.94397,-0.57392 0.36072,1.11733 -1.14775,1.22605 -4.9206,2.21996 -11.14178,2.93517 -11.77912,1.35416 -16.30167,1.39305 -14.92157,0.12829 z m 7.18645,-3.33069 c 0,-0.62912 3.13363,-2.66361 6.96362,-4.52109 7.54969,-3.66148 6.09351,-4.37041 -3.62108,-1.76291 -7.59938,2.03976 -8.94034,2.04258 -6.26,0.0131 1.15298,-0.87299 4.91334,-2.13521 8.35634,-2.80494 3.443,-0.66974 7.63879,-1.4835 9.32399,-1.80837 2.56138,-0.49379 3.06399,-0.2049 3.06399,1.76117 0,1.29352 -0.87742,2.66897 -1.94982,3.05655 -1.6751,0.60542 -12.57596,5.52099 -15.0414,6.78267 -0.4596,0.2352 -0.83564,-0.0871 -0.83564,-0.71622 z m -17.64115,-4.54579 c 0.20426,-0.57599 2.07918,-2.20547 4.16647,-3.62108 3.8401,-2.60438 6.5847,-5.94899 5.63603,-6.86817 -0.28473,-0.27587 -1.77114,-0.67595 -3.30313,-0.88907 -2.31776,-0.32244 -2.96444,0.2205 -3.85149,3.23359 -1.08744,3.69376 -2.83358,4.9276 -2.83358,2.00223 0,-1.28574 1.81589,-6.4374 2.88779,-8.19265 0.11453,-0.18755 3.39732,0.48989 7.29511,1.50541 7.65385,1.99412 14.14186,1.71195 21.87183,-0.95124 4.58848,-1.58085 6.13381,-1.0406 3.32043,1.16085 -2.21571,1.73377 -11.35112,3.63976 -17.4454,3.63976 -4.43712,0 -5.83991,0.45688 -6.7766,2.2071 -1.94021,3.62532 -12.06959,9.881 -10.96746,6.77327 z m 6.38129,39.41477 c 7.52815,-6.33451 7.54051,-23.46132 0.0207,-28.72837 -2.36431,-1.65603 -2.81311,-1.64581 -5.84112,0.13293 -4.94943,2.90744 -7.43167,8.4946 -7.43167,16.72759 0,13.18156 5.66333,18.25335 13.25206,11.86785 z m -8.64701,-63.6418 c -0.11008,-3.5639 -0.4818,-7.38483 -0.82594,-8.49096 -0.90679,-2.91475 -2.98155,-1.72827 -3.47946,1.98979 -0.23512,1.7557 -0.84331,3.98287 -1.35152,4.9493 -0.51696,0.98303 -0.37768,4.08661 0.31615,7.04483 1.22522,5.22381 1.26618,5.26172 3.39062,3.13728 1.69074,-1.69075 2.10761,-3.53555 1.95015,-8.63024 z m -2.65368,140.4201 c -0.71103,-1.2396 2.77335,-7.34556 4.52496,-7.92943 1.07449,-0.35816 1.07979,0.22041 0.0248,2.70863 -1.68664,3.97807 -3.84319,6.45267 -4.54979,5.2208 z m 6.96206,-58.32273 c 0,-0.6128 1.00276,-1.11418 2.22835,-1.11418 1.2256,0 2.22836,0.50138 2.22836,1.11418 0,0.61279 -1.00276,1.11417 -2.22836,1.11417 -1.22559,0 -2.22835,-0.50138 -2.22835,-1.11417 z m -2.38573,-6.09254 c -1.67233,-1.68898 0.62207,-4.81799 4.37817,-5.97077 4.19891,-1.28868 5.75081,-0.48248 5.78975,3.00775 0.0133,1.18684 -0.33322,1.23846 -1.54764,0.23058 -1.97953,-1.64287 -7.11332,-0.42953 -7.56587,1.78815 -0.18697,0.91621 -0.66146,1.34115 -1.05441,0.94429 z m -28.46656,-16.62905 c -3.4335,-2.8891 -5.9156,-9.1288 -5.9156,-14.87112 0,-4.93007 3.0214,-12.64528 6.28689,-16.05372 2.71902,-2.83805 2.86948,-3.65036 3.09855,-16.72847 0.19671,-11.23081 -0.14727,-14.76468 -1.88023,-19.31595 -1.89202,-4.96906 -1.97912,-6.41239 -0.80688,-13.37014 0.72276,-4.28988 1.70151,-11.26847 2.175,-15.50799 0.76906,-6.88593 1.26285,-8.05213 4.62867,-10.93181 2.07227,-1.77296 5.36372,-3.9375 7.31433,-4.8101 1.95061,-0.87258 4.24112,-2.57812 5.09001,-3.79008 2.07865,-2.96769 7.4862,-7.14642 8.25415,-6.37848 0.87796,0.87797 -9.78744,11.32227 -13.6576,13.37449 -1.77822,0.94293 -4.67781,3.08207 -6.44355,4.75365 -3.0839,2.91947 -3.18533,3.33861 -2.57359,10.63539 0.44887,5.35414 0.26479,7.52051 -0.62368,7.33984 -2.38924,-0.48584 -3.29155,11.29311 -1.31981,17.22943 1.07742,3.24381 2.25869,5.07903 2.98163,4.63223 0.80087,-0.49496 0.93575,0.14773 0.40739,1.94118 -1.89732,6.44014 -2.00239,20.65214 -0.21598,29.21084 0.99908,4.78658 1.48917,9.23249 1.08909,9.87983 -0.72127,1.16707 1.16597,11.56343 2.91844,16.07689 0.54407,1.40128 2.29865,2.62577 4.35046,3.03614 1.89125,0.37825 3.43863,1.20164 3.43863,1.82976 0,1.93272 -5.11469,1.26449 -8.06113,-1.05318 -3.22113,-2.53374 -4.46977,-8.9487 -5.19768,-26.70333 l -0.1113,-2.71536 -3.18278,3.04929 c -5.48122,5.25134 -7.21499,15.05604 -4.01616,22.71191 1.95139,4.67035 3.32272,5.81142 7.01324,5.83564 1.57935,0.01 2.41774,0.5637 2.13603,1.40978 -0.81202,2.43878 -3.77863,2.14258 -7.17652,-0.71656 z m 95.74307,-7.63977 c -1.2916,-1.3788 -2.88314,-3.91834 -3.53676,-5.64343 -2.45436,-6.47777 -0.87677,-18.20438 3.11167,-23.1299 1.91475,-2.3646 1.92066,-2.6915 0.11762,-6.49568 -1.04422,-2.20319 -2.2441,-6.0113 -2.66638,-8.4625 -0.75551,-4.38535 -4.32382,-17.08221 -6.50732,-23.15447 -0.61294,-1.70459 -2.55118,-4.90717 -4.30719,-7.11682 -2.10141,-2.64426 -3.19275,-5.31333 -3.19275,-7.80836 0,-2.08495 -0.98925,-5.72988 -2.19831,-8.09985 -1.20907,-2.36998 -2.13229,-6.06518 -2.05161,-8.21156 0.2415,-6.4239 -2.19254,-10.6152 -7.88751,-13.5819 -3.82656,-1.99338 -4.50786,-2.6868 -2.67786,-2.72549 6.98243,-0.14758 12.58693,6.90383 12.58693,15.83649 0,2.65944 0.47846,5.31382 1.06325,5.89861 0.58477,0.58477 1.79647,4.20631 2.69263,8.04783 1.0673,4.57507 2.79718,8.31462 5.01449,10.84 1.86179,2.12046 3.96873,5.99456 4.68211,8.60912 0.71336,2.61455 1.94429,7.00994 2.73539,9.76753 0.79109,2.75759 1.72164,7.37376 2.06786,10.25814 0.34623,2.88439 1.51948,6.89543 2.60721,8.91343 1.59614,2.96117 2.55825,3.60209 4.98661,3.32185 6.86476,-0.79221 10.91833,5.12784 10.91833,15.94574 0,14.82308 -10.27509,24.76626 -17.55841,16.99122 z m 11.28858,-3.09859 c 5.03795,-5.98727 6.40188,-14.63256 3.46607,-21.96985 -2.45794,-6.143 -5.33097,-7.61764 -9.8078,-5.03403 -5.44905,3.14467 -7.63114,8.37471 -7.19086,17.23515 0.29975,6.03213 0.8835,8.01197 3.03878,10.30615 3.54786,3.77653 7.01318,3.59906 10.49381,-0.53742 z m -21.24568,-8.13965 c -1.34557,-0.66857 -3.27246,-3.37834 -4.28198,-6.0217 -1.56201,-4.09008 -1.63437,-5.6444 -0.48569,-10.43267 1.83023,-7.62923 0.80625,-12.56295 -3.76529,-18.14192 -3.95825,-4.83052 -7.97439,-12.93838 -6.4089,-12.93838 0.48503,0 1.83824,1.83532 3.00714,4.07849 1.16889,2.24317 3.30384,5.37679 4.74433,6.96362 5.22081,5.75118 6.06734,8.7219 5.27345,18.50614 -0.81861,10.08899 0.34468,14.90498 3.81977,15.81374 1.21822,0.31856 2.21494,1.27281 2.21494,2.12053 0,1.75578 -0.67185,1.76429 -4.11777,0.0521 z m -75.32658,-3.40556 c -0.45592,-1.1601 -0.56646,-2.37177 -0.24563,-2.69259 1.0162,-1.01619 1.91032,0.64908 1.48452,2.76486 -0.39023,1.93904 -0.44983,1.93556 -1.23889,-0.0723 z m 5.99885,-1.62166 c -1.44546,-2.70087 -1.58849,-6.85375 -0.23605,-6.85375 0.97674,0 2.67623,7.86854 1.87298,8.67181 -0.23787,0.23786 -0.97449,-0.58026 -1.63693,-1.81806 z m 69.6383,-16.73182 c -0.47996,-0.77658 -0.57176,-1.71286 -0.204,-2.08062 0.99716,-0.99715 2.08437,0.4694 1.5458,2.08512 -0.37739,1.1322 -0.63984,1.13132 -1.3418,-0.004 z m -15.13383,-2.2052 c 0,-1.47787 4.38701,-5.0705 5.1995,-4.25801 0.40101,0.40102 -0.18114,1.73496 -1.2937,2.96431 -2.10213,2.32283 -3.9058,2.92024 -3.9058,1.2937 z m -25.57719,-13.17662 c -1.56838,-1.99387 -1.97161,-3.3459 -1.22155,-4.09595 0.75004,-0.75005 0.66864,-1.6663 -0.24659,-2.77576 -1.1116,-1.34747 -1.05474,-1.5521 0.30505,-1.09799 0.91919,0.30697 1.67126,1.5978 1.67126,2.8685 0,1.27071 1.21551,3.60798 2.70112,5.19396 2.11992,2.2631 2.31712,2.88357 0.9165,2.88357 -0.98154,0 -2.83815,-1.33935 -4.12579,-2.97633 z m -33.47427,-0.98906 c 0,-0.95536 0.50138,-1.42715 1.11418,-1.04842 0.6128,0.37874 1.11418,1.1604 1.11418,1.73703 0,0.57663 -0.50138,1.04842 -1.11418,1.04842 -0.6128,0 -1.11418,-0.78166 -1.11418,-1.73703 z m 44.56714,-3.27677 c 0,-0.9192 0.81346,-1.67127 1.80769,-1.67127 1.48052,0 1.55665,0.30249 0.42066,1.67127 -0.76286,0.91919 -1.57632,1.67127 -1.80768,1.67127 -0.23137,0 -0.42067,-0.75208 -0.42067,-1.67127 z m -24.3579,-5.69984 c -3.95269,-2.76856 -1.22082,-4.38669 3.03576,-1.7981 1.91801,1.16641 3.15484,2.45319 2.7485,2.85952 -1.19706,1.19705 -3.04361,0.85821 -5.78426,-1.06142 z m -28.21994,-6.55612 c -0.48373,-4.14342 0.54575,-5.09534 2.23876,-2.07011 1.10443,1.97351 0.48777,5.96973 -0.92118,5.96973 -0.47429,0 -1.0672,-1.75483 -1.31758,-3.89962 z m 33.90841,3.17223 c -2.19109,-0.90343 -0.44187,-2.61515 2.67245,-2.61515 1.75456,0 2.6381,0.52389 2.34882,1.39273 -0.51303,1.5408 -2.86214,2.11268 -5.02127,1.22242 z m 39.10812,-6.17884 c 0.43396,-3.37888 0.0901,-6.88515 -0.96975,-9.88915 -2.41097,-6.83342 -1.85263,-9.07717 0.81119,-3.25983 2.5619,5.59478 3.04468,15.05328 0.87213,17.08675 -1.09773,1.02746 -1.24611,0.20865 -0.71357,-3.93777 z m -50.93233,1.66731 c -1.47651,-1.47651 -0.57156,-2.12243 3.12021,-2.22708 2.10625,-0.0597 4.06179,0.5124 4.35395,1.27379 0.55657,1.45041 -6.12485,2.30259 -7.47416,0.95329 z m 16.40188,-0.35619 c -2.63744,-1.02924 -4.31612,-3.10868 -3.3165,-4.1083 0.35295,-0.35296 1.40265,-0.01 2.33266,0.7616 1.37252,1.1391 2.41772,1.05847 5.55049,-0.42812 2.12276,-1.00732 4.16114,-2.31945 4.52973,-2.91585 0.3686,-0.59639 1.64335,-1.08436 2.83278,-1.08436 1.41981,0 2.1626,-0.76537 2.1626,-2.22836 0,-1.22559 -0.50138,-2.22835 -1.11418,-2.22835 -2.02343,0 -1.15914,-1.82776 1.54987,-3.27757 1.95942,-1.04865 3.21186,-1.10741 4.73525,-0.22216 1.87168,1.08765 1.79392,1.20687 -0.80707,1.23749 -1.58307,0.0186 -3.18304,0.33862 -3.55551,0.71109 -1.12451,1.12451 1.82173,4.89368 3.82524,4.89368 3.09259,0 5.394,1.25603 5.394,2.94385 0,1.22798 -0.49201,1.32794 -2.15511,0.43788 -1.1853,-0.63435 -3.1963,-1.15337 -4.46886,-1.15337 -2.72057,0 -12.38037,4.3186 -13.98833,6.25375 -0.7232,0.87036 -1.95386,1.01322 -3.50706,0.4071 z m -15.82214,-5.4187 c -1.8239,-1.15585 -1.30603,-4.76398 0.78364,-5.45982 1.1132,-0.37067 1.30012,0.15745 0.71181,2.01105 -0.71238,2.24451 -0.487,2.45431 2.10436,1.95895 1.70341,-0.32563 3.42169,0.0712 4.15988,0.96062 1.01847,1.22719 0.54304,1.51216 -2.49983,1.49835 -2.06663,-0.009 -4.43357,-0.44551 -5.25986,-0.96915 z m 18.90608,-5.69887 c 4.48348,-5.57908 7.98447,-6.18727 3.76394,-0.65387 -2.50734,3.2873 -4.94298,5.11059 -6.82698,5.11059 -0.28515,0 1.09321,-2.00552 3.06304,-4.45672 z m -33.55932,0.62198 c 0,-1.97707 4.04633,-4.41573 4.93663,-2.97522 0.33832,0.54743 -0.63401,1.81379 -2.16075,2.81415 -2.38521,1.56285 -2.77588,1.58552 -2.77588,0.16107 z m 17.52841,-3.44759 c -2.28705,-1.55409 -4.15827,-3.58512 -4.15827,-4.51341 0,-1.27752 0.90582,-0.9969 3.72625,1.15434 4.12478,3.14612 9.74255,3.73701 11.81281,1.2425 0.73018,-0.87981 2.82716,-1.92901 4.65996,-2.33156 4.02422,-0.88387 5.87968,-4.76092 4.28533,-8.95437 -1.56906,-4.12695 -1.39209,-5.46765 0.51305,-3.88654 0.87981,0.73018 1.92688,2.81747 2.32683,4.63843 0.91495,4.16572 -1.54146,8.15609 -6.45526,10.48642 -1.97956,0.93879 -4.85265,2.43815 -6.38465,3.33192 -3.88046,2.26386 -5.55462,2.07454 -10.32605,-1.16773 z m -0.81562,-25.25691 c -7e-5,-0.43183 1.73934,-1.11147 3.86533,-1.5103 l 3.86545,-0.72516 -1.63709,-3.91811 c -2.26877,-5.42995 -2.04519,-6.69366 0.59127,-3.34194 1.2256,1.55809 2.22836,3.8159 2.22836,5.01735 0,2.9367 8.76875,4.4249 10.74539,1.82367 1.76469,-2.32232 0.57212,-6.03087 -1.93936,-6.03087 -4.25664,0 -11.13343,-3.64471 -12.74054,-6.75252 -1.97262,-3.81464 -3.86603,-5.19199 -3.09755,-2.25327 0.30766,1.17648 0.0255,3.05735 -0.62712,4.1797 -0.96435,1.65859 -1.19284,1.07535 -1.22037,-3.11527 -0.0209,-3.18865 -0.67157,-5.68517 -1.70515,-6.54296 -1.16508,-0.96694 -1.67127,-3.53385 -1.67127,-8.47519 0,-6.22919 0.38726,-7.52156 3.1956,-10.66465 2.84953,-3.18917 3.97433,-3.62608 10.38635,-4.03437 9.87969,-0.62909 12.58962,1.70705 14.604,12.58952 0.79402,4.28958 1.10095,9.55407 0.68206,11.69887 -0.4189,2.14479 -1.09172,5.7798 -1.49516,8.07779 l -0.73354,4.17817 3.95012,0 c 2.19368,0 3.9501,0.55985 3.9501,1.25908 0,0.83499 -1.70531,1.06687 -5.06287,0.68841 -3.49364,-0.39377 -4.92633,-0.17968 -4.62231,0.69074 0.26104,0.74739 2.32409,1.11725 5.06287,0.90767 5.87291,-0.44944 6.06924,1.50882 0.24466,2.4402 -2.40772,0.38502 -5.24115,1.56351 -6.29652,2.61888 -1.50336,1.50337 -3.93304,1.92545 -11.22074,1.94929 -5.11602,0.0167 -9.30191,-0.32289 -9.30197,-0.75473 z m 20.32529,-12.30644 c 0.99565,-0.766 2.33285,-4.30246 2.97157,-7.85879 1.45491,-8.10084 -0.76845,-19.23228 -4.43897,-22.22403 -5.28836,-4.3104 -16.75323,-1.25023 -19.44411,5.18997 -1.58307,3.78882 -1.25509,7.34454 0.67746,7.34454 0.53191,0 0.68766,1.39731 0.34609,3.10514 -0.49571,2.4786 -0.0885,3.39013 2.01824,4.51762 1.45159,0.77687 3.12239,2.51097 3.71287,3.85354 0.59049,1.34259 3.32982,3.5418 6.08741,4.88714 6.04439,2.94885 5.81952,2.91583 8.06944,1.18487 z"
       id="path3025"
       inkscape:connector-curvature="0" />
    <g
       id="g5449"
       transform="matrix(0,1.0103266,-0.73383327,0,1119.2752,-165.07646)"
       style="fill:#ffffff;fill-opacity:1"
       inkscape:export-filename="/home/christian/Arbeitsfläche/Dropbox/Website/opentraining/cc_exercises/Bench-dips-2.png"
       inkscape:export-xdpi="214.51434"
       inkscape:export-ydpi="214.51434">
      <rect
         inkscape:export-ydpi="150"
         inkscape:export-xdpi="150"
         inkscape:export-filename="/home/christian/Dokumente/Code/workspace/OpenTraining/res/drawable/background.png"
         y="185.22804"
         x="352.24948"
         height="255.71428"
         width="290"
         id="rect2987"
         style="fill:#ffffff;fill-opacity:1;stroke:none;filter:url(#filter5283)" />
      <path
         transform="matrix(1.6074318,0,0,0.77372547,-152.97598,82.347784)"
         d="m 467.14287,292.00504 c 0,36.49024 -29.58119,66.07142 -66.07143,66.07142 -36.49024,0 -66.07142,-29.58118 -66.07142,-66.07142 0,-36.49025 29.58118,-66.07143 66.07142,-66.07143 36.49024,0 66.07143,29.58118 66.07143,66.07143 z"
         sodipodi:ry="66.071426"
         sodipodi:rx="66.071426"
         sodipodi:cy="292.00504"
         sodipodi:cx="401.07144"
         id="path5317"
         style="fill:#ffffff;fill-opacity:1;stroke:none;filter:url(#filter5427)"
         sodipodi:type="arc" />
    </g>
    <path
       style="fill:#000000"
       d="m 876.22625,476.31436 c -0.69519,-0.37923 -2.06215,-1.3922 -3.03769,-2.25109 -1.5638,-1.37678 -1.84653,-1.8022 -2.38879,-3.59437 -0.33827,-1.11804 -0.75697,-3.17255 -0.93042,-4.56563 -0.2528,-2.03023 -0.62048,-3.17838 -1.85304,-5.78611 -1.4479,-3.06338 -1.52453,-3.34393 -1.31269,-4.80572 0.12376,-0.85382 0.1861,-1.95677 0.13855,-2.45101 -0.0475,-0.49423 -0.0544,-1.63992 -0.0152,-2.54601 0.0392,-0.90608 0.0825,-3.39969 0.0963,-5.54135 0.0247,-3.82785 -0.004,-4.00569 -1.71886,-10.48361 -2.06917,-7.81855 -2.15704,-9.26967 -0.92507,-15.27612 0.65891,-3.21246 1.11931,-4.56531 2.63077,-7.73025 1.71195,-3.58477 1.85066,-4.03656 2.11513,-6.88925 0.15566,-1.67909 0.22663,-4.07778 0.15772,-5.33046 -0.11308,-2.05529 -0.24431,-2.4597 -1.34456,-4.14358 -0.67059,-1.02631 -1.60386,-2.72726 -2.07391,-3.77989 -0.47006,-1.05264 -1.02984,-1.9175 -1.24395,-1.92194 -0.81852,-0.0169 -2.16573,-0.95378 -2.61169,-1.8162 -0.25583,-0.49469 -0.67241,-2.01692 -0.92575,-3.38273 -0.25336,-1.36581 -0.55491,-2.63584 -0.67016,-2.82227 -0.14771,-0.23902 -5.98744,0.89945 -19.80245,3.8605 -18.62044,3.99102 -19.65909,4.18093 -20.92552,3.82637 -0.74767,-0.20933 -1.82895,-0.84529 -2.46347,-1.4489 -1.44163,-1.37141 -1.73017,-2.71354 -1.04895,-4.8793 0.90596,-2.88028 0.49953,-2.6877 10.49722,-4.97401 l 8.98596,-2.05495 0.0783,-11.96246 0.0783,-11.96244 -4.46561,-3.69885 c -2.45607,-2.03435 -4.6142,-4.025 -4.79585,-4.42363 -0.53705,-1.17873 -0.40498,-4.16913 0.23968,-5.42618 1.26025,-2.45744 0.56111,-2.28064 14.99589,-3.79227 7.157,-0.7495 13.45679,-1.36272 13.99958,-1.36272 1.37168,0 1.31508,-0.89742 -0.13638,-2.16293 -2.85445,-2.48873 -7.39455,-7.70801 -9.31093,-10.70379 -1.36363,-2.1317 -2.33162,-5.03011 -2.77782,-8.31738 -0.37666,-2.77499 -0.31123,-2.63985 -3.5007,-7.23081 -0.84287,-1.21323 -1.96261,-3.30246 -2.48832,-4.64274 -0.84938,-2.16545 -0.97152,-2.86089 -1.09655,-6.24402 -0.10051,-2.71882 2.9e-4,-4.6503 0.35249,-6.7566 0.45499,-2.72103 0.45564,-3.03931 0.008,-4.10958 -0.87477,-2.09365 -1.00213,-3.92587 -0.42801,-6.15785 0.52077,-2.0246 0.5191,-2.06359 -0.23952,-5.58043 -1.1372,-5.27196 -1.0038,-11.61931 0.36243,-17.244 l 0.41806,-1.72118 -0.79644,0.21906 c -4.13081,1.13619 -8.70924,-1.68547 -11.29468,-6.9608 -1.63788,-3.34191 -2.05882,-5.41168 -2.07121,-10.18409 -0.0119,-4.58937 0.27416,-5.89419 2.02258,-9.22588 1.7814,-3.39455 4.05016,-5.02362 7.30211,-5.24326 1.5153,-0.1023 2.1462,0.0121 3.51062,0.63672 1.95178,0.89358 3.99502,2.89066 5.3768,5.25542 0.54242,0.92828 1.14588,1.6743 1.34105,1.65782 0.19515,-0.0165 1.06249,-0.0505 1.92738,-0.0758 l 1.57254,-0.0459 0.69094,-3.21903 c 1.60493,-7.47734 4.7995,-11.21924 9.61378,-11.26095 1.62983,-0.0141 2.25254,0.13357 3.5538,0.84286 0.86772,0.47298 1.72313,1.03516 1.90084,1.24931 0.25243,0.30415 0.57397,0.0721 1.46905,-1.0603 2.3514,-2.97473 6.4663,-3.92008 9.81018,-2.25375 2.04835,1.02074 4.41536,3.65844 5.69238,6.34336 l 1.03287,2.17161 1.25987,0 1.25987,0 0.53675,-2.32138 c 2.28998,-9.90404 9.81491,-13.26943 15.79429,-7.06369 3.34539,3.47204 4.74479,7.17389 4.96321,13.12921 0.22916,6.24826 -0.93332,9.84034 -4.28229,13.23246 l -1.82672,1.85025 1.01217,2.49297 c 1.35286,3.33206 2.58283,7.54083 3.24999,11.12099 0.529,2.83861 0.52915,3.02416 0.004,5.54135 -0.82083,3.9396 -1.07635,7.76858 -0.58166,8.71658 0.54207,1.03883 0.52382,3.65604 -0.0307,4.38907 -0.61014,0.80667 -0.59059,4.75151 0.0386,7.78744 0.46464,2.24207 0.46558,2.66758 0.0131,5.99063 -0.67137,4.93024 -1.05861,6.02639 -3.64462,10.31668 -1.24123,2.05924 -2.53857,4.58974 -2.88298,5.62335 -0.59314,1.78002 -0.60502,2.04105 -0.22497,4.94227 0.57226,4.36872 0.4346,16.6473 -0.21475,19.15323 -0.2644,1.02031 -0.67515,2.23112 -0.91279,2.69066 -0.29068,0.56211 -0.48684,2.28186 -0.59942,5.25509 -0.26212,6.92223 -0.25732,7.01091 0.45228,8.35619 0.47342,0.89754 0.64632,1.72633 0.62491,2.99533 -0.0163,0.96495 0.0586,2.39555 0.1666,3.17914 0.20181,1.46546 0.25981,1.51521 2.08252,1.7861 0.45122,0.067 0.62146,0.35648 0.68982,1.17266 l 0.0907,1.0836 2.00596,0.19082 c 4.94127,0.46998 9.37063,0.77347 11.44124,0.78389 3.45163,0.0173 5.63559,1.29416 6.13969,3.58931 0.1437,0.65427 0.59752,1.09694 1.84805,1.8027 1.53637,0.86708 5.61438,3.99721 9.78187,7.50823 1.3848,1.16667 2.28065,1.63255 4.34322,2.2587 4.68072,1.42094 6.25464,2.4886 7.41515,5.03002 1.32851,2.9093 1.61341,4.72355 1.62248,10.33152 0.004,2.89947 0.19181,9.78719 0.41584,15.30606 0.3517,8.66454 0.34794,10.70899 -0.0275,14.9766 -0.66102,7.51209 -0.62567,7.71766 1.94095,11.28775 2.01777,2.80668 3.32508,4.17285 6.88052,7.19025 2.22872,1.89143 3.21104,2.37097 6.91678,3.37644 5.10697,1.38563 6.03971,2.04976 6.03971,4.30014 0,2.04658 -1.42819,3.59884 -4.25789,4.62762 -1.67559,0.60923 -8.49659,0.83943 -12.03769,0.40628 -2.2941,-0.28064 -2.9221,-0.48998 -4.49296,-1.49774 l -1.8261,-1.17151 -5.23404,-0.20864 c -3.48242,-0.13881 -5.50035,-0.34634 -6.02983,-0.62015 -1.02014,-0.52753 -2.31072,-2.0601 -2.55524,-3.03433 -0.33989,-1.35424 0.18167,-5.84932 1.12309,-9.67952 0.73625,-2.99533 0.95062,-4.61279 1.0719,-8.08737 0.13652,-3.91062 0.0888,-4.5097 -0.47977,-6.01486 -0.34723,-0.91941 -1.18501,-2.40209 -1.8617,-3.29485 -1.49778,-1.976 -2.4538,-4.03057 -2.98557,-6.41618 -0.57434,-2.57661 -0.51978,-10.22121 0.0919,-12.8794 0.26536,-1.15319 0.56562,-2.77067 0.66723,-3.59437 l 0.18475,-1.49767 -2.62977,-1.68891 c -1.44636,-0.92891 -2.96673,-1.89976 -3.37858,-2.15743 l -0.74882,-0.46851 0.10114,2.92268 c 0.0753,2.1772 -0.002,3.00563 -0.29954,3.24783 -0.22036,0.17883 -5.65743,1.56242 -12.08239,3.07464 -6.42495,1.51224 -11.91763,2.81659 -12.20592,2.89859 -0.48957,0.13923 -0.52419,1.06881 -0.52419,14.07731 0,13.12681 0.0303,13.91894 0.52419,13.76672 2.51943,-0.77627 14.89994,-3.4876 16.61395,-3.63844 1.97959,-0.17422 2.27878,-0.12586 3.23002,0.52197 1.5227,1.03698 1.94317,2.09404 1.94317,4.88504 0,4.30241 1.72852,3.47984 -17.96173,8.54762 -19.39313,4.99132 -17.44537,4.10233 -17.49914,7.98676 -0.0164,1.18628 -0.17056,2.813 -0.34255,3.61492 -0.27675,1.29041 -0.22123,1.71398 0.48288,3.68401 1.85303,5.18468 6.13307,12.17801 9.85384,16.10058 1.35624,1.42981 2.62102,2.89407 2.81063,3.25389 1.10985,2.10624 -0.74145,6.06123 -3.06708,6.55227 -0.51227,0.10818 -1.22524,0.46636 -1.58439,0.79595 -0.84626,0.77659 -4.00061,1.45287 -7.58411,1.62594 -2.55385,0.12336 -2.97514,0.0668 -4.10954,-0.55203 z m 5.6168,-1.61557 c 0.9008,-0.26217 2.31176,-0.49804 3.13548,-0.52416 l 1.49766,-0.0474 -0.10188,-1.42278 c -0.0974,-1.36057 -0.0676,-1.42278 0.68137,-1.42278 0.56528,0 0.86457,0.21393 1.07557,0.76895 0.23438,0.61646 0.42592,0.72924 0.96607,0.56883 0.88317,-0.26235 1.37224,-0.91488 1.60144,-2.13667 0.31521,-1.68012 -0.1216,-2.5166 -2.45128,-4.69416 -1.22823,-1.14801 -2.72956,-2.90901 -3.3363,-3.91334 -0.60675,-1.00432 -1.85971,-2.98258 -2.78438,-4.39611 -1.88575,-2.88273 -3.93459,-7.32813 -4.6318,-10.04964 -0.41559,-1.62214 -0.41655,-2.05103 -0.009,-4.17901 0.24957,-1.30424 0.4585,-3.38225 0.46428,-4.61782 0.0146,-3.11887 0.64133,-6.31319 1.79255,-9.13572 0.88353,-2.16625 0.99058,-2.76429 1.11533,-6.23053 0.0758,-2.10887 0.0444,-4.33268 -0.0698,-4.94181 l -0.20776,-1.1075 -0.42432,0.80984 c -0.40253,0.76825 -1.27951,4.21928 -2.35219,9.25626 -0.5663,2.65915 -0.98744,3.38699 -1.78312,3.08165 -0.48673,-0.18677 -0.53355,-0.44495 -0.37962,-2.09343 0.37242,-3.98806 1.66759,-8.84797 3.18572,-11.95388 0.80525,-1.64743 1.60976,-3.71311 1.78778,-4.59041 0.17803,-0.87731 0.99643,-2.84303 1.81865,-4.36828 2.59931,-4.82166 3.37818,-7.72906 2.96537,-11.06908 -0.416,-3.36575 -0.51913,-3.63393 -2.08553,-5.42396 -1.34107,-1.53252 -1.9024,-2.85402 -1.21228,-2.85402 0.40471,0 3.55425,3.49346 3.77413,4.18625 0.39052,1.23043 0.75104,0.54893 0.74884,-1.41559 -0.004,-3.28387 -0.52041,-6.83744 -1.39736,-9.60995 -0.72265,-2.28468 -1.01421,-2.78279 -2.43154,-4.15389 -0.88573,-0.85687 -2.22692,-1.85637 -2.98042,-2.22114 -1.30331,-0.63092 -1.51269,-0.64646 -4.30155,-0.31924 -4.7381,0.5559 -7.82602,2.03413 -8.98185,4.29974 -0.58033,1.13753 -0.61803,1.53131 -0.42199,4.40752 0.29788,4.37038 0.78011,5.94552 3.00815,9.82589 l 1.93317,3.36678 -0.009,3.52974 c -0.005,1.94138 -0.13502,4.49771 -0.28875,5.68073 -0.27583,2.12297 -0.58323,2.99411 -2.95427,8.37194 -1.40487,3.18642 -2.03807,5.4592 -2.46126,8.83416 -0.35588,2.83815 -0.22748,3.64859 1.6789,10.59612 2.21,8.05402 2.81017,13.3829 1.78393,15.83906 -0.37174,0.88967 -0.3912,1.33283 -0.10792,2.4578 0.26675,1.05939 0.26012,1.72872 -0.0291,2.93446 -0.37457,1.56141 -0.37416,1.56316 0.99547,4.29026 0.81495,1.62266 1.48742,3.4561 1.65947,4.52444 0.1591,0.98791 0.5554,2.71906 0.88067,3.84701 0.32526,1.12792 0.67531,2.54233 0.77789,3.14302 0.3326,1.94796 4.035,4.7255 6.32099,4.74207 0.49951,0.003 1.64522,-0.20794 2.54601,-0.47019 z m -3.42266,-2.08047 c -1.06723,-1.06721 -0.10757,-2.04112 1.8507,-1.8782 1.33293,0.11092 1.63941,0.88818 0.60718,1.53979 -1.18999,0.75121 -1.94158,0.85473 -2.45788,0.33841 z m 5.54195,-2.85491 c -0.86677,-1.17232 -0.64142,-1.91928 0.49311,-1.63453 1.18258,0.29679 1.57144,0.71544 1.57144,1.69178 0,1.2174 -1.14567,1.18566 -2.06455,-0.0572 z m -12.5526,-16.81311 c -0.82643,-0.82643 -0.0749,-2.73612 1.57073,-3.99128 2.1999,-1.67795 3.53184,-0.12268 1.37758,1.60855 -0.66608,0.53526 -1.21104,1.1594 -1.21104,1.38699 0,0.43534 -0.78711,1.35518 -1.15961,1.35518 -0.12003,0 -0.37998,-0.16175 -0.57766,-0.35944 z m -0.96991,-35.30617 c -0.18261,-0.34121 -0.41037,-2.10557 -0.50613,-3.92081 l -0.17411,-3.30044 0.72023,0.10178 c 0.70076,0.0991 0.71791,0.16672 0.63398,2.503 -0.0575,1.596 0.0683,2.83908 0.37442,3.70692 0.57036,1.61659 0.5776,1.52992 -0.12786,1.52992 -0.32368,0 -0.73792,-0.27916 -0.92053,-0.62038 z m 7.63906,-11.63872 c -0.92584,-0.38619 -1.40992,-1.11883 -1.19228,-1.80451 0.25819,-0.8135 0.5663,-0.77387 1.05291,0.13538 0.43325,0.80953 1.22927,0.94993 2.54644,0.44914 0.74236,-0.28225 0.78272,-0.25173 0.69344,0.52419 -0.0843,0.73296 -0.22698,0.83082 -1.29291,0.88694 -0.65898,0.0348 -1.4724,-0.0514 -1.8076,-0.19114 z m -4.03327,-12.71553 c 0,-1.03456 5.23829,-5.87042 6.36504,-5.87604 0.12356,-5.7e-4 0.22465,0.22665 0.22465,0.50503 0,0.5961 -5.57056,6.08357 -6.1757,6.08357 -0.23629,0 -0.41399,-0.30587 -0.41399,-0.71256 z m 83.26984,49.79989 c 1.8648,-0.41941 3.89391,-1.64802 3.89391,-2.35776 0,-0.31415 -0.43803,-0.90131 -0.97346,-1.30478 -0.9279,-0.6992 -5.38076,-2.28489 -6.45539,-2.2988 -1.38689,-0.018 -3.29934,-1.35291 -5.9058,-4.12255 -3.45023,-3.66624 -6.32428,-6.99305 -7.62035,-8.82081 l -1.00548,-1.41798 0.26461,-5.17173 c 0.32999,-6.4498 0.33506,-14.77374 0.0172,-28.08591 -0.20563,-8.61071 -0.34623,-10.77242 -0.84314,-12.96401 -0.80619,-3.55579 -1.28318,-4.06594 -5.10794,-5.46306 -3.99214,-1.45826 -5.57376,-2.26791 -7.32793,-3.75121 -1.35952,-1.1496 -2.45433,-2.02776 -5.92833,-4.75522 -0.82372,-0.64669 -3.23626,-2.07475 -5.36119,-3.17344 -3.59745,-1.86007 -3.95844,-1.98436 -5.24181,-1.80475 -2.83007,0.39606 -4.29621,1.08395 -6.03221,2.83019 -1.47094,1.47962 -1.79384,2.04011 -2.77641,4.81943 -0.61154,1.72979 -1.11062,3.29421 -1.1091,3.47648 0.002,0.19123 0.87945,0.41288 2.07547,0.52404 2.72047,0.25284 4.33054,0.79364 4.46661,1.50028 0.10136,0.52643 -0.0706,0.54672 -2.99122,0.35301 -1.70433,-0.11303 -3.32653,-0.26978 -3.60489,-0.34833 -0.37908,-0.10696 -0.58541,0.14274 -0.82204,0.99489 -0.78941,2.84268 -0.1687,4.3886 2.57624,6.41641 1.97475,1.45883 2.56215,1.5214 7.91051,0.84259 1.57764,-0.20024 3.47996,-0.27236 4.22738,-0.16028 1.7388,0.26076 4.98227,1.82682 7.28172,3.51589 0.98845,0.72608 2.8081,1.91143 4.04367,2.63412 3.38131,1.97777 4.79251,2.99828 4.79251,3.46571 0,0.36016 -0.18017,0.35806 -1.23579,-0.0144 -0.67966,-0.23982 -1.39765,-0.43602 -1.59551,-0.43602 -0.62426,0 -1.78021,7.46722 -1.76199,11.38221 0.0246,5.2742 0.90699,8.25406 3.41965,11.54708 2.11032,2.76575 2.22279,3.23636 2.21551,9.27038 -0.006,4.94833 -0.0768,5.66245 -0.8615,8.68643 -1.09862,4.23374 -1.43837,8.58017 -0.75794,9.69579 0.97248,1.59446 1.22648,1.66616 5.93954,1.67664 l 4.39487,0.009 2.535,1.24594 c 3.02252,1.48559 3.64842,1.63364 7.92657,1.87511 3.67236,0.20727 5.34873,0.13615 7.33854,-0.31137 z m -1.17373,-2.18122 c -0.19169,-0.23095 -0.67993,-0.5031 -1.08503,-0.60477 -0.73623,-0.18478 -0.96044,-0.59879 -0.48381,-0.89337 0.7703,-0.47604 3.04211,0.8298 3.04211,1.74858 0,0.34742 -1.13759,0.15402 -1.47327,-0.25044 z m -23.3111,-6.17122 c -0.93964,-0.38786 -1.87152,-2.04175 -1.87285,-3.324 -0.002,-1.75158 1.93408,-4.14466 2.71839,-3.36035 0.25331,0.2533 0.17921,0.76885 -0.29128,2.02634 -0.34708,0.92763 -0.63103,1.82379 -0.63103,1.99149 0,0.16769 0.6806,0.58774 1.51244,0.93343 1.21226,0.5038 1.49465,0.75318 1.42278,1.25642 -0.0694,0.48575 -0.32697,0.64215 -1.13804,0.69096 -0.57659,0.0348 -1.35078,-0.0618 -1.72041,-0.21429 z m -1.43165,-24.87099 c -0.10564,-0.17095 0.30847,-0.8649 0.92029,-1.5421 l 1.11236,-1.23128 -0.18495,-2.27692 c -0.22619,-2.7844 0.10335,-3.55144 1.04322,-2.42853 0.56476,0.67473 0.6051,0.97825 0.41689,3.13598 -0.19907,2.28209 -0.75342,3.94998 -1.47055,4.42442 -0.49187,0.32542 -1.61658,0.27548 -1.83726,-0.0816 z m -5.08506,-27.82384 c -1.33263,-0.32158 -2.11514,-0.80673 -3.88177,-2.40658 -1.35075,-1.22327 -1.83871,-1.47455 -3.19925,-1.64747 -2.31313,-0.29403 -2.65378,-0.43259 -2.65378,-1.07952 0,-0.48584 0.21528,-0.57887 1.33938,-0.57887 1.69098,0 4.16227,1.07928 6.50692,2.84179 0.98895,0.74341 2.02062,1.37122 2.29258,1.39514 0.27199,0.0238 1.16507,0.0577 1.98464,0.0749 1.16332,0.0245 1.51298,0.14617 1.59433,0.5547 0.18608,0.93437 -1.83658,1.36395 -3.98305,0.84594 z m 5.25773,-0.90401 c -0.84905,-0.84907 -1.35164,-1.93981 -2.24598,-4.87429 -0.81555,-2.67599 -0.78407,-3.24192 0.227,-4.08105 0.70533,-0.58535 1.03175,0.19906 1.0401,2.49948 0.009,2.52495 0.67931,4.37734 1.94076,5.36456 0.60036,0.46987 0.84569,0.87429 0.72353,1.19268 -0.24975,0.65083 -0.97695,0.60708 -1.68541,-0.10136 z M 896.0087,431.5929 c 8.59548,-2.22447 15.92462,-4.17293 16.28698,-4.32991 1.45341,-0.62968 1.48074,-4.95935 0.0362,-5.73244 -1.04988,-0.56189 -2.7072,-0.33483 -11.91488,1.63236 -5.01773,1.07204 -9.22991,1.88317 -9.36037,1.80255 -0.13046,-0.0807 -0.2372,-6.67594 -0.2372,-14.65623 0,-9.99658 -0.0985,-14.50961 -0.31665,-14.50961 -0.17418,0 -0.91552,0.15079 -1.64744,0.33509 l -1.33077,0.33509 -0.007,1.98629 c -0.0109,2.96528 -0.40933,4.26011 -2.77697,9.02527 l -2.15799,4.34321 0.10324,7.34966 0.10325,7.34967 -0.78975,1.93582 c -1.20932,2.9643 -2.26038,7.17764 -1.79051,7.17764 0.0946,0 7.20482,-1.82002 15.80029,-4.04446 z m -0.61123,-38.92843 c 11.20666,-2.63892 20.6555,-4.92461 20.73826,-5.01659 0.0422,-0.0469 0.007,-1.37532 -0.0774,-2.95189 l -0.15424,-2.86651 -8.05681,-0.37651 c -4.43125,-0.20707 -8.4571,-0.4913 -8.94634,-0.63161 -1.16969,-0.33546 -6.19037,-4.72243 -8.16123,-7.13109 -0.76462,-0.93445 -0.89082,-0.98053 -2.16333,-0.78969 -1.48287,0.22236 -1.55296,0.37921 -0.94691,2.1188 0.6043,1.73459 1.16143,16.11266 0.70945,18.3091 -0.11018,0.53541 -0.1317,0.97349 -0.0479,0.97349 0.0838,0 3.28176,-0.73689 7.1064,-1.6375 z M 840.716,383.1189 c 10.25153,-2.1889 18.7241,-4.06474 18.82788,-4.16855 0.10377,-0.10377 -0.17978,-1.34607 -0.63019,-2.76057 -0.64724,-2.03265 -0.92089,-2.54095 -1.30528,-2.42439 -0.26749,0.0812 -2.97995,0.69605 -6.02768,1.36654 -3.04774,0.67048 -5.76302,1.28631 -6.03396,1.36852 -0.27094,0.0822 -0.70901,-0.067 -0.97348,-0.33139 -0.41886,-0.41885 -0.48086,-1.57647 -0.48086,-8.97778 l 0,-8.49691 -3.21996,-2.72684 -3.21998,-2.72686 -0.0783,11.82212 -0.0783,11.82213 -0.97006,0.31096 c -0.53354,0.17104 -4.3398,1.06411 -8.45837,1.98463 -10.6932,2.38996 -9.64024,2.00137 -10.1593,3.74927 -0.70381,2.36996 -0.12266,3.35321 2.52125,4.26569 0.24711,0.0853 0.71887,0.0984 1.04836,0.0292 0.32947,-0.0692 8.98668,-1.91682 19.23822,-4.10572 z m 23.52567,-0.13085 c -0.14563,-3.16085 -0.0987,-3.64952 0.45281,-4.71764 2.07344,-4.01541 8.15461,-6.71663 13.15901,-5.84515 3.33605,0.58094 5.85601,2.15342 7.55041,4.71148 1.05635,1.5948 1.19765,1.1116 0.32345,-1.10621 -0.32947,-0.83592 -0.59906,-2.12474 -0.59906,-2.86407 0,-1.53527 0.13911,-1.63101 3.26237,-2.24548 l 1.84822,-0.36362 3.51023,3.59158 c 1.93062,1.97535 3.98198,3.90969 4.55858,4.29853 l 1.04836,0.70697 -0.94176,-1.08698 c -0.51799,-0.59782 -1.10901,-1.59368 -1.3134,-2.213 -0.78474,-2.37778 0.39527,-8.64271 2.43145,-12.90916 1.49628,-3.13515 2.9446,-4.69396 5.56427,-5.98872 2.18641,-1.08064 2.47238,-1.14445 5.12858,-1.14445 2.7411,0 2.78001,-0.009 1.52076,-0.37493 -0.71077,-0.2062 -3.95635,-0.57554 -7.2124,-0.82072 -10.22756,-0.77018 -10.55201,-0.85274 -9.92106,-2.52431 0.41272,-1.09344 -0.0308,-1.24289 -1.27299,-0.42896 -1.00456,0.6582 -1.42333,0.20873 -1.27312,-1.36646 0.0642,-0.67326 0.0383,-1.2241 -0.0577,-1.2241 -0.0959,0 -0.63143,0.33721 -1.19005,0.74935 -2.77208,2.04518 -7.48761,2.96279 -15.31934,2.98107 l -5.88476,0.0138 0.15696,0.96728 c 0.19443,1.19813 -0.98252,3.74593 -2.32473,5.03248 -0.51039,0.48923 -2.50309,1.69823 -4.42824,2.68668 l -3.50026,1.79718 0,1.34106 c 0,1.02732 -0.12013,1.36481 -0.5135,1.44267 -0.6958,0.13773 -0.98578,-1.11791 -0.55771,-2.41498 0.41486,-1.25707 1.71599,-2.49497 4.14019,-3.93897 1.02896,-0.61292 2.61274,-1.79245 3.51948,-2.62117 1.33491,-1.22003 1.64788,-1.68631 1.64457,-2.45019 -0.008,-1.98359 -0.19572,-2.19557 -2.11525,-2.39619 -1.45449,-0.15202 -2.92373,-0.61101 -4.21167,-1.31573 -0.43323,-0.23703 -0.85777,1.98102 -0.85777,4.48145 0,2.59955 -0.0183,2.66933 -0.67393,2.57621 -0.92049,-0.13073 -0.98189,-0.91855 -0.36773,-4.71761 0.67759,-4.19145 1.46471,-5.02673 3.39331,-3.60086 1.44334,1.06711 5.23983,1.56163 12.02588,1.56646 6.62544,0.004 10.39152,-0.47115 12.78595,-1.61557 1.34337,-0.64206 3.06506,-2.36435 3.81686,-3.81816 l 0.46198,-0.89337 -1.48916,1.00214 c -1.87092,1.25902 -4.03965,2.07569 -7.2277,2.72167 -2.06003,0.41742 -3.55919,0.4751 -8.64018,0.33245 -6.93649,-0.19474 -10.66095,-0.81067 -13.54457,-2.23993 l -1.71892,-0.85197 -1.52784,3.46349 -1.52784,3.46349 -0.0546,4.64276 -0.0547,4.64273 1.60167,3.44462 c 1.30103,2.79805 1.76633,4.25985 2.4789,7.78783 0.48245,2.38876 1.20644,5.35413 1.60884,6.5897 0.4024,1.23557 0.87815,2.92044 1.05721,3.74414 0.28707,1.32057 0.99417,2.84556 1.31941,2.84556 0.063,0 0.0415,-1.58673 -0.0479,-3.52609 z m 4.31253,-17.04176 c -0.45574,-0.45574 -0.16092,-1.6091 0.52644,-2.05948 0.5809,-0.38062 1.73412,-0.48683 5.76599,-0.53108 4.8586,-0.0532 5.03986,-0.0338 5.03986,0.54375 0,0.56921 -0.16438,0.59378 -3.29725,0.49313 -3.58988,-0.11537 -5.65526,0.25928 -6.52408,1.18341 -0.54605,0.58078 -1.15196,0.72926 -1.51096,0.37027 z m 22.02556,-1.95694 c -0.19768,-0.19769 -0.36074,-0.63576 -0.36236,-0.97349 -0.006,-1.18466 1.66086,-5.30658 2.69872,-6.67497 2.05052,-2.70357 2.3901,-1.63238 0.41357,1.30457 -1.26563,1.88062 -1.60859,3.00658 -1.39681,4.58568 0.21997,1.63997 -0.51558,2.59572 -1.35312,1.75821 z m -20.12853,-2.50813 c 0,-0.92866 3.3087,-3.64409 6.6412,-5.45039 4.33273,-2.34844 5.24055,-2.71725 7.97751,-3.24091 1.23527,-0.23634 2.67947,-0.69765 3.20934,-1.02512 1.2451,-0.76951 2.24058,-0.78306 2.24058,-0.0305 0,0.72449 -1.4291,1.40817 -3.75334,1.79559 -3.13336,0.52232 -5.98814,1.69901 -8.52038,3.51201 -1.32021,0.9452 -2.35435,1.76459 -2.29809,1.82086 0.14428,0.14428 1.85766,-0.58241 6.21214,-2.63471 2.98518,-1.40693 4.17157,-1.81068 5.69111,-1.9368 1.75768,-0.14588 3.07411,0.16679 2.61888,0.62203 -0.1002,0.1001 -1.51154,0.51725 -3.13641,0.92689 -1.74098,0.43891 -4.12298,1.33744 -5.79986,2.18782 -3.01017,1.5265 -4.25511,1.98942 -8.46565,3.14786 -2.08199,0.57281 -2.61703,0.63525 -2.61703,0.30536 z m -18.72073,11.71956 c 2.63588,-0.58091 5.08421,-1.12504 5.44073,-1.20921 0.51354,-0.12121 0.60691,-0.29577 0.44931,-0.83995 -0.17026,-0.58791 -11.09966,-10.69675 -11.56501,-10.69675 -0.0913,0 -0.16591,3.17662 -0.16591,7.05918 0,6.58358 0.0353,7.04854 0.52418,6.90106 0.28831,-0.087 2.68081,-0.63342 5.3167,-1.21433 z m 3.09318,-8.70757 c -0.67878,-2.01065 -0.75576,-4.72612 -0.27885,-9.83791 0.35169,-3.76959 0.39461,-3.92277 1.9925,-7.10889 1.06575,-2.12504 1.6331,-3.6282 1.6331,-4.32682 0,-0.58879 0.14442,-1.97262 0.32095,-3.07519 0.27611,-1.72458 0.24216,-2.25575 -0.24308,-3.80184 -0.55132,-1.75671 -0.58724,-1.79616 -1.59396,-1.75106 -0.56646,0.0253 -6.89327,0.67068 -14.05957,1.43405 -12.26307,1.30625 -13.07059,1.42862 -13.72595,2.07976 -0.8474,0.84198 -1.15319,2.73267 -0.66602,4.11808 0.27308,0.7766 2.31672,2.66083 8.89072,8.19715 4.69487,3.95383 10.71756,9.10564 13.38374,11.44845 2.66619,2.34283 4.86039,4.26358 4.87601,4.26833 0.0157,0.004 -0.2227,-0.73509 -0.52959,-1.64411 z m 29.22663,-17.80923 c 3.58737,-0.91749 3.88221,-1.11831 4.12404,-2.80902 0.19387,-1.35532 0.90853,-2.59013 1.49906,-2.59013 0.14234,0 0.18038,0.37067 0.0846,0.82371 -0.44733,2.11442 -0.44742,2.1716 -0.002,2.1716 0.77469,0 1.05727,-1.03537 0.85979,-3.15018 -0.12324,-1.31973 0.002,-3.40886 0.36461,-6.0182 0.30435,-2.1982 0.46357,-4.08657 0.35381,-4.19633 -0.32539,-0.32538 -1.06815,0.469 -1.46519,1.56699 -0.20352,0.56284 -0.51074,0.97712 -0.68271,0.92062 -0.76961,-0.25287 -0.37038,-1.43295 1.28975,-3.81231 1.81152,-2.59634 2.43663,-4.12432 2.43961,-5.9633 0.002,-0.80374 -0.0783,-0.9535 -0.35777,-0.67395 -0.66954,0.66954 -1.95282,0.42011 -2.61371,-0.50801 -0.56882,-0.79884 -0.70667,-0.84679 -1.7427,-0.60622 -2.18061,0.50637 -2.73553,0.3733 -3.28976,-0.78897 -0.36939,-0.7746 -0.42341,-1.19798 -0.19841,-1.55469 0.51616,-0.81829 0.93084,-0.74967 1.26516,0.20934 0.31624,0.90717 0.3304,0.9122 2.56308,0.9122 1.93968,0 2.30489,0.0854 2.68474,0.6277 0.29934,0.42737 0.62638,0.56844 1.02473,0.442 0.6141,-0.19491 0.69858,-0.66447 1.1085,-6.16174 0.11673,-1.56542 0.0802,-2.0481 -0.12044,-1.59212 -0.34376,0.7812 -1.39845,1.40328 -1.99258,1.1753 -0.6183,-0.23728 -0.52295,-0.59668 0.24806,-0.93493 1.03265,-0.45305 1.34469,-2.17539 0.69997,-3.86359 -0.56165,-1.47062 -0.42009,-2.24953 0.30017,-1.65177 0.3443,0.28576 0.42263,0.21445 0.42263,-0.38482 0,-1.18535 -0.26674,-1.152 -1.62146,0.20274 -1.5742,1.57418 -4.0574,2.56296 -6.64491,2.64589 -1.70574,0.0547 -1.95758,-0.0192 -2.79479,-0.81966 -0.50605,-0.48386 -0.92011,-1.05672 -0.92011,-1.273 0,-0.51586 0.10009,-0.50133 1.41942,0.20579 0.61476,0.32949 1.62374,0.59907 2.24219,0.59907 2.33252,0 5.76814,-1.84604 6.66563,-3.58161 0.3985,-0.7706 0.38292,-1.07164 -0.15806,-3.05472 -1.34683,-4.93715 -1.54974,-5.93591 -1.35975,-6.69288 0.22267,-0.88722 0.81849,-0.87746 0.96828,0.0159 0.20236,1.20684 1.87167,6.5514 1.8875,6.04313 0.0252,-0.81023 1.5361,-3.97929 3.62057,-7.5942 2.01203,-3.48929 2.42761,-4.65907 3.23228,-9.09813 0.36396,-2.00783 0.44662,-3.33054 0.28078,-4.49297 -0.12929,-0.90608 -0.31706,-3.37539 -0.4173,-5.48736 -0.1552,-3.27012 -0.10492,-4.01136 0.33874,-4.99525 0.483,-1.07111 0.48634,-1.25705 0.0456,-2.55062 -0.49421,-1.45041 -0.35949,-4.49848 0.39702,-8.98236 0.60176,-3.56664 0.21484,-6.59043 -1.55223,-12.13103 -0.97669,-3.06237 -2.82044,-7.71643 -3.28397,-8.28949 -0.18107,-0.22384 -0.14796,-1.44707 0.091,-3.36157 0.20659,-1.65531 0.30174,-3.08353 0.21147,-3.17381 -0.28649,-0.28648 -3.19229,0.46992 -3.5745,0.93045 -0.2017,0.24304 -0.38901,1.1884 -0.41624,2.10079 -0.0318,1.06542 -0.20231,1.7555 -0.47655,1.92889 -0.60863,0.38478 -1.03782,0.15956 -0.95544,-0.50134 0.2613,-2.09607 0.16046,-2.50091 -0.92126,-3.69825 -0.96476,-1.06787 -1.4225,-2.11041 -0.92662,-2.11041 0.0934,0 0.63692,0.35632 1.20791,0.79184 l 1.03817,0.79185 0.76191,-0.71578 c 0.47045,-0.44195 1.03698,-0.67972 1.48095,-0.62155 0.45967,0.0603 0.99168,-0.1784 1.47479,-0.66152 0.65315,-0.65313 0.75575,-1.02041 0.75575,-2.70508 0,-2.33556 -0.91743,-5.03204 -2.12184,-6.23645 -1.06739,-1.0674 -2.11142,-1.07172 -5.29157,-0.022 -2.43826,0.8049 -2.90184,1.1448 -2.02185,1.48248 0.24712,0.0948 0.44932,0.29278 0.44932,0.43991 0,0.49087 -1.0936,0.27561 -2.55947,-0.5038 -1.08103,-0.57478 -1.70097,-0.72428 -2.43347,-0.58688 -0.97924,0.18371 -0.98222,0.18966 -0.80172,1.59499 0.0997,0.77582 0.26641,1.50652 0.37055,1.62379 0.10408,0.11725 0.80348,-0.007 1.55414,-0.27759 0.75064,-0.26993 1.61209,-0.3959 1.91432,-0.27992 0.4617,0.17717 0.33536,0.34669 -0.79041,1.06063 -2.24254,1.42219 -2.64654,2.15557 -2.63895,4.79053 0.008,3.00881 0.6696,4.48346 2.59697,5.79441 0.79208,0.53875 1.99638,1.51871 2.67622,2.17768 l 1.23606,1.19813 0.21791,3.05474 c 0.24605,3.44926 0.0752,5.59999 -0.76242,9.59525 -1.00818,4.80909 -0.67928,11.28822 0.68589,13.51186 l 0.61466,1.00117 0.70535,-0.85142 c 0.44683,-0.53934 0.64326,-1.07097 0.53595,-1.45046 -0.0932,-0.32949 -0.24326,-1.55176 -0.3335,-2.71615 -0.12595,-1.62517 -0.0496,-2.33852 0.3288,-3.0702 0.27108,-0.5242 0.52312,-0.95295 0.56007,-0.95273 0.0369,2.2e-4 0.0755,0.97744 0.0857,2.17161 0.0128,1.49636 0.2775,2.9958 0.85161,4.82412 0.63245,2.01412 0.74908,2.73538 0.48436,2.99532 -0.26255,0.25781 -0.48245,0.17882 -0.89011,-0.31979 -0.54095,-0.66163 -0.54302,-0.65924 -2.40841,2.77709 -3.16181,5.82464 -3.44709,7.45428 -2.1434,12.24427 0.35594,1.30784 0.73385,3.70035 0.83977,5.31669 0.18453,2.81572 0.16716,2.9388 -0.4147,2.9388 -0.53706,0 -0.59086,-0.14722 -0.46522,-1.27301 0.12659,-1.13434 -0.0441,-2.07319 -1.14394,-6.29017 -0.5378,-2.06211 -2.48864,-1.07734 -3.57375,1.80401 -1.97946,5.25613 -1.88617,5.06517 -2.08198,4.26151 -0.10031,-0.41185 -0.34488,-0.73535 -0.54337,-0.71887 -0.19852,0.0165 -0.7316,0.0517 -1.18463,0.0783 -0.6999,0.041 -0.91377,0.28105 -1.42278,1.59689 -0.66284,1.71348 -1.34788,2.23961 -1.34788,1.03517 0,-0.41485 0.11504,-1.06633 0.25566,-1.44773 0.14062,-0.3814 0.34327,-1.05571 0.45033,-1.4985 0.18677,-0.7725 0.1542,-0.79848 -0.80621,-0.64262 -2.08362,0.33812 -7.60932,-1.51927 -10.37184,-3.48635 -0.84987,-0.60517 -0.87711,-0.70056 -0.81973,-2.87043 0.0479,-1.81278 0.1457,-2.22786 0.5084,-2.15822 0.29633,0.057 0.55099,0.69601 0.74881,1.87937 0.16488,0.98622 0.39967,1.94681 0.52176,2.13462 0.2737,0.42107 3.60164,1.7821 6.21796,2.54298 2.46372,0.7165 4.59709,0.37735 6.13827,-0.97581 2.89989,-2.54613 3.34019,-10.50942 0.99157,-17.9336 -1.11919,-3.53787 -2.24246,-5.55079 -4.00318,-7.17375 -2.26369,-2.08662 -5.09331,-2.8855 -8.36666,-2.36217 -3.42686,0.54788 -5.58624,2.04489 -6.98255,4.84075 -1.53744,3.07843 -1.47901,7.21994 0.1121,7.9449 0.40054,0.18249 0.72823,0.54298 0.72823,0.80109 0,0.37439 -0.21268,0.42941 -1.05163,0.27201 -0.66716,-0.12517 -1.21471,-0.062 -1.49766,0.17286 -0.58436,0.48497 -0.58262,2.75819 0.002,3.89059 0.47087,0.91057 2.2067,2.39686 2.79927,2.39686 0.19037,0 0.61572,0.26958 0.9452,0.59907 0.49983,0.49984 0.59611,0.98357 0.5812,2.92043 -0.0334,4.34718 -0.27967,5.09735 -2.24578,6.84185 l -1.73959,1.54353 1.41677,0.6267 c 1.45516,0.64369 3.19656,1.84595 2.67374,1.84595 -0.16116,0 -1.07657,-0.26958 -2.03423,-0.59906 -0.95767,-0.32949 -2.2102,-0.59907 -2.78339,-0.59907 l -1.04218,0 0.18153,1.32445 c 0.142,1.03599 -0.0448,2.03036 -0.85789,4.56558 -0.5717,1.78261 -1.03944,3.39413 -1.03944,3.58114 0,0.18701 -0.20219,0.50783 -0.44931,0.71292 -0.38803,0.32205 -0.44928,0.18926 -0.44928,-0.97403 0,-0.7408 0.21015,-1.93671 0.46702,-2.65757 0.88006,-2.46986 1.00357,-4.04813 0.76207,-9.73769 -0.2822,-6.64863 -0.69281,-8.03902 -2.91081,-9.85651 -1.1683,-0.95731 -1.33596,-1.01724 -1.49204,-0.53322 -0.55537,1.72235 -1.20748,3.13931 -1.46657,3.18672 -0.30443,0.0557 -1.3656,-2.54342 -2.52855,-6.19307 -1.06978,-3.35731 -0.17862,-3.04505 1.35107,0.4734 0.48153,1.10757 0.952,2.01741 1.04548,2.02184 0.0935,0.004 0.41085,-0.76699 0.70529,-1.71427 0.29445,-0.94726 0.82288,-2.19407 1.17432,-2.77066 1.12529,-1.84635 0.86944,-5.33069 -1.10598,-15.06099 -0.92918,-4.57684 -1.77576,-9.05618 -1.88129,-9.95407 -0.18841,-1.6031 -0.1708,-1.65288 0.97672,-2.76115 0.64271,-0.62073 2.07459,-1.91086 3.18193,-2.86695 1.83627,-1.58544 2.06812,-1.91866 2.63607,-3.7885 0.3425,-1.1276 0.58007,-2.56841 0.52794,-3.20183 -0.0931,-1.13137 -0.12036,-1.15528 -1.54685,-1.35777 -0.79862,-0.11338 -1.50944,-0.26353 -1.57958,-0.33366 -0.30213,-0.30214 0.31008,-1.13159 0.95465,-1.29336 0.75131,-0.18856 0.76694,-0.76742 0.0818,-3.03005 -0.51847,-1.7123 -3.16526,-1.97547 -4.78024,-0.47531 -0.57265,0.53194 -1.36671,0.81538 -2.93762,1.04853 -1.79528,0.26646 -2.12107,0.40015 -1.9616,0.80497 0.35794,0.90861 1.04126,4.87722 1.04126,6.04743 0,1.01214 0.10493,1.19241 0.79519,1.36564 1.07726,0.27038 1.77134,-0.23306 1.66387,-1.20687 -0.11126,-1.00805 0.65395,-1.33541 1.44601,-0.61862 0.81131,0.73424 0.73554,2.01497 -0.18386,3.10762 -0.42448,0.50445 -0.90488,1.39929 -1.06756,1.9885 -0.16587,0.60068 -0.45185,1.02011 -0.65102,0.95477 -0.46377,-0.15217 -0.62162,-1.53919 -0.25344,-2.22714 0.25145,-0.46987 0.15779,-0.53899 -0.73037,-0.53899 -0.8965,0 -1.01882,0.0932 -1.01882,0.77579 0,1.37162 -1.15983,5.36293 -2.01531,6.93522 -0.45663,0.83928 -1.39111,2.14991 -2.07662,2.91249 -1.16918,1.30066 -1.29334,1.61755 -2.00457,5.11631 -1.17462,5.77823 -1.26235,7.89619 -0.5078,12.25934 0.47254,2.73249 0.80292,3.88301 1.22903,4.28 0.32052,0.29861 0.58275,0.58849 0.58275,0.64418 0,0.0557 -0.41221,1.43202 -0.91602,3.05853 -1.04406,3.37062 -1.01159,4.56289 0.18808,6.90546 0.40656,0.79386 0.8262,2.25213 0.93252,3.24059 0.17502,1.62682 0.14777,1.75961 -0.28744,1.40078 -0.42262,-0.34843 -0.50947,-0.25781 -0.71763,0.74883 -0.13025,0.62987 -0.22096,2.8301 -0.20158,4.88938 0.0276,2.9295 0.19812,4.37945 0.78377,6.66405 0.6804,2.65418 0.90838,3.11221 2.50525,5.03329 2.96656,3.56886 3.1069,3.8427 3.39364,6.62191 0.19517,1.89159 0.56457,3.22867 1.47617,5.34318 1.67858,3.89348 2.84204,5.46675 7.62204,10.30664 5.56785,5.63763 6.59091,7.74269 6.4505,13.27249 -0.1043,4.10757 0.47902,5.11249 3.60859,6.21666 0.72317,0.25516 1.36615,0.41259 1.42886,0.34989 0.18001,-0.18002 -1.10712,-3.28556 -1.57903,-3.80987 -0.56126,-0.62359 -0.54381,-1.47408 0.0303,-1.47408 0.54661,0 2.02991,2.25923 2.73635,4.16778 0.27963,0.75545 0.5547,1.43251 0.61125,1.50458 0.21045,0.26811 4.59138,0.5313 9.55262,0.57388 4.21898,0.0362 5.52565,-0.0601 7.43172,-0.54756 z m -8.50106,-0.23269 c -1.20995,-0.6079 -2.26948,-2.06342 -2.72002,-3.73659 -0.40973,-1.52163 -0.26749,-2.1787 0.47166,-2.1787 0.48509,0 0.64814,0.30006 0.88291,1.62479 0.27796,1.56842 0.3531,1.66631 2.16574,2.82191 1.47266,0.93888 1.80651,1.28303 1.54745,1.59519 -0.44457,0.53568 -1.09989,0.50036 -2.34774,-0.1266 z m 8.44457,-4.62356 c -0.5764,-0.5764 -0.4246,-1.63673 0.36481,-2.54804 0.54699,-0.63147 0.81429,-0.75557 1.07512,-0.49914 0.26306,0.25863 0.24919,0.68813 -0.0574,1.77333 -0.43047,1.5241 -0.79579,1.86069 -1.38261,1.27385 z m -10.81577,-3.99794 c -0.53037,-0.60406 -0.92962,-1.39351 -0.92962,-1.83819 0,-0.75752 0.0416,-0.74044 1.48482,0.60949 0.81666,0.76389 1.6254,1.38889 1.79718,1.38889 0.17181,0 0.31237,0.20219 0.31237,0.44931 0,0.90687 -1.66841,0.52525 -2.66475,-0.6095 z m -10.58779,-3.22778 c -0.95514,-0.95513 -2.00915,-3.316 -1.64363,-3.68151 0.0975,-0.0975 0.99209,0.65542 1.98797,1.67317 1.65436,1.69072 1.90586,1.84191 2.91306,1.75132 1.33764,-0.12032 1.71369,0.51052 0.56475,0.94736 -1.55147,0.58986 -2.76028,0.37153 -3.82215,-0.69034 z m 9.87541,0.0756 c -0.89813,-0.5949 -1.32502,-1.06753 -1.21743,-1.34789 0.22412,-0.58407 0.68039,-0.54041 1.74901,0.1673 1.17281,0.77673 2.42986,0.77673 2.84555,0 0.36769,-0.68703 2.19522,-0.80343 4.45033,-0.28346 1.48197,0.34171 2.66416,-0.14639 3.69076,-1.52387 0.52015,-0.69795 0.53584,-0.93269 0.19514,-2.91952 -0.27304,-1.59233 -0.28243,-2.24863 -0.0356,-2.49542 0.63655,-0.63656 1.41756,1.45577 1.42629,3.8211 0.006,1.72307 -0.10819,2.26844 -0.5878,2.79841 -0.98008,1.08297 -1.64333,1.28685 -4.85279,1.49172 -2.25043,0.14365 -3.21398,0.3302 -3.62451,0.70172 -0.87503,0.79189 -2.46851,0.63011 -4.03891,-0.41009 z m 13.72796,-1.24723 c -1.09446,-1.56259 -0.26103,-2.51503 1.01008,-1.15428 0.4734,0.50676 1.00882,0.92139 1.18984,0.92139 0.18102,0 0.32913,0.20219 0.32913,0.4493 0,0.75242 -1.96844,0.58399 -2.52905,-0.21641 z m -18.43804,-2.36659 c -1.05856,-0.42211 -2.09687,-1.46788 -2.09687,-2.11196 0,-0.66697 0.2646,-0.68775 1.12084,-0.088 0.3603,0.25235 1.20053,0.65127 1.8672,0.88648 1.18544,0.41825 1.23436,0.40815 2.22179,-0.45881 0.55532,-0.48759 1.09295,-0.88651 1.19477,-0.88651 0.44949,0 0.1294,1.85289 -0.41397,2.39625 -0.66059,0.6606 -2.57227,0.78951 -3.89376,0.26256 z m -4.68396,-3.83309 c -0.89614,-0.54644 -1.00389,-0.54991 -2.32562,-0.0746 -1.24872,0.44903 -1.4671,0.45335 -2.20543,0.0436 -1.02776,-0.57041 -2.44959,-3.12526 -1.99323,-3.58163 0.2229,-0.22291 0.53308,0.0181 1.04541,0.8122 0.56608,0.87748 0.95166,1.15055 1.72992,1.22515 1.61744,0.15502 1.95859,-0.0905 1.37127,-0.98689 -0.27097,-0.41355 -0.41745,-0.94791 -0.32552,-1.18749 0.12519,-0.32621 -0.17277,-0.48656 -1.18642,-0.63857 -1.94423,-0.29156 -3.1083,-1.35927 -3.1083,-2.851 0,-0.64433 0.0715,-1.17151 0.15891,-1.17151 0.0874,0 0.57148,0.46988 1.07572,1.04419 0.97887,1.11487 2.84022,1.82148 4.01889,1.52565 0.66729,-0.16747 0.66088,-0.18992 -0.33976,-1.19055 -1.03343,-1.03342 -1.36395,-2.27789 -0.60501,-2.27789 0.22817,0 0.63199,0.3314 0.8974,0.73644 0.46358,0.70753 1.27944,1.03646 3.92957,1.58436 0.73873,0.15273 1.19812,0.41566 1.19812,0.68576 0,0.29716 -0.38536,0.4655 -1.19812,0.52339 -0.65896,0.0469 -1.883,0.38109 -2.72007,0.74259 l -1.52193,0.65726 0.58229,0.98693 c 0.59865,1.01463 2.7265,2.47017 3.61114,2.47017 0.58055,0 0.65602,0.62062 0.13843,1.13821 -0.50748,0.50749 -1.14241,0.44598 -2.22766,-0.21578 z m 7.80985,0.25385 c -1.11615,-0.3234 -3.18069,-2.31867 -3.05807,-2.95544 0.1715,-0.89051 1.12593,-0.71867 1.46863,0.26442 0.673,1.93057 1.8332,1.81523 5.79159,-0.57574 1.87158,-1.1305 3.02815,-1.61317 4.3914,-1.83273 2.17732,-0.35064 2.8518,-0.66357 3.09726,-1.43694 0.35403,-1.11546 0.22546,-3.22897 -0.2527,-4.15361 -0.51831,-1.0023 -0.63584,-1.86847 -0.25355,-1.86847 0.12793,0 0.59421,0.55769 1.03619,1.23932 1.05013,1.61955 1.33122,3.53278 0.78097,5.31585 -0.51173,1.65829 -1.59157,2.31976 -4.23797,2.59604 -1.50604,0.15723 -1.93662,0.35713 -3.21527,1.49277 -0.812,0.72115 -1.71435,1.43412 -2.00523,1.58435 -0.87984,0.45444 -2.57066,0.612 -3.54325,0.33018 z m 0.8944,-5.47206 c -0.28265,-0.73661 -0.007,-2.06958 0.47255,-2.29 2.65116,-1.21711 2.86352,-1.38865 3.60796,-2.91469 1.42841,-2.92814 3.07298,-3.8694 4.33129,-2.47897 0.72027,0.79588 0.3488,1.10384 -0.80582,0.66802 -1.17708,-0.44428 -1.34602,-0.3292 -1.58395,1.07912 -0.31714,1.87709 -1.18496,2.97165 -3.07656,3.88043 -1.40507,0.67502 -1.7241,0.96418 -1.7241,1.56265 0,0.83281 -0.94469,1.21447 -1.22137,0.49344 z m -21.83943,-3.48697 c -0.0912,-0.14754 -0.0826,-0.78892 0.0192,-1.42527 0.12137,-0.75899 0.0206,-1.55061 -0.29308,-2.30123 -0.5213,-1.24766 -0.61044,-1.9697 -0.24315,-1.9697 0.72295,0 2.06127,3.99163 1.7097,5.09931 -0.19588,0.6172 -0.94761,0.99341 -1.19267,0.59689 z m 10.11819,-1.63094 c -3.14121,-1.5054 -5.16701,-3.87812 -5.1774,-6.06412 -0.002,-0.19328 -0.35745,-0.77426 -0.79233,-1.29108 -0.89268,-1.06088 -0.64055,-1.80868 0.41868,-1.24179 0.4946,0.26468 2.16918,3.22738 2.16918,3.83771 0,0.63392 1.80765,2.36287 3.09314,2.95844 2.16643,1.00373 4.10694,1.16489 6.9368,0.57612 4.75421,-0.98914 8.70394,-3.0055 10.82499,-5.52622 0.7718,-0.91722 0.86113,-1.24434 0.86113,-3.15319 0,-1.85736 -0.14368,-2.42049 -1.12325,-4.40252 -1.25722,-2.5438 -1.28328,-2.63847 -0.72616,-2.63847 0.61381,0 1.53897,1.1603 2.62711,3.29485 0.80497,1.57905 0.99031,2.28656 0.98085,3.74415 -0.0228,3.49539 -2.13329,5.80726 -7.78615,8.52874 -3.85767,1.85721 -5.7205,2.40416 -8.1881,2.40416 -1.63393,0 -2.34676,-0.17771 -4.11849,-1.02678 z m 22.87359,-1.6177 c -0.72118,-0.79689 -0.62024,-0.93244 0.55264,-0.74211 0.95725,0.15535 1.04836,0.10688 1.04836,-0.55798 0,-1.68407 1.5962,-1.9089 3.6928,-0.52016 0.76957,0.50974 1.39924,1.02643 1.39924,1.1482 0,0.56063 -0.45623,0.52057 -1.71913,-0.1509 -1.72837,-0.91898 -2.01432,-0.9104 -2.07065,0.0622 -0.0251,0.43326 -0.22729,0.90285 -0.4493,1.04355 -0.68693,0.43533 -1.93416,0.2916 -2.45396,-0.28278 z m -34.45831,-16.37992 c -1.08867,-0.92358 -2.13785,-1.97443 -2.33151,-2.33521 -0.88352,-1.64596 -0.55133,-9.05526 0.59292,-13.22432 0.24223,-0.88257 0.24517,-0.88007 0.6452,0.54868 0.41652,1.4876 0.38934,1.71078 -0.69594,5.71915 -0.34242,1.26462 -0.33728,1.78034 0.0343,3.44462 0.68214,3.05542 1.2481,4.05603 2.9189,5.16063 0.93189,0.61606 1.49767,1.20701 1.49767,1.56422 0,1.03983 -0.65628,0.82339 -2.66152,-0.87777 z m 21.53201,-1.54909 c -0.32949,-0.0747 -1.56691,-0.53085 -2.74984,-1.01362 -1.56332,-0.63803 -2.64734,-0.87777 -3.96881,-0.87777 -1.40592,0 -1.81801,-0.10052 -1.81801,-0.44359 0,-1.12945 3.98627,-0.81422 7.33853,0.58034 1.03897,0.43221 2.39746,0.75063 3.21997,0.75473 1.01303,0.005 1.42278,0.12729 1.42278,0.42437 0,0.7074 -1.64847,0.98283 -3.44462,0.57554 z m 5.34461,-1.45648 c -0.20017,-0.52162 0.46316,-1.14826 1.89971,-1.79465 0.52478,-0.23614 1.1916,-0.8313 1.4818,-1.32259 0.29023,-0.49129 0.71546,-0.96532 0.94497,-1.05339 0.88681,-0.3403 0.94043,0.24171 0.15155,1.6451 -0.70349,1.25147 -0.9865,1.48952 -1.96795,1.65532 -0.64104,0.10832 -1.30324,0.44497 -1.50235,0.76378 -0.43151,0.69096 -0.76972,0.72667 -1.00773,0.10643 z m -35.6298,-0.56127 c -0.0899,-0.23424 -0.0183,-0.69715 0.15918,-1.02867 0.44301,-0.82776 0.4043,-2.09643 -0.12608,-4.1327 -0.4383,-1.68275 -0.27505,-2.49809 0.41479,-2.07173 0.44896,0.27746 1.23202,3.06255 1.23202,4.38193 0,1.25027 -0.74932,3.27707 -1.21156,3.27707 -0.16769,0 -0.37845,-0.19167 -0.46835,-0.4259 z m 43.61435,-1.97494 c -0.39936,-0.26218 -0.39936,-0.32772 0,-0.58989 0.5943,-0.39014 2.39626,-0.388 2.39626,0.002 0,0.1688 -0.34574,0.43838 -0.76833,0.59905 -0.94377,0.35883 -1.06439,0.35794 -1.62793,-0.012 z m 5.76599,-1.10896 c -0.56711,-0.20375 -0.46164,-0.5987 0.5541,-2.07502 1.32744,-1.92936 2.8213,-5.29107 3.7025,-8.33188 0.85395,-2.94683 0.99515,-6.15768 0.41033,-9.33159 -0.27187,-1.47547 -0.26866,-2.07991 0.0144,-2.70102 0.59166,-1.29856 0.91606,-0.49728 1.42014,3.50783 0.46923,3.72829 0.39482,7.21477 -0.16849,7.89349 -0.16415,0.1978 -0.78391,1.76606 -1.37725,3.48501 -1.0254,2.97071 -2.94586,6.70901 -3.79023,7.37793 -0.21506,0.17037 -0.5595,0.24923 -0.76543,0.17525 z m -24.1556,-2.19375 c -1.21122,-1.06347 -2.57761,-3.26839 -2.57761,-4.15947 0,-1.11696 0.73379,-0.65003 1.49767,0.953 0.50151,1.05249 1.21231,1.91279 2.15221,2.60493 0.77186,0.5684 1.33676,1.14126 1.25533,1.27302 -0.30904,0.50002 -1.32818,0.20601 -2.3276,-0.67148 z m 32.16599,-3.73424 c -0.22628,-0.27266 -0.30856,-0.86121 -0.20748,-1.48411 0.22429,-1.38218 1.43017,-4.65376 1.71532,-4.65376 0.56497,0 0.50661,1.04169 -0.16973,3.03025 -0.5371,1.57915 -0.64657,2.25909 -0.40965,2.54457 0.32802,0.39523 0.13978,1.01488 -0.30831,1.01488 -0.13484,0 -0.41391,-0.20333 -0.62015,-0.45183 z m -56.79894,-1.79024 c -0.0939,-0.24468 0.16959,-0.84929 0.58551,-1.34359 0.66618,-0.79171 0.72114,-1.02572 0.4617,-1.96535 -0.16197,-0.58665 -0.25274,-1.49841 -0.20167,-2.02613 l 0.0928,-0.95952 0.42409,0.74709 c 0.58461,1.02983 0.81622,4.95087 0.32726,5.54004 -0.48103,0.57962 -1.46846,0.58397 -1.6897,0.007 z m 3.81668,-15.3069 c -0.52784,-0.67105 -0.63184,-1.21369 -0.63184,-3.29665 0,-2.17561 0.35383,-5.78107 0.76682,-7.81362 0.14707,-0.72384 0.90242,-1.59348 1.38406,-1.59348 0.3925,0 0.20067,1.13997 -0.80646,4.79251 -0.91157,3.30605 -0.87589,5.14443 0.12722,6.55316 1.13713,1.59697 0.34972,2.87032 -0.8398,1.35808 z m 52.3853,-0.0674 c 0,-0.94023 1.53087,-2.65224 2.07238,-2.31756 0.50604,0.31275 0.38087,1.01181 -0.24074,1.34448 -0.31053,0.16621 -0.65008,0.64271 -0.75454,1.05891 -0.26438,1.05338 -1.0771,0.98861 -1.0771,-0.0858 z m -7.12886,-24.07848 c -0.2195,-0.21951 -0.35945,-1.28993 -0.35945,-2.74941 0,-1.31448 -0.16184,-2.83751 -0.35962,-3.38452 -0.28297,-0.78251 -0.28031,-1.07388 0.0124,-1.36665 0.5081,-0.50811 0.81481,0.0314 1.22294,2.15105 0.17636,0.9159 0.44252,2.26435 0.59146,2.99655 0.26561,1.30565 0.006,2.71241 -0.50134,2.71241 -0.13587,0 -0.40877,-0.16175 -0.60646,-0.35943 z m -30.42517,41.65521 c 1.00325,-0.96868 1.31068,-2.19772 1.31068,-5.23999 0,-1.5214 -0.0488,-1.62254 -0.97349,-2.02004 -1.27732,-0.54907 -3.06965,-2.44407 -3.66639,-3.87644 -0.3856,-0.92553 -0.41806,-1.45352 -0.17136,-2.788 0.16738,-0.90543 0.40773,-1.80692 0.53413,-2.00332 0.12639,-0.1964 0.23061,-1.83977 0.23161,-3.65193 0.002,-3.03147 0.0691,-3.42272 0.84426,-4.89441 1.16913,-2.21984 2.97987,-4.08895 4.84551,-5.00173 4.075,-1.9937 10.09724,-1.32119 12.98188,1.44971 2.41793,2.3226 4.51674,6.19289 5.13973,9.4778 0.43567,2.29735 1.20134,9.17485 1.20134,10.79097 0,0.78733 -0.20219,2.00456 -0.4493,2.70495 -0.59846,1.69623 -0.60123,1.69311 0.57937,0.65652 0.56579,-0.49676 1.30713,-0.99156 1.64744,-1.09957 0.52406,-0.16634 0.61875,-0.44241 0.61875,-1.80404 0,-2.84498 0.80686,-5.78093 2.2787,-8.2915 l 1.36112,-2.32167 -0.76742,-1.00613 c -1.75107,-2.29578 -2.48524,-11.53727 -1.25418,-15.78726 0.69415,-2.39649 1.03169,-9.74948 0.50554,-11.01311 -0.2281,-0.5478 -0.99301,-1.16503 -2.31343,-1.86676 -1.08496,-0.5766 -2.37303,-1.55312 -2.86237,-2.17002 l -0.88972,-1.12168 -0.99253,1.86525 c -2.09461,3.93642 -4.42974,5.62238 -7.77975,5.61696 -1.9048,-0.002 -4.40532,-0.9119 -5.22058,-1.89746 -0.373,-0.4509 -0.56246,-0.34147 -2.00113,1.15585 -1.98534,2.06624 -3.59462,2.82812 -5.97377,2.82812 -1.80785,0 -3.92025,-0.70936 -4.98684,-1.67462 -0.65874,-0.59614 -1.22136,-0.2902 -3.03817,1.65211 -1.5224,1.62756 -1.56596,1.7595 -1.10079,3.33249 0.62294,2.10639 3.27545,15.84106 3.5821,18.54808 0.35926,3.17137 0.21169,4.38235 -0.77368,6.34913 l -0.69436,1.38593 1.66055,1.9089 c 2.44893,2.81518 2.76524,3.59698 3.10256,7.66808 0.16071,1.93949 0.29434,3.84358 0.29695,4.23132 0.004,0.69779 0.0162,0.69531 1.12797,-0.24199 0.61779,-0.52081 1.54437,-1.35354 2.05907,-1.8505 z m 20.30556,-0.48458 0.48023,-1.42276 -0.67673,0.83271 c -0.37219,0.45801 -1.08107,1.09736 -1.57531,1.42081 l -0.8986,0.58808 1.09509,0.002 c 1.03986,0.002 1.1193,-0.0698 1.57532,-1.42081 z m -42.74942,-36.04689 c 3.39647,-1.6442 5.64755,-6.78019 5.56721,-12.70191 -0.0709,-5.22212 -1.46482,-9.13849 -4.39611,-12.3509 -2.31712,-2.53937 -4.28059,-3.29855 -6.82441,-2.6387 -3.89495,1.01035 -6.66836,6.4266 -6.60185,12.89288 0.0685,6.66487 2.91467,12.60753 7.01725,14.65194 1.89077,0.94221 3.5014,0.98731 5.23791,0.14669 z m 23.60476,-6.9438 c 2.6327,-1.33355 4.55561,-4.48647 5.42187,-8.89002 1.43829,-7.31128 -1.85438,-16.12135 -6.90396,-18.47272 -1.94865,-0.90739 -3.27417,-0.89382 -5.17419,0.0529 -1.70423,0.84926 -2.76276,2.06691 -3.83177,4.40779 -0.67503,1.47812 -1.64298,4.71453 -1.64298,5.49332 0,0.23431 0.80627,0.39128 2.37603,0.46256 3.42423,0.1555 4.03483,0.66523 4.15108,3.4653 0.0739,1.77997 0.19944,2.20548 0.82372,2.79196 0.83119,0.78087 0.91048,1.61136 0.41541,4.35152 -0.41623,2.30387 -1.10256,4.34338 -1.67439,4.9757 -0.41341,0.45714 -0.36405,0.5497 0.54584,1.02358 1.92042,1.00018 3.9407,1.12449 5.49334,0.33803 z m 13.877,-2.50517 c 3.19822,-1.87417 5.46886,-7.94378 5.00173,-13.37002 -0.52178,-6.06071 -3.11549,-11.22137 -6.69376,-13.31837 -2.79389,-1.63732 -6.35007,-0.78187 -8.27066,1.98954 l -0.83616,1.20659 1.23085,1.94891 c 0.67698,1.07191 1.60074,2.99738 2.0528,4.27882 0.76695,2.174 0.82137,2.65053 0.81331,7.1224 -0.007,4.15581 -0.0972,5.05116 -0.67482,6.73946 l -0.66619,1.94696 1.07307,0.94876 c 1.9668,1.73898 4.54711,1.92665 6.96983,0.50695 z m 25.37569,-5.97052 c 3.03166,-4.67728 3.19435,-12.60178 0.37778,-18.39937 -1.21022,-2.49111 -4.08531,-5.42089 -5.81811,-5.9288 -4.45162,-1.30482 -7.89276,1.53284 -9.53616,7.8638 -0.82282,3.16979 -0.74984,3.24677 2.11059,2.2264 1.21924,-0.43494 2.57566,-0.64444 4.36354,-0.67396 2.36111,-0.039 2.66375,0.0223 3.36666,0.68046 1.32071,1.23681 1.97659,3.54 1.97659,6.94088 0,2.18015 0.13266,3.25548 0.48584,3.93847 0.48259,0.93321 0.4711,1.72981 -0.0789,5.47067 l -0.17615,1.19814 0.97172,-0.8986 c 0.53445,-0.49424 1.41492,-1.58237 1.95659,-2.41809 z"
       id="path3006"
       inkscape:connector-curvature="0" />
  </g>
</svg>
