<?xml version="1.0" encoding="UTF-8" standalone="no"?>
<!-- Created with Inkscape (http://www.inkscape.org/) -->

<svg
   xmlns:dc="http://purl.org/dc/elements/1.1/"
   xmlns:cc="http://creativecommons.org/ns#"
   xmlns:rdf="http://www.w3.org/1999/02/22-rdf-syntax-ns#"
   xmlns:svg="http://www.w3.org/2000/svg"
   xmlns="http://www.w3.org/2000/svg"
   xmlns:xlink="http://www.w3.org/1999/xlink"
   xmlns:sodipodi="http://sodipodi.sourceforge.net/DTD/sodipodi-0.dtd"
   xmlns:inkscape="http://www.inkscape.org/namespaces/inkscape"
   width="360.62054"
   height="383.65421"
   id="svg2"
   version="1.1"
   inkscape:version="0.48.3.1 r9886"
   sodipodi:docname="Bench-press-2.svg"
   inkscape:export-filename="/home/christian/Arbeitsfläche/Dropbox/Website/opentraining/cc_exercises/Bench-press-2.png"
   inkscape:export-xdpi="199.63289"
   inkscape:export-ydpi="199.63289">
  <defs
     id="defs4">
    <filter
       inkscape:collect="always"
       id="filter5283"
       color-interpolation-filters="sRGB">
      <feGaussianBlur
         inkscape:collect="always"
         stdDeviation="10.211719"
         id="feGaussianBlur5285" />
    </filter>
    <filter
       inkscape:collect="always"
       id="filter5427"
       x="-0.28619286"
       width="1.5723857"
       y="-0.28619286"
       height="1.5723857"
       color-interpolation-filters="sRGB">
      <feGaussianBlur
         inkscape:collect="always"
         stdDeviation="15.757641"
         id="feGaussianBlur5429" />
    </filter>
    <radialGradient
       gradientUnits="userSpaceOnUse"
       gradientTransform="matrix(1,0,0,0.91819829,-19.285714,-7.9105395)"
       r="209.56604"
       fy="287.50052"
       fx="398.1105"
       cy="287.50052"
       cx="398.1105"
       id="radialGradient5255"
       xlink:href="#linearGradient5249"
       inkscape:collect="always" />
    <linearGradient
       id="linearGradient5249"
       inkscape:collect="always">
      <stop
         id="stop5251"
         offset="0"
         style="stop-color:#e3e3e3;stop-opacity:1;" />
      <stop
         id="stop5253"
         offset="1"
         style="stop-color:#e3e3e3;stop-opacity:0;" />
    </linearGradient>
    <linearGradient
       inkscape:collect="always"
       id="linearGradient5249-2">
      <stop
         style="stop-color:#e3e3e3;stop-opacity:1;"
         offset="0"
         id="stop5251-8" />
      <stop
         style="stop-color:#e3e3e3;stop-opacity:0;"
         offset="1"
         id="stop5253-7" />
    </linearGradient>
    <radialGradient
       inkscape:collect="always"
       xlink:href="#linearGradient5249-2"
       id="radialGradient5255-1"
       cx="398.1105"
       cy="287.50052"
       fx="398.1105"
       fy="287.50052"
       r="209.56604"
       gradientTransform="matrix(1,0,0,0.91819829,-19.285714,-7.9105395)"
       gradientUnits="userSpaceOnUse" />
    <filter
       color-interpolation-filters="sRGB"
       height="1.5723857"
       y="-0.28619286"
       width="1.5723857"
       x="-0.28619286"
       id="filter5427-9"
       inkscape:collect="always">
      <feGaussianBlur
         id="feGaussianBlur5429-9"
         stdDeviation="15.757641"
         inkscape:collect="always" />
    </filter>
    <filter
       color-interpolation-filters="sRGB"
       id="filter5283-7"
       inkscape:collect="always">
      <feGaussianBlur
         id="feGaussianBlur5285-0"
         stdDeviation="10.211719"
         inkscape:collect="always" />
    </filter>
  </defs>
  <sodipodi:namedview
     id="base"
     pagecolor="#ffffff"
     bordercolor="#666666"
     borderopacity="1.0"
     inkscape:pageopacity="0.0"
     inkscape:pageshadow="2"
     inkscape:zoom="0.98994949"
     inkscape:cx="313.34124"
     inkscape:cy="122.03258"
     inkscape:document-units="px"
     inkscape:current-layer="layer1"
     showgrid="false"
     showguides="true"
     inkscape:guide-bbox="true"
     fit-margin-top="0"
     fit-margin-left="0"
     fit-margin-right="0"
     fit-margin-bottom="0"
     inkscape:window-width="1301"
     inkscape:window-height="744"
     inkscape:window-x="65"
     inkscape:window-y="24"
     inkscape:window-maximized="1">
    <sodipodi:guide
       orientation="-0.70710678,0.70710678"
       position="-1659.5162,619.15945"
       id="guide2985" />
  </sodipodi:namedview>
  <metadata
     id="metadata7">
    <rdf:RDF>
      <cc:Work
         rdf:about="">
        <dc:format>image/svg+xml</dc:format>
        <dc:type
           rdf:resource="http://purl.org/dc/dcmitype/StillImage" />
        <dc:title></dc:title>
      </cc:Work>
    </rdf:RDF>
  </metadata>
  <g
     inkscape:label="Ebene 1"
     inkscape:groupmode="layer"
     id="layer1"
     transform="translate(-230.94479,-262.15313)">
    <g
       id="g5449"
       transform="matrix(1.0543403,0,0,1.258995,-111.42407,59.807553)"
       style="fill:#ffffff;fill-opacity:1"
       inkscape:export-filename="/home/christian/Arbeitsfläche/Dropbox/Website/opentraining/cc_exercises/Bench-dips-1.png"
       inkscape:export-xdpi="214.51434"
       inkscape:export-ydpi="214.51434">
      <rect
         inkscape:export-ydpi="150"
         inkscape:export-xdpi="150"
         inkscape:export-filename="/home/christian/Dokumente/Code/workspace/OpenTraining/res/drawable/background.png"
         y="185.22804"
         x="352.24948"
         height="255.71428"
         width="290"
         id="rect2987"
         style="fill:#ffffff;fill-opacity:1;stroke:none;filter:url(#filter5283)" />
      <path
         transform="matrix(1.6074318,0,0,0.77372547,-152.97598,82.347784)"
         d="m 467.14287,292.00504 c 0,36.49024 -29.58119,66.07142 -66.07143,66.07142 -36.49024,0 -66.07142,-29.58118 -66.07142,-66.07142 0,-36.49025 29.58118,-66.07143 66.07142,-66.07143 36.49024,0 66.07143,29.58118 66.07143,66.07143 z"
         sodipodi:ry="66.071426"
         sodipodi:rx="66.071426"
         sodipodi:cy="292.00504"
         sodipodi:cx="401.07144"
         id="path5317"
         style="fill:#ffffff;fill-opacity:1;stroke:none;filter:url(#filter5427)"
         sodipodi:type="arc" />
    </g>
    <path
       style="fill:#000000"
       d="m 451.4915,602.72277 c -0.51786,-0.27136 -1.4473,-0.49344 -2.06542,-0.49344 -2.16036,0 -6.23279,-2.65606 -6.96089,-4.53994 -0.1934,-0.50033 -0.51109,-2.00203 -0.70596,-3.33703 -0.33483,-2.29349 -0.59005,-2.98403 -2.27228,-6.14747 -0.5695,-1.07094 -0.69579,-1.8826 -0.69579,-4.4721 0,-1.73998 -0.2054,-3.97518 -0.45644,-4.96699 -0.83686,-3.30638 -0.96345,-6.12062 -0.38313,-8.51814 0.51324,-2.12031 0.50295,-2.40756 -0.27413,-7.65281 -0.44408,-2.9973 -1.28975,-7.82776 -1.87931,-10.73429 -0.95171,-4.69187 -1.0744,-5.91438 -1.09395,-10.89947 -0.0203,-5.16754 0.0507,-5.87632 0.89036,-8.89637 0.50181,-1.80481 1.80698,-5.44093 2.90039,-8.08026 1.92849,-4.6551 1.9806,-4.85847 1.7402,-6.79226 -0.13629,-1.09643 -0.25807,-3.77706 -0.27063,-5.95695 -0.025,-4.3344 -0.039,-4.37333 -2.68974,-7.54187 -0.58273,-0.69652 -1.38465,-2.07134 -1.78205,-3.05515 -0.40206,-0.99531 -0.93158,-1.78874 -1.19378,-1.78874 -1.21106,0 -2.4974,-1.10087 -3.2715,-2.79979 -0.86408,-1.89638 -1.76918,-6.04502 -1.76918,-8.10925 0,-0.69994 -0.14502,-1.36267 -0.32228,-1.47273 -0.17724,-0.11007 -9.83751,2.92806 -21.46724,6.7514 -11.62973,3.82332 -21.37062,6.95151 -21.64643,6.95151 -0.2758,0 -1.56194,-1.09888 -2.85806,-2.44194 l -2.3566,-2.44196 0,-3.00499 c 0,-2.50468 0.0958,-3.06486 0.57526,-3.36467 0.31639,-0.19784 5.01299,-1.80279 10.43688,-3.56656 l 9.86161,-3.20688 0.0863,-12.12487 c 0.0474,-6.66869 -0.0412,-12.12487 -0.1969,-12.12487 -0.37103,0 -5.32218,3.70987 -6.01128,4.50423 -0.29353,0.33837 -0.70935,1.16515 -0.92405,1.83729 -0.76447,2.39336 -3.43125,3.90153 -6.12276,3.46267 -1.11507,-0.18181 -3.88714,-2.3766 -7.27796,-5.76229 -1.43653,-1.43436 -3.22296,-4.67926 -4.86178,-8.83106 l -0.91262,-2.31201 0.23286,-7.77618 0.23284,-7.77617 -1.46743,-1.47442 c -1.45189,-1.45883 -2.52634,-3.93532 -2.52634,-5.82299 0,-0.42118 -0.15097,-0.76577 -0.33547,-0.76577 -0.64115,0 -11.33569,2.73574 -11.59381,2.96578 -0.14284,0.12729 -0.11476,0.88689 0.0625,1.68799 0.17716,0.8011 0.49072,3.34361 0.69678,5.65005 0.79539,8.90282 -1.03352,17.17924 -5.04417,22.82644 -1.59794,2.24998 -2.81605,3.32184 -5.15258,4.53397 -1.79959,0.93358 -6.43814,1.28849 -8.66237,0.66278 -1.34096,-0.37723 -1.49143,-0.34657 -2.86863,0.58462 -4.16123,2.81359 -9.83215,2.65754 -14.56498,-0.40076 -5.36485,-3.46674 -10.92626,-11.89018 -13.21435,-20.01479 -0.48601,-1.72574 -0.921,-3.18324 -0.96666,-3.23886 -0.0457,-0.0557 -3.74225,0.79899 -8.21468,1.89914 -4.47243,1.10015 -8.26756,2.0003 -8.43362,2.0003 -0.16606,0 -0.66502,-0.36483 -1.1088,-0.81071 -0.66341,-0.66657 -0.80685,-1.13759 -0.80685,-2.64937 0,-1.58987 0.10009,-1.88285 0.73962,-2.16512 0.40679,-0.17953 4.21584,-1.14504 8.46455,-2.14556 4.24872,-1.00052 7.87896,-1.87427 8.06723,-1.94168 0.22938,-0.0821 0.25706,-1.14251 0.084,-3.21452 -0.31363,-3.75299 0.15021,-9.45371 1.06008,-13.02866 0.91438,-3.59276 3.21216,-8.17179 5.24126,-10.44483 3.09215,-3.46393 7.87175,-4.94672 12.17386,-3.77673 1.80305,0.49035 1.81185,0.48909 3.23807,-0.45814 2.33508,-1.55089 4.30496,-2.05134 7.5629,-1.92138 2.53068,0.10096 3.17265,0.26177 5.32468,1.33386 1.34588,0.67049 3.2768,1.96423 4.29094,2.87501 3.57163,3.20759 7.60875,9.29326 9.3534,14.09959 0.86037,2.37023 0.89659,2.41356 1.85576,2.2208 0.53806,-0.10812 4.03404,-0.96858 7.76886,-1.91214 l 6.7906,-1.71556 -0.0806,-0.96193 c -0.13961,-1.66424 0.56061,-4.30361 1.32757,-5.00417 0.399,-0.36446 1.79225,-0.89915 3.09612,-1.1882 2.14049,-0.47454 2.52976,-0.69142 4.00935,-2.23379 1.73633,-1.80998 1.68156,-1.79633 4.42634,-1.10414 0.66089,0.16665 0.90285,0.0759 1.05695,-0.39691 0.61275,-1.87945 2.24643,-4.78422 3.30901,-5.88353 0.67037,-0.69354 2.19044,-1.71892 3.37796,-2.27862 1.83015,-0.86257 2.63826,-1.03725 5.30387,-1.14653 3.96497,-0.16253 6.2773,0.31886 9.49569,1.97685 3.94896,2.03437 4.82071,2.89866 5.63261,5.58442 0.38081,1.25971 0.78893,2.29351 0.90691,2.29732 0.118,0.004 10.31035,-2.47765 22.64969,-5.51433 l 22.43517,-5.52127 0,-1.04686 c 0,-2.47762 3.06012,-4.21159 7.56308,-4.28554 1.97094,-0.0324 3.35759,-0.25681 4.6966,-0.76018 2.8138,-1.0578 4.32222,-0.96106 5.60156,0.35919 l 1.04018,1.07343 6.49222,-1.61003 6.49223,-1.61001 0,-4.20931 c 0,-4.85614 0.59168,-8.74384 1.89214,-12.43267 1.9581,-5.55424 5.02133,-9.64629 8.6544,-11.56113 1.6016,-0.84412 2.1319,-0.94408 5.27836,-0.99491 3.44449,-0.0557 3.52226,-0.0743 5.09516,-1.22201 2.36197,-1.72351 4.52711,-2.30346 7.95169,-2.12994 2.29744,0.1164 3.23119,0.33203 4.81773,1.11255 5.08966,2.50395 10.86649,10.27664 13.17748,17.73023 0.32387,1.04454 0.74673,1.89952 0.93972,1.89995 0.19297,3.2e-4 4.39934,-0.99727 9.34749,-2.21713 l 8.99663,-2.2179 0.79871,0.93296 c 0.66162,0.77285 0.78186,1.22421 0.70061,2.62999 l -0.0981,1.69701 -9.36854,2.33768 -9.36852,2.33766 0.16436,1.95606 c 0.0904,1.07584 0.14547,4.48276 0.12238,7.57095 -0.0366,4.89691 -0.1514,6.0372 -0.89768,8.91774 -1.77496,6.85106 -5.57025,12.57167 -9.68913,14.60432 -1.67042,0.82434 -2.22317,0.92129 -5.35764,0.93968 -3.3491,0.0196 -3.54128,0.0598 -4.60208,0.96053 -2.13862,1.81598 -3.74135,2.32192 -7.35272,2.32101 -2.99892,-6.5e-4 -3.47755,-0.0914 -5.45751,-1.03325 -6.26889,-2.98212 -12.50037,-12.36339 -14.45122,-21.75573 -0.22638,-1.08994 -0.5118,-2.09848 -0.63425,-2.24118 -0.36645,-0.42703 -12.85976,2.82228 -12.67829,3.29742 0.0854,0.22374 0.25212,1.4896 0.3704,2.81301 0.21295,2.38289 0.20312,2.42379 -1.01445,4.22278 -0.67624,0.99912 -1.43201,2.29485 -1.67953,2.87941 -0.62582,1.47798 -0.60659,8.15175 0.0288,9.96095 1.37632,3.91947 1.28278,8.88316 -0.26953,14.30476 -0.43242,1.51022 -0.96564,4.03311 -1.18494,5.60642 -0.62866,4.51017 -1.17311,4.80493 -8.72151,4.72178 -4.88646,-0.0538 -5.56972,-0.14109 -9.63253,-1.23046 -2.40515,-0.64488 -4.32816,-1.06724 -4.27336,-0.93858 0.49744,1.16795 3.94691,5.36586 4.79167,5.83136 0.59185,0.32612 1.37471,1.07841 1.73966,1.67174 0.70551,1.14698 1.34407,1.43604 5.06548,2.29312 1.86386,0.42926 2.57138,0.78875 3.78029,1.92076 1.24307,1.16395 2.21596,1.64345 5.925,2.92011 2.44075,0.84011 6.21281,1.9967 8.38237,2.57022 3.95642,1.04587 6.44163,1.97585 7.3842,2.76323 0.27779,0.23207 1.61452,0.84063 2.97049,1.35238 1.35597,0.51175 4.3899,1.85826 6.74207,2.99226 3.77243,1.81873 4.66384,2.41828 7.56057,5.08516 2.71838,2.5027 3.8783,3.31014 6.73546,4.68875 1.89837,0.916 3.94553,2.13788 4.54927,2.71533 1.79072,1.71274 3.05416,4.79454 3.98025,9.70868 0.25156,1.33477 0.21602,2.03217 -0.15778,3.09668 -0.63432,1.80641 -0.60989,4.75158 0.0757,9.12519 0.64722,4.12887 0.79879,19.65623 0.29608,30.32957 -0.32823,6.969 -0.0187,9.90622 1.24221,11.78615 0.38699,0.577 2.10756,2.14089 3.82351,3.4753 1.71593,1.3344 4.67763,4.05369 6.58155,6.04284 1.90391,1.98916 3.70049,3.61665 3.99241,3.61665 0.29191,0 1.54471,0.42759 2.78402,0.95019 1.2393,0.52263 2.84332,1.05619 3.56448,1.18574 1.38168,0.24826 4.22822,2.13126 4.77576,3.15923 0.1777,0.33363 0.32309,1.13175 0.32309,1.77363 0,1.02425 -0.21114,1.32439 -1.72578,2.45378 -2.82146,2.1037 -4.784,2.47616 -8.25759,1.56705 -0.98859,-0.25871 -3.02976,-0.57564 -4.53594,-0.70424 -2.55891,-0.21849 -2.99496,-0.37505 -6.64865,-2.38656 -4.14518,-2.28214 -7.04807,-3.37035 -9.02142,-3.38178 -0.66187,0 -2.68266,0.24274 -4.49061,0.54799 -1.86949,0.31556 -3.7937,0.45938 -4.46155,0.33331 -1.28158,-0.24193 -3.01309,-1.74193 -3.81958,-3.30897 -0.86814,-1.68678 -0.41704,-5.0658 1.21417,-9.09499 1.80607,-4.46106 2.54696,-9.41629 2.00163,-13.38715 -0.70077,-5.10267 -2.00225,-9.76193 -3.19136,-11.42499 -1.72037,-2.40605 -2.67728,-4.8295 -3.29744,-8.35104 -0.5085,-2.88754 -0.52751,-3.82595 -0.17399,-8.58745 0.21828,-2.94013 0.39472,-6.3267 0.39207,-7.52571 l -0.005,-2.18002 -2.20516,-1.12285 c -1.21285,-0.61756 -3.04533,-1.90374 -4.07218,-2.85818 l -1.86701,-1.73532 -0.21741,1.16439 c -0.25162,1.34774 -1.80265,3.25795 -3.27442,4.03273 -0.56076,0.29519 -6.76538,2.58042 -13.78809,5.07829 -7.02268,2.49787 -12.82975,4.6031 -12.90458,4.67829 -0.0748,0.0752 -0.23324,7.22823 -0.35199,15.89564 l -0.21595,15.75895 0.79351,-0.34472 c 5.13929,-2.23261 21.92768,-8.57848 22.30751,-8.43202 0.27512,0.10607 1.79679,1.01488 3.38154,2.01958 l 2.88134,1.82673 0,3.42687 c 0,2.97435 -0.079,3.46929 -0.59755,3.74819 -0.32865,0.17673 -9.90674,3.98777 -21.28464,8.469 -11.3779,4.48122 -20.89455,8.23085 -21.14812,8.33244 -0.38469,0.15412 -0.42494,1.3127 -0.24312,6.99762 0.11983,3.74712 0.36293,7.32113 0.54023,7.94225 0.17727,0.62113 1.11351,1.95241 2.0805,2.9584 2.72889,2.83914 3.97373,4.56785 5.47931,7.60928 0.9404,1.89962 2.0686,3.5179 3.48916,5.00477 1.15467,1.20851 2.0994,2.44105 2.0994,2.739 0,0.29787 0.66565,1.25669 1.47924,2.13061 1.88635,2.02626 1.92028,2.88786 0.18717,4.7536 -1.26655,1.36346 -1.33469,1.39079 -3.45156,1.38454 -1.18771,0 -2.1595,0.11018 -2.1595,0.25255 0,0.60572 -2.21457,1.5681 -3.61592,1.57134 -0.92115,0 -1.85131,0.25101 -2.4654,0.65964 -1.17112,0.77931 -2.92387,0.84693 -4.22877,0.16313 z m 3.28721,-1.9777 c 0.51786,-0.27136 1.62424,-0.49433 2.45865,-0.49545 1.73919,0 3.05668,-0.83712 3.38303,-2.14368 0.239,-0.95669 0.72094,-1.05293 1.54071,-0.30751 0.3166,0.28791 1.15226,0.60117 1.85704,0.69612 1.13934,0.15356 1.38008,0.0552 2.17136,-0.88998 0.87577,-1.04572 0.88064,-1.07718 0.30552,-1.97065 -1.51683,-2.3564 -2.71516,-3.91395 -4.55601,-5.92173 -1.0996,-1.19936 -2.55368,-3.21063 -3.23129,-4.46942 -1.25277,-2.32739 -2.78924,-4.44932 -5.7039,-7.87748 -1.81923,-2.13977 -2.1955,-3.14147 -2.69128,-7.16513 -0.41275,-3.3496 -0.44646,-16.5113 -0.0467,-18.24018 0.15536,-0.67194 0.89281,-2.14006 1.63878,-3.26248 2.03127,-3.05632 2.46702,-4.94586 2.24037,-9.71475 -0.10371,-2.18175 -0.31361,-4.30378 -0.46647,-4.71561 -0.25773,-0.69434 -0.35893,-0.61451 -1.3918,1.09784 -2.05744,3.41096 -4.9488,12.41792 -4.9488,15.41617 0,1.186 -0.0562,1.27858 -0.53415,0.88003 -1.62926,-1.35862 1.62136,-13.95441 4.8229,-18.68824 1.60257,-2.3696 2.18646,-4.102 2.57366,-7.63622 0.25102,-2.29122 0.48751,-3.02612 1.43552,-4.4607 2.20991,-3.34425 2.32734,-3.72255 2.12579,-6.84833 -0.12295,-1.90694 -0.0528,-3.11238 0.21208,-3.64629 0.53422,-1.07666 0.98911,-1.00404 1.21069,0.19328 l 0.18337,0.99086 0.55947,-1.05705 c 0.66427,-1.25498 0.74842,-5.40728 0.21719,-10.71572 -0.78219,-7.81635 -3.33912,-13.13053 -7.31895,-15.21138 -1.72167,-0.90017 -6.58188,-1.1893 -10.06599,-0.59883 -2.9614,0.50188 -4.55482,1.66413 -6.31384,4.60533 -1.51537,2.53379 -1.63236,4.05759 -0.57592,7.50192 0.89557,2.91987 1.65483,4.41326 3.58601,7.0534 0.8637,1.18079 1.90711,2.84572 2.31869,3.69986 0.68264,1.41666 0.71032,1.66873 0.31529,2.87139 -0.42103,1.28181 -0.4089,1.74307 0.19354,7.35782 0.14728,1.37267 0.0368,2.38818 -0.41283,3.7983 -0.94885,2.97509 -0.75249,5.51603 0.7946,10.28224 1.06938,3.29449 1.21988,4.04459 0.79492,3.96237 -0.74876,-0.14489 -1.67222,-1.88549 -2.89192,-5.45089 l -1.06086,-3.10109 -0.71161,1.91102 c -1.61277,4.33107 -2.11224,7.27262 -2.12022,12.48686 -0.008,4.66634 0.0858,5.40543 1.59898,12.71604 1.4212,6.86625 1.60964,8.25712 1.63342,12.05547 0.02,3.20228 -0.11585,4.74095 -0.5346,6.05308 -0.55956,1.75329 -0.55889,1.76172 0.20008,2.47714 0.41885,0.39484 0.93146,1.0415 1.13911,1.43708 0.45079,0.85877 0.14986,1.86661 -0.48433,1.6221 -0.54737,-0.21105 -0.55133,-0.15267 -0.0694,1.02261 0.20974,0.51135 0.39465,2.56785 0.41091,4.56988 0.0286,3.51353 0.0664,3.69781 1.08843,5.29875 1.47587,2.31165 2.06396,4.18209 2.06396,6.56435 0,1.79868 0.10834,2.14764 0.90398,2.91187 1.04831,1.00689 5.25303,2.88843 6.45481,2.88843 0.45124,0 0.91184,0.14861 1.02358,0.33031 0.29683,0.48256 1.59305,0.40352 2.67437,-0.16313 z m 4.45886,-3.53606 c -0.21696,-0.21803 -0.39446,-0.56122 -0.39446,-0.76262 0,-0.20147 -0.19491,-0.6341 -0.43314,-0.96141 -0.39004,-0.53599 -0.48355,-0.54458 -0.93942,-0.0865 -0.59173,0.59453 -6.06974,1.1054 -7.98398,0.74461 -0.99823,-0.18817 -1.18584,-0.35025 -1.10074,-0.95119 0.0857,-0.60484 0.29234,-0.71243 1.25311,-0.65242 4.02353,0.25141 7.56057,0.0244 7.56057,-0.48476 0,-1.01387 2.41296,0.18955 3.11494,1.5535 0.76696,1.49027 -0.0211,2.66158 -1.07688,1.60078 z M 442.40709,577.4299 c 0,-0.19701 0.65273,-1.20025 1.4505,-2.22943 0.79777,-1.02919 2.01815,-2.91162 2.71194,-4.18323 1.16191,-2.12964 1.27,-2.23682 1.36983,-1.35826 0.20514,1.80516 -3.58968,8.12912 -4.87803,8.12912 -0.35983,0 -0.65424,-0.16117 -0.65424,-0.3582 z m 7.67211,-56.75991 c -0.98466,-0.60326 -1.70203,-1.83645 -1.30208,-2.23832 0.10141,-0.10188 0.92659,0.13558 1.83375,0.52769 1.03603,0.44781 1.95543,0.63574 2.47236,0.50539 0.58912,-0.14857 0.88097,-0.0557 1.02715,0.32714 0.5581,1.4613 -2.12523,2.0458 -4.03118,0.8781 z m 8.01293,-12.44626 c -0.12421,-0.1248 -0.32226,-0.95729 -0.44012,-1.84997 -0.1639,-1.24143 -0.54102,-2.01839 -1.60397,-3.30449 -1.34842,-1.63151 -1.63537,-2.89864 -0.65641,-2.89864 0.64513,0 2.79603,2.56285 3.50784,4.17966 0.74516,1.69262 0.70606,3.85571 -0.0724,4.00362 -0.28002,0.0531 -0.61074,-0.006 -0.73496,-0.13018 z m -11.00077,-1.6661 c -0.81517,-0.33049 -0.37688,-1.23517 1.47923,-3.05319 1.03958,-1.01826 2.37393,-2.43456 2.96519,-3.14734 1.16626,-1.4059 1.98158,-1.28231 1.60067,0.24263 -0.30639,1.22655 -3.04145,4.78717 -4.24235,5.52288 -1.12343,0.68825 -1.15774,0.69651 -1.80274,0.43502 z m 100.16103,59.52521 c 0.216,-0.26146 0.34506,-0.89314 0.28679,-1.40367 -0.0973,-0.8526 -0.23994,-0.94203 -1.74953,-1.09664 -0.90398,-0.0927 -2.00935,-0.42703 -2.45637,-0.74314 -0.44702,-0.31612 -1.14092,-0.57475 -1.54202,-0.57475 -0.40109,0 -0.82132,-0.14975 -0.93385,-0.33266 -0.3936,-0.63986 0.88815,-0.74339 2.73796,-0.22118 1.02606,0.28969 2.42733,0.61521 3.11395,0.72336 0.94137,0.14821 1.40589,0.45615 1.8889,1.25207 l 0.64053,1.05553 -0.0191,-0.99083 c -0.0149,-0.77453 -0.32409,-1.21389 -1.41549,-2.01208 -0.76802,-0.56162 -2.00308,-1.1186 -2.7446,-1.23778 -0.74152,-0.11912 -2.72212,-0.76805 -4.4013,-1.44204 -2.81771,-1.13101 -3.28245,-1.45605 -6.02834,-4.21639 -1.63637,-1.645 -4.29064,-3.95502 -5.89835,-5.13337 -4.44491,-3.25783 -5.34979,-4.14876 -5.91923,-5.82791 -0.96518,-2.84615 -1.28103,-6.91602 -1.05974,-13.65461 0.56656,-17.25083 0.59109,-19.44929 0.2487,-22.29437 -0.19676,-1.63493 -0.52762,-4.4021 -0.73524,-6.14926 -0.30732,-2.58608 -0.47676,-3.16944 -0.9114,-3.13773 -0.39139,0.0285 -0.56178,-0.30234 -0.63831,-1.23953 -0.0818,-1.00182 0.14939,-1.69159 1.06833,-3.18751 0.68101,-1.10853 1.17274,-2.33661 1.17274,-2.92872 0,-1.71878 -1.89664,-7.083 -3.2461,-9.18083 -1.22113,-1.89833 -1.41197,-2.04234 -4.33918,-3.27425 -2.65968,-1.11932 -3.46259,-1.66563 -6.11256,-4.15901 -1.67788,-1.57873 -4.08408,-3.48728 -5.34711,-4.24121 -3.29668,-1.96785 -11.02819,-5.13169 -13.14393,-5.37868 -2.06073,-0.24056 -6.08736,0.48887 -7.93946,1.43824 -3.12761,1.60319 -4.82476,5.50866 -6.04119,13.90192 -0.27981,1.9307 -0.50876,3.65507 -0.50876,3.83188 0,0.55305 5.13231,3.04193 7.30029,3.54023 1.13753,0.26147 3.9173,0.6366 6.17725,0.83364 6.0526,0.52772 7.80364,1.15111 11.1765,3.97899 3.42482,2.87145 6.93749,4.65733 9.68092,4.92188 1.48971,0.14365 2.00717,0.32742 2.0858,0.74074 0.0854,0.44906 -0.28391,0.59153 -2.01697,0.778 l -2.12153,0.22827 -0.5255,3.51576 c -0.82553,5.52324 -0.97046,8.5752 -0.55585,11.70566 0.70368,5.31303 1.78934,7.83572 5.36923,12.4762 1.02391,1.32726 1.56142,2.34712 1.56142,2.96265 0,1.09851 -0.49562,1.52372 -1.14495,0.98224 -0.38491,-0.32096 -0.41292,-0.20593 -0.1741,0.71473 0.67236,2.59187 1.07716,7.41723 0.88989,10.60777 -0.22845,3.89228 -0.73441,5.79216 -2.54349,9.55096 -2.50588,5.20656 -1.1906,8.51747 3.38365,8.51747 3.49446,0 6.49214,-0.42062 6.49214,-0.91097 0,-1.07686 3.12495,0.0931 8.02965,3.00614 1.50296,0.89266 2.32245,1.21559 2.41061,0.94982 0.21529,-0.64902 0.92127,-0.46392 1.35801,0.35601 0.72942,1.36945 1.65644,1.67261 5.81794,1.90246 2.18587,0.12072 4.25681,0.3843 4.60208,0.5857 0.93874,0.54759 4.24595,0.48508 4.72029,-0.0892 z M 514.16015,554.0084 c -1.00812,-0.4181 -1.27237,-1.76036 -0.63817,-3.24172 0.28681,-0.66999 0.56402,-1.57806 0.61601,-2.01798 0.0519,-0.43991 0.26119,-0.85493 0.4649,-0.92224 0.64925,-0.21456 0.76817,0.83147 0.27939,2.4573 -0.67004,2.22877 -0.4392,2.6724 1.52692,2.93446 0.90468,0.12059 1.52465,0.33218 1.37769,0.47023 -0.45442,0.42685 -2.85772,0.63887 -3.62674,0.31995 z m -7.66883,-61.22364 c -1.9468,-0.52755 -3.73997,-1.65801 -4.75867,-2.99997 -0.76632,-1.00947 -1.45278,-1.40931 -4.52823,-2.63737 -1.13265,-0.45229 -1.21435,-0.56491 -0.87366,-1.20452 0.30011,-0.56345 0.57377,-0.6658 1.35849,-0.5081 1.02775,0.20653 5.53111,3.074 5.53111,3.5219 0,0.14201 0.75007,0.81142 1.66684,1.48759 1.64581,1.2139 1.69551,1.22672 3.94462,1.0167 2.05568,-0.19197 2.27783,-0.15451 2.27783,0.38411 0,1.40335 -1.66048,1.7412 -4.61833,0.93966 z m 4.58042,-2.27502 c -0.0209,-0.0454 -0.0691,-1.49456 -0.10707,-3.2203 -0.0588,-2.66408 -0.22666,-3.5279 -1.1126,-5.72241 -1.19807,-2.96766 -1.3482,-4.2912 -0.4682,-4.12785 0.32877,0.061 1.03041,1.0267 1.63748,2.25366 0.92124,1.86192 1.09092,2.6127 1.2785,5.65677 0.23606,3.83094 0.0466,5.24269 -0.70337,5.24269 -0.26776,0 -0.50389,-0.0371 -0.52474,-0.0826 z m -37.43622,57.44908 19.55887,-7.69505 0.0894,-2.29364 0.0893,-2.29364 -2.27469,-1.40372 c -1.25107,-0.77205 -2.4007,-1.40345 -2.55474,-1.40312 -0.15402,3.3e-4 -5.37853,2.01293 -11.61001,4.47245 -6.23148,2.45953 -11.6307,4.42859 -11.9983,4.37571 -0.6624,-0.0952 -0.66798,-0.24303 -0.62925,-16.67635 l 0.039,-16.5802 -1.02498,0.42023 c -0.87446,0.35851 -1.17881,0.82893 -2.07272,3.20357 -0.57626,1.53084 -1.14452,3.45218 -1.2628,4.26964 -0.11826,0.81746 -0.93301,3.04689 -1.81056,4.95431 -1.99453,4.33526 -2.58872,8.31115 -1.99632,13.35805 0.75851,6.46215 0.15223,10.05105 -2.61973,15.50789 -1.02485,2.01749 -1.73351,3.88864 -1.85135,4.88826 l -0.19089,1.61954 1.28043,-0.51443 c 0.70425,-0.28294 10.08194,-3.9772 20.8393,-8.2095 z m 4.06131,-46.31625 c 15.69649,-5.56248 16.32258,-5.86441 16.76456,-8.08487 0.11362,-0.57076 0.0596,-1.31379 -0.12017,-1.65117 -0.35334,-0.66338 -0.65076,-0.71762 -6.9634,-1.26998 -2.80477,-0.24541 -4.72617,-0.63236 -7.10583,-1.43102 -3.18874,-1.07021 -3.28276,-1.08175 -4.2094,-0.51627 -2.13236,1.30129 -4.53821,0.34214 -9.16583,-3.65416 -1.08477,-0.93678 -2.22564,-1.70456 -2.53526,-1.70617 -0.30961,-0.002 -1.39828,0.31111 -2.41931,0.69493 l -1.85635,0.69788 0.2217,1.36641 c 0.12193,0.75154 0.35735,2.85272 0.52315,4.6693 0.1658,1.81658 0.44564,3.97171 0.62185,4.78916 0.17624,0.81746 0.32687,2.12263 0.33473,2.90038 0.009,0.83962 0.18686,1.48061 0.43904,1.57785 0.23361,0.0901 6.03963,-1.67737 12.90228,-3.92764 8.97871,-2.94412 12.59741,-3.99652 12.90495,-3.75309 0.35072,0.27762 0.35072,0.4123 0,0.75065 -0.23506,0.22679 -6.15946,2.29119 -13.1653,4.58757 l -12.73793,4.17523 0,2.65989 c 0,1.99027 0.10344,2.62093 0.4109,2.50511 0.226,-0.0851 7.04602,-2.50613 15.15562,-5.37999 z m -70.29846,-10.51865 c 11.39016,-3.74387 20.93127,-6.93472 21.20247,-7.09076 1.09229,-0.62853 0.5111,-1.67667 -2.28691,-4.12421 l -2.77998,-2.43175 -5.85907,1.96552 c -4.73283,1.58771 -5.9519,1.88812 -6.342,1.56281 -0.39763,-0.33157 -0.48295,-1.66875 -0.48295,-7.56892 l 0,-7.1662 -3.45156,-3.04539 -3.45157,-3.04543 0,11.38446 c 0,9.15566 -0.0874,11.46992 -0.44637,11.82093 -0.24551,0.24004 -5.05304,1.91804 -10.6834,3.72887 l -10.23705,3.29243 0,1.98258 c 0,1.96773 0.014,1.9968 1.86447,3.87571 1.02548,1.04122 1.95001,1.84211 2.05452,1.77976 0.10451,-0.0623 9.50924,-3.17654 20.8994,-6.92041 z m 26.32213,-1.58851 c 2.09641,-4.1986 4.67616,-6.53472 7.97782,-7.22442 3.74677,-0.78267 10.33245,-0.12468 13.1361,1.31247 0.71956,0.36883 1.85521,1.30741 2.52369,2.08572 l 1.21541,1.41512 -0.11175,-1.6351 c -0.10948,-1.60205 -0.0852,-1.65051 1.20314,-2.397 1.98369,-1.14942 4.70245,-1.88333 5.54551,-1.49696 0.38509,0.17648 2.17942,1.42542 3.98738,2.77542 1.80798,1.35001 3.43512,2.54481 3.61592,2.65514 0.20536,0.1253 0.28642,-0.3333 0.21599,-1.22197 -0.12761,-1.61051 0.71232,-7.91746 1.45166,-10.90015 0.58094,-2.34368 2.14338,-5.82056 3.30078,-7.34525 1.20794,-1.59122 6.40705,-4.03336 8.64275,-4.05971 1.27176,-0.015 0.33679,-0.45189 -2.7634,-1.29132 -1.44637,-0.39163 -5.53853,-1.78248 -9.09369,-3.09079 -5.14805,-1.89448 -6.56455,-2.54682 -6.95822,-3.20445 -0.39034,-0.65206 -1.34683,-1.10044 -4.5482,-2.13208 -2.22965,-0.71849 -4.79354,-1.38732 -5.69752,-1.4863 -1.98238,-0.21701 -2.02401,-0.71405 -0.0998,-1.19153 1.33165,-0.33043 1.37254,-0.37403 0.69666,-0.74314 -0.99363,-0.54263 -4.26043,-0.49031 -7.17671,0.11493 -6.44611,1.33782 -14.51922,5.62849 -19.16012,10.18312 -3.94004,3.86678 -4.6256,5.5608 -3.74574,9.25562 0.40489,1.70034 0.65288,2.1737 1.17923,2.25087 0.36658,0.0537 1.11646,0.74339 1.66639,1.53255 0.90728,1.30193 0.99858,1.66907 0.98584,3.96401 -0.008,1.39106 -0.21712,3.61054 -0.46532,4.93219 -0.3947,2.10183 -0.38292,2.95662 0.0941,6.82028 0.6774,5.48681 0.9448,6.27925 1.26737,3.75589 0.13236,-1.03544 0.63399,-2.67037 1.11473,-3.63316 z m 23.02955,-8.9473 c -0.43554,-0.58323 -1.16279,-1.80357 -1.61613,-2.71185 -1.52322,-3.05183 -3.44863,-4.45888 -6.10161,-4.45888 -1.52641,0 -2.33571,-0.70989 -1.69441,-1.48628 1.2113,-1.4665 5.75457,0.17594 7.61585,2.75321 1.82961,2.53341 3.56026,5.47252 3.56046,6.04662 3.3e-4,1.02901 -0.9463,0.95238 -1.76416,-0.14282 z m 8.72484,-10.72703 c 0.112,-2.35364 0.32508,-3.29656 1.13825,-5.03688 1.00761,-2.15648 2.55207,-4.28801 3.10697,-4.28801 0.51827,0 0.33712,0.50786 -1.02339,2.86895 -1.12752,1.9568 -1.3715,2.73142 -1.65218,5.24574 -0.40353,3.61464 -0.54667,4.10593 -1.1963,4.10593 -0.43398,0 -0.49034,-0.43712 -0.37335,-2.89573 z m -35.66273,1.11922 c -0.64617,-1.69186 1.58503,-5.56336 5.52744,-9.59101 3.24168,-3.31177 4.56313,-4.09598 8.35055,-4.95567 2.94352,-0.66812 3.44055,-0.90999 5.12699,-2.49492 1.6145,-1.51734 2.41535,-1.84478 2.69852,-1.10333 0.14381,0.37654 -0.19059,0.88704 -1.08078,1.64999 -2.39716,2.05452 -4.21367,3.03053 -6.54855,3.51852 -3.32499,0.69495 -4.11153,1.11412 -6.92073,3.6883 -2.83724,2.5999 -3.49324,3.53184 -5.05666,7.18376 -1.04261,2.43538 -1.71329,3.10848 -2.09678,2.10436 z m 12.04832,-4.68514 c -0.31403,-0.82226 0.41421,-2.0253 1.86526,-3.08147 1.44388,-1.05091 10.94857,-4.9288 16.18964,-6.60532 3.25124,-1.04002 4.8447,-1.2769 4.8447,-0.72019 0,0.47341 -2.91623,1.73734 -9.1641,3.97186 -7.69577,2.75235 -8.94928,3.34559 -11.17037,5.28665 -2.08812,1.82483 -2.27488,1.90845 -2.56513,1.14847 z m 5.18875,0.23244 c -0.58775,-0.39271 -0.18553,-1.03711 0.64734,-1.03711 1.13618,0 2.77488,-0.86914 4.93273,-2.61623 2.24681,-1.81914 2.71167,-1.99338 7.55877,-2.833 1.73411,-0.30039 3.58316,-0.83114 4.10901,-1.17945 1.28096,-0.84847 2.43532,-0.84121 2.43532,0.0153 0,1.04789 -1.23353,1.58769 -5.64235,2.46912 -5.11224,1.02205 -5.5892,1.20244 -7.10857,2.68842 -0.67083,0.65608 -1.74091,1.46082 -2.37794,1.78833 -1.41323,0.72654 -3.93705,1.11701 -4.55431,0.7046 z m 27.52537,20.79806 c 0.27091,-0.17247 0.3178,-0.36355 0.11943,-0.48673 -0.17961,-0.11153 -0.50936,0.0186 -0.73278,0.289 -0.44357,0.53701 -0.0957,0.64916 0.61335,0.19773 z M 427.97909,477.0114 c -0.35466,-0.97758 -0.96924,-2.96492 -1.3657,-4.41628 -0.4012,-1.46864 -0.97593,-2.81835 -1.29606,-3.04363 -0.31636,-0.22265 -5.11712,-4.21141 -10.66834,-8.86392 -8.98865,-7.53342 -10.11386,-8.37952 -10.28239,-7.73191 -0.10411,0.39994 -0.50751,1.33188 -0.8965,2.07096 l -0.70724,1.34377 2.81082,2.53012 c 7.05535,6.35072 22.82934,20.11032 22.93395,20.00521 0.0639,-0.0642 -0.17385,-0.91672 -0.52854,-1.89432 z m -10.48378,0.35935 c 2.31132,-0.73217 4.2024,-1.37701 4.2024,-1.43297 0,-0.056 -1.51361,-1.42624 -3.36355,-3.04508 -1.84997,-1.61883 -3.84693,-3.36747 -4.43773,-3.88583 l -1.07416,-0.94252 0,5.31882 c 0,2.92534 0.10589,5.3188 0.23532,5.3188 0.12942,0 2.12641,-0.59905 4.43772,-1.33122 z m 12.27762,-2.4563 c -0.31154,-0.81963 -0.7103,-1.57958 -0.88615,-1.68877 -0.17582,-0.10919 -0.0741,0.37232 0.226,1.07002 0.30013,0.6977 0.62236,1.53454 0.71607,1.85965 0.0937,0.32511 0.24689,0.5142 0.34044,0.42022 0.0936,-0.0941 -0.0848,-0.84149 -0.39636,-1.66112 z m -5.96942,-10.14613 c -1.35499,-2.70349 -4.03316,-5.57554 -6.54353,-7.01718 -0.90397,-0.51916 -3.13901,-1.88036 -4.96673,-3.02492 -1.82771,-1.14456 -3.75073,-2.18004 -4.27336,-2.30106 l -0.95023,-0.22007 1.15052,0.98766 c 2.51682,2.16054 16.60585,13.92974 16.68668,13.93914 0.0474,0.006 -0.44903,-1.05809 -1.10335,-2.36357 z m -87.36186,0.37159 c 4.58219,-2.22158 7.98575,-8.82035 9.01847,-17.48493 0.43919,-3.68479 0.19365,-8.18854 -0.72926,-13.37662 -2.0471,-11.50754 -8.18458,-21.6308 -15.23768,-25.13324 -2.3106,-1.1474 -2.83975,-1.28103 -5.0728,-1.28103 -2.06073,0 -2.81786,0.15965 -4.36577,0.92058 -3.4374,1.68978 -6.26974,5.80418 -8.00873,11.63393 -0.7801,2.61518 -0.89926,3.65338 -1.02219,8.90546 -0.0766,3.26984 -0.0174,6.12165 0.1313,6.33734 0.20134,0.29206 1.80486,0.007 6.27961,-1.11877 6.72201,-1.69018 7.27582,-1.66638 8.11387,0.34889 0.45337,1.09026 0.34618,2.13401 -0.33019,3.21515 -0.2126,0.33981 -2.56426,1.08299 -6.65659,2.10364 -4.7174,1.17654 -6.32786,1.70465 -6.32786,2.07503 0,1.04477 2.32417,7.41085 3.73894,10.24126 1.69362,3.38825 4.85366,7.75859 6.87695,9.51081 4.53182,3.92466 9.53882,5.06756 13.59193,3.1025 z m -3.42735,-0.70097 c -0.26573,-0.26698 0.19241,-0.90838 1.70125,-2.38178 2.26612,-2.21289 3.74085,-4.85839 4.71437,-8.457 0.82099,-3.03482 0.79512,-13.32613 -0.0453,-18.00064 -2.6348,-14.65617 -7.25163,-22.36353 -14.96356,-24.98031 -1.51328,-0.51347 -2.003,-0.82743 -1.92028,-1.23109 0.16289,-0.79491 1.64348,-0.54349 4.36103,0.74055 5.91494,2.7948 9.99019,8.9558 12.51068,18.91378 1.70173,6.72317 2.21053,11.20072 2.0212,17.78682 -0.17444,6.06749 -0.56059,8.081 -2.21699,11.56005 -1.60781,3.37695 -5.25704,6.95938 -6.16245,6.04962 z m 58.57206,0.68868 c 0.48236,-0.38124 1.23898,-1.41084 1.68136,-2.288 0.44942,-0.89111 1.55588,-2.22481 2.50755,-3.02256 3.81872,-3.2011 4.91852,-4.38915 5.87578,-6.34737 1.89556,-3.87754 2.48692,-9.27888 1.63968,-14.97645 -0.43291,-2.91132 -0.26924,-4.73633 0.48089,-5.36184 0.25565,-0.2132 0.3781,-0.61471 0.2721,-0.89225 -0.30014,-0.7859 0.52978,-1.08797 3.00433,-1.09346 3.5772,-0.008 4.95703,-0.90902 8.86275,-5.78775 0.52351,-0.65394 1.48681,-1.4632 2.14066,-1.79837 1.1091,-0.56851 4.62088,-1.69426 6.68691,-2.14354 0.74024,-0.16098 0.90399,-0.37493 0.90399,-1.18116 0,-0.65499 0.16505,-0.98457 0.49307,-0.98457 0.7248,0 0.66069,2.38803 -0.0821,3.0612 -0.31639,0.28672 -1.5769,0.75424 -2.80112,1.03893 -3.34436,0.77775 -4.73857,1.65012 -7.74418,4.84563 -3.398,3.61267 -4.63323,4.26572 -8.0684,4.26572 -1.48726,0 -2.46676,0.12781 -2.35627,0.30746 0.10402,0.16911 0.0389,0.40084 -0.14496,0.51493 -0.18373,0.1141 -0.33313,0.68174 -0.33199,1.2614 0.002,0.83011 0.21672,1.17668 1.0128,1.63195 1.16341,0.66532 2.37094,0.72042 5.017,0.22894 2.19245,-0.40723 3.17229,-0.19053 3.17229,0.7016 0,0.67029 -0.63584,0.85197 -1.16696,0.33344 -0.17176,-0.16768 -0.71764,-0.22496 -1.21306,-0.12726 -0.77763,0.15333 -0.87401,0.29663 -0.70493,1.04802 0.29904,1.32899 1.31318,2.02642 2.94668,2.02642 1.18722,0 1.39741,0.0919 1.22755,0.53666 -0.16832,0.44073 -0.55062,0.50518 -2.13864,0.36049 -1.06353,-0.0969 -2.13561,-0.34456 -2.3824,-0.55035 -0.35136,-0.293 -0.59511,-0.1676 -1.12352,0.578 -0.63112,0.89056 -0.6403,1.00166 -0.14169,1.71691 0.29321,0.4206 0.6194,1.67037 0.72489,2.77724 0.15921,1.6706 0.31745,2.06789 0.93142,2.33854 1.02942,0.45379 0.97754,1.49054 -0.0746,1.49054 -1.11367,0 -1.79697,-1.16457 -2.14821,-3.66127 -0.34289,-2.43748 -0.80428,-3.02976 -2.14952,-2.75944 l -0.96971,0.19487 -0.0838,2.69361 c -0.0461,1.48149 -0.16453,2.94884 -0.26306,3.26082 -0.14063,0.44513 0.12506,0.64502 1.23458,0.92886 5.38074,1.3765 8.69634,3.15429 14.8913,7.98461 1.98881,1.55072 3.85162,3.87761 4.55704,5.69239 0.0777,0.19982 0.39807,-0.009 0.71199,-0.46239 0.31393,-0.45414 1.94035,-2.1885 3.61428,-3.85409 l 3.04353,-3.02839 -2.19345,-0.54009 c -1.71308,-0.4218 -2.51518,-0.46561 -3.66238,-0.2 -2.01832,0.46731 -2.61945,0.43828 -2.61945,-0.12644 0,-1.2064 5.5791,-1.66649 8.66311,-0.71443 l 1.59562,0.49259 2.82832,-1.62946 c 1.55557,-0.89621 2.93517,-1.62945 3.06578,-1.62945 0.13061,0 0.28474,-0.3304 0.3425,-0.73422 0.0646,-0.452 0.60631,-1.01612 1.40911,-1.46762 1.53984,-0.86599 1.89812,-1.62273 1.30322,-2.75247 -0.23914,-0.45415 -0.68403,-1.38822 -0.98863,-2.07572 -0.30461,-0.68749 -0.83038,-1.39871 -1.16841,-1.58048 -0.72197,-0.38822 -0.82392,-1.29811 -0.14545,-1.29811 0.64013,0 2.48933,2.30962 2.48933,3.10912 0,0.35563 0.33283,1.011 0.73963,1.45635 0.46133,0.50508 0.59815,0.86079 0.36362,0.94542 -0.2068,0.0746 -0.30207,0.41978 -0.21169,0.76703 0.11069,0.42524 -0.18766,0.95439 -0.91382,1.62079 l -1.07814,0.98943 3.01351,-1.05863 c 1.65744,-0.58224 3.01446,-1.16233 3.0156,-1.28908 8.1e-4,-0.12676 -0.7745,-0.27538 -1.72369,-0.33029 -2.09758,-0.12133 -2.28657,-0.72015 -0.27289,-0.8647 1.91329,-0.13736 3.09297,0.1705 2.87186,0.74946 -0.13786,0.36097 0.0383,0.39154 0.87192,0.15131 0.57459,-0.16558 1.08264,-0.30104 1.12904,-0.30104 0.0464,0 0.0843,-0.72725 0.0843,-1.6161 0,-1.1909 0.14136,-1.67059 0.53724,-1.82324 0.45652,-0.176 0.51147,-0.0139 0.36563,1.07859 -0.2267,1.69817 0.0724,2.0982 1.47355,1.97075 l 1.15898,-0.10543 -2.10603,-2.97258 c -3.30109,-4.65938 -3.70384,-5.68629 -4.19592,-10.69871 -0.44551,-4.53796 -0.34054,-4.23373 -2.82238,-8.17966 -0.35374,-0.5624 -0.66923,-0.67656 -1.49685,-0.5416 -1.21942,0.19881 -1.85671,-0.44564 -1.03655,-1.04823 0.4463,-0.32788 0.24469,-0.52693 -1.34684,-1.32976 -1.02942,-0.51931 -2.53734,-1.02921 -3.35093,-1.13316 -0.82418,-0.10529 -1.40645,-0.33524 -1.31488,-0.51926 0.19594,-0.39375 3.07644,-0.4159 4.35555,-0.0334 2.42046,0.72361 -0.0608,-3.43246 -3.70319,-6.20291 l -2.11987,-1.61238 -3.29307,0.18216 c -3.4649,0.1917 -4.99506,0.5774 -6.51676,1.64268 -0.84533,0.59177 -0.87976,0.6935 -0.4109,1.21406 0.52553,0.58346 0.68738,1.34187 0.28639,1.34187 -0.12394,0 -0.54301,-0.29985 -0.93127,-0.66633 -0.97129,-0.91684 -4.98076,-1.97644 -7.46812,-1.97365 -3.61412,0.004 -9.08986,1.55314 -12.41336,3.51172 -3.41195,2.01071 -6.64432,5.85541 -6.70411,7.97413 -0.0423,1.49944 -0.96139,1.74814 -1.12626,0.30476 -0.12196,-1.06787 -0.43109,-1.03852 -3.25548,0.30912 -1.80917,0.86324 -3.66805,2.75895 -4.72453,4.81812 -0.78936,1.53855 -0.87439,2.48714 -0.33927,3.78516 l 0.41915,1.01676 2.00428,-1.00632 c 1.47088,-0.73851 2.49241,-1.01397 3.83843,-1.03501 1.00878,-0.0158 1.87113,0.11995 1.91632,0.30161 0.0452,0.18165 -1.17136,0.75013 -2.70348,1.26326 -2.65732,0.89001 -4.7749,2.3015 -4.7749,3.18276 0,0.21048 0.74896,1.17837 1.66437,2.1509 1.66722,1.77125 2.93771,4.35063 2.93771,5.96425 l 0,0.82889 1.28719,-0.65982 c 2.06895,-1.06052 3.75493,-3.95001 4.40381,-7.54735 0.28079,-1.55653 0.5433,-2.2103 0.88759,-2.2103 1.25225,0 0.34418,5.56882 -1.34428,8.24392 -1.03298,1.6366 -2.50465,2.70617 -4.15476,3.01953 -1.08413,0.20586 -1.2011,0.39521 -1.55807,2.52201 -0.23724,1.41345 -1.35536,2.31969 -1.7115,1.38718 -0.11437,-0.29946 -0.0383,-1.2833 0.16924,-2.18631 0.58041,-2.52644 0.47514,-4.90352 -0.26725,-6.03512 -0.35205,-0.53661 -1.8079,-2.09722 -3.23522,-3.46801 l -2.59511,-2.49235 -0.22279,-2.312 c -0.40836,-4.23775 -0.61493,-5.43866 -0.90454,-5.25881 -0.15795,0.0981 -0.2872,0.63365 -0.2872,1.19015 0,0.86194 -0.073,0.95091 -0.49307,0.60064 -0.57273,-0.47759 -0.6614,-2.70002 -0.14631,-3.66705 0.19072,-0.35809 1.15315,-1.00937 2.13872,-1.44731 1.83353,-0.81475 5.19626,-3.47972 5.58983,-4.42997 0.59298,-1.43166 1.34085,-5.61023 1.08601,-6.0678 -0.15468,-0.2777 -1.05888,-0.69207 -2.00935,-0.9208 -0.95046,-0.22875 -2.2041,-0.61539 -2.78589,-0.85923 -1.73388,-0.72671 -2.39378,-0.58988 -2.39378,0.49634 0,1.6481 1.88788,2.78825 4.67998,2.82636 1.18113,0.0161 1.89443,0.16729 1.89443,0.40149 0,0.62846 -0.7236,0.97359 -2.95849,1.41107 -1.17517,0.23003 -2.73325,0.68125 -3.46242,1.00271 -1.5958,0.70351 -3.11198,2.41741 -3.11198,3.5178 0,0.49124 -0.19045,0.80036 -0.49309,0.80036 -0.32871,0 -0.49307,-0.33028 -0.49307,-0.99086 0,-0.54497 -0.11095,-0.9872 -0.24654,-0.98271 -0.1356,0.005 -1.54541,0.34008 -3.13292,0.74577 l -2.88637,0.73762 1.10576,1.84508 c 0.60818,1.01477 1.19977,2.09115 1.31465,2.39194 0.11487,0.30079 0.49123,0.5469 0.83637,0.5469 1.00994,0 1.47092,0.84918 1.27159,2.34244 -0.0987,0.73989 -0.25615,1.42219 -0.34972,1.51621 -0.38865,0.39049 -0.87166,-0.33618 -0.87634,-1.31842 -0.007,-1.29722 -0.30299,-1.79243 -1.42477,-2.37719 l -0.87124,-0.45416 0,9.52396 c 0,8.53238 0.0672,9.74247 0.6455,11.62302 0.85567,2.78252 3.0755,6.07563 7.07944,10.50236 3.15862,3.49215 3.3401,3.63466 4.63993,3.64325 0.88667,0.006 1.65488,-0.22987 2.22974,-0.6842 z m -1.93889,-2.47297 c -0.40426,-0.30918 -1.16382,-0.46414 -1.97232,-0.40237 -0.99407,0.076 -1.31488,-0.0204 -1.31488,-0.39496 0,-0.35426 0.42148,-0.51988 1.47924,-0.58129 1.66527,-0.0966 3.0629,0.48069 3.22621,1.33275 0.13399,0.69902 -0.53593,0.72068 -1.41825,0.0459 z m -3.15184,-9.34142 c -0.79764,-0.5133 -2.19845,-1.73628 -3.11293,-2.71775 -1.51883,-1.63011 -1.71442,-2.026 -2.26077,-4.57606 -0.78158,-3.648 -0.85663,-6.12618 -0.18555,-6.12618 0.35918,0 0.55253,0.53816 0.71202,1.98172 0.24908,2.25473 1.26449,5.19847 2.35291,6.82128 0.61082,0.9107 2.49729,2.28784 5.81051,4.24172 0.60789,0.35847 0.17935,0.82614 -1.01514,1.10786 -0.61122,0.14416 -1.25919,-0.0621 -2.30105,-0.73259 z m 50.17093,-1.02082 c -0.74549,-0.82767 -1.14363,-3.80536 -0.47905,-3.58277 0.24754,0.0829 0.54812,0.63239 0.66795,1.22105 0.11982,0.58869 0.5304,1.40461 0.91243,1.81318 0.382,0.40857 0.69456,0.84475 0.69456,0.96928 0,0.48434 -1.243,0.19313 -1.79589,-0.42074 z m -6.82158,-3.59466 c -1.37113,-1.19232 -2.15054,-1.38051 -4.04028,-0.97554 -1.84127,0.39458 -3.16191,-0.0548 -4.11552,-1.40041 -1.24023,-1.75004 -0.59514,-2.20849 1.09588,-0.77881 0.89884,0.75994 1.24079,0.84439 2.92375,0.72206 1.73672,-0.12621 1.90587,-0.0794 1.90587,0.52663 0,0.51733 0.0877,0.57706 0.39445,0.2688 0.61648,-0.61942 1.39442,-0.46998 2.23531,0.42937 0.86764,0.92795 2.04133,1.04589 3.2872,0.33028 1.10225,-0.63311 2.18488,-0.61541 2.43512,0.0398 0.16071,0.42079 0.0512,0.49497 -0.51231,0.34691 -0.47986,-0.12607 -1.03299,0.079 -1.67371,0.62078 -1.27805,1.08053 -2.59375,1.03711 -3.93576,-0.12988 z m -14.367,-1.12242 c -0.43772,-0.22867 -0.86351,-0.62169 -0.9462,-0.87335 -0.12112,-0.36854 0.0977,-0.40199 1.12455,-0.17195 0.70121,0.15707 1.98654,0.2613 2.85629,0.23159 1.32124,-0.0451 1.56404,0.0375 1.47605,0.50226 -0.13408,0.70821 -3.32896,0.92881 -4.51069,0.31145 z m 34.48969,-0.78409 c 0,-0.95278 -0.24321,-1.41786 -1.20374,-2.30186 -0.96066,-0.88413 -1.09878,-1.14828 -0.684,-1.30822 0.7597,-0.29291 2.11335,0.72887 2.52057,1.90262 0.51933,1.49681 0.45167,2.90149 -0.13976,2.90149 -0.34736,0 -0.49307,-0.35286 -0.49307,-1.19403 z m -15.44986,-0.43899 c 0,-0.74992 1.63585,-2.11305 3.13547,-2.6127 1.23668,-0.41206 1.65636,-0.7231 1.73601,-1.28658 0.0578,-0.40874 0.26079,-0.74316 0.45115,-0.74316 0.23883,0 0.24086,-0.12795 0.007,-0.41285 -0.18675,-0.22707 -0.44329,-1.00737 -0.57007,-1.73401 -0.12678,-0.72663 -0.58378,-1.94213 -1.01557,-2.70111 -0.43178,-0.75897 -0.78506,-1.46496 -0.78506,-1.56886 0,-0.47001 0.78949,-0.10703 1.65196,0.75956 0.68846,0.69173 1.00427,1.40528 1.16678,2.63626 0.19153,1.45062 1.08519,3.47383 1.11558,2.52559 0.0155,-0.48564 5.2848,-0.39843 6.17383,0.10219 0.40679,0.22906 0.73962,0.63419 0.73962,0.9003 0,0.55371 -0.84168,0.65559 -1.15869,0.14025 -0.13135,-0.21355 -0.91616,-0.26523 -2.07389,-0.13657 -1.02443,0.11384 -2.2324,0.0724 -2.68439,-0.0921 -1.30303,-0.47425 -1.97232,-0.1679 -1.97232,0.90278 0,1.19743 -1.34368,2.31177 -2.7875,2.31177 -0.63779,0 -1.29064,0.26132 -1.65023,0.66058 -0.61889,0.68713 -1.47924,0.88994 -1.47924,0.34869 z m -16.20532,-1.87843 c -0.44989,-0.45201 -0.21494,-0.68247 1.09902,-1.07801 1.7954,-0.54048 2.07658,-1.36951 1.81444,-5.34984 -0.21994,-3.33949 0.0879,-4.92361 0.9567,-4.92361 0.58733,0 0.62155,0.29956 0.17044,1.49172 -0.24016,0.63468 -0.19514,1.40009 0.16438,2.79405 1.13902,4.41659 0.28164,6.46506 -2.97229,7.1015 -0.5511,0.10779 -1.10582,0.0917 -1.23269,-0.0359 z m 7.32987,-1.29094 c 0,-0.0981 0.59169,-0.74391 1.31487,-1.43515 1.02758,-0.98217 1.31599,-1.5025 1.31991,-2.38135 0.003,-0.61851 0.11372,-1.2732 0.24655,-1.45485 0.78566,-1.07449 1.92239,-1.63142 3.77859,-1.85133 1.50947,-0.17883 2.18456,-0.4278 2.61784,-0.96542 0.85137,-1.05641 0.74881,-3.41907 -0.24117,-5.55581 -1.14036,-2.46131 -1.05239,-3.1562 0.21538,-1.70122 1.19004,1.3658 1.91447,2.92596 1.95047,4.20058 0.0143,0.50538 0.0993,0.73688 0.18897,0.51442 0.11717,-0.29073 0.41028,-0.22085 1.04239,0.24853 0.73575,0.54633 1.06692,0.5989 2.02771,0.32188 1.76194,-0.508 3.11719,-0.39709 4.03766,0.33037 0.46442,0.36707 1.06939,0.57185 1.35921,0.4601 0.67328,-0.2596 0.67591,0.32088 0.004,0.88118 -0.4316,0.35993 -0.69903,0.33441 -1.59902,-0.1526 -0.89751,-0.48562 -1.29729,-0.52435 -2.35801,-0.22844 -1.99868,0.5576 -2.89686,0.43929 -3.76756,-0.49622 l -0.79691,-0.85623 -0.16437,1.25793 c -0.2109,1.61407 -1.77021,2.76598 -3.74672,2.76779 -1.98152,0.002 -3.34328,0.95839 -3.59407,2.52467 -0.26376,1.64732 -1.96696,3.74955 -3.03782,3.74955 -0.43883,0 -0.79787,-0.0803 -0.79787,-0.17838 z m 20.70937,-4.2969 c 0,-0.82649 -0.22705,-1.94387 -0.50457,-2.48309 -0.45732,-0.88858 -0.45527,-0.9994 0.0222,-1.18345 0.88558,-0.34145 1.2776,0.45286 1.41315,2.86329 0.10996,1.9551 0.0491,2.30595 -0.40048,2.30595 -0.41007,0 -0.53018,-0.34043 -0.53018,-1.5027 z m -31.31156,-0.14355 c -0.49667,-0.39254 -0.90303,-0.92587 -0.90303,-1.18517 0,-0.61325 0.46923,-0.60185 0.98616,0.024 0.48464,0.58675 2.11057,0.64293 3.59178,0.12411 1.50729,-0.52794 2.10356,0.12792 0.75386,0.8292 -1.79619,0.93328 -3.41482,1.00926 -4.42877,0.20789 z m -32.68732,-3.72091 c -0.38031,-0.59041 -1.05855,-3.66115 -0.87467,-3.96009 0.0849,-0.13808 0.4356,-0.25107 0.77925,-0.25107 0.4716,0 0.61557,0.22271 0.58713,0.90828 -0.0208,0.49955 0.0781,1.53996 0.2196,2.31201 0.25576,1.39532 -0.11664,1.91406 -0.71131,0.99087 z m 29.56543,0.19411 c -0.22599,-0.0916 -0.4109,-0.468 -0.4109,-0.83641 0,-0.57684 0.14833,-0.64185 1.06864,-0.46837 0.69814,0.1316 1.66806,-0.0274 2.79764,-0.45867 2.08082,-0.79442 3.36557,-0.85729 3.36557,-0.16468 0,0.33269 -0.33116,0.49543 -1.0081,0.49543 -0.56884,0 -1.47757,0.35979 -2.08554,0.82572 -1.01881,0.78079 -2.6453,1.04566 -3.72731,0.60698 z m 9.99858,-2.64375 c -0.95279,-0.95732 0.71581,-2.98453 4.04443,-4.91363 1.39443,-0.80812 2.80623,-1.77013 3.13736,-2.13777 0.58493,-0.64939 0.58152,-0.70516 -0.11976,-1.95886 -0.84639,-1.51313 -0.42212,-2.08427 0.58893,-0.79279 0.94299,1.20455 1.13616,2.18358 0.6955,3.52516 -0.50535,1.53852 -1.35552,2.23201 -3.14897,2.56866 -2.58358,0.48497 -3.63127,1.16067 -4.06739,2.62322 -0.37673,1.26347 -0.67154,1.54676 -1.1301,1.08601 z m 22.35297,-1.32115 c -0.12052,-0.1211 -0.21913,-0.55451 -0.21913,-0.96311 0,-0.47214 -0.47924,-1.12429 -1.31488,-1.78928 -1.43788,-1.14425 -1.65155,-1.65144 -0.6957,-1.65144 0.96558,0 2.99673,2.46315 2.99673,3.63411 0,0.94614 -0.29589,1.24308 -0.76702,0.76972 z m -4.08507,-4.91407 c -0.54965,-0.38683 -1.1225,-0.46287 -2.22971,-0.29606 -1.96317,0.29581 -4.12935,-0.33545 -5.27531,-1.53728 -1.01336,-1.06276 -0.82801,-1.67982 0.2916,-0.97077 1.90794,1.20829 2.43696,1.35466 4.58354,1.26803 1.89221,-0.0764 2.31735,0.0131 2.91512,0.61377 0.92711,0.93154 0.71274,1.62466 -0.28524,0.92231 z m -8.07777,-5.08092 c -3.41132,-0.1993 -4.16359,-0.57835 -4.16359,-2.09793 0,-0.57215 0.0844,-0.55544 0.96811,0.1917 0.86522,0.73149 1.18841,0.80149 3.04067,0.65853 2.26546,-0.17486 3.88051,0.26243 3.88051,1.05066 0,0.27699 -0.11094,0.47712 -0.24655,0.44475 -0.1356,-0.0323 -1.70123,-0.14384 -3.47915,-0.24771 z m -82.72777,41.73318 c 6.28997,-2.93524 10.26675,-13.8845 9.19808,-25.32512 -1.09268,-11.69771 -4.79154,-20.66311 -11.17276,-27.08094 -3.30886,-3.32783 -5.92818,-4.64432 -9.59142,-4.8207 -2.16694,-0.10432 -2.78652,-0.002 -4.35556,0.71982 -1.61256,0.74177 -2.40096,1.53856 -1.52236,1.53856 0.66084,0 5.93372,5.39686 7.49404,7.67022 9.32231,13.58253 10.95378,34.37877 3.60284,45.9249 -1.36672,2.14672 -1.3874,2.12656 2.23815,2.18185 1.8262,0.0278 2.67412,-0.13901 4.10899,-0.80859 z m -3.16842,-0.63642 c -0.12212,-0.31973 0.39425,-1.02285 1.45476,-1.98089 5.77589,-5.21777 7.29128,-15.11708 4.47471,-29.23098 -1.66298,-8.33324 -4.0981,-14.0518 -7.61167,-17.875 -2.26026,-2.45942 -4.05484,-3.6603 -6.88324,-4.60601 -1.58569,-0.53019 -2.08032,-0.83991 -1.99633,-1.24996 0.2435,-1.1887 4.30794,0.15392 7.28725,2.40721 5.02596,3.8012 8.53288,10.69165 10.51663,20.6632 2.20199,11.06854 1.85477,20.00579 -1.00996,25.99584 -0.89849,1.87872 -4.89669,6.37228 -5.6698,6.37228 -0.20517,0 -0.45823,-0.22306 -0.56235,-0.49569 z m -52.38532,-18.78565 c 0,-0.61357 -0.22188,-1.30059 -0.49309,-1.52675 -0.41989,-0.35014 -0.49307,-0.26213 -0.49307,0.59313 0,0.55235 0.0899,1.23939 0.19953,1.52673 0.34471,0.90259 0.78663,0.5694 0.78663,-0.59311 z m 16.68095,-2.83067 c 7.27617,-1.8035 13.37803,-3.37141 13.55972,-3.48423 0.45973,-0.28549 0.41297,-1.58211 -0.0806,-2.23426 -0.37531,-0.49593 -1.09419,-0.37536 -8.30019,1.39194 -4.33911,1.0642 -10.84776,2.63525 -14.46369,3.49122 -3.61591,0.85598 -6.61188,1.58889 -6.65766,1.62869 -0.0458,0.0398 0.009,0.74524 0.12073,1.56765 l 0.20399,1.49532 1.19415,-0.28861 c 0.65678,-0.15875 7.14737,-1.76422 14.42352,-3.56772 z m 163.61455,2.16045 c 0.96498,-1.02804 1.07343,-1.36315 1.25608,-3.88087 0.12577,-1.73343 0.53184,-3.67459 1.0947,-5.23283 0.76063,-2.10582 0.891,-2.97227 0.86967,-5.78002 -0.0138,-1.81658 -0.26159,-4.62284 -0.55062,-6.23615 -0.28903,-1.61329 -0.52779,-3.76842 -0.53055,-4.78916 -0.003,-1.18621 -0.10858,-1.69164 -0.29197,-1.4007 -0.548,0.86929 -1.01789,-0.01 -1.01789,-1.90334 0,-1.80249 0.099,-2.03583 1.8457,-4.35243 2.31032,-3.06405 2.52654,-3.64583 2.24875,-6.05075 l -0.22458,-1.94424 -0.62533,0.99235 c -0.37479,0.59475 -1.1992,1.21255 -2.05765,1.54195 -1.42536,0.54696 -1.43154,0.55641 -1.27498,1.95195 0.17767,1.58385 -0.59912,3.85959 -1.31742,3.85959 -0.36991,0 -0.39051,-0.30607 -0.11241,-1.67018 0.23841,-1.16934 0.23559,-1.83787 -0.01,-2.22944 -0.57291,-0.91565 -3.36502,-1.80148 -4.98841,-1.58265 -1.18557,0.15984 -1.40308,0.10441 -1.31488,-0.33498 0.0581,-0.28958 0.84531,-0.80743 1.7493,-1.15079 1.8111,-0.6879 2.4654,-1.35359 2.4654,-2.50827 0,-0.93419 -0.32916,-0.95396 -1.71783,-0.10324 -0.69765,0.42737 -1.6577,0.65976 -2.72893,0.66056 -0.96189,6.6e-4 -1.958,0.21613 -2.38322,0.51539 -0.6507,0.45793 -0.73058,0.80103 -0.73058,3.13773 0,2.52326 -0.11273,2.80785 -1.05626,2.66673 -0.12896,-0.0193 -0.11346,0.29754 0.0344,0.70403 0.28082,0.772 0.64884,1.00992 3.6965,2.38984 2.10725,0.95412 2.91952,2.21802 2.39098,3.72038 -0.48603,1.38149 -1.11633,1.30415 -1.15373,-0.14158 -0.055,-2.12611 -0.5529,-0.003 -0.59376,2.53221 -0.0452,2.80244 -0.50377,4.37465 -1.87115,6.41478 -1.59785,2.38397 -1.53299,3.67418 0.25036,4.98011 1.45555,1.06592 2.41087,2.80939 2.76761,5.05092 0.3442,2.16278 -0.35851,1.71346 -1.67296,-1.06968 -1.17261,-2.48281 -1.8335,-3.16269 -4.27123,-4.39396 -1.89975,-0.95952 -3.65989,-1.16146 -6.25916,-0.71811 -1.25816,0.21461 -2.57881,0.40821 -2.93476,0.43023 -0.90372,0.056 -1.06547,-1.0505 -0.20056,-1.37197 0.6564,-0.24398 0.63843,-0.31643 -0.51181,-2.06272 -1.72767,-2.623 -2.96458,-3.82747 -4.6829,-4.5601 -1.48485,-0.63309 -4.31225,-1.25748 -4.31225,-0.95229 0,0.0846 0.23434,0.71736 0.52075,1.40613 0.28643,0.68876 0.45193,1.61412 0.36779,2.05635 -0.12193,0.64091 0.07,0.93625 0.94597,1.45554 1.30357,0.7728 4.08246,4.47836 4.85229,6.47036 0.29978,0.77573 0.54505,2.00192 0.54505,2.72487 0,0.88926 0.14489,1.31447 0.44787,1.31447 0.24634,0 1.02295,0.46583 1.72579,1.03521 2.34973,1.90349 5.58315,3.20833 9.02356,3.64142 1.72898,0.21765 3.39603,0.29839 3.70457,0.17943 0.30854,-0.11897 0.86854,-0.74005 1.24445,-1.38017 0.37589,-0.64014 0.81676,-1.16388 0.97968,-1.16388 0.58049,0 0.28304,1.28624 -0.51889,2.24382 -1.27353,1.52072 -2.39718,1.82827 -6.0146,1.64625 -3.84063,-0.19325 -5.31034,-0.79937 -8.33881,-3.43897 l -2.08926,-1.82098 -0.1046,1.41795 c -0.0704,0.95645 0.13446,1.93082 0.62995,2.99372 0.72095,1.5466 0.78372,1.59054 3.3918,2.37365 7.13866,2.14347 9.89199,2.62973 13.13183,2.31911 2.60205,-0.24945 3.60432,-0.6522 4.78605,-1.92315 0.99333,-1.06835 1.33975,-1.08266 1.33975,-0.0554 0,0.46181 -0.34844,1.07714 -0.82179,1.45126 -0.8887,0.70239 -1.03755,1.04987 -0.44972,1.04987 0.20464,0 0.84736,-0.50634 1.42825,-1.12521 z m -4.00885,-11.64108 c 0.96015,-5.11401 0.98283,-5.38675 0.59181,-7.11959 -0.73161,-3.24228 -0.76789,-3.56452 -0.40137,-3.56452 1.29599,0 2.24399,7.28793 1.30979,10.06925 -0.54762,1.6304 -1.78619,2.13802 -1.50023,0.61486 z m 2.21176,-15.9626 c -0.2035,-0.38206 -0.32445,-1.24571 -0.2688,-1.91923 0.089,-1.07597 0.21639,-1.23781 1.0504,-1.33349 0.81646,-0.0937 0.91094,-0.0245 0.67562,0.49543 -0.15046,0.33238 -0.28527,1.18764 -0.29954,1.90056 -0.0294,1.46772 -0.60526,1.89387 -1.15768,0.85673 z m -63.83649,25.24928 c 1.45598,-1.57772 1.2854,-2.23447 -0.65271,-2.51302 -0.8406,-0.12081 -1.85946,-0.32526 -2.26416,-0.45432 -0.69661,-0.22214 -0.72464,-0.1666 -0.52595,1.04186 0.11542,0.70206 0.2115,1.82348 0.21349,2.49202 0.003,1.2125 0.007,1.21476 1.07196,0.91453 0.58758,-0.16554 1.5584,-0.83203 2.15737,-1.48107 z m -20.29127,-3.16076 c -0.17322,-0.43511 -0.32431,-0.61746 -0.33579,-0.40525 -0.0279,0.51544 0.3551,1.49339 0.51992,1.32779 0.0719,-0.0723 -0.0109,-0.48744 -0.18413,-0.92254 z m -0.23539,-5.69035 c 0.49453,-1.97977 3.78127,-4.71258 7.23047,-6.01191 l 1.59907,-0.60238 -1.39137,-0.41279 -1.39139,-0.41279 -1.80441,1.95826 c -1.0683,1.15942 -2.46051,2.26071 -3.41273,2.69962 -1.55775,0.71804 -1.6083,0.78554 -1.6083,2.14701 0,1.51339 0.4646,1.89226 0.77866,0.63498 z m -12.65035,-4.01851 c -0.51458,-1.64563 -0.42732,-1.53973 -1.06572,-1.29357 -0.32098,0.12375 -0.54014,0.57911 -0.54014,1.12224 0,1.06411 0.81287,3.52532 1.40147,4.24338 0.33664,0.41068 0.42463,0.21689 0.512,-1.12749 0.058,-0.89287 -0.0803,-2.21793 -0.30761,-2.94456 z m -5.05742,-1.68904 c 5.60468,-1.38835 10.29212,-2.61666 10.41654,-2.72961 0.12442,-0.11295 -0.18396,-0.70852 -0.68531,-1.32352 l -0.91151,-1.11816 -9.15036,2.23382 c -12.68081,3.09568 -11.42383,2.65577 -11.15734,3.90484 0.2805,1.31471 0.41565,1.5462 0.90614,1.55214 0.21533,0.003 4.97716,-1.13117 10.58184,-2.51951 z m 91.87734,-1.25819 c 0,-0.25856 0.36897,-0.91066 0.81992,-1.44914 0.45094,-0.53848 1.26453,-1.82833 1.80796,-2.86632 0.92079,-1.75882 0.98804,-2.12936 0.98804,-5.44396 l 0,-3.5567 -1.45594,-0.40958 c -1.91421,-0.5385 -2.7859,-1.53152 -3.43467,-3.91281 l -0.53327,-1.95725 -14.22185,3.50976 -14.22185,3.50976 2.55227,0.18312 c 2.77441,0.19905 4.03552,0.7158 5.94131,2.43452 1.03772,0.93585 1.54567,1.12827 3.5141,1.33115 4.21127,0.43404 6.96664,2.22422 9.70946,6.30827 l 1.63418,2.4333 2.87491,0.11006 c 1.5812,0.0605 3.13378,0.14064 3.45017,0.17798 0.31639,0.0374 0.57526,-0.14362 0.57526,-0.40216 z m -61.50153,-3.53216 c 0.98963,-1.15462 1.24994,-1.62979 0.8218,-1.50013 -0.34464,0.10438 -1.95793,0.51392 -3.58511,0.9101 -3.24693,0.79054 -3.63436,0.99493 -3.34116,1.76265 0.15261,0.39958 0.70603,0.51759 2.42688,0.51746 l 2.22917,-1.7e-4 1.44842,-1.68991 z m -15.09032,0.006 c 0.99439,-0.42577 1.84857,-0.79427 1.89821,-0.81891 0.0496,-0.0247 -0.50509,-0.64295 -1.23271,-1.37403 -1.16085,-1.1664 -1.32293,-1.51516 -1.32293,-2.84678 0,-1.25424 -0.14259,-1.61141 -0.82181,-2.05856 -0.89363,-0.58832 -1.10453,-1.45593 -0.35394,-1.45593 0.25733,0 0.89237,0.35891 1.41122,0.79758 0.51885,0.43866 1.78756,1.01907 2.81934,1.28978 l 1.87598,0.49223 0,-1.24935 c 0,-0.68714 -0.1849,-1.39659 -0.41089,-1.57656 -0.61314,-0.48827 -4.72245,-1.17826 -5.63967,-0.94695 -0.43903,0.11072 -1.1206,0.72535 -1.51458,1.36588 -0.83319,1.35453 -1.87862,1.96583 -3.94007,2.30385 -0.81358,0.1334 -1.72254,0.37079 -2.01991,0.52751 -0.66563,0.35081 -1.26728,2.00579 -1.26728,3.48593 0,1.17442 0.44426,1.36521 1.80796,0.77642 0.62732,-0.27086 0.62355,-0.28493 -0.0822,-0.30707 -0.5167,-0.0162 -0.73963,-0.22544 -0.73963,-0.69416 0,-1.72019 2.54747,-0.81791 4.63321,1.64103 1.63608,1.92882 1.84421,1.95635 4.89968,0.64809 z m -1.89099,-1.37046 c -0.18034,-0.22708 -0.57807,-0.90762 -0.88387,-1.51231 -0.33421,-0.6609 -1.00622,-1.28848 -1.6847,-1.5733 -1.14171,-0.47931 -1.55709,-1.45584 -0.61929,-1.45584 1.03836,0 2.40094,1.01181 3.39664,2.52219 0.56363,0.85499 1.02478,1.75196 1.02478,1.9933 0,0.55478 -0.80021,0.57161 -1.23356,0.0259 z m 134.11899,-0.17726 c 3.15268,-1.40123 6.23831,-5.52767 7.98791,-10.68229 2.41593,-7.11777 2.40931,-17.1606 -0.0168,-25.53615 -2.52419,-8.71401 -7.29156,-15.63663 -12.55772,-18.23484 -1.66611,-0.822 -2.2779,-0.94026 -4.86428,-0.94026 -2.50239,0 -3.20496,0.12648 -4.5572,0.82039 -3.45853,1.77481 -6.95836,7.25013 -8.44823,13.2168 -0.74067,2.96631 -1.31973,12.54348 -0.75933,12.55874 0.15797,0.004 3.44463,-0.776 7.3037,-1.73401 l 7.01646,-1.74182 0.789,0.99086 c 0.99773,1.25297 1.12972,3.93086 0.21701,4.40281 -0.31639,0.1636 -3.78679,1.07121 -7.71202,2.01691 l -7.13675,1.71946 0.19769,1.04986 c 1.55362,8.25091 6.49786,17.12727 11.4482,20.55295 3.65489,2.52922 7.62685,3.08087 11.0924,1.54059 z m -3.54414,-1.07786 c -0.11732,-0.19076 0.73485,-1.21982 1.89375,-2.28678 2.43071,-2.23793 3.81657,-4.61651 4.919,-8.4426 0.68907,-2.39152 0.7569,-3.27633 0.746,-9.73188 -0.0101,-5.95607 -0.13204,-7.74029 -0.7565,-11.06462 -2.13271,-11.35354 -6.18839,-17.81191 -12.66285,-20.16464 -1.28646,-0.46746 -2.06044,-0.94444 -2.13412,-1.31514 -0.0987,-0.49669 0.059,-0.55317 1.07994,-0.3867 0.65756,0.10721 2.03057,0.57904 3.05114,1.04849 7.34051,3.37662 11.67443,12.8125 12.91855,28.12643 0.61431,7.56168 -0.35302,14.26786 -2.69489,18.68261 -1.05422,1.98732 -4.79155,5.88166 -5.64455,5.88166 -0.27618,0 -0.59813,-0.15607 -0.71547,-0.34683 z m -106.65959,-2.40437 c 3.13374,-1.30649 6.99394,-2.1971 9.60121,-2.21516 1.10483,-0.008 9.6534,-1.97053 23.42629,-5.37909 l 21.68665,-5.36706 0.30705,-1.0757 c 0.20676,-0.72436 0.19097,-1.19232 -0.0484,-1.43275 -0.25467,-0.25588 -9.56083,1.90686 -32.84148,7.63229 -17.86735,4.39414 -33.00521,8.1244 -33.63968,8.28946 -1.1244,0.29254 -1.15068,0.3368 -1.03878,1.75041 l 0.11479,1.45028 4.81908,-1.24388 c 2.65048,-0.68413 6.07641,-1.76809 7.61319,-2.4088 z m 122.44834,0.0276 c 2.62436,-1.34044 4.60765,-3.61434 6.41091,-7.35022 2.55869,-5.30098 3.11627,-8.06685 3.09606,-15.35834 -0.0183,-6.6265 -0.52963,-10.02845 -2.31344,-15.39274 -2.43321,-7.31717 -7.02688,-13.61124 -11.72075,-16.05929 -1.85986,-0.96999 -2.31855,-1.0683 -5.01259,-1.07448 -2.53194,-0.006 -3.20096,0.11488 -4.57687,0.8255 -0.8863,0.45776 -1.66074,0.98081 -1.72096,1.16233 -0.0602,0.18153 0.43545,0.62447 1.10149,0.9843 1.9726,1.0657 5.4773,4.73973 7.49594,7.85809 3.24337,5.01031 5.18951,10.36759 6.26151,17.23653 0.83919,5.37704 0.54436,14.04567 -0.62009,18.23259 -0.88555,3.18411 -2.17176,6.20763 -3.68053,8.65186 l -0.89596,1.45148 2.26584,-0.16405 c 1.52113,-0.11012 2.80604,-0.43996 3.90944,-1.00356 z m -3.12284,-0.43162 c 0,-0.28207 0.88889,-1.33975 1.97532,-2.35038 4.64327,-4.31935 6.59042,-12.15529 5.60808,-22.56887 -0.70542,-7.47813 -2.33851,-14.01931 -4.57606,-18.32905 -2.20968,-4.25608 -6.44606,-7.94271 -9.93212,-8.64324 -1.1062,-0.22229 -1.64305,-1.01104 -0.97183,-1.42785 1.11882,-0.69476 5.72484,1.58511 8.1995,4.05858 4.56212,4.5599 7.20659,11.48684 8.43277,22.08896 1.47834,12.78215 -0.68046,21.69834 -6.42028,26.51667 -1.48907,1.25 -2.31538,1.48382 -2.31538,0.65518 z m -130.55697,-0.62204 c 1.6873,-0.43525 3.11119,-0.84101 3.16418,-0.90168 0.053,-0.0606 0.64448,-1.37364 1.31444,-2.91774 0.66994,-1.54408 1.51619,-3.29408 1.88053,-3.88887 0.78122,-1.27537 2.33769,-2.17529 3.25585,-1.88251 0.59047,0.18831 0.55078,0.27619 -0.42233,0.93509 -0.59071,0.39998 -1.41019,1.31737 -1.82105,2.03862 -0.78035,1.36988 -1.89241,4.7247 -1.64766,4.97062 0.0779,0.0782 2.68709,-0.47532 5.79829,-1.23009 l 5.65675,-1.37232 -0.21923,-1.02384 c -0.32985,-1.54044 -0.94927,-2.59072 -2.33693,-3.96246 -2.65756,-2.62708 -6.74255,-3.94705 -11.68525,-3.77583 -4.989,0.17282 -7.11238,1.48881 -9.40336,5.82787 -1.05782,2.0035 -1.17045,3.03344 -0.3317,3.03344 0.8708,0 1.92161,1.42748 1.92668,2.6173 0.006,1.40487 0.26224,1.87362 1.14548,2.09534 0.3616,0.0908 0.65744,0.1793 0.65744,0.19673 0,0.0174 1.38054,-0.32441 3.06787,-0.75967 z m 29.80417,-1.05687 c 0.72318,-0.4675 1.093,-0.77906 0.8218,-0.69238 -0.27119,0.0867 -1.34925,0.3501 -2.39566,0.58537 -1.22572,0.27558 -1.75197,0.52376 -1.47923,0.69762 0.73839,0.47072 1.69862,0.28496 3.05309,-0.59061 z m 36.32361,-8.37744 c 0,-0.54496 -0.12231,-0.99086 -0.27179,-0.99086 -0.14948,0 -0.20666,0.4459 -0.12706,0.99086 0.0797,0.54497 0.20191,0.99086 0.2718,0.99086 0.07,0 0.12705,-0.44589 0.12705,-0.99086 z m 12.60907,-2.84256 c 2.74922,-0.94121 3.86745,-3.65555 2.68119,-6.50819 -0.52395,-1.25999 -1.6087,-2.20929 -2.52452,-2.20929 -0.31101,0 -1.61239,0.38989 -2.89194,0.86645 -1.85371,0.69037 -2.25257,0.95589 -1.96283,1.30667 0.2,0.24212 0.26821,0.59538 0.15157,0.78499 -0.39047,0.6348 -1.35645,0.35396 -2.33062,-0.67758 -0.88826,-0.94057 -1.09289,-1.00755 -2.55863,-0.8375 -2.294,0.26613 -3.64172,1.14352 -3.76938,2.45389 -0.0839,0.86201 0.0149,1.05738 0.53502,1.05738 0.35089,0 0.81958,0.21981 1.04149,0.48848 0.26617,0.32226 0.58751,0.39351 0.94424,0.20942 0.2974,-0.15349 1.34046,-0.38153 2.31792,-0.50673 0.97745,-0.1252 2.19049,-0.44236 2.69562,-0.70483 1.28761,-0.66902 2.50539,-0.60141 2.91184,0.16166 0.53772,1.00952 0.39853,2.50053 -0.31899,3.41705 -0.48232,0.6161 -0.54849,0.887 -0.24653,1.00933 0.77376,0.31347 1.77323,0.21991 3.32455,-0.3112 z m -0.23228,-2.59846 c 0.15041,-1.10264 0.0576,-1.69825 -0.36562,-2.34732 -0.75614,-1.15952 -0.17743,-1.86115 0.80115,-0.97132 1.04602,0.95114 0.89732,4.79621 -0.18547,4.79621 -0.34575,0 -0.40438,-0.34637 -0.25006,-1.47757 z m 20.57799,-5.24474 c 13.14011,-3.26266 13.56212,-3.39201 13.65526,-4.18509 0.0528,-0.45011 -0.0951,-1.05887 -0.32871,-1.35278 -0.38528,-0.48464 -1.74871,-0.20778 -14.64048,2.97289 l -14.21563,3.50727 -0.002,1.42996 c -0.002,1.41744 0.008,1.42807 0.98518,1.21222 0.5427,-0.11976 7.08834,-1.73278 14.54588,-3.58447 z m 62.12759,-15.43609 c 1.29677,-0.34355 1.57339,-1.02605 0.91606,-2.26013 -0.29642,-0.55652 -0.87825,-0.45767 -9.12199,1.54978 -4.84294,1.17931 -8.85702,2.18971 -8.92017,2.24534 -0.0632,0.0557 -0.0164,0.68581 0.10365,1.40042 l 0.21849,1.29932 7.78563,-1.95408 c 4.28209,-1.07475 8.34033,-2.10104 9.01833,-2.28065 z"
       id="path5713"
       inkscape:connector-curvature="0" />
  </g>
</svg>
