<?xml version="1.0" encoding="UTF-8" standalone="no"?>
<!-- Created with Inkscape (http://www.inkscape.org/) -->

<svg
   xmlns:dc="http://purl.org/dc/elements/1.1/"
   xmlns:cc="http://creativecommons.org/ns#"
   xmlns:rdf="http://www.w3.org/1999/02/22-rdf-syntax-ns#"
   xmlns:svg="http://www.w3.org/2000/svg"
   xmlns="http://www.w3.org/2000/svg"
   xmlns:sodipodi="http://sodipodi.sourceforge.net/DTD/sodipodi-0.dtd"
   xmlns:inkscape="http://www.inkscape.org/namespaces/inkscape"
   width="335.44565"
   height="223.6214"
   id="svg2"
   version="1.1"
   inkscape:version="0.48.3.1 r9886"
   sodipodi:docname="Bench-dips-1.svg">
  <defs
     id="defs4">
    <filter
       inkscape:collect="always"
       id="filter5283"
       color-interpolation-filters="sRGB">
      <feGaussianBlur
         inkscape:collect="always"
         stdDeviation="10.211719"
         id="feGaussianBlur5285" />
    </filter>
    <filter
       inkscape:collect="always"
       id="filter5427"
       x="-0.28619286"
       width="1.5723857"
       y="-0.28619286"
       height="1.5723857"
       color-interpolation-filters="sRGB">
      <feGaussianBlur
         inkscape:collect="always"
         stdDeviation="15.757641"
         id="feGaussianBlur5429" />
    </filter>
  </defs>
  <sodipodi:namedview
     id="base"
     pagecolor="#ffffff"
     bordercolor="#666666"
     borderopacity="1.0"
     inkscape:pageopacity="0.0"
     inkscape:pageshadow="2"
     inkscape:zoom="1.979899"
     inkscape:cx="181.69561"
     inkscape:cy="108.71367"
     inkscape:document-units="px"
     inkscape:current-layer="layer1"
     showgrid="false"
     showguides="true"
     inkscape:guide-bbox="true"
     fit-margin-top="0"
     fit-margin-left="0"
     fit-margin-right="0"
     fit-margin-bottom="0"
     inkscape:window-width="1301"
     inkscape:window-height="744"
     inkscape:window-x="65"
     inkscape:window-y="24"
     inkscape:window-maximized="1">
    <sodipodi:guide
       orientation="-0.70710678,0.70710678"
       position="-1700.8536,586.40588"
       id="guide2985" />
  </sodipodi:namedview>
  <metadata
     id="metadata7">
    <rdf:RDF>
      <cc:Work
         rdf:about="">
        <dc:format>image/svg+xml</dc:format>
        <dc:type
           rdf:resource="http://purl.org/dc/dcmitype/StillImage" />
        <dc:title></dc:title>
      </cc:Work>
    </rdf:RDF>
  </metadata>
  <g
     inkscape:label="Ebene 1"
     inkscape:groupmode="layer"
     id="layer1"
     transform="translate(-272.28216,-389.43236)">
    <g
       id="g5449"
       transform="matrix(0.98073687,0,0,0.73383327,-46.185952,271.49074)"
       style="fill:#ffffff;fill-opacity:1"
       inkscape:export-filename="/home/christian/Arbeitsfläche/Dropbox/Website/opentraining/cc_exercises/Bench-dips-1.png"
       inkscape:export-xdpi="150"
       inkscape:export-ydpi="150">
      <rect
         inkscape:export-ydpi="150"
         inkscape:export-xdpi="150"
         inkscape:export-filename="/home/christian/Dokumente/Code/workspace/OpenTraining/res/drawable/background.png"
         y="185.22804"
         x="352.24948"
         height="255.71428"
         width="290"
         id="rect2987"
         style="fill:#ffffff;fill-opacity:1;stroke:none;filter:url(#filter5283)" />
      <path
         transform="matrix(1.6074318,0,0,0.77372547,-152.97598,82.347784)"
         d="m 467.14287,292.00504 c 0,36.49024 -29.58119,66.07142 -66.07143,66.07142 -36.49024,0 -66.07142,-29.58118 -66.07142,-66.07142 0,-36.49025 29.58118,-66.07143 66.07142,-66.07143 36.49024,0 66.07143,29.58118 66.07143,66.07143 z"
         sodipodi:ry="66.071426"
         sodipodi:rx="66.071426"
         sodipodi:cy="292.00504"
         sodipodi:cx="401.07144"
         id="path5317"
         style="fill:#ffffff;fill-opacity:1;stroke:none;filter:url(#filter5427)"
         sodipodi:type="arc" />
    </g>
    <rect
       style="fill:#f5f2f2;fill-opacity:0;stroke:none"
       id="rect5431"
       width="335.91214"
       height="290.63861"
       x="341.02036"
       y="131.26866"
       inkscape:export-filename="/home/christian/Dokumente/Code/workspace/OpenTraining/res/drawable/background.png"
       inkscape:export-xdpi="150"
       inkscape:export-ydpi="150" />
    <path
       style="fill:#000000"
       d="m 374.63746,594.18221 c -1.80334,-3.45401 -6.3314,-20.61307 -5.80294,-21.99021 1.18037,-3.076 2.39892,-0.80146 5.49321,10.25363 2.13892,7.6418 2.91481,11.95859 2.26604,12.60736 -0.64877,0.64877 -1.31862,0.35062 -1.95631,-0.87078 z m -54.58591,-16.55904 c -0.31923,-7.31407 -0.77041,-20.84288 -1.00262,-30.06401 -0.50797,-20.17163 -0.24221,-20.83776 8.41036,-21.08084 3.74928,-0.10534 5.84671,-0.66558 6.68721,-1.78624 1.54608,-2.06141 7.11283,-2.96607 8.06906,-1.31132 0.50593,0.87551 2.12506,1.00417 5.70635,0.45344 8.06181,-1.23976 10.50899,0.46102 11.92217,8.28585 1.22721,6.79514 7.16626,7.39141 22.07783,2.21655 5.5,-1.9087 11.35,-3.48205 13,-3.49632 3.07156,-0.0266 5.66702,-1.41276 11.77713,-6.28993 1.91174,-1.52597 5.66896,-3.40211 8.34938,-4.1692 2.68042,-0.76709 6.89849,-2.05154 9.37349,-2.85433 8.3625,-2.71244 13.47493,-3.89594 20,-4.62987 8.10123,-0.91121 11.57108,-2.32389 12.26969,-4.99538 0.33731,-1.2899 1.3576,-2.07672 2.69292,-2.07672 1.57677,0 2.66489,-1.16433 4.08198,-4.36789 1.06267,-2.40234 2.55813,-4.88744 3.32325,-5.52243 0.76512,-0.63499 1.66325,-2.51515 1.99585,-4.17812 0.33259,-1.66297 1.81268,-4.60731 3.28908,-6.54297 2.09345,-2.74465 2.83161,-5.10098 3.35321,-10.70399 0.36786,-3.95153 1.192,-8.4514 1.83143,-9.9997 0.63942,-1.5483 1.16259,-3.87188 1.16259,-5.16349 0,-2.41145 6.9781,-8.52141 9.73219,-8.52141 1.06148,0 1.09907,-0.44678 0.1818,-2.16071 -1.57221,-2.93771 -0.6378,-15.21515 1.56799,-20.60219 0.96002,-2.34459 3.08542,-5.217 4.7231,-6.38313 7.29359,-5.1935 18.79693,-2.61113 22.22414,4.98908 1.68183,3.72961 1.70519,4.57354 0.33274,12.02072 l -1.47607,8.0095 3.85706,3.76631 c 2.12138,2.07147 3.85705,4.53499 3.85705,5.47447 0,0.93949 1.41036,2.8949 3.13413,4.34536 2.66939,2.24614 3.23971,3.5568 3.84619,8.83889 0.39164,3.41093 1.67301,8.3572 2.84748,10.9917 1.17448,2.6345 2.33844,7.3595 2.58658,10.5 0.24815,3.1405 0.92076,8.41 1.4947,11.71 0.57394,3.3 1.94858,12.90257 3.05475,21.33905 2.2035,16.80553 2.01832,18.08458 -2.99347,20.67628 -1.6337,0.84482 -2.97036,1.88756 -2.97036,2.3172 0,0.42965 4.1625,3.56253 9.25,6.96196 13.17375,8.80261 14.45494,9.89183 13.16184,11.18968 -0.78587,0.78875 -2.73042,-0.11507 -7,-3.25359 -3.25151,-2.39015 -8.66362,-6.17085 -12.02692,-8.40157 l -6.11507,-4.05583 -1.52168,2.61341 -1.52167,2.61341 10.35216,8 c 9.42249,7.28156 12.28162,10.5 9.32775,10.5 -0.60147,0 -6.22647,-4.06415 -12.5,-9.03144 -6.27352,-4.96729 -11.40641,-8.8157 -11.40641,-8.55202 0,1.62094 -6.02376,-1.98782 -6.69889,-4.01322 -0.6723,-2.0169 -19.67194,-18.41407 -21.30111,-18.38339 -0.275,0.005 -1.62937,2.35999 -3.0097,5.23291 -1.55696,3.24053 -3.26527,5.36723 -4.5,5.6021 -1.09467,0.20822 -3.16398,1.21124 -4.59847,2.22892 -1.43449,1.01769 -5.93449,2.35401 -10,2.9696 -4.06551,0.61559 -9.0281,1.98039 -11.02798,3.0329 -3.92895,2.06773 -9.84497,2.53252 -11.47589,0.9016 -1.6732,-1.6732 -19.68749,0.6145 -23.59405,2.9963 -1.81165,1.10454 -4.60654,2.00995 -6.21086,2.012 -1.60433,0.002 -5.70506,1.53628 -9.11275,3.40937 -3.40769,1.8731 -8.70321,4.19603 -11.76783,5.16207 -5.77141,1.81928 -5.77862,1.81891 -24.22513,-1.23329 -2.06328,-0.3414 -6.50572,0.82436 -13.99638,3.67283 -9.40758,3.57742 -11.53047,4.05308 -14.87481,3.33287 -5.61898,-1.21006 -7.54258,-4.36462 -8.50936,-13.95472 -0.44409,-4.40514 -1.43503,-9.16001 -2.20211,-10.56637 -0.76707,-1.40636 -2.44844,-4.47892 -3.73637,-6.82792 -1.64837,-3.00636 -2.23127,-5.42888 -1.96872,-8.18194 l 0.37298,-3.91105 -4.03129,0.6663 c -2.2172,0.36646 -4.42357,0.89981 -4.90305,1.18522 -0.47947,0.2854 -0.70447,13.80505 -0.5,30.04367 0.27166,21.57461 0.0635,29.62957 -0.7732,29.91405 -0.8037,0.27326 -1.31796,-3.57433 -1.72539,-12.90903 z m 34.87036,-9.71867 c 3.90402,-1.72951 3.94001,-1.79086 1.5,-2.55662 -2.7943,-0.87694 -10.35742,-8.54684 -12.59522,-12.77303 -0.80088,-1.5125 -1.60353,-2.75 -1.78367,-2.75 -0.18014,0 -0.1409,2.3625 0.0872,5.25 0.53885,6.82144 2.96261,13.50816 5.10075,14.07205 2.76928,0.73033 3.50683,0.61119 7.69095,-1.2424 z m 10.61514,-3.93033 c 3.3264,-2.58133 9.8842,-3.20826 16.64838,-1.5916 3.15506,0.75407 7.66317,1.38707 10.01802,1.40666 4.71053,0.0392 14.16614,-2.82988 19.37721,-5.87954 1.83769,-1.07546 5.59125,-2.50093 8.34125,-3.16771 2.75,-0.66677 6.7021,-2.0625 8.78245,-3.1016 2.42444,-1.21098 6.85032,-2.07501 12.32738,-2.40658 9.13225,-0.55285 12.1774,-1.33904 14.61043,-3.77207 3.41144,-3.41143 -1.51488,-14.27568 -8.32604,-18.36184 -2.45291,-1.47155 -2.94636,-1.39663 -8.41126,1.2771 -3.19301,1.56219 -5.27649,3.01668 -4.62996,3.23219 0.73949,0.2465 0.11908,1.75015 -1.67259,4.05376 -1.56647,2.01405 -3.12301,4.42139 -3.45899,5.34964 -0.95995,2.65221 -10.89113,4.96472 -12.2033,2.84159 -0.55269,-0.89427 1.01624,-1.49443 5.8568,-2.24039 1.0312,-0.15891 2.96928,-1.70981 4.30683,-3.44644 l 2.43191,-3.1575 -3.68717,0.83159 c -2.02795,0.45738 -5.54102,2.15037 -7.80683,3.76221 -6.61445,4.70534 -8.66704,5.52399 -17.11966,6.82798 -17.65527,2.72368 -24.39936,5.52675 -33.5605,13.94885 -5.67265,5.21503 -6.81601,7.46729 -1.82436,3.5937 z m 18.88486,-10.14932 c 0,-0.55 1.2375,-1.00534 2.75,-1.01187 1.5125,-0.007 5.225,-0.67619 8.25,-1.48813 6.2823,-1.68624 16,-1.98992 16,-0.5 0,0.55 -1.2375,1.03443 -2.75,1.07651 -1.5125,0.0421 -3.425,0.22492 -4.25,0.4063 -10.64758,2.34093 -20,3.0504 -20,1.51719 z m 29,-1 c 0,-0.55 1.8,-1 4,-1 2.2,0 4,0.45 4,1 0,0.55 -1.8,1 -4,1 -2.2,0 -4,-0.45 -4,-1 z m 10.62914,-6.99386 c 1.6668,-1.71888 9.21183,-3.19452 11.05621,-2.16235 2.16753,1.21301 0.8055,1.7892 -6.18535,2.61662 -4.55591,0.53923 -5.72824,0.42989 -4.87086,-0.45427 z m 13.37086,-0.006 c 0,-0.55 1.575,-1 3.5,-1 1.925,0 3.5,0.45 3.5,1 0,0.55 -1.575,1 -3.5,1 -1.925,0 -3.5,-0.45 -3.5,-1 z m -74.7893,14.88723 c 2.59115,-1.38674 6.53452,-5.78922 7.35342,-8.20955 0.34562,-1.02153 1.22195,-1.59002 1.9942,-1.29368 0.75769,0.29076 1.62233,0.13271 1.92142,-0.35121 0.72419,-1.17177 9.54683,-4.06286 14.13515,-4.63196 2.01441,-0.24985 4.00017,-0.66292 4.4128,-0.91795 0.41264,-0.25502 4.04171,-1.15605 8.0646,-2.00229 4.0229,-0.84625 8.01036,-2.15965 8.86103,-2.91868 0.85068,-0.75904 3.69044,-2.51367 6.31058,-3.89919 4.0405,-2.13659 4.45809,-2.61618 2.75,-3.15831 -1.10764,-0.35155 -2.0139,-1.36987 -2.0139,-2.26293 0,-1.3542 -0.24372,-1.30152 -1.4682,0.31739 -1.2075,1.59647 -1.47384,1.65757 -1.5,0.34414 -0.0175,-0.87834 0.8682,-2.6347 1.9682,-3.90301 2.41604,-2.78572 2.53782,-4 0.40113,-4 -2.70183,0 -8.21777,3.05519 -11.40899,6.31925 -2.37249,2.42663 -4.72193,3.47615 -10.76354,4.8082 -4.25073,0.9372 -11.1036,2.63421 -15.2286,3.77113 -8.11956,2.23791 -14.51667,2.69248 -15.5,1.10142 -0.33992,-0.55 -1.82898,-1.00168 -3.30902,-1.00374 -2.64633,-0.004 -8.67708,-3.08751 -10.6733,-5.45782 -2.23865,-2.65817 -10.31566,-8.53844 -11.72821,-8.53844 -1.10436,0 -1.67319,1.61337 -2.13853,6.06554 -0.74166,7.09581 0.75149,10.01561 8.69962,17.01184 2.59408,2.28339 5.33823,5.3376 6.09811,6.78712 3.42375,6.53099 7.8815,8.63472 12.76203,6.02273 z m -5.91024,-7.14117 c -2.00239,-2.20384 -2.73025,-5.74606 -1.18071,-5.74606 0.96004,0 4.3266,6.88698 3.68177,7.53181 -0.25317,0.25317 -1.37864,-0.55042 -2.50106,-1.78575 z m 50.14067,-20.27786 c 2.14363,-1.62137 5.55887,-1.97475 5.55887,-0.57519 0,1.13332 -2.52569,2.11635 -5.33179,2.07519 -2.12165,-0.0311 -2.12652,-0.0633 -0.22708,-1.5 z m 121.46836,16.7818 c 3.07795,-4.1196 7.37477,-8.19354 9.28936,-8.80752 2.00652,-0.64345 3.44665,-4.41885 2.0283,-5.31733 -0.54278,-0.34383 -1.2146,-3.77515 -1.49294,-7.62515 -0.27834,-3.85 -1.20775,-10.825 -2.06536,-15.5 -2.37853,-12.96581 -2.69506,-15.02466 -3.30539,-21.5 -0.31104,-3.3 -1.66418,-8.82454 -3.00698,-12.27675 -1.34279,-3.45221 -2.18302,-6.6949 -1.86715,-7.20598 1.0762,-1.74133 -2.2455,-7.80719 -4.64804,-8.48796 -5.29598,-1.50062 -7.84129,-2.84794 -7.84129,-4.15063 0,-1.65792 0.51328,-1.70953 3.12118,-0.31383 4.1114,2.20036 3.89102,0.19208 -0.61358,-5.59151 -4.24584,-5.45137 -4.59958,-6.32287 -4.0482,-9.97334 1.79531,-11.88595 1.78208,-12.29804 -0.52674,-16.40603 -1.95539,-3.47915 -2.84911,-4.10885 -6.6379,-4.67702 -10.68,-1.60156 -16.18988,4.56664 -16.39123,18.34969 -0.0649,4.44253 0.18181,8.56243 0.54825,9.15534 1.85174,2.99618 13.661,-0.44635 15.18879,-4.4277 0.31537,-0.82186 1.23059,-1.49428 2.03381,-1.49428 1.81409,0 1.06052,2.79395 -2.32842,8.63288 -1.9217,3.31099 -2.11942,4.24007 -0.9942,4.67186 0.77249,0.29643 1.90186,0.0416 2.50972,-0.56622 1.63945,-1.63945 2.46333,-0.21395 1.21954,2.11009 -1.4991,2.8011 -1.3502,6.73017 0.38199,10.07987 1.56216,3.02087 5.22442,5.30532 4.192,2.61489 -0.31221,-0.81363 -0.12789,-1.75112 0.40962,-2.08331 1.1558,-0.71433 3.93753,5.48399 3.9304,8.75782 -0.005,2.18248 -0.11233,2.15113 -2.46403,-0.71788 l -2.45907,-3 -0.036,3.62557 c -0.0366,3.6908 3.9963,14.1583 5.91077,15.34151 0.65005,0.40173 1.0533,-0.52022 1.0533,-2.40806 0,-1.68246 0.45,-3.05902 1,-3.05902 0.55,0 1.00614,1.9125 1.01365,4.25 0.008,2.3375 0.3034,5.33287 0.65753,6.65637 0.48619,1.81708 0.3265,2.21023 -0.65207,1.60544 -2.07002,-1.27934 -0.34235,5.86842 3.12237,12.91797 l 2.98339,6.07022 -0.39829,-4 c -0.21906,-2.2 0.26249,-5.575 1.07012,-7.5 2.06593,-4.92418 1.73312,-8.43882 -1.15805,-12.22933 -1.37299,-1.80009 -3.46335,-5.52239 -4.64525,-8.27178 -1.81714,-4.22715 -1.9811,-5.56185 -1.06201,-8.64541 0.59779,-2.00558 1.82218,-3.92867 2.72088,-4.27354 2.30591,-0.88486 3.19022,0.36907 1.0894,1.54475 -1.29826,0.72654 -1.74167,2.26502 -1.74167,6.04298 0,4.07711 0.53781,5.7018 2.75,8.30758 5.21922,6.14781 5.92501,7.17399 6.53284,9.49831 0.35041,1.33999 -0.076,3.65089 -1.00182,5.42966 -0.88653,1.70323 -1.75017,5.57178 -1.9192,8.59678 -0.16903,3.025 -0.35373,6.175 -0.41045,7 -0.16348,2.37787 3.47788,13.82925 4.82625,15.17762 1.65393,1.65393 1.539,2.82238 -0.27762,2.82238 -0.825,0 -1.5,-0.40186 -1.5,-0.89301 0,-1.63574 -2.77764,-1.98803 -6.54886,-0.83061 -6.03342,1.85171 -8.21574,9.81617 -3.87821,14.15369 2.26681,2.26681 4.00279,1.94351 6.33656,-1.18007 z m -0.43478,-59.28649 c -2.31307,-3.33776 -2.65568,-4.54437 -1.89855,-6.6864 1.33777,-3.78475 3.86595,-4.37017 3.17089,-0.73424 -0.29479,1.54213 0.0963,4.59606 0.86916,6.78649 0.77283,2.19044 1.24219,4.14557 1.04302,4.34474 -0.19917,0.19917 -1.6322,-1.4706 -3.18452,-3.71059 z m -71.49002,57.66405 c 0.008,-0.47985 -0.65474,-0.31636 -1.47368,0.3633 -0.81894,0.67967 -1.21269,1.68281 -0.875,2.22921 0.61975,1.00278 2.31849,-0.87232 2.34868,-2.59251 z m 9.48782,-1.26226 c 1.14193,-0.7904 4.55138,-1.3653 8.09699,-1.3653 4.65838,0 6.66831,-0.47166 8.39627,-1.97031 1.24948,-1.08367 3.08847,-2.22952 4.08665,-2.54633 2.48495,-0.78869 6.94758,-10.07484 6.94758,-14.45702 0,-2.78414 -0.719,-4.21188 -3.23122,-6.41631 -1.77717,-1.55944 -4.26572,-3.22867 -5.53011,-3.70939 -2.26267,-0.86026 -2.29322,-0.77898 -1.93833,5.15843 0.19831,3.31786 0.0641,6.21567 -0.29815,6.43958 -0.3623,0.22391 -1.42385,-2.83838 -2.359,-6.80509 l -1.70028,-7.2122 -5.72145,-1.6949 c -3.1468,-0.9322 -6.39646,-1.65901 -7.22146,-1.61515 -0.825,0.0439 -2.7375,-0.25053 -4.25,-0.65419 -2.28547,-0.60996 -2.75,-0.4162 -2.75,1.14709 0,1.44883 -1.21298,2.16303 -5.27928,3.1084 -2.9036,0.67507 -6.70712,1.22739 -8.45225,1.22739 l -3.17297,0 2.43351,2.62581 c 1.33844,1.44419 2.19039,3.01919 1.89324,3.5 -0.6008,0.97211 2.96322,1.14631 6.11712,0.29898 1.12166,-0.30134 2.47166,-1.53269 3,-2.73634 1.40388,-3.19825 3.95043,-2.79496 4.00812,0.63475 0.0508,3.01788 -1.92348,4.6768 -5.56578,4.6768 -2.05796,0 -2.02391,0.16015 0.79725,3.75 5.33765,6.79203 6.52065,10.04373 5.82068,15.99936 -0.61887,5.26556 -0.57927,5.37924 1.63306,4.68882 1.24701,-0.38917 3.15493,-1.32196 4.23981,-2.07288 z m 2.95218,-28.66879 c -4.95281,-3.41315 -7.16616,-6.33344 -3.74785,-4.94492 4.52263,1.83711 10.32316,5.73248 10.32316,6.93255 0,2.01812 -1.35846,1.60747 -6.57531,-1.98763 z m 49.57531,21.85616 c 0,-0.66135 -3.4875,-3.70791 -7.75,-6.77015 -9.32505,-6.69924 -13.00887,-10.42365 -11.65207,-11.78045 0.62858,-0.62858 2.72386,0.53643 5.93675,3.30095 2.73093,2.34981 7.24268,5.881 10.02612,7.84709 5.01309,3.54101 5.08249,3.55716 7.36079,1.7123 1.26499,-1.02432 3.37126,-1.86241 4.6806,-1.86241 l 2.38062,0 -2.39146,-6.35353 c -1.3153,-3.49445 -2.8315,-7.20695 -3.36932,-8.25 -3.56954,-6.92277 -4.78084,-10.61038 -5.22167,-15.89647 l -0.50036,-6 -2.91442,5.7544 c -1.84176,3.63649 -5.65572,8.37704 -10.36262,12.8802 -6.18321,5.91556 -7.53635,7.78304 -7.96725,10.9956 -0.28667,2.13733 -0.0945,3.8698 0.4292,3.8698 0.52154,0 4.91455,3.15633 9.76225,7.01407 6.9425,5.52476 9.10477,6.77275 10.18342,5.87756 0.75318,-0.62509 1.36942,-1.67762 1.36942,-2.33896 z m -162.22797,-9.55267 c -0.98055,-3.86307 -1.15663,-3.99914 -5.14367,-3.975 l -4.12836,0.025 4.21128,3.97499 c 5.35241,5.05211 6.34821,5.04719 5.06075,-0.025 z m 72.42774,-0.16352 c 1.48488,-1.04563 5.19738,-3.04458 8.25,-4.44212 3.05263,-1.39753 5.55023,-2.81648 5.55023,-3.15322 0,-1.68335 -4.65583,-5.24114 -6.85871,-5.24114 -4.26508,0 -14.41837,3.21072 -12.97474,4.10293 0.98401,0.60815 0.63682,1.49287 -1.43411,3.65446 -3.22074,3.36172 -3.26836,3.65967 -0.98244,6.14615 1.97,2.14284 4.3113,1.84717 8.44977,-1.06706 z m 74.84562,-18.60082 c 3.04996,-3.21943 6.34531,-7.40199 7.32299,-9.29458 0.97769,-1.89259 2.38133,-4.51891 3.11921,-5.83626 1.14401,-2.04242 1.10574,-2.88977 -0.25988,-5.7535 l -1.60147,-3.35832 -2.06312,6.14788 c -1.22819,3.65988 -2.97368,6.74585 -4.31312,7.62547 -2.10527,1.38255 -2.25,1.33236 -2.25,-0.7803 0,-2.09065 -0.3148,-2.21022 -4.25,-1.61422 -2.3375,0.35402 -5.01115,0.75269 -5.94144,0.88592 -0.93029,0.13324 -1.66232,-0.20775 -1.62673,-0.75775 0.0472,-0.72899 9.25116,-3.99873 12.56817,-4.46487 0.1375,-0.0193 0.25,0.63987 0.25,1.46487 0,2.02149 1.62973,1.90729 2.42688,-0.17005 1.1307,-2.94656 -1.82361,-3.93695 -7.17,-2.40362 -2.13368,0.61193 -3.44767,0.57398 -3.87151,-0.11181 -0.87017,-1.40796 1.51522,-2.78056 4.86463,-2.79921 1.77097,-0.01 2.75,-0.54933 2.75,-1.51531 0,-2.19751 1.68028,-1.8306 2.28975,0.5 0.75143,2.87347 2.39573,2.46285 3.00326,-0.75 0.28601,-1.5125 0.83957,-3.7625 1.23013,-5 0.934,-2.95935 -0.33881,-2.89365 -7.66887,0.39589 -3.24271,1.45524 -6.19398,2.34774 -6.55838,1.98333 -0.9169,-0.9169 0.44494,-2.06232 5.82083,-4.89578 8.47162,-4.46512 9.04442,-5.05837 7.29525,-7.55565 -1.97268,-2.81641 -4.84463,-2.94027 -4.12222,-0.17779 0.60609,2.31769 -1.06861,2.73985 -1.93301,0.48726 -0.31927,-0.832 0.0324,-2.25173 0.78138,-3.15495 0.74904,-0.90321 1.36741,-3.8052 1.37416,-6.44886 0.0135,-5.28996 -1.25759,-6.18403 -6.7488,-4.74696 -1.50508,0.39389 -2.98018,0.32189 -3.278,-0.15999 -0.59031,-0.95514 2.58488,-2.97177 4.69878,-2.9843 0.72366,-0.004 1.85428,-1.16825 2.51251,-2.58656 1.05857,-2.281 1.00084,-2.49966 -0.5,-1.89367 -0.93323,0.3768 -3.38848,0.92557 -5.45612,1.21949 -3.24421,0.46116 -3.53176,0.7008 -2.09851,1.74882 1.32154,0.96633 1.39251,1.38027 0.3474,2.02619 -0.84393,0.52157 -1.93842,0.0399 -3.06178,-1.34736 -0.96159,-1.18751 -2.36359,-2.15911 -3.11555,-2.15911 -2.14684,0 -5.81221,2.95082 -5.81221,4.67915 0,1.28796 0.26983,1.3418 1.52092,0.30348 1.78369,-1.48032 6.75041,-2.23067 5.92499,-0.89512 -0.31017,0.50187 -1.12696,0.91249 -1.81509,0.91249 -1.73889,0 -7.66538,5.9607 -8.74202,8.79247 -1.32715,3.49067 -1.07422,7.19915 0.53306,7.81592 2.54687,0.97733 5.37846,-1.49332 7.95605,-6.9419 2.76292,-5.84032 5.05598,-8.3915 6.06909,-6.75225 0.34378,0.55625 -0.45831,2.72753 -1.78243,4.82506 -3.67387,5.81979 -4.22434,9.70093 -1.72972,12.19555 1.13583,1.13583 2.51515,2.06515 3.06515,2.06515 0.55,0 1,0.45 1,1 0,0.55 -0.38086,1 -0.84636,1 -1.2147,0 -7.02517,-2.98312 -7.58973,-3.89659 -0.5335,-0.86323 -6.37362,-0.22531 -6.97511,0.76189 -0.21269,0.34908 1.1059,0.71264 2.93021,0.80789 4.80249,0.25077 8.16576,2.83296 8.91891,6.84761 0.35338,1.88366 1.41191,3.85904 2.35229,4.38974 1.416,0.79911 1.48281,1.19039 0.38881,2.27718 -1.09131,1.08412 -1.65638,0.90181 -3.25,-1.0485 -1.06096,-1.29844 -1.92902,-3.42736 -1.92902,-4.73095 0,-4.19398 -6.8991,-4.35031 -6.98469,-0.15827 -0.008,0.4125 0.62905,0.75 1.4166,0.75 1.28592,0 5.56809,4.92531 5.56809,6.40437 0,1.40337 -2.62261,0.42957 -3.76361,-1.39746 -1.52293,-2.4386 -5.19699,-2.11712 -6.68535,0.58495 -0.57807,1.04948 -1.50104,2.23875 -2.05104,2.64283 -0.55,0.40407 0.18261,0.74157 1.62803,0.75 1.49651,0.009 3.21874,0.88002 4,2.02367 0.75458,1.1046 2.60947,2.10275 4.12197,2.21811 3.57977,0.27303 3.47145,0.98541 -0.79921,5.25607 -3.38263,3.38263 -3.80007,5.51746 -1.07886,5.51746 0.68964,0 2.57558,1.38697 4.19098,3.08217 4.42564,4.64423 8.36612,3.66525 15.48248,-3.84651 z m -10.54539,-8.1915 c -2.47484,-0.49419 -2.67934,-0.72554 -1.16821,-1.32161 2.57886,-1.01723 5.66821,-0.89818 5.66821,0.21843 0,1.45445 -1.23037,1.75608 -4.5,1.10318 z m 4,-28.04416 c 0.33992,-0.55 1.49148,-1 2.55902,-1 1.06754,0 1.94098,0.45 1.94098,1 0,0.55 -1.15156,1 -2.55902,1 -1.45136,0 -2.2915,-0.43284 -1.94098,-1 z m -18,35 c -0.33992,-0.55 -0.14148,-1 0.44098,-1 0.58246,0 1.05902,-0.60277 1.05902,-1.33948 0,-0.73672 1.2375,-1.94784 2.75,-2.69139 l 2.75,-1.3519 -2.5,-0.37936 c -1.375,-0.20864 -2.95,-0.94798 -3.5,-1.64297 -1.50184,-1.89775 -6.58694,-2.98504 -5.92785,-1.26748 0.28538,0.74368 -0.13655,1.8961 -0.93761,2.56092 -2.75904,2.2898 -2.59244,-0.62082 0.38765,-6.77287 3.45224,-7.12674 3.4499,-7.11547 1.47781,-7.11547 -0.825,0 -1.52852,-0.5625 -1.56339,-1.25 -0.0349,-0.6875 -0.50111,-0.15438 -1.0361,1.18472 -0.535,1.33909 -0.7214,3.08966 -0.41422,3.89016 0.31304,0.81574 -0.33676,2.08251 -1.47841,2.88216 -1.84474,1.2921 -5.00788,7.23898 -5.00788,9.41508 0,0.48284 0.7875,0.90382 1.75,0.93552 0.9625,0.0317 4,1.14067 6.75,2.46436 5.79592,2.78982 5.81407,2.79519 5,1.478 z m 0.92962,-27.81929 c -0.12918,-0.17561 -1.1558,0.25585 -2.2814,0.9588 -1.54629,0.96567 -1.7792,1.6002 -0.95286,2.59589 0.87564,1.05508 1.33048,0.86393 2.2814,-0.9588 0.65325,-1.25213 1.08203,-2.42028 0.95286,-2.59589 z"
       id="path5520"
       inkscape:connector-curvature="0" />
  </g>
</svg>
