<?xml version="1.0" encoding="UTF-8" standalone="no"?>
<!-- Created with Inkscape (http://www.inkscape.org/) -->

<svg
   xmlns:dc="http://purl.org/dc/elements/1.1/"
   xmlns:cc="http://creativecommons.org/ns#"
   xmlns:rdf="http://www.w3.org/1999/02/22-rdf-syntax-ns#"
   xmlns:svg="http://www.w3.org/2000/svg"
   xmlns="http://www.w3.org/2000/svg"
   xmlns:xlink="http://www.w3.org/1999/xlink"
   xmlns:sodipodi="http://sodipodi.sourceforge.net/DTD/sodipodi-0.dtd"
   xmlns:inkscape="http://www.inkscape.org/namespaces/inkscape"
   width="800"
   height="529.69763"
   id="svg2"
   version="1.1"
   inkscape:version="0.48.3.1 r9886"
   sodipodi:docname="Bridge-1.svg">
  <defs
     id="defs4">
    <filter
       inkscape:collect="always"
       id="filter5283"
       color-interpolation-filters="sRGB">
      <feGaussianBlur
         inkscape:collect="always"
         stdDeviation="10.211719"
         id="feGaussianBlur5285" />
    </filter>
    <filter
       inkscape:collect="always"
       id="filter5427"
       x="-0.28619286"
       width="1.5723857"
       y="-0.28619286"
       height="1.5723857"
       color-interpolation-filters="sRGB">
      <feGaussianBlur
         inkscape:collect="always"
         stdDeviation="15.757641"
         id="feGaussianBlur5429" />
    </filter>
    <radialGradient
       gradientUnits="userSpaceOnUse"
       gradientTransform="matrix(1,0,0,0.91819829,-19.285714,-7.9105395)"
       r="209.56604"
       fy="287.50052"
       fx="398.1105"
       cy="287.50052"
       cx="398.1105"
       id="radialGradient5255"
       xlink:href="#linearGradient5249"
       inkscape:collect="always" />
    <linearGradient
       id="linearGradient5249"
       inkscape:collect="always">
      <stop
         id="stop5251"
         offset="0"
         style="stop-color:#e3e3e3;stop-opacity:1;" />
      <stop
         id="stop5253"
         offset="1"
         style="stop-color:#e3e3e3;stop-opacity:0;" />
    </linearGradient>
  </defs>
  <sodipodi:namedview
     id="base"
     pagecolor="#ffffff"
     bordercolor="#666666"
     borderopacity="1.0"
     inkscape:pageopacity="0.0"
     inkscape:pageshadow="2"
     inkscape:zoom="0.49497475"
     inkscape:cx="-78.418401"
     inkscape:cy="-77.161546"
     inkscape:document-units="px"
     inkscape:current-layer="layer1"
     showgrid="false"
     showguides="true"
     inkscape:guide-bbox="true"
     fit-margin-top="0"
     fit-margin-left="0"
     fit-margin-right="0"
     fit-margin-bottom="0"
     inkscape:window-width="1615"
     inkscape:window-height="1026"
     inkscape:window-x="1431"
     inkscape:window-y="24"
     inkscape:window-maximized="1">
    <sodipodi:guide
       orientation="-0.70710678,0.70710678"
       position="-1700.8536,892.48211"
       id="guide2985" />
  </sodipodi:namedview>
  <metadata
     id="metadata7">
    <rdf:RDF>
      <cc:Work
         rdf:about="">
        <dc:format>image/svg+xml</dc:format>
        <dc:type
           rdf:resource="http://purl.org/dc/dcmitype/StillImage" />
        <dc:title></dc:title>
      </cc:Work>
    </rdf:RDF>
  </metadata>
  <g
     inkscape:label="Ebene 1"
     inkscape:groupmode="layer"
     id="layer1"
     transform="translate(-272.28216,-389.43237)">
    <g
       id="g5449"
       transform="matrix(2.3389467,0,0,1.7382493,-487.22833,110.06108)"
       style="fill:#ffffff;fill-opacity:1"
       inkscape:export-filename="/home/christian/Arbeitsfläche/Dropbox/Website/opentraining/cc_exercises/Bridge-1.png"
       inkscape:export-xdpi="90.051376"
       inkscape:export-ydpi="90.051376">
      <rect
         inkscape:export-ydpi="150"
         inkscape:export-xdpi="150"
         inkscape:export-filename="/home/christian/Dokumente/Code/workspace/OpenTraining/res/drawable/background.png"
         y="185.22804"
         x="352.24948"
         height="255.71428"
         width="290"
         id="rect2987"
         style="fill:#ffffff;fill-opacity:1;stroke:none;filter:url(#filter5283)" />
      <path
         transform="matrix(1.6074318,0,0,0.77372547,-152.97598,82.347784)"
         d="m 467.14287,292.00504 c 0,36.49024 -29.58119,66.07142 -66.07143,66.07142 -36.49024,0 -66.07142,-29.58118 -66.07142,-66.07142 0,-36.49025 29.58118,-66.07143 66.07142,-66.07143 36.49024,0 66.07143,29.58118 66.07143,66.07143 z"
         sodipodi:ry="66.071426"
         sodipodi:rx="66.071426"
         sodipodi:cy="292.00504"
         sodipodi:cx="401.07144"
         id="path5317"
         style="fill:#ffffff;fill-opacity:1;stroke:none;filter:url(#filter5427)"
         sodipodi:type="arc" />
    </g>
    <rect
       style="fill:#f5f2f2;fill-opacity:0;stroke:none"
       id="rect5431"
       width="335.91214"
       height="290.63861"
       x="341.02036"
       y="131.26866"
       inkscape:export-filename="/home/christian/Dokumente/Code/workspace/OpenTraining/res/drawable/background.png"
       inkscape:export-xdpi="150"
       inkscape:export-ydpi="150" />
    <rect
       style="fill:#f5f2f2;fill-opacity:0;stroke:none"
       id="rect5431-9"
       width="335.91214"
       height="290.63861"
       x="390.73663"
       y="199.87378"
       inkscape:export-filename="/home/christian/Dokumente/Code/workspace/OpenTraining/res/drawable/background.png"
       inkscape:export-xdpi="150"
       inkscape:export-ydpi="150" />
    <path
       style="fill:#000000"
       d="m 785.21365,805.2609 c -0.72859,-0.17394 -4.77239,-1.48062 -8.98624,-2.90376 -7.44227,-2.51342 -7.92564,-2.58781 -16.89,-2.60059 -15.3636,-0.0219 -21.11712,-1.44333 -29.16378,-7.20541 -2.24648,-1.60873 -4.79411,-2.81792 -6.4646,-3.06842 -5.94226,-0.89112 -35.36284,4.17767 -43.99311,7.57938 -9.43636,3.71944 -34.8969,6.33918 -46.88904,4.82451 -3.47902,-0.43941 -7.12745,-1.20337 -8.10761,-1.69768 -0.98016,-0.49438 -4.45481,-1.23562 -7.72146,-1.6472 -4.59314,-0.57883 -7.25163,-1.37206 -11.72892,-3.49981 l -5.78957,-2.75135 -6.81696,0.56996 c -10.44682,0.87344 -13.1669,0.59439 -19.70585,-2.02183 -4.9586,-1.98388 -7.38785,-2.49741 -16.01751,-3.38609 -10.95916,-1.12851 -12.23535,-1.56408 -25.40655,-8.67073 -4.44122,-2.39632 -4.97348,-2.51767 -12.63899,-2.88229 -9.64211,-0.45862 -11.40452,-1.28377 -18.55409,-8.68709 -4.89267,-5.06634 -6.85491,-8.83322 -7.88268,-15.13223 -0.35888,-2.19951 -1.26326,-3.84847 -3.45109,-6.29236 -1.63063,-1.82147 -4.50526,-5.54721 -6.38805,-8.27942 l -3.42328,-4.96764 -4.63032,-1.1973 c -3.55142,-0.91832 -6.40517,-1.13861 -12.24739,-0.94542 -8.31541,0.27499 -8.49339,0.33299 -18.21471,5.93563 -8.36369,4.82021 -11.04145,5.48003 -22.23991,5.48003 l -9.65521,0 -5.69087,-2.82051 c -7.15517,-3.54624 -12.39937,-8.98113 -16.33331,-16.92725 -4.20046,-8.48443 -5.5223,-14.41088 -5.56738,-24.96107 -0.0613,-14.35844 2.10949,-21.32657 9.3888,-30.13706 7.08736,-8.57815 19.25014,-17.15777 29.0821,-20.5145 6.92552,-2.36444 18.83366,-3.24177 38.29778,-2.82156 21.91831,0.4732 21.99301,0.51924 24.4238,15.05665 0.57867,3.4608 1.45671,9.67074 1.95118,13.79989 0.49447,4.12915 1.20388,7.81238 1.57645,8.18495 0.46163,0.46163 2.21903,0.40189 5.51732,-0.18755 4.51397,-0.80669 5.06454,-1.09641 8.17518,-4.30206 2.71707,-2.80005 4.15989,-3.69119 7.78434,-4.80789 2.44699,-0.75393 5.27855,-1.80876 6.29235,-2.34406 1.0138,-0.53531 6.74636,-5.63643 12.73902,-11.33582 11.84543,-11.26571 18.53859,-15.99407 25.86484,-18.27212 8.33909,-2.59299 13.31806,-2.27761 25.16942,1.59431 1.63932,0.53559 6.40826,1.48098 10.59765,2.10088 10.37772,1.53559 16.94849,3.70276 20.99484,6.92452 3.6645,2.91771 12.21487,8.11214 15.86042,9.63534 1.31193,0.54816 4.06278,1.00187 6.11298,1.00823 2.05021,0.007 6.29518,0.43254 9.43327,0.94705 4.78657,0.78481 6.12019,0.79337 8.27941,0.0532 3.93057,-1.34746 15.13258,-2.56252 19.45726,-2.1105 2.12216,0.22181 6.49397,0.0813 9.71514,-0.31222 9.69288,-1.1842 11.66229,-2.71088 19.11758,-14.81986 12.28025,-19.94577 24.47423,-36.15923 27.64403,-36.75627 1.28425,-0.2419 2.69069,-1.68428 5.16787,-5.29999 4.33618,-6.32909 16.40064,-21.31968 25.97474,-32.27466 4.08915,-4.67894 9.21322,-10.58298 11.38682,-13.12007 6.80675,-7.9451 25.70097,-26.78849 29.17293,-29.09446 7.04662,-4.68014 18.04649,-7.95087 25.35158,-7.5381 3.53319,0.19964 5.13919,0.66722 7.64832,2.22676 7.02902,4.36878 7.79623,4.63943 12.36401,4.36159 2.36791,-0.14402 6.98783,-0.2842 10.26647,-0.31149 5.73061,-0.0477 6.16612,0.056 11.26,2.6824 8.2253,4.24092 10.37464,6.08736 13.05432,11.21436 3.183,6.0901 4.329,10.2524 5.54104,20.12454 1.06348,8.66246 2.99132,17.05644 7.98646,34.77443 4.40485,15.62412 6.73169,25.5449 7.17885,30.60822 0.21844,2.47306 0.67202,12.39504 1.00796,22.04884 0.54261,15.59209 1.68304,28.13047 3.19294,35.1047 0.46153,2.13175 0.71316,2.33238 3.12784,2.49395 5.23556,0.35032 13.28051,1.45838 15.77109,2.17219 2.56926,0.73637 8.74338,6.17131 10.26282,9.03415 0.42232,0.79571 0.76787,3.08279 0.76787,5.08241 0,6.58546 -4.49466,9.93083 -15.15033,11.27637 l -6.37614,0.80514 3.26838,2.37845 c 3.62194,2.63578 22.78938,12.35151 29.51809,14.96237 3.67162,1.42465 5.86513,1.74022 14.90294,2.14402 11.32864,0.50616 14.04451,1.17769 16.78357,4.14979 1.37643,1.49354 1.51338,2.15041 1.22577,5.88096 -0.7645,9.91754 -2.14662,13.8695 -5.79677,16.57465 -1.51858,1.12545 -9.6382,4.46493 -20.1608,8.29187 -5.87553,2.13682 -13.54737,2.66332 -21.69557,1.48884 -10.5546,-1.5213 -22.02894,-0.59506 -32.42981,2.61781 -7.84828,2.42435 -17.45816,3.27442 -23.36993,2.06728 -7.81417,-1.59568 -12.85077,-5.51317 -16.16068,-12.57 -2.44005,-5.20217 -2.29876,-13.26581 0.42059,-24.00765 l 1.96189,-7.74976 -2.38387,1.02344 c -13.42596,5.76411 -18.59198,7.13332 -23.19202,6.14678 -12.02622,-2.57916 -16.10155,-17.10731 -10.37425,-36.98305 2.3858,-8.27967 3.93611,-19.35952 3.41729,-24.42338 -0.43994,-4.29439 -3.1489,-12.11046 -4.62065,-13.33191 -0.60062,-0.49843 -1.26304,0.25052 -2.55919,2.89328 -1.506,3.07065 -1.61548,3.67646 -0.78867,4.36265 0.5281,0.43827 0.96015,1.04588 0.96015,1.35023 0,0.30436 -2.07244,3.13637 -4.60541,6.29337 -2.53297,3.15699 -5.78108,8.01299 -7.21812,10.79111 -2.71494,5.24876 -8.69787,21.29978 -11.71575,31.4311 -0.95794,3.21588 -3.23762,8.83522 -5.06597,12.48742 -3.94515,7.88054 -7.97729,12.22801 -16.70831,18.01492 l -5.8752,3.89406 7.54526,2.18593 c 12.63811,3.66138 16.80575,5.58469 28.74055,13.26329 2.55006,1.64064 6.72289,3.96411 9.27294,5.16317 5.73121,2.69485 6.54193,3.60996 6.07478,6.85734 -0.70588,4.90678 -1.53752,8.4799 -2.30181,9.88926 -2.20564,4.06744 -10.7097,9.10504 -20.97577,12.42554 -4.97053,1.60767 -10.36947,2.08754 -13.92779,1.23794 z m 16.04276,-7.12188 c 0.83028,-0.96525 1.5096,-2.02595 1.5096,-2.35712 0,-1.1311 -2.31654,-1.79147 -7.66016,-2.18345 -6.3055,-0.46265 -7.92089,-1.00565 -13.21302,-4.44147 -3.03869,-1.97281 -4.92338,-2.69061 -7.94824,-3.02729 -2.35451,-0.26208 -4.50313,-0.92457 -5.28977,-1.63097 -1.88115,-1.6894 -4.59992,-2.20802 -7.06679,-1.34802 -2.87192,1.00114 -4.00686,-0.0894 -2.08899,-2.00726 0.84776,-0.84774 2.58441,-1.52494 4.45001,-1.73524 2.55024,-0.28745 3.47241,-0.059 5.53861,1.37068 1.36341,0.94358 4.41631,2.19689 6.78422,2.78519 2.36791,0.5883 6.00007,2.09728 8.07146,3.35323 4.96374,3.00974 8.29722,4.13189 13.66428,4.59984 6.65941,0.58062 7.34363,0.81152 7.80069,2.63266 0.50228,2.00117 0.91801,2.03713 3.16072,0.27295 3.15723,-2.48342 1.74118,-4.8206 -3.35521,-5.53786 -7.5268,-1.05931 -13.16149,-3.09988 -20.069,-7.26794 -7.46799,-4.50625 -10.448,-5.67955 -19.21725,-7.56599 -4.68458,-1.00777 -5.62098,-1.42134 -5.62098,-2.48263 0,-3.46086 12.31884,-0.2658 26.62455,6.90542 8.98031,4.50169 14.28961,6.40297 19.804,7.09196 3.93644,0.49186 6.89087,2.44222 6.89087,4.54897 0,1.25231 1.73153,0.67871 2.28207,-0.75601 0.80363,-2.09436 -1.42154,-3.90861 -7.4306,-6.05808 -3.25939,-1.16594 -7.83071,-3.44079 -10.15852,-5.05535 -8.45901,-5.86705 -9.84342,-6.50172 -17.72107,-8.12396 -6.30551,-1.29854 -8.03298,-1.92234 -9.92578,-3.58418 -1.79269,-1.57402 -2.73794,-1.94408 -4.34151,-1.69954 -3.56119,0.54294 -4.6516,-0.45689 -2.66493,-2.44348 1.74958,-1.74962 5.7236,-1.3105 8.56327,0.94617 1.37522,1.09288 2.5694,1.98706 2.65372,1.98706 0.0843,0 2.78364,0.45868 5.99843,1.0193 7.21756,1.25866 9.78685,2.38334 16.51727,7.23037 6.109,4.39955 11.12523,7.06459 16.04769,8.52588 4.05321,1.20329 5.14476,0.45265 2.74545,-1.88798 -0.86456,-0.84337 -6.04284,-3.99425 -11.50726,-7.00186 -5.46441,-3.00768 -11.43893,-6.29964 -13.2767,-7.31555 -3.87541,-2.14226 -17.65778,-6.25471 -24.05378,-7.17725 -2.41877,-0.34887 -8.57059,-1.10331 -13.6707,-1.67653 -5.10011,-0.57322 -10.98678,-1.36715 -13.08147,-1.76429 -2.7816,-0.52738 -4.83547,-0.52053 -7.61706,0.0254 -2.09469,0.41109 -9.24958,1.06726 -15.89975,1.45815 -18.61967,1.09443 -29.24015,-0.26069 -42.47027,-5.41897 -3.77965,-1.47364 -8.84665,-3.09459 -11.26,-3.6021 -5.28281,-1.11095 -22.05325,-1.99751 -25.51184,-1.34868 -2.65644,0.49836 -2.97582,1.89391 -0.51627,2.25581 2.61669,0.38504 1.70702,2.49078 -1.70776,3.95318 -8.11778,3.47653 -21.69313,3.68214 -22.97258,0.34795 -0.67491,-1.75876 0.62552,-2.48939 2.8159,-1.58211 1.11481,0.46176 3.03254,0.63035 4.50773,0.39627 8.48679,-1.3467 10.84689,-1.89693 10.84689,-2.52885 0,-0.38928 -2.6286,-3.26161 -5.84134,-6.38294 -7.33545,-7.12677 -14.62104,-11.57694 -22.45882,-13.71828 -12.28684,-3.35685 -15.19798,-3.75167 -24.4406,-3.31467 -4.78186,0.22608 -9.34229,0.65078 -10.1343,0.94375 -1.35229,0.50025 -1.29761,0.60061 0.89754,1.6474 1.61208,0.76875 2.21716,1.42846 1.94961,2.12566 -0.49639,1.29358 -4.31962,1.33616 -6.75791,0.0752 -2.36474,-1.22285 -7.10546,-6.33315 -10.49931,-11.31783 -6.82426,-10.02305 -10.76571,-12.72914 -21.76199,-14.94119 -6.65874,-1.33949 -8.1204,-2.16959 -6.7429,-3.82937 1.15433,-1.39087 8.81917,-0.48157 15.45843,1.83387 l 5.47466,1.90929 8.26652,-7.26501 c 7.71309,-6.77863 14.78718,-14.80416 17.13169,-19.43583 0.55321,-1.09288 1.49856,-3.70089 2.10077,-5.79559 0.8564,-2.97882 1.3795,-3.80853 2.40115,-3.80853 0.92063,0 1.3062,0.44874 1.3062,1.52023 0,1.63198 -5.68546,14.9581 -8.2642,19.37041 -1.8087,3.09474 -10.53898,11.63561 -15.10438,14.7767 -1.71904,1.18273 -3.12553,2.31507 -3.12553,2.5163 0,0.20124 2.00346,2.64592 4.45214,5.4326 2.44868,2.78669 4.55744,5.21325 4.68614,5.39237 0.1287,0.17911 0.53525,-0.21262 0.90343,-0.87053 0.36818,-0.65789 2.85369,-2.19157 5.52335,-3.40818 5.28324,-2.40765 6.29488,-3.52521 8.19776,-9.056 1.79253,-5.21012 3.27552,-7.85507 4.40419,-7.85507 1.41473,0 1.23546,3.18936 -0.36553,6.50301 -0.73812,1.52774 -1.52734,3.70421 -1.75382,4.83659 -0.3737,1.86853 -0.28024,2.02127 1.01087,1.652 0.78245,-0.2238 2.09328,-0.59119 2.91294,-0.81642 2.21975,-0.60996 3.76824,-2.20926 5.55987,-5.74231 1.49309,-2.94434 4.32561,-5.21318 5.2964,-4.24239 0.53424,0.53424 -2.04633,6.5594 -4.2092,9.82771 -2.03136,3.0696 -6.13696,5.1606 -11.14814,5.6778 -2.91026,0.30036 -4.65366,1.00316 -7.91712,3.19155 -2.30176,1.54351 -4.58487,2.95208 -5.07357,3.13015 -0.65471,0.23858 -0.69533,0.53007 -0.15434,1.10766 0.56442,0.6026 2.09618,0.54565 6.62354,-0.24627 3.23912,-0.56658 7.86738,-1.0311 10.28502,-1.03226 l 4.3957,-0.002 0.57194,-3.80854 c 0.49583,-3.30161 0.78048,-3.83803 2.13865,-4.03018 2.01278,-0.28479 3.31681,0.90192 2.20872,2.01001 -0.43715,0.43715 -0.79483,1.92745 -0.79483,3.31177 0,2.00929 0.24768,2.51694 1.22799,2.51694 1.64115,0 4.13048,-2.3902 6.05432,-5.8132 1.54822,-2.7547 2.81694,-3.47732 3.67308,-2.09206 0.77702,1.25724 -0.36669,5.16485 -2.12239,7.25138 -0.94157,1.11899 -1.60035,2.11832 -1.46394,2.22073 0.13641,0.10242 2.88434,1.02842 6.10653,2.05778 3.22219,1.02937 9.45595,3.64534 13.85282,5.81326 6.44335,3.17697 8.86827,4.7962 12.49918,8.3463 l 4.50489,4.40463 15.4223,0.0479 c 17.29628,0.0538 24.4727,1.10667 33.30582,4.8868 6.60883,2.82825 6.69005,2.80286 7.16085,-2.23888 0.21873,-2.34239 1.73078,-8.26903 3.36008,-13.17031 1.62932,-4.90128 3.32265,-11.37525 3.76296,-14.38659 0.75433,-5.15886 0.52434,-14.8569 -0.47027,-19.82993 l -0.40368,-2.01844 -2.83669,2.61477 c -3.12634,2.88163 -8.78606,6.00926 -10.87449,6.00926 -2.43087,0 -14.00607,4.04085 -15.3098,5.34459 -0.70343,0.70342 -1.27896,2.15184 -1.27896,3.21869 0,2.24148 -1.58192,4.13532 -2.99975,3.59125 -1.46482,-0.5621 -1.17602,-3.32532 0.70962,-6.78987 2.03883,-3.746 2.38793,-3.97476 13.21896,-8.66182 11.57986,-5.01113 13.99812,-6.62501 15.6294,-10.43064 l 1.31452,-3.06663 -2.1251,-5.27188 c -2.39497,-5.94138 -5.97789,-11.61918 -9.43889,-14.95766 l -2.33303,-2.25044 -8.16216,0.3525 c -4.71116,0.20346 -9.92905,0.84826 -12.34115,1.52506 l -4.17901,1.17257 0.40277,2.14694 c 0.49064,2.61537 -0.78762,5.72876 -2.23338,5.43965 -0.7509,-0.15015 -1.04104,-0.99421 -1.04104,-3.02855 0,-2.4305 -0.28322,-3.00035 -2.04881,-4.12226 -2.51015,-1.59501 -8.56835,-2.29518 -14.42876,-1.66758 -3.9109,0.41882 -4.38764,0.62564 -4.39669,1.90733 -0.0129,1.82901 -0.60023,2.69328 -2.51619,3.70272 -1.24167,0.65417 -1.45447,1.16425 -1.12034,2.68551 0.47375,2.15696 -0.56619,3.18018 -2.01234,1.97998 -1.33428,-1.10735 -1.20179,-3.22158 0.36267,-5.78752 2.31078,-3.79003 1.58321,-6.37694 -2.47792,-8.81042 -1.37071,-0.82135 -5.02571,-3.34843 -8.12221,-5.61574 -4.56544,-3.34288 -6.99334,-4.57165 -12.84011,-6.49841 -8.67799,-2.85977 -14.32511,-4.03972 -16.60053,-3.46863 -1.47533,0.37028 -1.58618,0.58304 -0.88709,1.70246 0.6454,1.03346 0.5788,1.74096 -0.34661,3.68153 -1.41324,2.9636 -2.52404,2.7007 -3.41699,-0.80871 -0.3752,-1.47466 -1.08193,-3.15538 -1.57048,-3.73494 -1.28023,-1.5187 -7.58551,-3.72509 -11.93416,-4.17608 -3.2384,-0.33584 -4.50353,-0.0824 -9.49234,1.90127 -8.71806,3.4666 -16.16685,8.53328 -26.56965,18.07271 -10.60572,9.7255 -13.23414,11.57791 -16.43552,11.58319 -4.44384,0.008 -6.87215,1.16646 -9.18211,4.38303 -2.64105,3.67759 -5.95287,5.30595 -12.06509,5.93217 -5.30895,0.54391 -7.48761,0.0757 -8.76813,-1.88441 -0.53488,-0.81875 -1.44656,-5.47412 -2.04087,-10.42154 -1.28455,-10.69336 -2.74019,-18.16663 -4.02086,-20.64316 -1.37234,-2.65382 -4.32954,-3.19397 -17.49535,-3.1956 -25.95065,-0.004 -36.76421,2.51319 -51.32007,11.94255 -9.48732,6.14593 -15.04115,12.81228 -17.6639,21.20232 -1.30589,4.17741 -1.54297,6.35716 -1.5453,14.20742 -0.003,8.78541 0.11221,9.60304 2.18383,15.55147 4.96365,14.25262 11.52481,21.3522 22.33506,24.16791 8.91767,2.32276 17.9592,0.72319 29.89882,-5.28951 10.77208,-5.42475 14.3106,-6.17149 24.51859,-5.1743 5.8925,0.57561 7.25193,0.5397 7.68794,-0.20316 0.29132,-0.49632 0.94941,-0.90241 1.4624,-0.90241 1.52283,0 5.96177,4.69553 8.18382,8.65686 1.13817,2.02906 2.75768,4.33581 3.59891,5.12611 l 1.52952,1.4369 0.83571,-2.31112 c 0.57454,-1.58887 1.24886,-2.3111 2.15778,-2.3111 1.23965,0 1.314,0.40262 1.1926,6.45794 -0.14262,7.11356 0.99744,12.55838 3.51457,16.7852 1.89094,3.17531 9.04779,9.40118 13.01426,11.32127 4.28548,2.07456 15.59102,2.48515 23.32997,0.84722 7.27663,-1.54003 8.78255,-1.57051 9.06105,-0.18314 0.28492,1.41929 -2.38837,3.19466 -6.30951,4.19031 l -3.01037,0.76435 4.43805,2.48191 c 3.73128,2.08667 5.56596,2.63192 11.52069,3.42403 6.96674,0.92676 18.11791,3.68964 23.97264,5.93958 2.10725,0.80986 4.53322,1.09971 8.27942,0.98943 2.91436,-0.0857 8.76551,-0.20215 13.00257,-0.25852 l 7.70375,-0.10253 3.55625,2.44302 c 6.68731,4.59395 10.75361,5.04461 16.80331,1.86227 4.23017,-2.22517 6.3768,-2.48793 7.66315,-0.93802 1.20095,1.44711 -0.0319,3.25626 -2.21887,3.25626 -2.11196,0 -2.9629,0.76077 -1.35449,1.21098 6.96571,1.9497 24.36679,0.73011 45.02956,-3.15598 8.80092,-1.65522 16.78964,-3.30912 17.75271,-3.67527 0.96305,-0.36615 4.19435,-0.9559 7.18066,-1.31066 2.98631,-0.35469 9.90053,-1.2486 15.36494,-1.98653 5.46441,-0.73786 10.0098,-1.34325 10.10089,-1.3453 0.091,0 0.16558,-0.89788 0.16558,-1.99077 0,-1.14435 0.3499,-1.98706 0.82506,-1.98706 0.45378,0 3.21083,2.51615 6.12677,5.59139 4.63982,4.89332 5.75649,5.71809 8.94464,6.60644 6.9925,1.94837 15.46825,3.03629 23.65487,3.03629 7.66556,0 8.55869,0.13651 12.66353,1.93546 5.42794,2.37878 6.74675,2.71565 12.83732,3.27891 6.44006,0.59552 9.7215,-0.0291 11.59587,-2.20854 z M 610.68364,784.55886 c 0,-1.74026 1.80309,-2.60457 6.4463,-3.08988 3.05526,-0.31931 4.03817,-0.18612 4.72404,0.6403 1.22517,1.47626 0.291,2.57576 -1.79851,2.11681 -0.96913,-0.21281 -3.25071,0.0643 -5.07018,0.61639 -4.21353,1.27808 -4.30165,1.27225 -4.30165,-0.28362 z m 41.39706,-1.06759 c -6.13016,-1.21614 -8.27942,-2.15933 -8.27942,-3.63346 0,-0.66289 0.22355,-1.33498 0.49677,-1.4936 0.27322,-0.15857 3.32832,0.29547 6.78912,1.00902 6.00605,1.23833 6.60878,1.249 13.24705,0.23401 3.8251,-0.58479 11.23428,-2.09965 16.46487,-3.36635 10.45066,-2.53071 13.34102,-2.8246 13.34102,-1.35643 0,0.62586 -1.29045,1.19483 -3.80852,1.67914 -2.0947,0.4029 -6.94996,1.74689 -10.78948,2.98661 -6.91206,2.2318 -19.24933,5.04316 -21.60428,4.92314 -0.67136,-0.0344 -3.30707,-0.47617 -5.85713,-0.98208 z m -53.65059,-5.28596 c -1.09289,-0.56281 -4.37153,-3.36317 -7.28589,-6.22301 -5.95253,-5.84116 -8.86464,-7.54705 -14.685,-8.60251 -5.00984,-0.90848 -5.99449,-0.53558 -6.83578,2.58874 -0.43442,1.61336 -1.83187,3.5779 -3.96303,5.57138 -3.75491,3.51226 -5.62219,4.38505 -9.3814,4.38505 -2.12225,0 -2.6119,-0.2215 -2.44071,-1.10421 0.11778,-0.60732 1.09727,-1.3985 2.17664,-1.75809 1.07936,-0.35959 3.3148,-1.44836 4.96764,-2.41937 3.62351,-2.12881 4.61848,-4.33796 3.43179,-7.61965 -0.60878,-1.68356 -0.63712,-2.64537 -0.10712,-3.63568 0.96453,-1.80223 5.96776,-1.81417 12.4076,-0.0296 9.10852,2.52412 11.86161,4.16463 18.3599,10.94064 5.89081,6.14253 6.0519,6.25367 8.48859,5.85698 1.90131,-0.30951 2.48382,-0.18207 2.48382,0.5434 0,2.56185 -4.0224,3.35707 -7.61705,1.50593 z m -97.2555,-43.7878 c -1.96284,-1.96283 1.63644,-8.85355 5.51938,-10.5667 2.52843,-1.11554 2.6503,-1.3071 2.66418,-4.18772 0.022,-4.56509 3.42966,-11.29813 5.71811,-11.29813 1.24188,0 1.11211,1.73441 -0.43417,5.8027 -1.5951,4.19675 -1.65651,6.41977 -0.28866,10.4487 0.80578,2.37333 0.8613,3.26079 0.25009,3.99726 -1.06705,1.28571 -1.70013,1.19465 -3.38112,-0.48632 -1.29949,-1.2995 -1.58676,-1.34577 -3.08405,-0.49678 -0.92123,0.52237 -2.04966,2.09325 -2.55276,3.5537 -1.10393,3.20466 -3.02875,4.61556 -4.411,3.23329 z M 625.1413,720.92543 c -2.00863,-1.17205 -3.74121,-4.86801 -4.72029,-10.06936 -0.53069,-2.81928 -1.43633,-5.84546 -2.01253,-6.72486 -0.57621,-0.8794 -2.92259,-2.71109 -5.21419,-4.07043 -7.11784,-4.22218 -9.09554,-5.71751 -10.44088,-7.89433 -1.44494,-2.33795 -2.65313,-10.87346 -2.66199,-18.80609 -0.007,-6.043 -1.25447,-8.88014 -5.09622,-11.58805 -4.48931,-3.16436 -3.67556,-5.03527 1.03786,-2.38618 4.89958,2.75373 7.17453,8.02162 8.03475,18.60542 0.61916,7.61789 1.45373,11.57646 2.79375,13.25151 1.03088,1.28864 7.81696,5.84323 11.48345,7.70732 1.48154,0.75324 3.07432,1.82813 3.53949,2.38863 0.46518,0.5605 1.27281,4.07435 1.79473,7.80855 0.52193,3.73419 1.39501,7.47021 1.94019,8.30224 1.03618,1.58142 2.57974,1.98177 3.27892,0.85046 0.79351,-1.28392 2.31824,-0.67706 2.31824,0.92266 0,2.26254 -3.45582,3.23098 -6.07528,1.70251 z m -173.95227,-3.41999 c -1.88582,-1.88583 -0.18559,-3.45352 5.62586,-5.18735 1.52774,-0.45579 3.82968,-1.69582 5.11539,-2.75562 2.43215,-2.00477 5.86692,-8.41824 6.67169,-12.45751 0.88157,-4.42464 5.7032,-20.82284 6.95415,-23.65084 1.15971,-2.62171 2.7511,-3.6361 3.58572,-2.28564 0.18955,0.30669 -0.992,5.44821 -2.62566,11.42558 -1.63366,5.97738 -3.54391,14.1059 -4.245,18.06338 -0.79702,4.49906 -1.72204,7.70139 -2.46848,8.54562 -1.95971,2.21649 -10.1053,7.23068 -13.31602,8.19697 -3.66469,1.10291 -4.28774,1.11531 -5.29765,0.10541 z m 46.89644,-16.7553 c -0.67898,-0.81814 -0.31711,-1.76864 2.07155,-5.44113 2.51891,-3.87276 2.89425,-4.91789 2.89425,-8.059 0,-3.86421 0.80235,-4.81336 2.57253,-3.04319 2.34114,2.34114 0.1229,11.9605 -3.62161,15.705 -2.08875,2.08875 -2.75975,2.23237 -3.91672,0.83832 z m 120.47297,-10.90606 c -0.95112,-0.28793 -3.06653,-1.30716 -4.70093,-2.26497 -2.24482,-1.31556 -3.48232,-1.63934 -5.0598,-1.32385 -1.80362,0.36073 -2.0882,0.23117 -2.0882,-0.95077 0,-1.78101 0.91146,-2.28958 4.10333,-2.28958 1.68861,0 3.34265,0.53957 4.67607,1.52541 2.31504,1.71159 5.60318,2.00845 6.50285,0.58709 0.32667,-0.51608 0.59851,-1.73361 0.60409,-2.70563 0.0138,-2.40385 0.64301,-3.8627 1.66602,-3.8627 1.20108,0 1.65588,1.548 1.65588,5.63609 0,3.03617 -0.24868,3.73632 -1.7452,4.91348 -1.84695,1.4528 -2.82226,1.58057 -5.61411,0.73543 z m 13.48607,-2.99781 c -0.81965,-0.59203 -1.49028,-1.68184 -1.49028,-2.42179 0,-1.18955 0.28993,-1.29639 2.50335,-0.92243 1.97913,0.33437 3.40086,0.006 6.78913,-1.56952 4.39204,-2.04186 12.27442,-3.69761 14.15941,-2.97428 1.41813,0.54419 1.33611,2.05328 -0.15497,2.85128 -0.66558,0.3562 -2.8265,0.84885 -4.80206,1.09477 -2.24748,0.27977 -4.77823,1.19313 -6.76138,2.44023 -3.83866,2.41393 -8.11274,3.04054 -10.2432,1.50174 z m 35.07356,-7.71158 c -2.25148,-0.64915 -3.40334,-2.21462 -2.37502,-3.22786 0.33192,-0.32705 2.51305,-0.16999 5.04507,0.36332 3.12319,0.65781 4.97285,0.74458 6.16988,0.28948 3.46003,-1.3155 4.89404,-0.0412 2.5695,2.28331 -1.18386,1.18387 -7.73423,1.35136 -11.40943,0.29175 z m 225.31702,89.18659 c 11.12264,-2.48025 16.97346,-3.05498 36.50917,-3.58605 l 17.88353,-0.48617 7.12765,-2.42553 c 11.28424,-3.84002 17.71055,-7.26466 17.71055,-9.43809 0,-0.50785 -1.05788,-1.98125 -2.35075,-3.27421 -2.89372,-2.89368 -2.46253,-3.93075 1.39385,-3.35245 2.48211,0.37221 2.96051,0.24229 3.6157,-0.98182 1.00488,-1.87783 0.47604,-3.01791 -2.13971,-4.61279 -1.92989,-1.17659 -3.33992,-1.3263 -12.51367,-1.32849 -11.38055,-0.003 -11.86599,-0.1385 -20.79186,-5.81608 -1.82147,-1.15861 -6.5649,-3.44697 -10.54101,-5.08526 -3.97611,-1.63829 -8.44699,-3.77999 -9.9353,-4.75934 -4.7645,-3.13513 -11.6994,-9.11608 -12.99444,-11.20699 -1.13573,-1.83365 -2.43998,-7.66293 -5.61165,-25.08144 -1.74814,-9.60053 -2.96595,-24.03407 -3.63652,-43.10102 -0.34594,-9.83595 -0.93226,-19.67189 -1.30297,-21.85765 -0.37073,-2.18577 -2.91006,-12.02171 -5.64299,-21.85766 -4.53454,-16.31999 -6.68215,-25.66331 -9.97205,-43.38412 -2.14941,-11.57744 -3.80058,-14.71961 -10.10871,-19.23678 -4.6164,-3.30573 -9.99848,-5.31669 -14.30225,-5.34389 -4.36398,-0.0276 -12.0527,2.49837 -21.29293,6.99534 -6.50345,3.16503 -8.26941,4.43776 -15.95906,11.50159 -4.7555,4.36851 -10.85369,10.4237 -13.5515,13.45599 -2.6978,3.03229 -8.19374,8.94777 -12.21317,13.14551 -7.41544,7.74436 -14.03193,15.53691 -18.29061,21.54166 -4.11499,5.80218 -10.61549,16.82893 -10.26004,17.40406 0.18864,0.30523 2.50399,1.84394 5.14523,3.41937 14.16042,8.44629 27.52536,20.23643 41.44924,36.56522 l 6.01152,7.04982 2.343,-5.06276 c 3.6187,-7.81902 4.21872,-9.48619 6.78422,-18.84903 1.31623,-4.80355 4.33987,-14.64725 6.71917,-21.87488 4.20329,-12.7681 4.46135,-13.32277 9.09212,-19.53941 4.69271,-6.29983 11.02089,-12.69063 12.5663,-12.69063 1.50089,0 2.3791,1.60025 2.3791,4.33511 0,2.95791 -0.48372,3.59938 -5.06991,6.72346 -3.82682,2.60684 -5.85276,5.25909 -8.58622,11.2409 l -2.37082,5.18818 0.30845,8.94177 c 0.48021,13.91971 4.37346,26.11527 12.58114,39.41 5.95918,9.65266 8.36353,14.77908 11.96017,25.50059 5.04176,15.02935 5.98416,19.33538 6.01582,27.48765 0.0258,6.59343 -0.20838,8.05312 -2.46157,15.35847 -2.97985,9.66133 -4.43141,16.86988 -4.42154,21.95716 0.0126,6.60323 0.62381,8.53987 3.81337,12.08742 6.12855,6.81647 11.58574,7.89498 24.91195,4.92327 z m 65.32153,-19.74465 c 0,-1.32346 1.38868,-2.371 3.77633,-2.84852 1.5313,-0.30627 2.09821,-0.12774 2.44243,0.76918 0.59684,1.55539 -0.0484,2.04708 -3.40377,2.59243 -2.23935,0.364 -2.81499,0.25906 -2.81499,-0.51309 z m -69.53469,-3.79773 c -3.07265,-0.72254 -7.06975,-5.04756 -7.68223,-8.31244 -0.35005,-1.86596 -0.0331,-3.88499 1.23284,-7.85503 0.93723,-2.93894 1.87651,-6.35832 2.0874,-7.59863 0.39609,-2.32997 1.42942,-4.03725 2.44362,-4.03725 0.97903,0 0.6497,5.00577 -0.73985,11.24378 -1.64495,7.38501 -1.31695,8.25163 4.35868,11.51597 4.27847,2.46076 5.47369,4.44715 3.20063,5.31939 -1.24079,0.47614 -1.84903,0.44191 -4.90109,-0.27579 z m -25.67856,-87.19143 c -1.41485,-0.57089 -0.9155,-2.05821 1.19574,-3.56154 2.54013,-1.80872 4.71649,-5.23838 6.23129,-9.81968 1.00493,-3.03916 1.1152,-5.00418 0.76203,-13.57824 -0.22711,-5.51365 -0.58015,-11.36608 -0.78448,-13.00541 -0.6823,-5.47347 2.94482,-7.26516 4.59043,-2.26756 0.35065,1.06501 0.66408,7.89756 0.69641,15.18344 0.0629,14.10321 -0.60394,18.30504 -3.7066,23.364 -2.00031,3.2615 -5.98462,4.89561 -8.98482,3.68499 z m -45.20473,-22.5781 c 4e-4,-0.63751 1.45996,-4.75206 3.24334,-9.14343 1.78339,-4.39137 4.2021,-11.09769 5.37493,-14.90294 3.12975,-10.15416 7.11499,-17.5907 11.97157,-22.33887 2.05992,-2.01399 5.24106,-2.90834 5.24106,-1.47348 0,0.36225 -1.79179,3.07525 -3.98179,6.02889 -5.16768,6.96968 -8.09985,13.19364 -10.26721,21.79365 -2.18113,8.65506 -4.95811,15.89511 -7.24839,18.89778 -1.87314,2.45581 -4.33497,3.10252 -4.33351,1.1384 z m 54.53589,-73.85236 c -0.7325,-0.81966 -2.00017,-2.46349 -2.81706,-3.65294 -1.91645,-2.79039 -4.83947,-4.27512 -7.89392,-4.00964 -2.01494,0.17514 -2.42871,-0.003 -2.42871,-1.04141 0,-3.35617 5.3234,-2.73348 11.92308,1.39466 4.2078,2.63196 6.06265,5.42751 4.96374,7.4809 -0.9218,1.72232 -2.10297,1.66823 -3.74713,-0.17157 z M 709.07417,749.95155 c 0.25714,-1.1708 0.52503,-8.54776 0.59528,-16.39324 0.0703,-7.84549 0.33064,-14.19001 0.57862,-14.09893 0.24797,0.091 0.68467,0.16559 0.97041,0.16559 0.28576,0 1.10541,0.96869 1.82147,2.15264 1.18596,1.9609 1.30193,3.40641 1.30193,16.22777 l 0,14.07512 4.17454,-1.2e-4 c 2.296,-7e-5 6.23835,-0.46953 8.76078,-1.04324 3.8794,-0.88234 5.89015,-0.9326 13.04664,-0.32602 4.65321,0.39439 9.81908,0.89461 11.4797,1.1116 2.7534,0.35979 3.68759,0.0502 10.60728,-3.51509 8.85587,-4.56292 15.96533,-9.04933 19.73035,-12.4508 5.38452,-4.86459 9.16913,-12.5541 14.29795,-29.05027 1.34247,-4.31792 3.43758,-10.13006 4.65579,-12.91588 1.21821,-2.78582 2.54652,-6.31471 2.95179,-7.84196 0.40527,-1.52726 2.64884,-5.63653 4.98569,-9.13173 l 4.24881,-6.35491 -5.01465,-6.02506 c -7.7955,-9.36621 -23.77797,-25.0735 -30.07889,-29.561 -8.8303,-6.28891 -23.9154,-15.4989 -24.41423,-14.90576 -0.2465,0.29312 -1.46154,1.8742 -2.70007,3.51351 -3.41524,4.5204 -14.84349,18.08714 -16.14318,19.16393 -1.48643,1.23151 -3.6983,5.58113 -3.6983,7.27265 0,2.17903 -1.47733,4.7615 -2.60191,4.54834 -0.69667,-0.13206 -1.15058,-1.17257 -1.37221,-3.14552 -0.27486,-2.44687 -0.61273,-3.02592 -1.98706,-3.4054 -2.90988,-0.8035 -6.63033,-0.61979 -8.65538,0.42741 -2.14126,1.10729 -2.42639,0.86561 -2.76234,-2.3414 -0.14364,-1.3713 0.33989,-1.9109 2.81345,-3.13969 1.6428,-0.81608 4.92144,-1.68222 7.28588,-1.92474 4.26081,-0.43703 4.34523,-0.4856 9.50743,-5.4709 4.48016,-4.32663 10.97439,-12.68289 12.06448,-15.52363 0.52146,-1.35891 -8.53456,-5.57018 -13.47088,-6.26428 l -4.14617,-0.58299 -7.18945,9.664 c -6.58178,8.84717 -11.75704,16.9253 -15.32977,23.92842 -1.36015,2.66611 -1.3611,2.69817 -0.0596,2.00163 0.72747,-0.38934 1.5059,-1.00434 1.72984,-1.36667 0.71184,-1.15178 2.31603,-0.70911 2.31603,0.63911 0,1.95434 -2.92288,4.28833 -10.08723,8.05491 l -6.46651,3.3997 4.0682,4.3489 c 4.98254,5.32636 9.94676,12.81419 11.84466,17.86601 0.7811,2.07912 1.58591,5.94115 1.78848,8.58228 0.34294,4.47121 0.27778,4.80206 -0.94568,4.80206 -1.56457,0 -2.23774,-1.3453 -4.16734,-8.3284 -2.31243,-8.36848 -9.75426,-21.32267 -13.30374,-23.15818 -2.16489,-1.11951 -5.91318,-1.29415 -5.91318,-0.2755 0,1.15364 5.77595,10.79175 9.26236,15.45576 4.4697,5.97942 4.41637,5.84661 5.6314,14.02312 2.1467,14.44619 1.31944,25.89562 -2.72527,37.71833 -1.46353,4.27791 -4.58317,19.40316 -4.0998,19.87745 0.3162,0.31028 9.1311,1.46819 11.91486,1.56512 2.22407,0.0774 2.47103,-0.0967 2.89874,-2.04405 z m 6.92359,0.42659 c 0,-0.57189 0.90318,-2.35252 2.00707,-3.95695 2.61389,-3.79917 5.93998,-10.85669 5.94064,-12.60528 6.7e-4,-1.89622 4.48478,-14.71687 6.03973,-17.26859 2.98847,-4.90414 7.40567,-5.59924 16.41621,-2.58326 5.26583,1.76257 5.80283,1.82042 9.97633,1.07457 5.63547,-1.00712 10.58742,-3.8449 13.7988,-7.9076 3.30891,-4.18608 7.59063,-12.48682 9.44241,-18.30548 2.85839,-8.98163 7.29939,-15.505 12.1094,-17.78749 1.18626,-0.56292 3.91393,-2.08156 6.06151,-3.37476 4.31169,-2.59637 8.558,-3.24392 8.17089,-1.24604 -0.11778,0.60789 -1.73264,1.88977 -3.58855,2.84861 -7.81914,4.03967 -13.77825,9.58544 -14.46571,13.46232 -1.19523,6.74033 -13.39763,27.46097 -19.66096,33.38585 -2.27216,2.14939 -6.27308,4.17328 -8.24994,4.17328 -0.59661,0 -4.10837,3.09642 -7.80393,6.88095 -7.15584,7.3281 -12.11662,10.68788 -16.82302,11.39365 -3.70933,0.55624 -5.40909,-0.60628 -3.68001,-2.51689 0.6339,-0.70044 4.51198,-3.37061 8.61796,-5.93372 6.56209,-4.09629 11.4608,-8.23583 11.45698,-9.68145 -9.5e-4,-0.4588 -11.20259,-2.82182 -13.28146,-2.80185 -1.43446,0.0138 -4.83828,3.7522 -6.57822,7.22482 -0.80181,1.60031 -2.76605,6.59739 -4.36496,11.10464 -3.26958,9.21673 -4.46828,11.81894 -6.43528,13.97014 -1.60911,1.75981 -5.10589,2.06834 -5.10589,0.45053 z m 7.68934,-68.19847 c -2.30445,-2.30444 -3.00932,-9.3028 -1.66786,-16.5594 0.9991,-5.40467 3.7719,-10.60626 4.99946,-9.37868 0.18434,0.18434 -0.32959,3.04574 -1.14208,6.35867 l -1.47724,6.02352 1.42919,5.82757 c 1.70743,6.96214 1.74659,7.81833 0.38148,8.34216 -1.40033,0.53736 -1.36257,0.54654 -2.52295,-0.61384 z m 118.89527,49.37301 c 1.96229,-0.36134 7.36808,-2.05167 12.0129,-3.75628 8.20927,-3.01273 8.46467,-3.16551 9.14192,-5.46979 1.21429,-4.13127 1.51673,-12.35809 0.6515,-17.72182 -1.14548,-7.10074 -5.5027,-20.41515 -9.37058,-28.63376 -2.50131,-5.31496 -8.47626,-15.70864 -10.27409,-17.87219 -0.1181,-0.14217 -1.41571,0.82652 -2.88362,2.15264 -2.10218,1.89922 -3.21367,2.41113 -5.23524,2.41113 -3.05277,0 -4.67859,-1.42905 -3.39091,-2.9806 0.45351,-0.54643 1.21853,-0.99352 1.70006,-0.99352 2.85441,0 6.49299,-7.66493 4.9803,-10.49143 -0.68242,-1.2751 -3.79323,-13.27927 -4.14706,-16.00269 -0.23169,-1.78361 0.0119,-2.36765 -6.13736,14.70617 l -3.03033,8.41382 1.55937,3.50854 c 0.85768,1.9297 2.34619,4.66157 3.30773,6.07084 2.17318,3.18488 2.9539,5.84827 3.79521,12.94687 0.81165,6.84802 0.0576,11.34531 -4.6723,27.87411 -1.82425,6.37469 -3.3168,12.39097 -3.3168,13.36952 0,4.24729 3.54657,9.79805 7.51553,11.76269 3.18399,1.57607 3.1059,1.56899 7.79377,0.70575 z m 2.95362,-22.08572 c -2.19456,-2.1946 -2.77075,-5.71331 -1.51056,-9.22511 1.63284,-4.55015 2.99364,-8.629 3.58798,-10.75395 0.89682,-3.20695 2.47687,-2.51774 2.71372,1.18371 0.1481,2.31494 -0.25415,4.16902 -1.4903,6.86916 -0.93126,2.03412 -1.69317,4.23686 -1.69317,4.89498 0,1.36467 2.30075,3.36268 5.30538,4.60724 1.50818,0.6247 1.99541,1.21617 1.84863,2.24424 -0.1693,1.18591 -0.7219,1.42607 -3.67228,1.59602 -2.95019,0.16994 -3.71634,-0.0432 -5.0894,-1.41629 z m 80.5842,-1.51836 c 2.28326,-0.43748 4.51108,-3.51242 4.95777,-6.84294 l 0.3435,-2.56081 -3.55684,-0.39725 c -1.95626,-0.21848 -5.34518,-0.46793 -7.53095,-0.55436 -3.541,-0.13998 -3.99684,-0.31698 -4.1827,-1.62398 -0.23659,-1.66375 0.79265,-2.05314 6.16976,-2.33416 l 3.31176,-0.17308 -1.8065,-1.2255 c -2.54006,-1.72311 -5.93415,-2.38336 -12.34572,-2.40163 -5.33394,-0.0152 -5.52787,0.0372 -5.17232,1.39678 0.20321,0.77692 1.0483,5.12709 1.8781,9.66704 l 1.50864,8.25445 7.30655,-0.42864 c 4.01862,-0.23575 8.1221,-0.58491 9.11895,-0.77592 z M 753.82124,611.66143 c 0.54473,0 1.34311,0.3527 1.77419,0.78377 0.43108,0.4311 0.88189,0.65464 1.00179,0.49677 0.11989,-0.15786 1.66692,-2.37343 3.43783,-4.92349 10.1953,-14.68091 30.51727,-38.35946 47.99119,-55.91788 13.22797,-13.2919 13.81262,-13.78302 20.47385,-17.19725 l 6.85706,-3.51459 -2.2206,-2.33324 c -4.32066,-4.53993 -9.05211,-5.2371 -17.44803,-2.5709 -13.09061,4.15705 -25.29154,14.96701 -41.93724,37.15621 -3.82596,5.10012 -10.41915,12.84965 -14.65151,17.22118 -4.23238,4.37153 -9.06554,9.58756 -10.74039,11.59118 -3.4009,4.06852 -10.81867,15.80256 -10.31076,16.31045 0.17993,0.17994 2.81808,1.59462 5.86256,3.14375 l 5.5354,2.81659 1.69213,-1.53127 c 0.93067,-0.84221 2.13781,-1.53128 2.68253,-1.53128 z"
       id="path3046"
       inkscape:connector-curvature="0" />
  </g>
</svg>
