<?xml version="1.0" encoding="UTF-8" standalone="no"?>
<!-- Created with Inkscape (http://www.inkscape.org/) -->

<svg
   xmlns:dc="http://purl.org/dc/elements/1.1/"
   xmlns:cc="http://creativecommons.org/ns#"
   xmlns:rdf="http://www.w3.org/1999/02/22-rdf-syntax-ns#"
   xmlns:svg="http://www.w3.org/2000/svg"
   xmlns="http://www.w3.org/2000/svg"
   xmlns:xlink="http://www.w3.org/1999/xlink"
   xmlns:sodipodi="http://sodipodi.sourceforge.net/DTD/sodipodi-0.dtd"
   xmlns:inkscape="http://www.inkscape.org/namespaces/inkscape"
   width="237.17407"
   height="328.96448"
   id="svg2"
   version="1.1"
   inkscape:version="0.48.3.1 r9886"
   sodipodi:docname="Dumbbell-lateral-raises-1.svg"
   inkscape:export-filename="/home/christian/Dokumente/Website/opentraining/cc_exercises/Dumbbell-lateral-raises-1.png"
   inkscape:export-xdpi="218.95311"
   inkscape:export-ydpi="218.95311">
  <defs
     id="defs4">
    <filter
       inkscape:collect="always"
       id="filter5283"
       color-interpolation-filters="sRGB">
      <feGaussianBlur
         inkscape:collect="always"
         stdDeviation="10.211719"
         id="feGaussianBlur5285" />
    </filter>
    <filter
       inkscape:collect="always"
       id="filter5427"
       x="-0.28619286"
       width="1.5723857"
       y="-0.28619286"
       height="1.5723857"
       color-interpolation-filters="sRGB">
      <feGaussianBlur
         inkscape:collect="always"
         stdDeviation="15.757641"
         id="feGaussianBlur5429" />
    </filter>
    <radialGradient
       gradientUnits="userSpaceOnUse"
       gradientTransform="matrix(1,0,0,0.91819829,-19.285714,-7.9105395)"
       r="209.56604"
       fy="287.50052"
       fx="398.1105"
       cy="287.50052"
       cx="398.1105"
       id="radialGradient5255"
       xlink:href="#linearGradient5249"
       inkscape:collect="always" />
    <linearGradient
       id="linearGradient5249"
       inkscape:collect="always">
      <stop
         id="stop5251"
         offset="0"
         style="stop-color:#e3e3e3;stop-opacity:1;" />
      <stop
         id="stop5253"
         offset="1"
         style="stop-color:#e3e3e3;stop-opacity:0;" />
    </linearGradient>
  </defs>
  <sodipodi:namedview
     id="base"
     pagecolor="#ffffff"
     bordercolor="#666666"
     borderopacity="1.0"
     inkscape:pageopacity="0.0"
     inkscape:pageshadow="2"
     inkscape:zoom="0.98994949"
     inkscape:cx="-312.19083"
     inkscape:cy="64.573839"
     inkscape:document-units="px"
     inkscape:current-layer="layer1"
     showgrid="false"
     showguides="true"
     inkscape:guide-bbox="true"
     fit-margin-top="0"
     fit-margin-left="0"
     fit-margin-right="0"
     fit-margin-bottom="0"
     inkscape:window-width="1615"
     inkscape:window-height="1026"
     inkscape:window-x="1431"
     inkscape:window-y="24"
     inkscape:window-maximized="1">
    <sodipodi:guide
       orientation="-0.70710678,0.70710678"
       position="-2199.5073,475.14227"
       id="guide2985" />
  </sodipodi:namedview>
  <metadata
     id="metadata7">
    <rdf:RDF>
      <cc:Work
         rdf:about="">
        <dc:format>image/svg+xml</dc:format>
        <dc:type
           rdf:resource="http://purl.org/dc/dcmitype/StillImage" />
        <dc:title></dc:title>
      </cc:Work>
    </rdf:RDF>
  </metadata>
  <g
     inkscape:label="Ebene 1"
     inkscape:groupmode="layer"
     id="layer1"
     transform="translate(-770.93584,-172.82568)">
    <g
       id="g5449"
       transform="matrix(0,1.0103266,-0.73383327,0,1119.2752,-165.07646)"
       style="fill:#ffffff;fill-opacity:1"
       inkscape:export-filename="/home/christian/Arbeitsfläche/Dropbox/Website/opentraining/cc_exercises/Bench-dips-2.png"
       inkscape:export-xdpi="214.51434"
       inkscape:export-ydpi="214.51434">
      <rect
         inkscape:export-ydpi="150"
         inkscape:export-xdpi="150"
         inkscape:export-filename="/home/christian/Dokumente/Code/workspace/OpenTraining/res/drawable/background.png"
         y="185.22804"
         x="352.24948"
         height="255.71428"
         width="290"
         id="rect2987"
         style="fill:#ffffff;fill-opacity:1;stroke:none;filter:url(#filter5283)" />
      <path
         transform="matrix(1.6074318,0,0,0.77372547,-152.97598,82.347784)"
         d="m 467.14287,292.00504 c 0,36.49024 -29.58119,66.07142 -66.07143,66.07142 -36.49024,0 -66.07142,-29.58118 -66.07142,-66.07142 0,-36.49025 29.58118,-66.07143 66.07142,-66.07143 36.49024,0 66.07143,29.58118 66.07143,66.07143 z"
         sodipodi:ry="66.071426"
         sodipodi:rx="66.071426"
         sodipodi:cy="292.00504"
         sodipodi:cx="401.07144"
         id="path5317"
         style="fill:#ffffff;fill-opacity:1;stroke:none;filter:url(#filter5427)"
         sodipodi:type="arc" />
    </g>
    <path
       style="fill:#000000"
       d="m 884.40692,448.65252 c -0.82318,-0.32913 -3.32105,-2.16324 -4.20785,-3.08973 -0.80644,-0.8425 -1.95558,-4.17872 -1.9625,-5.69766 -0.006,-1.41856 -0.69355,-3.7048 -1.73896,-5.78647 -1.45896,-2.90513 -1.61684,-3.58868 -1.17361,-5.08126 0.29567,-0.99558 0.30941,-1.3739 0.0757,-2.08221 -0.1693,-0.51296 -0.22497,-1.3368 -0.13671,-2.02262 0.69122,-5.36937 0.60056,-6.30213 -1.34133,-13.80359 -1.3108,-5.06355 -1.43847,-5.77464 -1.44299,-8.03707 -0.008,-3.94255 1.0639,-8.49245 2.91196,-12.36216 0.79453,-1.66375 1.54206,-3.52529 1.66116,-4.13675 0.472,-2.42341 0.75116,-6.32895 0.7591,-10.61996 l 0.009,-4.50481 -0.95276,-1.6215 c -0.52402,-0.89181 -1.08431,-2.07328 -1.24509,-2.62547 -0.22798,-0.78303 -0.5055,-1.12893 -1.26108,-1.57172 -1.43304,-0.83981 -2.35332,-0.86896 -2.96303,-0.0938 -0.273,0.34708 -1.10547,0.93014 -1.84992,1.29571 -1.20142,0.58996 -1.60595,0.66369 -3.59921,0.65594 -1.95323,-0.008 -2.40076,-0.0895 -3.43705,-0.62889 -5.21705,-2.71569 -7.07,-11.80228 -4.12735,-20.23997 1.20972,-3.46875 2.77919,-5.35671 5.50252,-6.61907 1.11677,-0.51767 1.34474,-0.71955 1.25088,-1.10771 -0.88722,-3.6683 -1.21579,-12.33312 -0.60947,-16.07221 0.48528,-2.99275 0.39454,-4.55379 -0.35015,-6.02335 -0.69847,-1.37841 -2.24789,-7.17513 -2.24789,-8.40994 0,-0.45147 0.37246,-3.14393 0.82771,-5.98324 0.92756,-5.78523 0.98684,-6.55406 0.6221,-8.06775 -0.39621,-1.64423 -0.32902,-4.93642 0.12818,-6.28117 0.57645,-1.6955 3.74577,-4.79504 6.70574,-6.55814 1.24076,-0.73906 2.36092,-1.34373 2.48923,-1.34373 0.1283,0 0.89388,-0.78547 1.70127,-1.74548 0.80739,-0.96001 2.69424,-2.78838 4.19301,-4.06303 2.95153,-2.5102 3.67333,-3.55107 4.12438,-5.94758 0.12805,-0.68035 0.50182,-2.16498 0.83065,-3.29916 0.70551,-2.43361 0.72371,-2.67356 0.20272,-2.67356 -0.55486,0 -2.26538,-1.85078 -2.8757,-3.11154 -0.28122,-0.58095 -0.51133,-1.48798 -0.51133,-2.01563 0,-1.05628 0.54003,-2.79877 1.0447,-3.37092 0.21193,-0.24024 0.35433,-1.18256 0.41375,-2.73803 0.0776,-2.02796 0.19029,-2.57616 0.77809,-3.78215 2.47545,-5.07897 8.02881,-6.95879 13.79319,-4.66902 2.81996,1.12016 5.25709,4.30353 6.29505,8.22266 0.51216,1.93379 0.91784,7.70054 0.76803,10.91738 -0.11225,2.40891 -0.20179,2.81867 -1.00765,4.60949 -0.48647,1.08106 -1.14128,2.30452 -1.45516,2.71884 l -0.57065,0.75327 1.73044,0.52907 c 1.80358,0.55144 3.79142,0.65413 8.36885,0.43228 l 2.14713,-0.10406 2.2627,1.12199 c 4.75528,2.35802 5.93169,4.35176 5.96305,10.10625 l 0.0174,3.19118 0.91288,1.35546 c 1.3196,1.95926 2.00916,4.82957 2.17311,9.04545 0.15132,3.88991 0.38448,4.68161 2.07279,7.03756 2.67991,3.73968 4.96369,7.35717 5.59738,8.86622 0.89927,2.14151 1.5732,5.60692 1.89508,9.74388 0.24248,3.11716 0.37185,3.73639 1.42848,6.83765 1.11421,3.27018 2.19793,5.577 2.53524,5.39647 1.68304,-0.90086 2.14394,-1.00588 4.4142,-1.00588 2.00896,0 2.53459,0.0841 3.50132,0.56005 3.46326,1.70517 6.07434,6.87346 6.07129,12.01743 0,2.02873 -0.55139,5.45229 -1.16046,7.22055 -1.32447,3.84553 -4.12359,7.36932 -6.99386,8.80444 -1.27727,0.63865 -1.64153,0.70916 -3.66393,0.70916 -1.98111,0 -2.40449,-0.078 -3.59363,-0.66197 -2.43696,-1.19669 -4.49241,-4.10589 -5.39531,-7.63631 -0.25715,-1.00536 -0.49385,-1.85042 -0.52609,-1.8779 -0.0323,-0.0275 -0.74289,-0.32417 -1.57939,-0.65928 l -1.52081,-0.60931 -0.97505,0.89878 c -0.91305,0.8416 -2.20862,1.46346 -3.72487,1.78788 -0.43572,0.0932 -0.65003,0.28905 -0.65003,0.59396 0,0.25017 -0.22692,0.6138 -0.50429,0.80806 -0.54802,0.38383 -0.54907,0.19727 0.0255,4.51947 0.13824,1.0401 0.24013,3.69942 0.22628,5.90961 -0.0228,3.62519 0.0268,4.15735 0.5066,5.43684 0.57802,1.54198 0.58249,1.66421 0.43888,11.93739 -0.0424,3.04233 0.0907,7.00131 0.3581,10.63729 0.32798,4.46018 0.37959,6.60643 0.2246,9.33718 -0.11066,1.95016 -0.20361,4.87542 -0.20657,6.50055 l -0.005,2.95481 1.86326,2.60019 c 2.19829,3.06783 2.93373,3.88515 4.51912,5.02249 0.65004,0.46631 1.60739,1.25019 2.12742,1.74195 1.18613,1.12158 2.89526,1.90704 5.87483,2.69983 4.44551,1.18286 5.11703,1.69065 5.11703,3.86932 0,1.23411 -0.0503,1.33954 -1.14503,2.39467 -1.7647,1.70093 -2.68827,1.94273 -7.87364,2.0614 -2.62091,0.06 -5.10111,-0.006 -6.11503,-0.16373 -1.5956,-0.24759 -2.03838,-0.44256 -4.45485,-1.96123 -0.53183,-0.33425 -1.47374,-0.43731 -5.12819,-0.56112 -5.12455,-0.17362 -5.54922,-0.29416 -6.84916,-1.94407 l -0.86976,-1.10392 0.12763,-2.95481 c 0.0932,-2.15717 0.31929,-3.72354 0.83773,-5.8027 0.95771,-3.84114 1.30025,-6.63376 1.14393,-9.32586 -0.16073,-2.76898 -0.53355,-3.83581 -2.08653,-5.971 -2.51043,-3.45149 -3.14148,-5.72038 -3.1388,-11.28502 0.004,-3.11949 0.10561,-4.38193 0.51999,-6.3059 0.7667,-3.55996 0.75346,-4.46639 -0.084,-5.74971 -0.6509,-0.99739 -0.70206,-1.24998 -0.82001,-4.05075 l -0.12582,-2.98704 -2.63688,-3.98629 c -1.45029,-2.19247 -2.87801,-4.49157 -3.17267,-5.10912 -0.89954,-1.88519 -1.01256,-1.69822 -1.63101,2.69888 -0.79752,5.66958 -1.14179,7.64865 -1.52946,8.79032 -0.45095,1.32833 -1.77189,3.58437 -2.72128,4.64777 -0.38441,0.43055 -0.7608,1.16429 -0.83647,1.63055 -0.0757,0.46624 -0.18986,1.16685 -0.25378,1.55687 -0.0639,0.39004 -1.04071,2.61926 -2.17062,4.95381 l -2.05441,4.24464 0.11448,2.84687 c 0.0629,1.56578 0.11327,4.54885 0.11181,6.62902 -0.003,3.74293 -0.0107,3.8014 -0.78251,5.63924 -1.02489,2.4407 -1.36461,4.16834 -1.92726,9.80041 -0.52411,5.2465 -0.48853,5.58695 0.96572,9.23836 1.41531,3.55352 5.46038,9.75292 8.26537,12.6673 1.12797,1.17192 2.17207,2.36316 2.32023,2.64717 0.98585,1.88993 -0.87363,5.74786 -2.77041,5.74786 -0.53754,0 -0.93199,0.20471 -1.39675,0.72483 -0.53944,0.60378 -0.90416,0.75905 -2.18321,0.92972 -0.84456,0.11265 -1.90717,0.31832 -2.36134,0.45707 -1.01328,0.30946 -4.40217,0.30576 -5.18114,-0.006 z m 4.24161,-1.78734 c 0.71091,-0.21481 1.93078,-0.40094 2.71086,-0.41364 l 1.4183,-0.0232 0,-1.30011 c 0,-1.22507 0.0338,-1.30012 0.58395,-1.30012 0.37082,0 0.68155,0.19568 0.85125,0.53604 0.38725,0.77677 0.42412,0.79175 1.24501,0.50556 0.62826,-0.21899 0.80531,-0.45908 1.10902,-1.50383 0.4892,-1.68281 0.25671,-2.19411 -1.92492,-4.23325 -3.14736,-2.94182 -7.81119,-10.55654 -9.44312,-15.41799 -0.61592,-1.83479 -0.69149,-2.89148 -0.32812,-4.58868 0.12524,-0.58503 0.32748,-2.71249 0.44943,-4.72769 0.22764,-3.76189 0.53343,-5.16033 1.99001,-9.10079 0.55597,-1.50411 0.60954,-1.9558 0.58866,-4.96404 -0.0126,-1.82015 -0.0924,-3.62852 -0.17707,-4.01854 l -0.15411,-0.70917 -0.73493,1.30012 c -0.94688,1.67503 -1.33375,2.93915 -2.10761,6.88671 -0.7247,3.69693 -0.86075,4.03915 -1.39391,3.50614 -0.32608,-0.32601 -0.3037,-0.69642 0.2213,-3.66396 0.78738,-4.45043 1.39454,-6.52341 2.50573,-8.55536 0.5138,-0.93956 1.19348,-2.67708 1.51035,-3.86116 0.42318,-1.58126 1.07876,-3.05742 2.4691,-5.55935 1.0411,-1.87352 1.99744,-3.80586 2.12521,-4.29406 0.12775,-0.4882 0.36146,-1.4026 0.51936,-2.03199 0.15788,-0.62939 0.41932,-1.19509 0.58094,-1.2571 0.52243,-0.20048 2.44196,-3.32331 2.91098,-4.73577 0.25065,-0.75493 0.52375,-2.06403 0.60686,-2.9091 0.25251,-2.56761 0.61194,-5.74702 0.74172,-6.56106 l 0.12272,-0.76967 -0.89741,0.38467 c -0.49358,0.21157 -1.04936,0.45833 -1.23506,0.54834 -0.18569,0.09 -0.63553,0.89911 -0.99963,1.79795 -1.36717,3.37511 -3.89922,6.30514 -6.69035,7.74188 -1.25895,0.64805 -1.66527,0.7363 -3.437,0.74657 -1.77583,0.0103 -2.1913,-0.0746 -3.57616,-0.73073 l -1.56687,-0.7424 -0.12007,6.41562 c -0.13707,7.32394 -0.18014,7.56316 -2.13678,11.86647 -1.51683,3.33599 -2.16606,5.23708 -2.64718,7.75168 -0.69933,3.65514 -0.56204,4.70741 1.74715,13.39064 1.41674,5.32738 1.84246,9.92184 1.08408,11.69921 -0.35442,0.83061 -0.36722,1.13165 -0.10687,2.51147 0.25449,1.34869 0.24319,1.72224 -0.0807,2.67294 -0.43726,1.28328 -0.37129,1.53414 1.03798,3.94715 0.69207,1.185 1.05749,2.17695 1.31973,3.5824 0.19945,1.069 0.61853,2.83312 0.93132,3.92029 0.31276,1.08712 0.56867,2.23303 0.56867,2.54639 0,0.80148 1.61178,2.46605 3.24673,3.35306 1.57458,0.85429 2.64864,0.93937 4.56151,0.36143 z m -2.56052,-2.25697 c -0.75229,-0.75226 0.0882,-1.84376 1.4198,-1.84376 1.56794,0 1.74047,1.0411 0.28739,1.73401 -0.98042,0.46755 -1.32713,0.48981 -1.70719,0.10975 z m 5.04069,-2.47683 c -0.4644,-0.47823 -0.80891,-0.97587 -0.76556,-1.10597 0.1853,-0.55585 0.78952,-0.66815 1.6532,-0.30731 0.77373,0.32329 0.87953,0.46545 0.87953,1.18163 0,0.52431 -0.1331,0.86517 -0.37391,0.95758 -0.52365,0.20097 -0.46175,0.2332 -1.39326,-0.72593 z m -11.30278,-15.11591 c -0.32524,-0.32523 -0.16178,-1.57884 0.30418,-2.33275 0.58081,-0.93983 2.18001,-2.08076 2.76181,-1.97046 0.28644,0.0543 0.4545,0.32879 0.50244,0.8206 0.0609,0.62481 -0.0556,0.81792 -0.75369,1.24937 -0.45416,0.28067 -1.01844,0.90458 -1.25396,1.38651 -0.40476,0.82812 -1.16626,1.24122 -1.56078,0.84673 z m -0.86375,-31.58697 c -0.14833,-0.42253 -0.33458,-1.96494 -0.41386,-3.42758 -0.13715,-2.5296 -0.12166,-2.65928 0.31747,-2.65928 0.85592,0 1.00068,0.42576 0.87414,2.5711 -0.0847,1.43605 -0.0166,2.37015 0.23055,3.1612 0.34869,1.11613 0.34753,1.12281 -0.19394,1.12281 -0.40161,0 -0.61551,-0.20178 -0.81436,-0.76825 z m 6.84219,-10.17785 c -0.72457,-0.24708 -0.83646,-0.39226 -0.90073,-1.16857 -0.0878,-1.06197 0.16369,-1.12365 0.84182,-0.20639 0.45442,0.61465 0.59119,0.66388 1.42188,0.51198 0.50551,-0.0924 1.04387,-0.24518 1.19636,-0.33943 0.37521,-0.23188 0.36956,0.85163 -0.006,1.22758 -0.3549,0.35491 -1.47065,0.34391 -2.55294,-0.0252 z m -2.98915,-6.43237 c -0.43442,-1.13208 1.66291,-3.32808 3.90012,-4.0836 0.81111,-0.27392 1.79709,-0.76927 2.19109,-1.10079 0.82217,-0.69181 0.99228,-0.72649 1.36437,-0.27815 0.30498,0.36747 0.1132,1.08598 -0.29591,1.10866 -0.14861,0.009 -0.029,0.1119 0.26588,0.23034 0.39638,0.15921 0.5243,0.38633 0.49091,0.87145 -0.0248,0.36086 0.18598,1.10396 0.46853,1.65134 0.67733,1.31212 0.66009,1.72318 -0.0724,1.72318 -0.70692,0 -1.47238,-1.32225 -1.69167,-2.9222 l -0.14155,-1.03267 -1.65303,0.73448 c -1.2765,0.56716 -1.92167,1.04454 -2.83224,2.09563 -1.19369,1.37791 -1.74385,1.65444 -1.99409,1.00233 z m 55.07901,50.95835 c 0.76202,-0.29685 1.70116,-0.82179 2.08699,-1.16652 l 0.70147,-0.62677 -0.53337,-0.67812 c -0.6813,-0.86613 -2.40872,-1.62614 -5.44606,-2.39608 -2.9237,-0.74108 -3.43636,-0.99404 -4.60816,-2.2734 -0.50287,-0.54899 -1.2702,-1.32394 -1.7053,-1.7221 -1.04389,-0.9553 -4.35288,-4.77177 -6.02887,-6.95339 l -1.33535,-1.73821 0.004,-2.51671 c 0.004,-1.38421 0.15855,-4.41506 0.34851,-6.73521 0.34086,-4.16352 0.32457,-5.83017 -0.1204,-12.3284 -0.12465,-1.82015 -0.22765,-4.38787 -0.22898,-5.70604 -0.004,-2.13664 -0.0472,-2.39311 -0.416,-2.36384 -0.61858,0.0491 -0.64089,-1.11483 -0.0738,-3.85125 0.76917,-3.71168 0.54306,-7.4799 -0.49818,-8.30312 -0.45562,-0.3602 -0.45689,-0.41032 -0.061,-2.36383 0.31627,-1.56071 0.37213,-2.63441 0.25606,-4.92466 -0.17959,-3.5447 -0.66871,-7.82666 -0.89403,-7.82666 -0.0901,0 -0.7114,0.45208 -1.38056,1.00463 -0.66911,0.55254 -1.63224,1.34115 -2.14025,1.75246 -2.0986,1.69911 -7.58964,3.15251 -11.91033,3.15251 -1.37723,0 -2.50401,0.0558 -2.50401,0.1241 0,0.50515 1.93704,3.75229 3.52181,5.9037 2.24357,3.04584 2.62417,4.07206 2.62417,7.07608 0,2.08499 0.0328,2.21318 1.18191,4.62491 1.23171,2.58503 1.35352,3.04325 0.92316,3.47361 -0.59956,0.59953 -1.22878,4.87165 -1.24663,8.46379 -0.0245,4.99991 0.60474,7.35479 2.7281,10.20476 1.6281,2.18522 2.06597,3.25237 2.37957,5.79943 0.35811,2.90842 -0.0556,7.40579 -1.01768,11.06179 -0.47272,1.79652 -0.76297,3.57834 -0.85584,5.25415 l -0.14052,2.53569 0.97402,0.97406 0.97405,0.974 2.42767,-0.15719 c 3.37214,-0.21835 5.52409,0.13133 7.86449,1.27809 1.04011,0.50961 2.52932,1.03933 3.30941,1.17712 0.78005,0.13779 1.68423,0.29603 2.00925,0.35156 0.32501,0.0555 2.13337,0.0748 4.01852,0.0428 2.91843,-0.0495 3.63338,-0.13825 4.81306,-0.59783 z m -1.43536,-2.12163 c -0.23262,-0.24946 -0.72005,-0.52809 -1.08326,-0.61914 -0.92685,-0.23242 -0.64899,-0.70575 0.39494,-0.6727 0.96281,0.0305 1.80194,0.6402 1.80194,1.30931 0,0.56715 -0.57703,0.55814 -1.11362,-0.0174 z m -20.79317,-5.56456 c -2.10649,-0.91623 -2.22871,-3.90677 -0.23567,-5.76671 1.11403,-1.03961 1.43345,-0.13237 0.62086,1.76334 -0.66652,1.55495 -0.54921,2.03524 0.58794,2.40678 1.15073,0.37591 1.55017,0.69442 1.55017,1.23602 0,0.74809 -1.22883,0.92367 -2.5233,0.36057 z m -1.10129,-21.79636 c -0.35234,-0.35233 -0.11959,-0.94082 0.60857,-1.53879 l 0.77034,-0.63264 0.08,-2.61763 c 0.0831,-2.71773 0.28892,-3.15937 0.97209,-2.08576 0.3934,0.61812 0.38907,3.50333 -0.008,4.97579 -0.39008,1.4486 -1.78274,2.53987 -2.42353,1.89903 z m 1.4807,-20.15867 c -0.70603,-0.51302 -1.49645,-1.08935 -1.75646,-1.28071 -0.37983,-0.27955 -0.42157,-0.43307 -0.21227,-0.78102 0.41997,-0.69812 1.15208,-0.65909 1.63074,0.0869 0.23361,0.36405 0.96731,1.16236 1.63054,1.77401 1.13266,1.04456 1.16899,1.11274 0.59852,1.12282 -0.34583,0.006 -1.16014,-0.39092 -1.89107,-0.92204 z m -1.24431,-8.68018 c -0.42029,-0.42031 -0.0332,-0.85538 1.25984,-1.41619 1.13519,-0.49231 1.52417,-0.80816 1.95333,-1.5862 0.65518,-1.1877 1.35694,-1.43693 1.35694,-0.48192 0,0.96289 -2.72424,3.6419 -3.70335,3.6419 -0.39007,0 -0.78009,-0.0709 -0.86676,-0.15759 z m -27.69632,0.61653 c 0.66949,-0.31031 1.84905,-1.22035 2.72064,-2.09897 5.65643,-5.70214 6.20286,-16.8786 1.06288,-21.73979 -3.34697,-3.16542 -7.94945,-2.17753 -11.23572,2.41167 -2.00924,2.80587 -3.04432,5.96588 -3.2291,9.85809 -0.28194,5.93823 2.16147,10.80277 6.07027,12.08529 1.00769,0.33063 3.34953,0.0684 4.61103,-0.51629 z m -18.40803,-6.34912 c 0.53649,-0.24364 1.04557,-0.5564 1.13127,-0.69502 0.0856,-0.13865 -0.25497,-0.52389 -0.757,-0.85611 -0.50204,-0.33223 -1.14184,-1.01163 -1.42181,-1.50977 -0.48183,-0.85726 -0.50113,-1.10685 -0.36117,-4.66444 l 0.14788,-3.75871 -0.67428,-0.80119 c -0.50275,-0.59731 -0.66268,-1.01837 -0.6286,-1.65469 0.25767,-4.80969 -0.0753,-10.42186 -0.63897,-10.77023 -0.37343,-0.2308 -2.09325,0.66054 -3.02515,1.56786 -2.6636,2.5933 -4.71631,9.58927 -4.10444,13.98851 0.66535,4.78373 2.52032,8.05857 5.23054,9.23427 1.17938,0.5116 3.89209,0.46881 5.10173,-0.0805 z m 6.11913,-4.45209 c 0.004,-3.82561 0.49953,-5.95021 2.16166,-9.266 l 1.23948,-2.47263 -1.12776,-1.19247 c -0.73786,-0.78017 -1.28009,-1.16312 -1.56832,-1.10762 -0.24227,0.0466 -0.58051,-0.10663 -0.75161,-0.34062 -0.42957,-0.58748 -0.41303,-3.26562 0.0224,-3.62701 0.41169,-0.34169 0.51173,-0.18203 0.72953,1.16445 0.34727,2.14673 0.49027,1.56766 0.48194,-1.95173 l -0.009,-3.6033 1.13195,-3.40192 c 1.46745,-4.41034 1.51981,-4.89113 0.78778,-7.23536 -0.3248,-1.04009 -0.90033,-2.89055 -1.27897,-4.11213 -0.37861,-1.22159 -0.74328,-2.12575 -0.81039,-2.00926 -0.52806,0.91678 -0.93162,2.87003 -0.79922,3.86822 0.11328,0.85391 0.0628,1.19683 -0.20919,1.42261 -0.53943,0.4477 -1.00436,-0.0611 -1.44686,-1.58324 -0.2166,-0.74502 -0.86349,-1.94236 -1.53411,-2.83951 -1.33775,-1.7896 -1.49541,-2.50041 -0.52917,-2.38578 0.47837,0.0568 0.69574,0.2698 0.90114,0.88319 0.1489,0.44462 0.59325,1.05714 0.98746,1.36114 l 0.71678,0.55276 0.43979,-1.00657 c 0.24189,-0.55362 0.95521,-1.94717 1.58512,-3.0968 2.55569,-4.66429 3.21157,-8.47975 2.44417,-14.21842 -0.31923,-2.38692 -0.48554,-2.98445 -1.05286,-3.78216 -0.97946,-1.37722 -1.23152,-1.92999 -1.07089,-2.34855 0.27236,-0.70973 0.96024,-0.36992 1.84152,0.90969 0.68303,0.99173 0.95592,1.70162 1.20708,3.14039 0.43128,2.47037 0.78392,7.00797 0.65133,8.38102 -0.0977,1.01188 -0.0247,1.20476 0.89518,2.36384 0.55085,0.69413 1.14479,1.60176 1.31983,2.01696 0.22461,0.53272 1.01657,6.33268 1.0318,7.55627 2.4e-4,0.0207 0.77165,0.46072 1.71423,0.9777 1.65982,0.91037 3.46389,1.56817 3.68752,1.34454 0.0601,-0.0601 -0.0558,-0.52943 -0.25755,-1.043 -0.34393,-0.87555 -0.33901,-0.95886 0.0787,-1.33691 0.42796,-0.3873 0.46774,-0.35294 1.00973,0.8721 0.31032,0.70141 0.62176,1.44706 0.69209,1.657 0.17032,0.50845 1.4721,0.64871 7.73148,0.83299 4.74897,0.13981 5.21405,0.11545 7.09155,-0.37132 1.10511,-0.28651 2.46136,-0.72047 3.0139,-0.96434 0.94683,-0.41789 1.00463,-0.49928 1.00463,-1.41398 0,-1.23873 0.56984,-2.3654 1.19629,-2.3654 0.3964,0 0.4345,0.0757 0.23034,0.45723 -0.31014,0.5795 -0.3202,2.143 -0.0137,2.143 0.127,0 0.40641,-0.26782 0.62087,-0.59515 0.33998,-0.51884 0.35351,-0.78041 0.10574,-2.04004 -0.30172,-1.53328 -0.23198,-2.43653 0.46928,-6.08242 0.24234,-1.25993 0.34859,-2.42754 0.24607,-2.70463 -0.15313,-0.41397 -0.29438,-0.25594 -0.93558,1.04652 -0.69775,1.41726 -0.81779,1.5383 -1.57676,1.58941 -1.05599,0.0712 -1.99717,-0.79613 -1.99717,-1.84023 0,-0.93388 0.57515,-0.95548 1.04893,-0.0393 0.51225,0.99066 0.97938,1.07506 1.32548,0.23951 0.16014,-0.38658 0.6036,-1.13425 0.98553,-1.66146 1.02079,-1.40917 2.23825,-3.96306 2.42129,-5.07929 0.15623,-0.95263 0.14581,-0.97218 -0.45511,-0.85731 -0.69765,0.13337 -1.47092,-0.43495 -1.81446,-1.33362 -0.20671,-0.54074 -0.28756,-0.55958 -1.84146,-0.4293 -1.34059,0.11238 -1.68841,0.0665 -1.98585,-0.26222 -0.61143,-0.67565 -0.89544,-1.67431 -0.62163,-2.18596 0.35639,-0.66585 0.68086,-0.56298 1.05599,0.3348 0.3207,0.7676 0.38179,0.79636 1.97543,0.92997 1.73775,0.14568 2.5539,0.49127 2.7703,1.17306 0.0723,0.22784 0.32434,0.41426 0.56009,0.41426 0.37737,0 0.44774,-0.30377 0.58876,-2.54113 0.0881,-1.39761 0.21332,-2.91343 0.27823,-3.36847 0.095,-0.66622 0.0674,-0.74735 -0.14207,-0.41658 -0.57884,0.91422 -2.13092,1.10979 -2.13092,0.2685 0,-0.19393 0.11307,-0.28271 0.25128,-0.1973 0.39462,0.2439 1.10542,-0.55224 1.26833,-1.42064 0.0886,-0.47258 0.004,-1.20187 -0.20952,-1.81653 -0.56019,-1.60838 -0.42972,-2.29764 0.29729,-1.57062 0.22065,0.22062 0.28369,0.0894 0.28369,-0.59058 l 0,-0.87421 -1.12287,0.79775 c -1.69026,1.20097 -2.57775,1.58892 -4.16833,1.8221 -2.14481,0.31445 -3.35762,0.0664 -4.43537,-0.90733 -0.50091,-0.45254 -0.91074,-1.02316 -0.91074,-1.26805 0,-0.54186 0.30813,-0.57391 0.7221,-0.0751 0.5869,0.70715 1.75474,1.12806 3.18313,1.14723 1.73813,0.0233 3.82903,-0.91923 5.70926,-2.57368 2.52204,-2.21925 2.85239,-6.17539 0.78706,-9.42591 -0.46153,-0.72639 -0.67525,-1.30978 -0.58452,-1.59559 0.20275,-0.63882 0.47601,-0.56239 1.13583,0.31768 1.21949,1.62657 1.65291,2.81872 1.76457,4.85364 0.088,1.60391 0.18744,2.00077 0.55016,2.19487 0.61827,0.33088 0.56091,0.92925 -0.0892,0.93034 -0.40941,8.5e-4 -0.63492,0.25155 -0.97983,1.09007 -0.3841,0.9339 -0.42621,1.44535 -0.29511,3.58744 0.17889,2.92435 0.72902,6.06036 1.35784,7.74112 0.53314,1.42487 1.78997,2.7035 3.40094,3.45991 1.31684,0.61827 1.72706,1.37662 0.74473,1.37662 -1.36895,0 -3.32447,-1.19561 -4.52313,-2.76539 l -0.76816,-1.00602 -0.14563,0.88107 c -0.0801,0.48459 -0.14679,1.9074 -0.14825,3.1618 -0.004,2.07965 0.0599,2.39961 0.70657,3.62887 0.43896,0.83448 0.70912,1.70207 0.70912,2.27711 0,1.2915 0.76826,3.45532 2.20544,6.21204 1.32998,2.55098 2.88875,4.34374 5.64973,6.49781 1.53391,1.19672 1.61339,1.31056 2.21476,3.17346 0.656,2.03205 0.73297,3.01834 0.62105,7.96001 -0.0337,1.49513 -0.0332,3.08687 0.004,3.53719 0.056,0.72716 -0.0164,0.84264 -0.64607,1.03227 -1.19702,0.36036 -1.36896,0.50835 -1.71049,1.47209 -0.48003,1.35478 -0.68523,5.19386 -0.30222,5.65535 0.16592,0.1999 0.88602,0.53334 1.60025,0.74098 0.71421,0.20762 1.63105,0.57341 2.03745,0.81284 0.40632,0.23943 1.12245,0.5954 1.59137,0.79103 l 0.85255,0.3557 0.26111,-2.53013 c 0.52722,-5.10858 1.90947,-8.63098 4.47524,-11.40445 0.81259,-0.87833 1.47743,-1.67109 1.47743,-1.76168 0,-0.0906 -0.20462,-0.45204 -0.45471,-0.80323 -0.54475,-0.76505 -2.68199,-6.51292 -3.04183,-8.18066 -0.14026,-0.65007 -0.31251,-2.51159 -0.38284,-4.13673 -0.26875,-6.21456 -1.33335,-9.2583 -5.27189,-15.07243 -2.53342,-3.7399 -2.79708,-4.05223 -2.90665,-3.44374 -0.0943,0.52324 -0.2489,0.66917 -0.70916,0.66917 -0.58176,0 -0.58777,-0.0207 -0.51166,-1.77287 0.0424,-0.97508 -0.0373,-3.47727 -0.17743,-5.5604 -0.27937,-4.15806 -0.82804,-6.625 -1.82444,-8.20346 l -0.61722,-0.97769 -0.33206,0.63382 c -0.18874,0.36032 -0.53278,0.63383 -0.79726,0.63383 -0.55667,0 -0.55294,0.0522 -0.11635,-1.63276 0.93472,-3.60708 0.88639,-6.63515 -0.15018,-9.40547 -0.41819,-1.11788 -0.6884,-1.41937 -2.28665,-2.55139 -4.03126,-2.85533 -5.49699,-3.31989 -7.81168,-2.47591 -1.8018,0.65697 -4.11554,0.55702 -7.04283,-0.30424 l -1.9321,-0.56846 -0.24713,1.40298 c -0.33166,1.88291 -0.95084,3.10545 -1.62103,3.20063 -0.6439,0.0915 -0.64468,0.0674 -0.056,-1.81038 0.25833,-0.82415 0.46974,-1.78151 0.46974,-2.12746 l 0,-0.62899 -2.32257,0 c -2.25038,0 -2.38449,-0.0307 -4.31484,-0.98722 -2.3099,-1.1446 -5.07799,-3.15921 -5.29942,-3.85693 -0.0841,-0.26505 -0.0308,-0.85232 0.11869,-1.30502 0.14938,-0.45271 0.25268,-1.16905 0.22952,-1.59187 -0.0615,-1.12346 -0.0395,-1.16425 0.47856,-0.88698 0.40807,0.21839 0.47277,0.49495 0.47277,2.02051 l 0,1.7675 1.34581,0.8609 c 3.77661,2.41587 6.89326,3.20774 9.18317,2.33322 1.26298,-0.48235 1.77806,-1.10021 2.8614,-3.43247 0.71422,-1.53749 0.86088,-2.17199 1.08921,-4.71127 0.58291,-6.48291 -0.78622,-12.56701 -3.50968,-15.59616 -2.2593,-2.51289 -6.59898,-3.47969 -10.09021,-2.24792 -3.12723,1.10337 -5.40998,4.57793 -5.39849,8.2171 0.005,1.55595 0.0427,1.6664 0.78458,2.29188 0.58896,0.49657 0.71341,0.72502 0.50931,0.93488 -0.19887,0.20447 -0.39738,0.2096 -0.75271,0.0195 -1.49215,-0.79858 -2.28862,0.0567 -2.11183,2.26768 0.0792,0.99111 0.27122,1.43721 1.00255,2.32967 0.49747,0.60712 1.19265,1.20429 1.54481,1.32706 0.71568,0.24948 1.17824,1.06444 1.17824,2.07585 0,0.77294 -0.73951,4.48184 -1.35404,6.79096 l -0.41884,1.57382 -3.30938,3.00699 c -4.15868,3.77872 -4.57833,4.22819 -4.94596,5.29757 -0.26609,0.77401 -0.49797,0.95647 -2.1016,1.65359 -2.45021,1.06515 -3.01524,1.44602 -5.51731,3.71906 -2.50977,2.28 -2.8692,2.99285 -3.08097,6.11046 -0.17349,2.55375 0.20985,3.96971 1.97386,7.29111 1.18976,2.24013 1.27028,2.48563 0.92776,2.82816 -0.34252,0.34253 -0.40819,0.34198 -0.75655,-0.006 -0.20982,-0.20981 -0.72456,-0.98679 -1.14388,-1.72664 l -0.76242,-1.34516 -0.77964,4.88917 c -0.98464,6.17479 -0.94348,6.77324 0.82968,12.06351 1.47093,4.38855 1.50391,4.75097 0.81679,8.97396 -0.17904,1.10029 -0.21546,3.15947 -0.10879,6.14599 0.13869,3.88157 0.26903,4.97265 0.96014,8.03706 1.16438,5.16287 1.43573,7.88132 1.07511,10.77085 -0.27887,2.23457 -0.26858,2.39832 0.2182,3.46968 0.84829,1.86699 0.94152,2.61 0.65015,5.18109 -0.34094,3.00842 0.005,4.19639 1.54808,5.3168 0.86824,0.63041 1.11144,0.6956 2.1603,0.57903 0.76998,-0.0855 1.42908,-0.0164 1.89107,0.19843 0.39002,0.18136 0.70914,0.3382 0.70914,0.34851 0,0.0103 0.003,-1.3373 0.004,-2.9947 z m 54.24306,-19.68476 c -1.00692,-1.56911 -1.18555,-3.08184 -0.51784,-4.38427 0.57465,-1.12084 1.57374,-2.10011 1.92266,-1.88447 0.40076,0.24768 0.30548,0.692 -0.4605,2.14812 -0.80389,1.52827 -0.77107,1.88585 0.29489,3.21226 0.8059,1.00281 0.82334,1.93756 0.0383,2.04961 -0.37791,0.054 -0.68874,-0.22373 -1.27749,-1.14125 z m -62.76388,-10.17106 c -0.0847,-0.13704 -0.1635,-1.22736 -0.17511,-2.42293 -0.0173,-1.78034 0.0768,-2.39703 0.52051,-3.40733 0.69873,-1.59126 1.20043,-2.05297 1.19545,-1.10012 -0.003,0.37346 -0.15685,1.1045 -0.3442,1.62453 -0.20483,0.56857 -0.34476,1.86443 -0.35101,3.25028 -0.009,1.84432 -0.0784,2.30475 -0.351,2.30475 -0.18737,0 -0.40994,-0.11213 -0.49464,-0.24918 z m 31.8747,-5.77056 c -1.03107,-0.44841 -2.11547,-2.02488 -2.46393,-3.58192 -0.25464,-1.13785 -0.24221,-1.34055 0.10346,-1.6862 0.55231,-0.55231 0.85549,-0.16605 1.18674,1.51196 0.26822,1.35881 0.3026,1.40339 1.8681,2.42468 1.26398,0.82454 1.53997,1.10654 1.33026,1.3592 -0.33423,0.40273 -1.05764,0.39284 -2.02463,-0.0277 z m 7.53847,-4.42843 c -0.43623,-0.4362 -0.33727,-1.47554 0.20621,-2.1665 1.00354,-1.27574 1.47906,-0.4639 0.91597,1.56372 -0.25205,0.9076 -0.61986,1.10514 -1.12218,0.60278 z m 19.17285,-1.19375 c -0.10519,-0.16251 -0.25064,-1.62514 -0.32323,-3.25028 -0.14859,-3.32536 -0.58882,-4.59882 -2.36777,-6.8494 -0.92622,-1.1717 -1.20448,-2.13319 -0.61745,-2.13319 0.83158,0 3.28383,3.74657 3.8335,5.85687 0.34358,1.31909 0.48143,5.57459 0.20397,6.29757 -0.17248,0.44952 -0.46827,0.48133 -0.72902,0.0784 z m -28.99894,-1.36527 c -0.58168,-0.69131 -0.87408,-2.12139 -0.43372,-2.12139 0.10364,0 0.596,0.41739 1.09414,0.92754 0.49815,0.51015 1.16552,0.99275 1.48308,1.07245 0.86936,0.2182 0.51748,0.70884 -0.56628,0.78959 -0.82308,0.0613 -1.04107,-0.031 -1.57722,-0.66819 z m -8.7334,-1.65254 c -0.36582,-0.10982 -0.82568,-0.33289 -1.0219,-0.49573 -0.52965,-0.43957 -1.26771,-1.99679 -1.26771,-2.67471 0,-0.79111 0.42273,-0.59021 1.24173,0.5901 0.85644,1.23431 2.07112,1.83029 3.0089,1.47631 0.37733,-0.14242 0.74539,-0.1996 0.81791,-0.12707 0.34446,0.34446 0.0558,0.81816 -0.68785,1.12889 -0.91072,0.38052 -1.12845,0.39116 -2.09108,0.10221 z m 8.82044,-0.78295 c -1.17095,-0.61661 -1.65468,-0.98653 -1.65468,-1.2653 0,-0.54098 0.47257,-0.57027 1.54526,-0.0958 1.24132,0.5491 2.38255,0.44223 2.60019,-0.24351 0.1966,-0.61938 1.03428,-0.77106 3.29761,-0.59709 1.91916,0.14753 1.96427,0.13845 2.8675,-0.57718 1.36266,-1.0796 1.57866,-1.62183 1.28309,-3.2209 -0.33507,-1.81237 -0.31464,-2.66875 0.0636,-2.66875 0.59264,0 1.10748,1.58865 1.10748,3.41744 0,1.55334 -0.0707,1.83082 -0.63903,2.50616 -0.86721,1.03064 -1.93736,1.42969 -4.37755,1.63238 -1.67462,0.13909 -2.23184,0.28911 -2.9675,0.79893 -1.00223,0.69455 -2.17845,0.81254 -3.12597,0.31358 z m -29.65489,-2.74061 c -0.0741,-0.11996 -0.24166,-0.78157 -0.37227,-1.47023 -0.18663,-0.984 -0.15084,-1.669 0.16712,-3.19881 0.38952,-1.87406 0.38829,-1.96469 -0.0329,-2.4301 -0.48244,-0.53307 -1.07339,-0.64307 -1.07339,-0.19978 0,0.20388 -0.0721,0.21155 -0.25639,0.0272 -0.14102,-0.14102 -0.2208,-0.508 -0.17728,-0.81552 0.19258,-1.36115 2.33724,-0.25918 2.79355,1.43537 0.23971,0.89016 0.21239,1.27931 -0.26796,3.82005 -0.20624,1.09092 -0.18526,1.44879 0.11963,2.03838 0.20341,0.39333 0.30315,0.78182 0.22166,0.86331 -0.22393,0.22393 -0.96887,0.17749 -1.12178,-0.0699 z m 23.98652,-0.51847 c -0.83743,-0.33414 -1.42315,-0.92164 -1.42315,-1.42753 0,-0.55 0.17871,-0.54613 1.45159,0.0315 1.44924,0.65762 2.12091,0.60447 2.92152,-0.23119 0.87296,-0.91118 1.06373,-0.89306 1.06373,0.10103 0,1.12901 -0.87685,1.79511 -2.33664,1.77506 -0.60001,-0.009 -1.35469,-0.12021 -1.67705,-0.24882 z m -8.25039,-3.1681 c -0.74116,-0.84415 -1.16057,-1.89659 -0.87115,-2.18601 0.0875,-0.0875 0.42762,0.18404 0.75582,0.60343 0.86211,1.10158 1.36643,1.31497 2.34464,0.99214 0.94217,-0.31095 0.99392,-0.47084 0.34301,-1.05991 -0.26001,-0.23533 -0.47276,-0.57235 -0.47276,-0.74897 0,-0.46049 1.30089,0.11603 3.08367,1.36658 2.0634,1.44739 1.87907,2.47633 -0.2491,1.39062 l -0.9287,-0.47379 -0.77565,0.47291 c -1.24092,0.75658 -2.36072,0.6328 -3.22978,-0.357 z m 11.17098,-0.48894 c -0.4062,-0.20038 -1.04143,-0.68049 -1.41168,-1.06695 -0.53971,-0.56334 -0.62249,-0.78291 -0.41765,-1.1077 0.43067,-0.68275 1.06125,-0.48622 1.35489,0.42228 0.47475,1.46886 1.49075,1.26849 4.75873,-0.93845 2.18942,-1.4786 2.86769,-1.80895 4.13671,-2.01485 0.58503,-0.0949 1.39781,-0.30995 1.80608,-0.47784 1.33667,-0.54963 1.61836,-2.71919 0.66602,-5.12933 -0.79579,-2.01387 0.18499,-1.59876 1.23666,0.52341 0.50869,1.02644 0.54416,3.3967 0.0653,4.36428 -0.50124,1.01287 -1.64572,1.68338 -3.45654,2.02506 -1.43918,0.27156 -1.7266,0.42958 -3.09231,1.70007 -0.82807,0.77039 -1.8688,1.55245 -2.31267,1.7379 -1.04458,0.43645 -2.40339,0.42101 -3.33361,-0.0379 z M 882.308,306.37449 c -1.22312,-0.28978 -1.70409,-0.86828 -1.70409,-2.04958 0,-0.5649 0.0685,-1.02708 0.15223,-1.02708 0.0837,0 0.48278,0.38238 0.88679,0.84975 0.59574,0.68916 0.94405,0.87338 1.84297,0.9747 0.60961,0.0688 1.39822,0.0522 1.75246,-0.0367 l 0.64406,-0.16165 -0.73311,-0.44583 c -0.76853,-0.46737 -1.23602,-1.13143 -1.23602,-1.7557 0,-0.56282 0.51522,-0.44281 1.06637,0.24841 0.4174,0.52346 0.79109,0.6584 2.43182,0.87807 1.07711,0.14421 1.93864,0.37357 1.93864,0.51613 0,0.48829 -0.57087,0.82391 -1.40649,0.82688 -0.46154,0.002 -1.46579,0.32077 -2.2317,0.70916 -1.41665,0.71839 -2.01739,0.80196 -3.40393,0.47345 z m 12.33584,-2.02799 c -0.23855,-0.95053 0.1619,-1.49895 1.68524,-2.30782 1.31633,-0.69898 1.47716,-0.87906 2.35821,-2.6412 0.7744,-1.54883 1.10716,-1.97005 1.83877,-2.32746 0.82989,-0.40544 0.93472,-0.40925 1.47742,-0.0536 0.56859,0.3726 0.80663,1.08101 0.36317,1.08101 -0.1216,0 -0.50684,-0.10866 -0.85611,-0.24147 -0.84669,-0.32189 -1.19634,-0.004 -1.38602,1.26141 -0.23334,1.55604 -0.88993,2.39242 -2.71499,3.45829 -1.57535,0.92006 -1.65534,1.00803 -1.52216,1.674 0.12717,0.63577 0.0817,0.70291 -0.47542,0.70291 -0.464,0 -0.65353,-0.14953 -0.76811,-0.60603 z m -10.74339,-3.13395 c -1.25057,-0.79371 -3.24622,-2.95047 -3.43833,-3.71596 -0.0751,-0.29906 -0.10046,-0.72949 -0.0565,-0.95653 0.11349,-0.5853 0.671,-0.70924 0.671,-0.14916 0,0.66282 2.27111,2.87396 3.51877,3.42586 1.98701,0.87895 5.83495,0.12912 9.99046,-1.94682 2.46376,-1.23079 4.24828,-2.6276 5.29079,-4.14137 0.8487,-1.23224 0.87046,-1.31687 0.77021,-3 -0.10118,-1.69963 -0.66587,-3.29675 -1.75823,-4.97271 -0.52508,-0.80555 -0.25132,-1.1104 0.58024,-0.6462 0.4025,0.2247 1.00616,1.07496 1.64131,2.31188 0.8395,1.63489 1.00464,2.18048 1.00464,3.31924 0,3.47583 -1.6971,5.40147 -7.6825,8.71722 -3.4586,1.91597 -5.02663,2.42152 -7.51055,2.42152 -1.75579,0 -2.08493,-0.0727 -3.02137,-0.66697 z m -12.27913,-0.12189 c 0,-0.51508 1.35423,-2.66657 2.44207,-3.87972 0.54041,-0.60265 1.57645,-0.72275 1.57645,-0.18274 0,0.19202 -0.26869,0.52517 -0.59709,0.74034 -0.3284,0.21518 -0.97406,1.17498 -1.4348,2.13292 -0.70082,1.45706 -0.93158,1.74167 -1.41218,1.74167 -0.4445,0 -0.57445,-0.12498 -0.57445,-0.55247 z m 33.11018,-3.09398 c -0.68737,-0.73166 -0.45053,-1.22167 0.34008,-0.70365 0.69574,0.45587 0.95826,0.31736 1.1423,-0.60274 0.28651,-1.43265 2.02326,-1.15191 3.72306,0.60183 0.77144,0.79594 0.78996,1.3987 0.0264,0.85847 -0.68658,-0.48575 -2.14407,-1.23513 -2.40217,-1.23513 -0.13519,0 -0.24581,0.24465 -0.24581,0.54367 0,0.74562 -0.42958,1.11101 -1.30618,1.11101 -0.47646,0 -0.93022,-0.20365 -1.27763,-0.57346 z m -26.41406,-5.2391 c -0.0793,-0.20664 -0.0798,-1.21068 0,-2.23119 0.20934,-2.71361 1.98319,-7.08483 2.87513,-7.08483 0.45774,0 0.46048,0.6941 0.005,1.34399 -0.35623,0.50857 -1.60377,5.27371 -1.90284,7.26811 -0.16445,1.09649 -0.68247,1.46995 -0.97641,0.70392 z m 3.52748,-12.54557 c -0.16251,-0.0656 -0.29548,-0.31376 -0.29548,-0.55152 0,-0.48444 -0.006,-0.48304 4.84587,-1.0812 1.69015,-0.20837 4.06568,-0.58182 5.27896,-0.82992 l 2.20599,-0.45108 1.57405,0.65453 c 0.95835,0.39851 1.60478,0.81408 1.65258,1.06237 0.11041,0.57332 -0.77616,0.53202 -2.3159,-0.10785 l -1.2409,-0.5157 -5.11388,0.99342 c -4.9232,0.95638 -5.951,1.08533 -6.59129,0.82695 z m 16.48781,-2.15931 c 0,-0.74006 1.73971,-2.21009 2.87523,-2.42952 1.73525,-0.33532 3.26685,-0.2675 3.42771,0.15179 0.23235,0.60537 -0.19733,0.80092 -2.11621,0.96311 -1.70981,0.14454 -1.85598,0.20161 -2.42421,0.94661 -0.67968,0.89114 -1.76252,1.11723 -1.76252,0.36801 z m -9.53445,-3.60519 c -0.73388,-0.57727 -2.36552,-3.76781 -2.24553,-4.39093 0.0464,-0.24093 0.24638,-0.46925 0.44437,-0.50738 0.25402,-0.0489 0.48299,0.333 0.7778,1.29739 0.32336,1.05769 0.72072,1.67407 1.75735,2.72594 l 1.33955,1.3592 -0.72899,0 c -0.40093,0 -1.00598,-0.21789 -1.34455,-0.48422 z m 17.61325,-0.37716 c 0.11831,-0.6017 1.19952,-1.28732 2.25278,-1.42859 1.46987,-0.19715 1.40132,0.27286 -0.15805,1.08444 -1.58248,0.8236 -2.20926,0.92657 -2.09473,0.34415 z m -8.34141,86.99097 c 0.93877,-0.80358 0.97223,-0.88126 0.98584,-2.29076 0.0378,-3.91938 0.59246,-4.77246 3.42266,-5.26463 1.00625,-0.17499 1.85333,-0.34766 1.88234,-0.3837 0.0292,-0.0361 0.95421,-1.28886 2.0559,-2.78398 2.22356,-3.01768 2.62017,-3.42493 3.14107,-3.22505 0.58048,0.22274 0.42675,0.69266 -0.88342,2.70089 -0.68254,1.04625 -1.56014,2.41314 -1.95016,3.03758 -0.92453,1.48013 -2.43599,2.61571 -3.74231,2.81159 -1.54516,0.23172 -1.63201,0.34591 -1.75815,2.31132 l -0.11393,1.77505 1.62526,0.17686 c 2.02632,0.2205 4.45881,-0.12077 7.41671,-1.04052 3.35575,-1.04348 4.80258,-1.64011 5.19874,-2.14377 0.53036,-0.67435 3.51308,-3.0518 4.03757,-3.21826 0.69587,-0.22087 0.54666,-0.95221 -0.42084,-2.06218 -0.48188,-0.55292 -1.03829,-1.20032 -1.23635,-1.43865 -0.27608,-0.33222 -0.39052,-1.32501 -0.49044,-4.25491 l -0.13033,-3.82158 -1.63188,-3.22657 -1.63182,-3.22654 -0.43531,0.55341 c -0.78788,1.00158 -1.13188,2.18658 -1.13188,3.89854 l 0,1.67799 -0.65008,-0.0748 c -0.50397,-0.058 -0.66637,-0.21576 -0.72265,-0.70205 -0.0922,-0.79581 0.97329,-4.0066 1.79198,-5.40054 0.69337,-1.18056 0.69524,-1.68122 0.0128,-3.4128 -0.36714,-0.93141 -0.43259,-1.4735 -0.30777,-2.54905 0.0873,-0.75133 0.10953,-1.36605 0.0496,-1.36605 -0.0598,0 -0.51042,0.31911 -1.00123,0.70913 -1.03155,0.81978 -3.72956,1.72849 -6.82306,2.29807 -1.56428,0.28801 -3.52792,0.40075 -7.12361,0.409 l -4.96407,0.0113 -0.0119,1.19845 c -0.0226,2.33697 -1.76095,4.37989 -4.80099,5.64289 -1.11641,0.46381 -2.15398,1.06941 -2.42709,1.41661 -0.49412,0.62818 -1.68623,0.84413 -1.9856,0.3597 -0.23892,-0.38655 0.25923,-0.8306 2.22396,-1.98244 2.16592,-1.2698 4.77036,-3.45494 5.13289,-4.30653 0.22507,-0.52872 0.10388,-2.33375 -0.16982,-2.52929 -0.049,-0.035 -0.88694,-0.19409 -1.86201,-0.3535 -0.97509,-0.1594 -2.18455,-0.50379 -2.68771,-0.76531 -0.50315,-0.26151 -0.93944,-0.44393 -0.96954,-0.40537 -0.35401,0.45364 -0.59764,2.13478 -0.59764,4.12389 0,2.40828 -0.0635,2.58902 -0.80802,2.30329 -0.63506,-0.24369 -0.47952,-2.59718 0.47147,-7.13337 0.0622,-0.29694 0.37865,-0.66084 0.70308,-0.80867 0.49943,-0.22755 0.70242,-0.18558 1.32371,0.27376 1.04056,0.76932 2.68357,1.14621 6.34682,1.45584 5.75841,0.48675 13.42389,-0.0864 15.9559,-1.19309 1.26834,-0.55435 2.29342,-1.45245 3.1723,-2.77935 0.93135,-1.40606 0.92051,-1.6592 -0.0401,-0.93891 -1.63692,1.22728 -4.21044,2.18887 -7.74158,2.89263 -1.63383,0.32562 -2.76011,0.3731 -6.02777,0.25415 -6.53634,-0.23795 -10.20996,-0.85201 -13.00359,-2.17361 -0.7303,-0.3455 -1.35864,-0.59064 -1.39627,-0.54478 -0.0377,0.0458 -0.62351,1.30669 -1.30194,2.80183 -1.36346,3.0049 -1.66021,4.61589 -1.66825,9.05696 -0.004,1.89142 0.0941,2.54646 0.52768,3.54576 0.42337,0.97572 0.53186,1.66648 0.53186,3.38647 l 0,2.16073 0.59097,-0.4118 c 2.07916,-1.44879 5.53256,-1.73009 7.8271,-0.63754 2.56796,1.22276 4.82745,4.40671 5.77254,8.13435 0.41233,1.62631 0.52652,5.0301 0.24567,7.32258 l -0.18045,1.47303 0.70565,-0.246 c 0.3881,-0.13529 1.14291,-0.62028 1.67737,-1.07777 z m -2.52511,-16.15989 0.0692,-0.59097 6.85514,-0.11819 c 6.37546,-0.10992 6.93204,-0.15375 7.95411,-0.62623 0.60448,-0.27941 1.32912,-0.73815 1.61035,-1.0194 0.58595,-0.58592 1.04201,-0.53338 1.14112,0.13146 0.10488,0.70362 -1.30845,1.87486 -2.78669,2.30936 -1.03869,0.3053 -2.66889,0.39449 -8.10635,0.44353 l -6.80625,0.0614 0.0692,-0.59096 z m 0.74111,-1.78492 c -0.31678,-0.82551 2.04966,-2.4371 5.83421,-3.97319 1.10206,-0.4473 2.6952,-1.14298 3.54029,-1.54594 l 1.53651,-0.73264 -1.10998,-2e-4 c -2.22533,-4.5e-4 -7.19629,0.50533 -8.45466,0.86008 -0.71012,0.20021 -1.59587,0.62042 -1.96829,0.9338 -1.10099,0.9264 -2.28037,0.69357 -1.93878,-0.38274 0.32744,-1.03162 3.47424,-2.0623 7.91043,-2.59093 2.1785,-0.2596 8.95618,-0.3271 9.56046,-0.0952 0.55618,0.21344 0.45822,1.2096 -0.15796,1.60655 -0.29251,0.18845 -1.20529,0.51514 -2.02835,0.72601 -0.82302,0.21087 -2.09952,0.65516 -2.83659,0.9873 -0.73707,0.33215 -2.40386,1.04896 -3.70398,1.59291 -1.30012,0.54396 -3.02281,1.43716 -3.8283,1.98492 -1.56453,1.064 -2.13021,1.21515 -2.35501,0.62929 z m 46.28877,16.48365 c 5.25879,-2.56624 8.5626,-11.30018 6.83286,-18.06333 -1.24664,-4.87438 -3.89794,-7.56932 -7.44488,-7.5674 -5.48854,0.003 -10.16407,7.00783 -10.1368,15.1869 0.008,2.31826 0.10337,2.99679 0.64981,4.60949 1.06714,3.14932 2.4222,4.93816 4.50564,5.94806 1.53884,0.74594 3.93145,0.6973 5.59337,-0.11372 z m -19.36805,-8.12404 c 0.51484,-0.15425 1.27181,-0.59504 1.68213,-0.97956 l 0.74608,-0.6991 -0.93503,-0.32502 c -2.22156,-0.77221 -2.65838,-1.88045 -2.25292,-5.71644 0.32356,-3.06157 0.65409,-3.86438 1.81837,-4.41688 l 0.77864,-0.36948 0.004,-3.59378 c 0.004,-1.97656 0.066,-3.82794 0.14276,-4.11416 0.10974,-0.40939 -0.0296,-0.6268 -0.65327,-1.0193 -0.66998,-0.42159 -1.0676,-0.48438 -2.56574,-0.4052 -1.97937,0.10461 -3.37482,0.67344 -4.68873,1.91129 -1.14079,1.07472 -1.45725,1.83243 -1.45725,3.4891 0,1.28444 0.12977,1.71056 1.02918,3.38021 1.43322,2.66051 1.59686,3.29526 1.66455,6.45674 0.0666,3.10522 0.54784,4.79178 1.71504,6.01008 0.7156,0.74692 1.45963,0.84491 2.97301,0.3915 z m -43.32666,-7.21589 c 0.008,-0.54768 -0.22476,-1.6114 -0.51729,-2.36384 -0.44343,-1.14056 -0.53186,-1.82849 -0.53186,-4.1366 0,-2.5923 -0.02,-2.71266 -0.31655,-1.89107 -0.95104,2.63635 -1.21988,4.03 -1.2179,6.31352 0.004,3.94456 0.15094,4.62953 1.14903,5.33517 l 0.85819,0.60674 0.28089,-1.43408 c 0.1545,-0.78874 0.28746,-1.88217 0.29549,-2.42984 z m 36.27053,-13.23087 c 0.52808,-0.58779 1.57793,-1.34577 2.47701,-1.7884 1.42033,-0.69926 1.75716,-0.76824 3.75182,-0.76824 1.30742,0 2.18905,-0.0953 2.18546,-0.23638 -0.0205,-0.79845 -1.1189,-2.19748 -3.19206,-4.06541 -1.30403,-1.17496 -2.71536,-2.52848 -3.13615,-3.00778 -1.59969,-1.82192 -3.5936,-6.61073 -3.5936,-8.63078 0,-0.79694 -0.81409,-2.6158 -1.17079,-2.6158 -0.3943,0 -0.55727,1.03656 -0.59473,3.78216 -0.0205,1.49513 -0.12613,3.81758 -0.23498,5.16103 l -0.19784,2.4426 0.64344,0.59665 c 0.70289,0.65175 0.66989,0.28559 0.59587,6.61389 -0.0205,1.75612 0.0723,2.38436 0.48913,3.30936 0.46785,1.03824 0.53929,1.10031 0.78768,0.68452 0.15027,-0.25149 0.68564,-0.91634 1.18974,-1.47742 z m -34.43204,-6.82029 c 0.20615,-1.99721 -0.35467,-6.41741 -0.98858,-7.79193 -0.2998,-0.65006 -0.70216,-1.38639 -0.8941,-1.63628 -0.32774,-0.42671 -0.37457,-0.37634 -0.76915,0.82735 -0.23109,0.70493 -0.78144,2.00476 -1.22303,2.88849 -0.64709,1.295 -0.77451,1.77662 -0.65655,2.48203 0.18427,1.10192 0.88975,3.37998 1.82644,5.89755 l 0.72527,1.94932 0.92438,-1.67401 c 0.62172,-1.12586 0.96727,-2.08938 1.05532,-2.94252 z"
       id="path3040"
       inkscape:connector-curvature="0" />
  </g>
</svg>
