<?xml version="1.0" encoding="UTF-8" standalone="no"?>
<!-- Created with Inkscape (http://www.inkscape.org/) -->

<svg
   xmlns:dc="http://purl.org/dc/elements/1.1/"
   xmlns:cc="http://creativecommons.org/ns#"
   xmlns:rdf="http://www.w3.org/1999/02/22-rdf-syntax-ns#"
   xmlns:svg="http://www.w3.org/2000/svg"
   xmlns="http://www.w3.org/2000/svg"
   xmlns:xlink="http://www.w3.org/1999/xlink"
   xmlns:sodipodi="http://sodipodi.sourceforge.net/DTD/sodipodi-0.dtd"
   xmlns:inkscape="http://www.inkscape.org/namespaces/inkscape"
   width="335.44565"
   height="223.6214"
   id="svg2"
   version="1.1"
   inkscape:version="0.48.3.1 r9886"
   sodipodi:docname="Push-ups-1.svg"
   inkscape:export-filename="/home/christian/Dokumente/Website/opentraining/cc_exercises/Push-ups-2.png"
   inkscape:export-xdpi="214.32458"
   inkscape:export-ydpi="214.32458">
  <defs
     id="defs4">
    <filter
       inkscape:collect="always"
       id="filter5283"
       color-interpolation-filters="sRGB">
      <feGaussianBlur
         inkscape:collect="always"
         stdDeviation="10.211719"
         id="feGaussianBlur5285" />
    </filter>
    <filter
       inkscape:collect="always"
       id="filter5427"
       x="-0.28619286"
       width="1.5723857"
       y="-0.28619286"
       height="1.5723857"
       color-interpolation-filters="sRGB">
      <feGaussianBlur
         inkscape:collect="always"
         stdDeviation="15.757641"
         id="feGaussianBlur5429" />
    </filter>
    <radialGradient
       gradientUnits="userSpaceOnUse"
       gradientTransform="matrix(1,0,0,0.91819829,-19.285714,-7.9105395)"
       r="209.56604"
       fy="287.50052"
       fx="398.1105"
       cy="287.50052"
       cx="398.1105"
       id="radialGradient5255"
       xlink:href="#linearGradient5249"
       inkscape:collect="always" />
    <linearGradient
       id="linearGradient5249"
       inkscape:collect="always">
      <stop
         id="stop5251"
         offset="0"
         style="stop-color:#e3e3e3;stop-opacity:1;" />
      <stop
         id="stop5253"
         offset="1"
         style="stop-color:#e3e3e3;stop-opacity:0;" />
    </linearGradient>
    <linearGradient
       inkscape:collect="always"
       id="linearGradient5249-1">
      <stop
         style="stop-color:#e3e3e3;stop-opacity:1;"
         offset="0"
         id="stop5251-3" />
      <stop
         style="stop-color:#e3e3e3;stop-opacity:0;"
         offset="1"
         id="stop5253-6" />
    </linearGradient>
    <radialGradient
       inkscape:collect="always"
       xlink:href="#linearGradient5249-1"
       id="radialGradient5255-4"
       cx="398.1105"
       cy="287.50052"
       fx="398.1105"
       fy="287.50052"
       r="209.56604"
       gradientTransform="matrix(1,0,0,0.91819829,-19.285714,-7.9105395)"
       gradientUnits="userSpaceOnUse" />
  </defs>
  <sodipodi:namedview
     id="base"
     pagecolor="#ffffff"
     bordercolor="#666666"
     borderopacity="1.0"
     inkscape:pageopacity="0.0"
     inkscape:pageshadow="2"
     inkscape:zoom="1.979899"
     inkscape:cx="200.60576"
     inkscape:cy="128.60495"
     inkscape:document-units="px"
     inkscape:current-layer="layer1"
     showgrid="false"
     showguides="true"
     inkscape:guide-bbox="true"
     fit-margin-top="0"
     fit-margin-left="0"
     fit-margin-right="0"
     fit-margin-bottom="0"
     inkscape:window-width="1615"
     inkscape:window-height="1026"
     inkscape:window-x="65"
     inkscape:window-y="24"
     inkscape:window-maximized="1">
    <sodipodi:guide
       orientation="-0.70710678,0.70710678"
       position="-1700.8536,586.40588"
       id="guide2985" />
  </sodipodi:namedview>
  <metadata
     id="metadata7">
    <rdf:RDF>
      <cc:Work
         rdf:about="">
        <dc:format>image/svg+xml</dc:format>
        <dc:type
           rdf:resource="http://purl.org/dc/dcmitype/StillImage" />
        <dc:title />
      </cc:Work>
    </rdf:RDF>
  </metadata>
  <g
     inkscape:label="Ebene 1"
     inkscape:groupmode="layer"
     id="layer1"
     transform="translate(-272.28216,-389.43236)">
    <rect
       style="fill:#f5f2f2;fill-opacity:0;stroke:none"
       id="rect5431-9"
       width="335.91214"
       height="223.96854"
       x="271.53864"
       y="391.80276"
       inkscape:export-filename="/home/christian/Dokumente/Code/workspace/OpenTraining/res/drawable/background.png"
       inkscape:export-xdpi="150"
       inkscape:export-ydpi="150" />
    <path
       style="fill:#000000"
       d="m 397.16424,558.17667 c -0.27646,-0.44271 -0.59689,-0.54432 -1.71657,-0.54432 -0.75714,0 -1.63073,-0.14053 -1.9413,-0.31229 -0.31056,-0.17175 -1.17215,-0.31717 -1.91465,-0.32314 -1.62722,-0.013 -2.42197,-0.646 -2.48583,-1.97963 -0.0268,-0.55937 -0.25166,-1.0448 -0.62356,-1.34605 -0.40749,-0.33008 -0.58165,-0.74877 -0.58165,-1.39831 0,-0.76395 0.20076,-1.11332 1.14054,-1.98473 0.6273,-0.58167 1.55888,-1.77672 2.07017,-2.65567 0.60994,-1.04852 1.70681,-2.29315 3.18959,-3.61921 1.24297,-1.1116 3.01609,-2.80506 3.94028,-3.76324 1.85251,-1.92062 2.21644,-2.06101 6.20434,-2.39339 1.06639,-0.0888 2.67055,-0.32837 3.56482,-0.5322 3.42124,-0.77983 4.07939,-1.61316 3.85721,-4.88411 -0.17723,-2.6096 -0.86554,-4.58235 -2.47539,-7.09461 -0.69311,-1.08164 -1.86476,-3.1724 -2.60367,-4.64613 l -1.34345,-2.67952 -0.23709,-4.04186 c -0.13039,-2.22302 -0.43616,-5.14701 -0.67947,-6.49775 -0.44162,-2.45144 -0.44509,-2.45846 -1.91056,-3.87771 -0.80747,-0.78202 -1.75972,-2.0035 -2.1161,-2.71442 -0.51987,-1.03705 -3.84697,-9.54589 -4.41023,-11.27887 -0.0753,-0.2317 -0.68542,-0.60817 -1.35582,-0.83658 -1.93973,-0.66094 -2.77945,-1.4945 -5.31195,-5.27303 -2.46799,-3.68228 -3.31745,-5.24996 -3.32715,-6.1403 -0.005,-0.38588 -0.32414,-0.63426 -1.23363,-0.95781 -2.83212,-1.00753 -6.86383,-4.02717 -8.63921,-6.47053 -1.04373,-1.43644 -1.11989,-1.48641 -2.26321,-1.48502 -2.68675,0.004 -4.0545,0.85057 -4.79659,2.97148 -0.66954,1.91358 -1.60575,3.22424 -2.59973,3.63954 -1.14237,0.47733 -3.58093,0.46908 -5.18501,-0.0176 -0.69796,-0.21175 -1.2999,-0.38624 -1.33762,-0.38778 -0.0377,-0.002 -0.99623,1.40114 -2.12999,3.11706 -4.20055,6.35745 -5.16908,8.6119 -5.16908,12.03201 0,1.21143 -0.11294,2.41363 -0.25097,2.67154 -0.13803,0.25793 -0.70697,0.6514 -1.26427,0.87439 -0.58426,0.23378 -1.43363,0.9184 -2.00601,1.61692 -0.57554,0.70238 -1.45403,1.40921 -2.0905,1.68203 -0.60378,0.25881 -1.86264,1.05681 -2.79748,1.77332 -1.88231,1.44271 -2.70706,1.75434 -3.71264,1.40283 -0.56982,-0.1992 -0.68736,-0.41407 -0.75672,-1.38332 -0.058,-0.8095 0.0802,-1.43625 0.46894,-2.12793 0.30308,-0.53927 0.45637,-0.98083 0.34063,-0.98125 -0.11573,-5.2e-4 -1.31557,0.42101 -2.66632,0.93652 -2.27993,0.87013 -2.5948,1.08149 -4.39475,2.94993 -2.56484,2.66245 -2.62464,2.6877 -5.20805,2.19764 -2.37371,-0.45028 -3.71321,-1.14838 -3.94039,-2.05359 -0.0894,-0.35602 0.17122,-1.71029 0.61936,-3.21878 0.4255,-1.4323 0.77364,-2.99757 0.77364,-3.47838 0,-1.71392 2.43301,-3.99074 6.33361,-5.92697 1.50937,-0.74924 2.09425,-0.86759 6.07509,-1.22929 3.57997,-0.32527 5.5224,-0.8403 6.05909,-1.60656 0.50275,-0.71775 1.37347,-3.41407 2.70823,-8.38643 0.86392,-3.21833 1.08201,-4.51594 1.2212,-7.26597 l 0.16942,-3.34789 -0.82128,-1.19371 c -2.16022,-3.13979 -3.06526,-6.43353 -2.78113,-10.12144 0.59722,-7.75136 5.27208,-13.64107 12.10621,-15.25224 3.17223,-0.74788 8.13971,-0.33915 10.45839,0.8605 1.26758,0.65583 3.38052,2.84678 4.56592,4.73451 1.31024,2.08652 1.6224,2.10781 3.77247,0.2573 3.63306,-3.12686 7.24547,-5.13909 10.29834,-5.73648 1.15034,-0.2251 3.74157,-0.27628 9.04801,-0.17874 10.53692,0.19371 17.48546,1.104 22.28657,2.91963 2.74987,1.03993 3.65688,1.23242 8.41579,1.78596 l 3.36068,0.39091 1.8096,-0.90063 c 1.33674,-0.66529 2.28247,-0.94044 3.6192,-1.05297 1.50141,-0.12639 2.29392,-0.39346 4.65327,-1.56816 3.56989,-1.77742 5.02427,-2.15575 8.30181,-2.15959 4.60378,-0.006 7.89355,0.93058 13.7493,3.91187 4.52131,2.3019 4.98908,2.46068 8.27636,2.80924 2.44011,0.25873 3.12368,0.47592 4.055,1.28843 0.39016,0.3404 1.18301,0.48953 3.23143,0.6078 3.16462,0.1827 5.58697,0.75588 9.17726,2.17155 1.42183,0.56063 3.14751,1.17161 3.83485,1.35772 l 1.24969,0.33839 4.95466,-2.48554 c 5.78353,-2.90134 8.09019,-3.6774 11.68689,-3.93195 3.40005,-0.24063 6.2116,0.32248 10.51582,2.10615 1.27555,0.52859 1.89699,0.61166 4.52401,0.60478 1.67494,-0.005 3.85966,-0.11456 4.85494,-0.2448 2.29943,-0.30094 5.22347,-1.50494 6.90353,-2.84263 1.58927,-1.26539 3.32738,-1.81636 5.73001,-1.81636 1.45039,0 1.97912,0.115 2.65369,0.57721 1.32156,0.90554 1.93426,2.25304 2.09573,4.6091 0.0774,1.12864 0.21759,2.0521 0.31162,2.0521 0.094,0 0.74633,-0.36511 1.44953,-0.81132 1.63209,-1.03567 3.77923,-1.77542 5.13212,-1.76816 1.19383,0.006 2.9203,0.71105 3.53862,1.44428 1.56481,1.85557 1.88451,5.96879 0.90196,11.60444 -1.03674,5.94638 -1.29182,9.48907 -0.9335,12.96458 0.23389,2.26852 0.23277,3.16281 -0.006,3.90764 -0.62352,1.95447 -1.81562,3.58788 -4.28271,5.86809 l -2.50697,2.31705 -1.8923,0.0548 c -1.04079,0.0301 -2.12636,0.129 -2.41243,0.2198 -0.96373,0.30587 -2.87498,-0.16075 -3.72871,-0.91035 -0.71858,-0.63092 -0.9644,-0.69998 -2.05419,-0.57714 -1.48561,0.16744 -2.34287,-0.22166 -2.77226,-1.25835 -0.16882,-0.40754 -0.46731,-0.74097 -0.66334,-0.74097 -0.19602,0 -0.61323,-0.26175 -0.92711,-0.58166 -0.31389,-0.31992 -1.08824,-0.87249 -1.72077,-1.22796 -1.42776,-0.80233 -2.17904,-2.08622 -1.96903,-3.36494 0.12761,-0.77696 0.0348,-1.0188 -0.63876,-1.66409 -0.99111,-0.94955 -1.04883,-2.28481 -0.1795,-4.15167 1.10232,-2.36714 1.24346,-3.02732 0.8748,-4.09217 l -0.33357,-0.96348 -2.8115,1.7049 c -1.54632,0.93767 -3.36074,1.98321 -4.03204,2.32339 -1.53257,0.7766 -6.38244,2.4485 -9.39133,3.23746 -1.77437,0.46527 -2.34691,0.72813 -2.54822,1.16996 -0.26912,0.59066 -2.9009,2.20903 -5.37452,3.30498 -0.93567,0.41457 -2.14879,0.68563 -3.54798,0.79277 -1.75456,0.13436 -2.47747,0.33743 -4.13623,1.16195 -2.1108,1.04922 -5.93894,2.35475 -8.34369,2.84552 -2.15124,0.43903 -8.16865,1.11143 -10.21133,1.14106 -1.79717,0.0261 -6.7763,-0.53671 -10.98687,-1.24179 -2.33734,-0.3914 -5.09733,-0.22984 -6.59213,0.38589 -0.46222,0.19038 -2.02884,0.32345 -3.87771,0.32933 l -3.10218,0.01 -3.3607,-1.4548 c -2.72551,-1.17985 -3.78588,-1.50305 -5.61035,-1.70998 -1.24389,-0.14109 -2.61703,-0.46324 -3.07132,-0.72057 -0.45189,-0.25598 -1.06817,-0.60913 -1.36952,-0.78476 -0.30471,-0.17758 -1.43596,-0.32101 -2.54862,-0.32314 -2.28611,-0.005 -4.0218,0.53986 -5.55328,1.74122 -1.11829,0.87722 -4.47921,2.51307 -5.63025,2.74038 -0.42655,0.0842 -2.17152,0.27629 -3.87772,0.42678 -1.80769,0.15943 -3.67257,0.48612 -4.46907,0.78289 -0.75179,0.2801 -1.82786,0.50926 -2.39127,0.50926 -0.5634,0 -1.02435,0.0525 -1.02435,0.11666 0,0.0642 0.16568,0.75274 0.36819,1.5302 0.2025,0.77745 0.4461,2.38269 0.54134,3.56718 0.14148,1.75949 0.35013,2.50848 1.14003,4.0925 0.53178,1.06636 1.16844,2.74996 1.41483,3.74131 0.32048,1.28947 0.7755,2.24319 1.59883,3.35113 1.33426,1.79552 1.77567,3.15922 1.55253,4.79653 -0.49139,3.60552 -0.48034,3.97508 0.18546,6.20705 0.904,3.03048 1.30725,8.34592 1.1375,14.99384 -0.19471,7.62541 -0.61002,13.37626 -1.07346,14.86461 -0.27612,0.88676 -0.35195,1.75444 -0.24153,2.76367 0.24371,2.22745 -0.0367,3.2019 -1.27574,4.43291 -1.81569,1.80395 -5.28129,3.25015 -9.46779,3.95094 -3.03631,0.50826 -4.75763,1.36702 -7.01597,3.50024 -2.83561,2.67851 -3.70605,3.16682 -5.84234,3.27748 -1.66267,0.0861 -1.89024,0.0396 -2.19492,-0.44821 z m 3.74379,-1.09815 c 0.31056,-0.16241 1.22293,-0.96516 2.02747,-1.78388 1.57301,-1.60078 4.06565,-3.4061 5.57161,-4.03534 0.51263,-0.21419 2.23724,-0.60916 3.83245,-0.87771 4.71871,-0.79435 7.45981,-2.07329 8.69229,-4.05561 0.45438,-0.73083 0.64655,-1.52012 0.77199,-3.17045 0.0919,-1.20855 0.29488,-3.47702 0.45116,-5.04103 1.18172,-11.82655 0.96641,-21.69083 -0.60378,-27.66108 -0.55392,-2.10616 -0.66875,-3.06987 -0.61969,-5.20128 l 0.0603,-2.61617 -1.44141,-2.81265 c -0.79278,-1.54696 -1.5236,-3.10349 -1.62406,-3.45893 -0.10047,-0.35547 -0.65665,-1.61909 -1.23596,-2.80807 -0.98788,-2.02753 -1.06422,-2.34863 -1.22902,-5.1703 -0.22521,-3.85576 -0.76513,-5.05645 -3.71144,-8.25341 -1.18485,-1.28566 -2.34672,-2.74304 -2.5819,-3.23866 -0.73441,-1.54765 -0.42766,-4.98662 0.32015,-3.58931 0.15747,0.29425 0.28631,0.72289 0.28631,0.95258 0,0.72789 0.79296,2.0196 2.30367,3.75261 0.80563,0.92421 1.91054,2.23292 2.45537,2.90829 0.89345,1.10758 1.09521,1.2278 2.0581,1.2265 1.58842,-0.002 2.91371,-0.44998 3.90357,-1.31909 0.48568,-0.42642 1.30344,-0.84353 1.81727,-0.92691 0.81687,-0.13256 0.95355,-0.0778 1.08788,0.43589 0.14724,0.56307 0.23536,0.58143 2.11801,0.44153 2.55074,-0.18955 4.32808,-0.74892 5.88112,-1.85088 2.69238,-1.9104 3.15931,-2.17833 4.50996,-2.5877 0.82143,-0.24897 2.78127,-0.48024 4.75756,-0.56144 1.84837,-0.076 3.75891,-0.25988 4.24564,-0.40878 l 0.88496,-0.27072 -0.77278,-0.41758 c -0.42501,-0.22966 -1.20623,-0.75503 -1.73602,-1.16747 -0.66995,-0.52158 -1.35351,-0.78742 -2.24492,-0.87307 -0.86958,-0.0836 -1.28168,-0.23986 -1.28168,-0.48614 0,-0.99453 2.94701,-0.58223 4.85051,0.6786 0.65118,0.43132 1.39135,0.78423 1.64483,0.78423 0.53126,0 2.01368,-1.84253 2.81621,-3.50033 0.78898,-1.62982 1.6207,-5.93188 1.42239,-7.35728 -0.44443,-3.19442 -2.12418,-6.89022 -4.21296,-9.26935 -1.44199,-1.64246 -6.0291,-4.94232 -8.87553,-6.38488 -1.13058,-0.57297 -1.25442,-0.58469 -2.43236,-0.23018 -1.49191,0.449 -6.74108,0.49877 -10.87295,0.1031 -1.55317,-0.14874 -4.45259,-0.6623 -6.44315,-1.14126 -1.99057,-0.47894 -4.75344,-1.01777 -6.13972,-1.19741 -1.38629,-0.17963 -2.52052,-0.44018 -2.52052,-0.579 0,-0.43137 6.13927,0.0221 7.91789,0.5848 2.84593,0.90044 5.46504,1.31376 9.95767,1.57142 4.18605,0.24006 6.90838,0.1507 7.67236,-0.25186 0.63587,-0.33504 -2.4683,-1.30141 -4.18043,-1.30141 -1.92922,0 -7.28398,-0.61018 -10.1221,-1.15341 -1.13748,-0.2177 -3.40594,-0.85662 -5.04105,-1.41981 -2.50708,-0.86352 -3.8033,-1.12562 -8.27246,-1.67276 -8.39214,-1.02739 -12.76446,-1.27031 -17.08765,-0.94937 -3.98898,0.29613 -6.98175,0.92655 -8.80752,1.85529 -1.25402,0.63789 -5.1266,4.27255 -5.1266,4.81163 0,0.35403 0.66576,0.28257 2.02033,-0.21685 1.10153,-0.40614 1.36434,-0.29762 1.03419,0.427 -0.60331,1.3241 -4.18223,1.51626 -6.88422,0.36962 -1.16672,-0.49511 -1.47199,-0.77676 -2.02523,-1.86853 -1.01288,-1.99883 -2.75354,-3.69609 -4.44872,-4.33782 -3.24814,-1.22959 -7.9765,-0.89396 -11.37592,0.8075 -2.18055,1.0914 -5.01285,3.64814 -6.1041,5.51022 -0.97072,1.65641 -1.49936,4.30293 -1.53026,7.66083 -0.0228,2.46934 0.068,3.22489 0.535,4.4603 1.27618,3.3754 4.20459,6.71403 9.86895,11.25135 3.50158,2.80486 4.37293,3.23994 6.54367,3.2674 1.49667,0.019 1.81387,-0.063 2.41742,-0.62449 1.25802,-1.17035 3.00626,-5.16437 4.35177,-9.94202 0.66721,-2.36907 0.63656,-2.5442 -0.69198,-3.95314 -0.77105,-0.81774 -0.77639,-0.84018 -0.19974,-0.84018 0.90697,0 2.10671,0.99687 2.6338,2.18843 0.46238,1.04525 0.46161,1.12534 -0.0296,3.12598 -0.27723,1.1293 -0.50543,2.43133 -0.50711,2.89343 -0.004,0.97862 -0.0477,0.97133 3.48689,0.57516 1.27965,-0.14342 2.76524,-0.4333 3.3013,-0.64416 1.29025,-0.50755 2.88733,-0.49145 3.41316,0.0344 0.38384,0.38386 0.45022,0.82671 0.13618,0.90844 -0.0712,0.0184 -0.63016,-0.051 -1.24237,-0.15441 -0.94341,-0.15939 -1.25871,-0.09 -2.06812,0.45464 -0.52525,0.35349 -1.10536,0.68638 -1.28914,0.73975 -0.51657,0.15001 1.13902,2.29973 2.79003,3.62274 1.88034,1.50676 4.85585,3.26763 5.86152,3.46877 0.63452,0.12691 0.93485,0.0324 1.41162,-0.44442 0.55982,-0.55982 0.61261,-0.56928 0.69814,-0.1252 0.0509,0.26423 -0.0488,0.98524 -0.22158,1.60225 -0.42269,1.50972 -0.25761,1.99541 1.445,4.25118 0.8023,1.06297 1.66903,2.41307 1.92606,3.0002 1.03867,2.37273 2.69882,3.3509 6.95803,4.09976 1.18916,0.20906 2.37751,0.57505 2.64077,0.8133 0.63056,0.57065 0.67307,2.23882 0.0539,2.11696 -0.23359,-0.046 -0.5535,-0.31624 -0.71093,-0.60061 -0.40128,-0.72487 -0.69467,-0.8963 -1.54182,-0.90085 -0.57025,-0.004 -0.70255,0.0899 -0.58055,0.40784 0.0869,0.22648 0.22864,0.7209 0.31495,1.09869 0.39135,1.71289 2.7798,8.2984 3.38412,9.33082 0.91797,1.56825 2.49207,3.24117 4.32727,4.59895 l 1.53692,1.13713 0.40436,-0.8564 c 0.22241,-0.47101 0.51961,-0.79822 0.66046,-0.72712 0.14085,0.0711 0.25399,1.11688 0.25142,2.32398 -0.004,1.8786 -0.0696,2.20722 -0.45497,2.28146 -0.32613,0.0628 -0.49459,-0.13471 -0.61089,-0.71617 -0.17016,-0.85075 -1.27141,-1.92211 -1.70211,-1.65592 -0.14915,0.0922 -0.18393,0.60319 -0.0833,1.22442 0.0949,0.58642 0.39482,2.92754 0.6664,5.20246 0.65092,5.45278 1.38556,7.84724 3.00003,9.77828 1.0866,1.29966 2.45114,4.51956 2.95264,6.96734 0.44266,2.16065 0.45858,2.91528 0.10887,5.1635 -0.0784,0.50421 2.7e-4,0.71091 0.27072,0.71091 1.1272,0 -0.16977,1.42996 -1.87598,2.06834 -2.2882,0.85613 -6.5148,1.80868 -8.02697,1.80905 -1.76779,5.2e-4 -2.92069,0.49861 -3.78927,1.63737 -0.38441,0.50398 -1.89079,1.95548 -3.34751,3.22554 -1.57652,1.3745 -3.04859,2.92436 -3.63683,3.82897 -0.54353,0.83588 -1.5827,2.138 -2.30926,2.89358 l -1.32101,1.37379 0.64079,0.52513 0.6408,0.52513 0.46889,-0.60633 c 0.2579,-0.3335 1.05028,-1.49247 1.76087,-2.57546 1.89617,-2.89 2.86543,-3.92115 5.22587,-5.55975 1.16622,-0.80956 2.56828,-1.98001 3.1157,-2.60098 1.09248,-1.23929 2.33856,-2.00632 2.90574,-1.78867 0.62634,0.24035 0.4045,0.62783 -0.74514,1.30157 -0.61026,0.35764 -1.35766,0.98581 -1.66087,1.39594 -0.30324,0.41014 -1.54253,1.40522 -2.75399,2.2113 -2.42744,1.61516 -3.38656,2.6196 -5.30675,5.55761 -0.70784,1.083 -1.64318,2.39041 -2.07853,2.90533 -1.19212,1.41002 -0.94377,2.2952 0.64395,2.2952 0.68782,0 1.04605,-0.27246 2.29443,-1.74497 0.81364,-0.95973 1.81415,-2.3998 2.22332,-3.20015 0.4469,-0.8741 1.18753,-1.7968 1.85474,-2.3107 0.61092,-0.47057 1.86705,-1.57277 2.79141,-2.44935 0.92436,-0.87659 1.92461,-1.67122 2.22277,-1.76585 0.29818,-0.0946 0.67107,-0.45507 0.82866,-0.80096 0.38644,-0.84814 1.68161,-1.47608 2.84501,-1.37934 1.07755,0.0896 1.29317,0.55834 0.3076,0.66871 -1.36648,0.15301 -1.73054,0.32404 -2.01394,0.94603 -0.16114,0.35365 -0.79182,0.95642 -1.40151,1.33947 -0.6097,0.38306 -1.85245,1.37613 -2.76165,2.20683 -0.90921,0.83072 -1.74523,1.51039 -1.85782,1.51039 -0.11258,0 -0.87951,1.0179 -1.70427,2.262 -0.82478,1.2441 -1.96364,2.76892 -2.53083,3.38848 l -1.03127,1.12646 0.63421,0.51355 c 0.78528,0.63589 2.21494,0.48076 2.76154,-0.29963 0.49731,-0.71001 0.91289,-0.66799 0.81455,0.0824 -0.044,0.33569 0.0782,0.80102 0.27167,1.03406 0.40862,0.49235 1.86782,0.56185 2.6966,0.1284 z m -0.98173,-3.57481 c -0.33063,-0.53499 0.84278,-2.06196 3.94943,-5.13944 2.60651,-2.58205 3.38225,-3.20862 4.00633,-3.23598 1.10747,-0.0485 1.15042,0.50889 0.0668,0.86652 -0.59179,0.19531 -0.96985,0.50834 -1.06321,0.88035 -0.0797,0.31754 -1.02958,1.26824 -2.11084,2.11268 -1.08127,0.84445 -2.53894,2.26244 -3.23928,3.15108 -1.36765,1.73539 -1.37586,1.74236 -1.60921,1.36479 z m 15.38495,-43.8047 c -0.46245,-1.21636 0.0952,-2.88251 1.70578,-5.0968 1.00848,-1.38651 1.0657,-1.77746 0.35432,-2.42125 -0.65283,-0.59079 -0.68109,-1.42183 -0.0484,-1.42183 0.74747,0 1.85796,1.33959 1.85796,2.24127 0,0.82752 -0.49634,1.62004 -2.04637,3.26755 -0.83525,0.88777 -0.92655,1.12729 -0.92655,2.43087 0,1.59347 -0.47133,2.11916 -0.89676,1.00019 z m -7.24587,-7.25804 c -0.13483,-0.35464 -0.77861,-1.86996 -1.43064,-3.36737 -0.86022,-1.97557 -1.16358,-2.98674 -1.10565,-3.68533 0.0538,-0.64794 0.20664,-0.96276 0.46761,-0.96276 0.28835,0 0.36869,0.24576 0.31333,0.95847 -0.0578,0.74396 0.18296,1.40931 1.07574,2.97293 1.33816,2.34368 1.85875,3.71792 1.63211,4.30851 -0.23629,0.61579 -0.67208,0.5131 -0.9525,-0.22445 z m 7.88577,-3.5225 c -0.54516,-0.71484 -1.68475,-1.90187 -2.53241,-2.63782 -2.55906,-2.2218 -4.49418,-5.47724 -4.19908,-7.06408 0.17953,-0.96536 0.61979,-1.37528 2.04926,-1.90796 0.96285,-0.35877 1.0539,-0.46965 0.98083,-1.19414 -0.0575,-0.56872 0.0482,-0.84805 0.36636,-0.97018 0.57566,-0.22089 0.77672,0.0184 0.98057,1.16765 0.21672,1.22174 -0.32728,1.85294 -2.07947,2.41268 -1.5229,0.4865 -1.7795,0.96952 -1.17649,2.21464 0.60102,1.24095 2.75799,3.49207 4.61746,4.81895 0.90341,0.64466 1.81595,1.41965 2.02786,1.72221 0.41082,0.5865 0.52866,2.38405 0.1708,2.60522 -0.11798,0.0729 -0.66053,-0.45231 -1.20569,-1.16717 z m 11.54281,-19.79528 c -0.19097,-0.0762 -0.66747,-0.85219 -1.0589,-1.72458 -0.79415,-1.76993 -1.10394,-2.10642 -2.19043,-2.37911 l -0.75,-0.18823 0.15761,1.33077 c 0.14061,1.18721 0.10503,1.33077 -0.32981,1.33077 -0.64992,0 -0.79003,-0.55134 -0.71473,-2.81218 l 0.0631,-1.89697 -1.09869,-0.97662 c -1.14032,-1.01361 -1.38397,-1.55264 -0.70182,-1.55264 0.69958,0 1.67391,0.81726 2.35031,1.97145 0.38349,0.65439 1.09064,1.36579 1.69554,1.70577 0.68574,0.3854 1.51544,1.27679 2.44639,2.62825 1.59144,2.31028 1.63512,3.16279 0.13133,2.56332 z m 4.41172,-3.06687 c -0.316,-0.22133 -0.57455,-0.52366 -0.57455,-0.67185 0,-0.71619 -0.89498,-2.0108 -1.68375,-2.43558 -1.09529,-0.58984 -1.41778,-0.31699 -0.8319,0.70383 0.57982,1.0103 0.56725,1.51346 -0.0378,1.51346 -0.77091,0 -1.16119,-0.70844 -1.33951,-2.43152 -0.0912,-0.88118 -0.33002,-1.94466 -0.53068,-2.36333 -0.43015,-0.89749 -1.80276,-1.6376 -3.07324,-1.65705 -0.49764,-0.007 -1.34039,-0.13483 -1.87277,-0.28266 -0.84683,-0.23519 -1.10566,-0.18839 -2.06812,0.37397 -0.60508,0.35356 -2.06358,0.92027 -3.24111,1.25939 l -2.14098,0.61655 2.45482,2.11617 c 1.65445,1.42619 2.40668,2.24157 2.30721,2.50083 -0.36773,0.95829 -1.73296,0.21109 -4.22208,-2.31078 l -1.93239,-1.9578 -1.73618,0 c -0.9549,0 -1.80808,0.11633 -1.89596,0.25851 -0.33123,0.53593 -0.64629,0.22658 -0.64629,-0.63458 0,-1.02827 -0.23558,-0.95528 4.60419,-1.42636 3.86695,-0.37639 5.25228,-0.91738 7.0342,-2.74692 1.77499,-1.82244 3.80531,-3.46461 4.28348,-3.46461 0.6435,0 0.39041,0.71653 -0.51837,1.46763 -1.45426,1.20192 -2.06238,2.10537 -1.70611,2.53465 0.61003,0.73505 2.32198,0.73078 4.65715,-0.0116 1.20856,-0.38423 3.51431,-0.84279 5.1239,-1.01901 2.69927,-0.29554 2.99033,-0.38142 3.74846,-1.10601 1.37114,-1.31049 5.4988,-2.2102 5.29763,-1.15473 -0.049,0.25747 -0.36353,0.48633 -0.72986,0.53115 -1.33868,0.16382 -3.25428,0.91324 -3.92007,1.53362 -0.58145,0.54177 -1.21484,0.72058 -3.98589,1.12528 -2.9016,0.42377 -5.79268,1.12644 -5.79268,1.40788 0,0.0534 0.29083,0.52558 0.64628,1.04937 0.35546,0.52379 0.64629,1.08907 0.64629,1.25618 0,0.16709 0.3814,0.4857 0.84756,0.70798 1.2939,0.61702 2.42521,1.66888 3.4412,3.19954 1.15654,1.74241 0.83757,2.53376 -0.61204,1.51843 z m -28.65938,-0.76147 c -0.25871,-0.67418 0.11449,-1.54033 1.43366,-3.32738 1.54452,-2.09232 1.71668,-2.75471 1.22736,-4.7225 -0.72637,-2.9211 -0.74131,-3.35869 -0.16071,-4.70829 0.64589,-1.50143 1.85139,-2.75811 2.43203,-2.53531 0.6319,0.24249 0.48434,0.72852 -0.63085,2.07808 -1.16521,1.41004 -1.18691,1.53364 -0.63891,3.63755 0.8163,3.13401 0.61161,3.9525 -2.12064,8.47975 -0.9192,1.52308 -1.2802,1.78017 -1.54194,1.0981 z m -14.19414,-2.47445 c -0.21352,-0.34548 0.78826,-1.44324 1.82145,-1.99593 1.15341,-0.61701 5.39437,-0.60073 6.54078,0.0251 1.81167,0.98901 1.22233,1.99168 -0.67684,1.15157 -1.85688,-0.82138 -5.66864,-0.37157 -6.3292,0.74688 -0.24671,0.41772 -1.11415,0.46402 -1.35619,0.0723 z m -5.6324,-5.32349 c -0.0948,-0.0948 -0.17236,-0.5075 -0.17236,-0.91715 0,-1.45156 2.0268,-2.52971 4.75559,-2.52971 1.59546,0 2.33572,-0.39741 2.72005,-1.46029 0.66872,-1.84929 2.62832,-3.4482 4.70317,-3.83743 0.64751,-0.12149 0.99948,-0.0619 1.22239,0.20658 0.26395,0.31805 0.13488,0.40394 -0.82276,0.54756 -2.2014,0.33011 -4.55664,3.25553 -4.19084,5.20538 0.22501,1.19944 -0.75087,2.2542 -1.97374,2.13328 -1.11928,-0.11068 -1.20008,-0.63678 -0.16361,-1.06529 l 0.85891,-0.35512 -1.72954,-0.18922 c -2.29011,-0.25056 -3.92312,0.38623 -4.17119,1.62658 -0.14967,0.74831 -0.62892,1.04198 -1.03607,0.63483 z m 1.56961,-8.38104 c -0.53395,-0.31091 -1.60058,-2.33264 -1.85733,-3.52046 -0.18846,-0.87187 -0.34958,-0.9636 -2.20032,-1.25257 -1.50894,-0.23562 -4.29968,-1.28527 -5.43975,-2.04602 -0.49764,-0.33206 -1.16655,-0.6814 -1.48646,-0.77629 -0.65454,-0.19416 -0.81394,-1.17177 -0.19106,-1.17177 0.21482,0 1.30521,0.5732 2.42305,1.27377 2.45623,1.53936 3.53167,1.85527 6.01476,1.76682 l 1.89995,-0.0676 0,1.85296 c 0,1.61886 0.0817,1.9408 0.64629,2.54796 0.35545,0.38224 0.91503,0.79876 1.2435,0.92558 0.32847,0.12683 0.52518,0.34716 0.43714,0.48961 -0.20396,0.33001 -0.90306,0.31971 -1.48977,-0.0219 z m 19.37794,-0.34385 c -0.6829,-0.36731 -1.47666,-0.66781 -1.76394,-0.66781 -0.35793,0 -0.49516,-0.14236 -0.43607,-0.4524 0.13979,-0.73346 1.19165,-0.68649 2.3636,0.10552 0.97865,0.6614 1.25677,0.72208 3.01689,0.65816 3.64791,-0.13241 5.09386,-0.90607 5.69303,-3.04603 0.38632,-1.37986 0.20529,-1.67189 -1.60519,-2.58933 -0.85637,-0.43395 -1.24418,-0.79028 -1.24418,-1.14315 0,-0.71142 0.37082,-0.64443 1.76734,0.31926 3.07031,2.11873 3.2576,2.7418 1.48006,4.92392 -1.54827,1.90065 -2.53683,2.33697 -5.57403,2.46009 -2.25081,0.0912 -2.55957,0.0437 -3.69751,-0.56823 z m -7.16011,-3.09398 c 0,-0.19692 0.30056,-0.55495 0.66787,-0.79564 0.85881,-0.5627 1.43892,-1.94905 1.23734,-2.95695 -0.45312,-2.26556 0.96437,-3.12871 5.46418,-3.32729 2.78719,-0.12299 2.88454,-0.10862 3.62853,0.53562 1.06823,0.925 0.60062,1.3905 -0.80545,0.80181 -1.24687,-0.52202 -3.75845,-0.37331 -5.6652,0.33546 -1.18414,0.44016 -1.30416,0.56304 -1.47156,1.50643 -0.10023,0.56495 -0.18896,1.46872 -0.19715,2.00836 -0.0189,1.24597 -0.94332,2.25026 -2.07126,2.25026 -0.49842,0 -0.7873,-0.13138 -0.7873,-0.35806 z m 33.2461,-1.20009 c -0.92427,-0.28015 -1.85537,-1.15594 -3.16056,-2.97289 -0.99955,-1.39144 -1.54582,-1.75153 -3.13242,-2.06481 -1.18133,-0.23327 -1.31114,-0.64257 -0.2038,-0.64257 1.46402,0 2.46246,0.57929 4.32584,2.50985 0.95356,0.98794 2.20744,2.00986 2.78639,2.27093 1.56324,0.70492 1.07876,1.41302 -0.61545,0.89949 z m -47.62607,-2.77198 c 0.25174,-1.84973 1.24902,-3.63205 3.09761,-5.53602 1.95567,-2.01426 3.54326,-3.00948 5.55692,-3.48343 1.93455,-0.45534 7.1497,-0.42895 9.73242,0.0493 1.13746,0.21062 2.91242,0.52374 3.94436,0.69587 1.04559,0.17439 1.83605,0.43006 1.78546,0.57749 -0.12766,0.37204 -2.99157,0.32071 -5.64033,-0.10107 -3.17793,-0.50605 -7.25037,-0.2639 -9.91304,0.58948 -3.78866,1.21427 -5.48722,2.71163 -7.13086,6.28619 -1.13039,2.45837 -1.69071,2.81908 -1.43254,0.92225 z m 26.27913,-3.91633 c -0.71619,-0.48291 0.0394,-0.67231 2.68255,-0.67231 2.51219,0 2.69363,-0.0371 3.61847,-0.74074 0.66695,-0.50742 1.05737,-0.65702 1.23946,-0.47493 0.38044,0.38044 0.0672,0.75545 -1.16728,1.39791 -0.83247,0.43324 -1.64598,0.58378 -3.53703,0.65456 -1.36382,0.0511 -2.62499,-0.0221 -2.83617,-0.16449 z m -77.79044,52.12932 c 0.21303,-0.17774 0.72493,-0.78847 1.13758,-1.35721 0.41266,-0.56873 0.92952,-1.18251 1.14858,-1.36395 0.64362,-0.5331 3.5969,-1.98914 5.8271,-2.8729 1.13746,-0.45075 2.87954,-1.21392 3.87128,-1.69594 0.99174,-0.48204 1.88748,-0.82433 1.9905,-0.76065 0.36782,0.22733 -0.84013,1.83719 -2.00759,2.67562 -1.36815,0.98252 -2.1715,2.15733 -2.17288,3.17765 -0.002,1.07046 0.96787,1.04872 2.21898,-0.0497 0.44539,-0.39107 1.49501,-1.09706 2.33249,-1.56889 0.83745,-0.47182 2.12495,-1.39126 2.8611,-2.04318 0.73615,-0.65192 1.65667,-1.42711 2.04563,-1.72262 0.64771,-0.49212 0.72182,-0.73134 0.88096,-2.84366 0.12125,-1.60936 0.39318,-2.85323 0.89982,-4.11596 1.08174,-2.69602 3.39547,-7.23647 4.82146,-9.46161 0.69249,-1.08057 1.25907,-2.02673 1.25907,-2.10259 0,-0.0759 -0.98678,-0.85487 -2.19286,-1.73115 -1.20607,-0.87627 -3.17033,-2.51847 -4.365,-3.64934 -1.1947,-1.13088 -2.22604,-2.05612 -2.29187,-2.05612 -0.0658,0 -0.18899,1.42504 -0.27368,3.16679 -0.0847,1.74174 -0.33176,4.0022 -0.54903,5.02324 -0.44687,2.10006 -2.09383,7.34419 -2.6442,8.41952 -0.31932,0.62389 -0.31557,0.71092 0.0306,0.71092 0.97563,0 0.0524,1.12696 -1.67371,2.043 -1.14715,0.6088 -2.14512,0.76731 -6.47104,1.0278 -3.34894,0.20166 -3.60803,0.25868 -6.07509,1.33709 -2.71052,1.18481 -4.58005,2.65579 -4.9117,3.86457 -0.15375,0.56045 -0.0104,0.48802 1.07871,-0.54537 1.93379,-1.83472 5.16076,-3.82487 6.23242,-3.84369 0.87313,-0.0153 0.11453,0.74635 -1.66788,1.67466 -2.97971,1.55191 -4.3039,2.69842 -5.13413,4.44528 -1.72695,3.63366 -2.60849,6.63837 -1.19646,4.0782 0.85799,-1.55562 2.97834,-4.61581 3.90671,-5.63827 0.78716,-0.86696 1.70779,-1.37825 3.37098,-1.87216 0.66903,-0.19869 1.7256,-0.70322 2.34792,-1.12117 0.62232,-0.41796 1.23015,-0.69893 1.35075,-0.6244 0.54685,0.33797 -0.68972,1.28031 -3.03357,2.31177 -1.40478,0.61819 -2.89129,1.44642 -3.30335,1.8405 -0.84863,0.8116 -2.79053,3.67938 -3.77058,5.56838 -0.54997,1.06007 -0.59592,1.30137 -0.28526,1.49797 0.60416,0.38231 0.67557,0.3145 1.4804,-1.40536 1.3975,-2.98637 3.31035,-4.65079 7.1863,-6.25287 1.26651,-0.52351 2.73899,-1.29646 3.27218,-1.71768 l 0.96942,-0.76585 0,0.65868 c 0,0.87846 -1.33004,1.76773 -3.94786,2.63956 -2.57436,0.85734 -3.85759,1.84217 -5.54204,4.25331 -1.36663,1.9562 -1.62725,2.68466 -1.04456,2.91977 0.61332,0.24749 1.64733,0.17024 2.03344,-0.15193 z m 214.94985,-16.85864 c 2.04661,-0.0105 2.39824,-0.19627 3.25397,-1.71885 0.30784,-0.54777 0.9966,-1.28504 1.53056,-1.63838 1.09324,-0.72348 2.49146,-2.61636 2.97994,-4.03416 0.26778,-0.77728 0.25443,-1.44348 -0.0755,-3.76123 -0.52181,-3.66554 -0.32428,-7.31335 0.68587,-12.66641 1.19718,-6.34428 0.9846,-8.96755 -0.8776,-10.82978 -0.54295,-0.54292 -0.89061,-0.64766 -2.14611,-0.64644 -2.2052,0.002 -3.26805,0.39399 -4.86949,1.7954 -2.65414,2.32256 -5.50076,3.29684 -10.36192,3.54649 -3.07916,0.15813 -3.16751,0.14709 -5.04105,-0.62992 -5.63362,-2.33645 -10.45594,-1.75761 -17.94754,2.1543 -3.88527,2.02879 -7.50538,3.19594 -10.03306,3.23477 -1.59805,0.0245 -1.34255,0.17425 0.74169,0.4346 1.21859,0.15222 1.56155,0.29507 1.63595,0.68143 0.0898,0.46609 -0.0724,0.48194 -3.48654,0.34051 -4.01486,-0.16631 -4.72577,-0.32413 -7.84617,-1.74176 -1.74032,-0.79063 -7.21166,-2.32034 -8.29923,-2.32034 -0.11869,0 0.36108,1.17966 1.06617,2.62146 0.70508,1.44183 1.42014,3.29049 1.58903,4.10818 l 0.30706,1.48667 3.50866,0.1056 c 2.8476,0.0857 3.73373,0.20726 4.70323,0.64507 1.32759,0.59954 1.71435,1.02396 1.30558,1.43275 -0.19112,0.19112 -0.56686,0.12765 -1.25712,-0.21236 -0.78494,-0.38664 -1.71819,-0.50344 -4.60372,-0.57615 l -3.61921,-0.0911 -0.0299,3.18931 c -0.0442,4.7261 -0.91995,7.76173 -3.20497,11.10931 l -1.03467,1.51579 1.38996,0 c 1.76104,0 5.21812,-0.59885 7.54471,-1.30691 3.20895,-0.9766 5.35172,-2.17391 7.62378,-4.2599 3.43944,-3.15777 5.39054,-4.26442 5.61623,-3.18549 0.0596,0.28539 -0.57354,0.89274 -1.92826,1.84933 -1.10942,0.78342 -2.30797,1.7426 -2.66344,2.13153 l -0.64628,0.70718 1.48112,-0.16688 c 3.2346,-0.36442 5.38384,-1.65619 7.19633,-4.32519 1.0484,-1.54384 1.68542,-2.09946 2.78375,-2.42801 0.5973,-0.17867 0.59895,-0.17345 0.15887,0.49818 -0.2446,0.3733 -0.39989,0.72331 -0.34507,0.77781 0.17252,0.17151 4.65225,-1.13736 7.10953,-2.07725 1.29614,-0.49575 3.44829,-1.54838 4.78252,-2.33919 3.78229,-2.24174 6.75714,-3.66142 8.9098,-4.25199 1.67774,-0.46028 2.5354,-0.52872 5.68639,-0.45379 3.02622,0.072 3.78949,0.16713 4.13789,0.51585 0.72949,0.73016 0.19608,0.99425 -2.00819,0.99425 l -2.08518,0 0.16635,0.84016 c 0.0914,0.4621 0.68769,1.59787 1.32489,2.52396 1.15104,1.67287 1.15851,1.698 1.15287,3.87772 -0.008,3.02341 -0.44624,3.8948 -3.03878,6.03965 -1.7074,1.41256 -2.1078,1.88902 -2.33296,2.7761 -0.29297,1.15421 -0.0423,2.27061 0.52386,2.33361 0.18125,0.0202 0.98611,0.0493 1.78858,0.0646 0.97206,0.0186 1.61938,0.17298 1.93945,0.46246 0.91771,0.83007 2.00452,1.26295 2.67659,1.06618 0.35548,-0.10407 1.47181,-0.19347 2.48078,-0.19866 z m -6.09997,-3.24998 c 0,-0.68816 0.73706,-1.80051 1.19305,-1.80051 0.46866,0 0.45437,0.61497 -0.0364,1.56393 -0.45205,0.87414 -1.15671,1.01827 -1.15671,0.23658 z m 5.42881,-0.54188 c -0.35546,-0.14284 -0.94924,-0.19993 -1.31948,-0.12688 -0.69509,0.13715 -1.26567,-0.21627 -1.26567,-0.78396 0,-0.53339 1.59568,-0.67746 2.82239,-0.25481 1.02979,0.35479 1.25627,0.34719 2.65814,-0.0891 1.26286,-0.39306 1.55631,-0.41478 1.66808,-0.12352 0.45645,1.18946 -2.67765,2.13606 -4.56346,1.37829 z m -55.85134,-4.38266 c -0.61208,-0.40167 0.32204,-0.92304 2.25773,-1.26012 0.93174,-0.16227 2.58173,-0.57854 3.66662,-0.92505 2.18176,-0.69687 3.7602,-0.83465 3.59113,-0.31349 -0.16966,0.52303 -1.68644,1.10794 -4.72078,1.82046 -3.78185,0.88808 -4.35195,0.96873 -4.7947,0.6782 z m 25.77748,-7.13038 c -0.50406,-0.50405 -0.10953,-0.86172 0.95049,-0.86172 1.40765,0 3.76559,-0.79927 5.3418,-1.81072 1.40747,-0.90319 2.06634,-0.98873 2.06634,-0.26829 0,1.30687 -7.39189,3.90747 -8.35863,2.94073 z m 0.73246,-4.48091 c -0.33125,-0.53598 0.21012,-0.77567 1.76022,-0.77937 3.98454,-0.009 11.29372,-2.61314 13.34897,-4.75505 0.98057,-1.02193 1.565,-1.18859 1.565,-0.44629 0,0.71117 -0.91848,1.75494 -2.21059,2.51217 -3.62409,2.12385 -13.78822,4.56132 -14.4636,3.46854 z m -12.79648,-0.85162 c -1.0158,-0.5139 -0.53467,-0.82754 1.29257,-0.84252 1.15147,-0.01 2.07718,-0.19254 2.94115,-0.58167 1.55334,-0.69961 1.71212,-0.70323 1.71212,-0.0389 0,1.2494 -4.28436,2.30368 -5.94584,1.46312 z m 47.03564,-6.95924 c -0.46754,-1.06258 -1.21385,-1.19932 -2.60059,-0.47649 -1.0491,0.54681 -1.52162,0.51899 -1.52162,-0.0896 0,-0.77682 1.05321,-1.30877 2.59129,-1.30877 1.24933,0 1.62978,0.11021 2.18675,0.63346 0.4508,0.4235 0.64898,0.84975 0.5979,1.28605 -0.11408,0.97474 -0.81616,0.94971 -1.25373,-0.0447 z m -13.38575,-0.46195 c -0.33183,-0.14164 -0.55455,-0.40309 -0.49494,-0.581 0.0763,-0.22762 0.83628,-0.32657 2.56487,-0.33399 2.11343,-0.009 2.67909,-0.11038 4.05023,-0.72572 1.59099,-0.71399 2.10932,-0.72154 2.10932,-0.0308 0,0.44464 -1.02127,0.98221 -2.58515,1.36082 -1.75625,0.42517 -4.96259,0.60158 -5.64433,0.31058 z m -55.54288,26.05558 c 0.57505,-0.1723 1.43327,-0.70097 1.90714,-1.17484 1.84004,-1.84004 3.66586,-6.7552 4.11812,-11.08612 0.21175,-2.02763 -0.31369,-6.83164 -0.95738,-8.75325 -0.28576,-0.8531 -1.24152,-2.59806 -2.12391,-3.87773 l -1.60433,-2.32662 -4.54944,-0.40529 c -5.42311,-0.48311 -5.88581,-0.68438 -9.19174,-3.99836 -2.69167,-2.69823 -4.5589,-3.93569 -7.55657,-5.00799 -2.38236,-0.85218 -2.68063,-1.19431 -1.1916,-1.36675 0.74157,-0.0858 0.70757,-0.12506 -0.77553,-0.8937 -1.91394,-0.99193 -5.97395,-2.30828 -8.23194,-2.669 -1.15182,-0.18402 -2.61965,-0.18801 -4.61337,-0.0126 -3.322,0.2923 -5.38079,0.76792 -7.09504,1.63914 l -1.18456,0.60199 1.21668,0.46466 c 1.1397,0.43525 1.29871,0.43816 2.51355,0.0458 1.68282,-0.54348 3.82265,-0.56587 3.82265,-0.0399 0,0.25926 -0.4066,0.4328 -1.28785,0.54971 -2.27351,0.30159 -2.31877,0.57837 -0.33233,2.03173 0.96219,0.70397 2.41999,1.7326 3.23956,2.28584 1.49299,1.00781 1.99983,1.60672 1.99983,2.36304 0,0.77723 -0.84957,0.39154 -3.11235,-1.41295 -4.4609,-3.55739 -8.85286,-5.4203 -11.85144,-5.02695 -2.80876,0.36845 -2.81873,0.37832 -1.02341,1.01342 3.09743,1.09573 12.76508,7.19898 14.4586,9.1278 1.03798,1.18219 2.31429,3.91691 3.10653,6.65627 0.47255,1.63398 0.60035,2.71932 0.60877,5.17029 l 0.0107,3.10217 -1.53979,2.71442 c -0.84689,1.4929 -1.89387,3.16271 -2.32663,3.71066 -0.88549,1.12118 -2.41989,2.09354 -3.73853,2.36915 -1.31764,0.27539 -0.47044,0.62338 1.97239,0.81017 2.33598,0.1786 3.51813,-0.18452 4.43997,-1.36384 3.33183,-4.2624 4.22199,-5.96646 4.74675,-9.08676 0.2192,-1.30346 0.18893,-2.04824 -0.15425,-3.79488 -0.52018,-2.64739 -0.5216,-2.72658 -0.0493,-2.72658 0.95454,0 1.53565,5.19061 0.89162,7.96411 -0.38856,1.6733 -2.84481,6.60756 -4.12398,8.28447 -0.58065,0.76119 -1.0193,1.41002 -0.9748,1.44184 0.0445,0.0318 0.47446,0.21477 0.95546,0.40658 0.48098,0.19179 1.19745,0.62044 1.59215,0.95256 0.3947,0.33213 1.20818,0.77693 1.80776,0.98847 1.4072,0.4965 4.87438,0.49189 6.71244,-0.009 3.12526,-0.85151 6.16943,-0.79488 13.70128,0.25486 3.20625,0.44689 4.49409,0.46562 5.76807,0.084 z m -25.2213,-2.84746 c -0.67538,-0.14075 -1.22426,-0.38875 -1.21974,-0.55109 0.0207,-0.74458 0.68467,-1.07282 2.31842,-1.14618 2.48242,-0.11149 3.61586,-0.49509 4.62678,-1.56591 l 0.89097,-0.94378 -1.84319,-0.18588 c -1.83883,-0.18542 -3.6781,-0.76574 -3.6706,-1.15813 0.0133,-0.69594 0.42573,-0.78631 2.05269,-0.44977 2.39656,0.49575 4.26067,0.4928 6.47433,-0.0102 2.71513,-0.61698 4.37265,-0.41912 7.15847,0.8544 3.5107,1.60492 4.97015,1.95058 8.28779,1.96291 2.53463,0.009 2.90829,0.066 2.90829,0.44051 0,0.61624 -0.52896,0.74354 -3.08946,0.74354 -3.08745,0 -6.03415,-0.55451 -10.41491,-1.95992 -4.52545,-1.45179 -4.62498,-1.43445 -7.66951,1.33625 -3.10284,2.82378 -4.08117,3.20206 -6.81033,2.63327 z m 9.02645,-14.59064 c -0.83046,-0.83046 1.84471,-6.29052 3.08208,-6.29052 0.54574,0 0.46165,0.30856 -0.66926,2.4559 -0.56873,1.07987 -1.03406,2.16468 -1.03406,2.41065 0,0.49715 -0.69244,1.59633 -1.00564,1.59633 -0.11042,0 -0.27831,-0.0776 -0.37312,-0.17236 z m 70.85609,13.46642 c 0.16029,-0.29505 1.14984,-1.30473 2.19901,-2.24372 1.88363,-1.68587 2.51736,-2.76309 2.51736,-4.27918 0,-0.29507 -0.62041,-1.80064 -1.37868,-3.3457 -0.7583,-1.54505 -1.4499,-3.08142 -1.53692,-3.41416 -0.1494,-0.57131 -0.24191,-0.59621 -1.66292,-0.44769 -0.82759,0.0865 -2.30008,0.40294 -3.2722,0.70319 -1.95734,0.60458 -1.87625,0.40655 -1.18069,2.88315 0.32936,1.17269 0.31538,1.25093 -0.44058,2.46701 -1.58216,2.54517 -1.5936,2.90097 -0.14487,4.50609 0.47861,0.5303 0.58248,0.8596 0.45465,1.44157 -0.23522,1.07092 0.2327,2.08601 1.19838,2.59973 0.45668,0.24295 1.18146,0.82469 1.61061,1.29277 l 0.78028,0.85103 0.28256,-1.2388 c 0.15541,-0.68135 0.41371,-1.48023 0.57401,-1.77529 z m -2.34431,1.01579 c -0.59479,-0.59478 0.62165,-2.93521 1.5256,-2.93521 0.52351,0 0.44945,0.61879 -0.13766,1.15012 -0.27635,0.25009 -0.5381,0.75355 -0.58165,1.11882 -0.0797,0.66832 -0.47642,0.99614 -0.80629,0.66627 z m 1.67242,-5.01007 c -1.01758,-0.71461 -1.85014,-1.4126 -1.85014,-1.55108 0,-0.68229 1.79779,0.047 2.82409,1.14548 0.4188,0.4483 0.89766,0.67085 1.44338,0.67085 0.98048,0 1.25743,0.219 0.86891,0.68713 -0.51854,0.62483 -1.40706,0.36732 -3.28624,-0.95238 z m -3.65975,-0.49588 c 0,-0.67135 1.12557,-1.95773 1.50682,-1.72211 0.21538,0.13311 0.15348,0.46988 -0.22142,1.20474 -0.54758,1.07332 -1.2854,1.3703 -1.2854,0.51737 z m -28.89931,-15.9286 c 4.10785,-0.61332 4.55871,-0.73544 6.1524,-1.6662 4.06219,-2.37245 9.85381,-4.48789 13.50333,-4.93226 3.15726,-0.3844 5.77542,-0.1369 9.9862,0.94403 4.03032,1.03461 5.03759,1.08089 7.43799,0.34173 2.64927,-0.81581 3.13246,-1.12965 3.43908,-2.23372 0.6164,-2.21958 0.0256,-4.57187 -1.44051,-5.73627 -0.67171,-0.53344 -0.93741,-0.5774 -2.75589,-0.45591 -2.09063,0.13968 -2.13513,0.15952 -4.41741,1.97002 -1.84899,1.46677 -6.25391,2.6236 -11.49718,3.01943 -1.97615,0.14918 -2.37925,0.25499 -2.5072,0.65812 -0.23007,0.72489 -0.59853,0.60667 -2.94168,-0.9438 -2.87323,-1.90125 -5.03043,-2.55895 -8.42134,-2.56754 -2.20364,-0.006 -3.00431,0.12093 -5.42548,0.8572 -2.83864,0.86324 -5.7186,2.16736 -8.04652,3.64369 -0.6794,0.43087 -1.03802,0.7834 -0.79691,0.7834 0.70131,0 0.50585,0.7623 -0.27255,1.06284 -1.55228,0.59933 -6.11116,-0.33025 -9.62966,-1.96352 -2.50207,-1.16145 -4.06634,-1.52341 -7.83135,-1.8121 l -2.01475,-0.15448 0.51583,1.01112 c 0.28371,0.55611 0.65158,1.55024 0.8175,2.20918 0.16593,0.65892 0.43329,1.20543 0.59414,1.2144 5.05774,0.2828 5.85976,0.4125 6.56144,1.06114 0.53926,0.49849 1.30284,0.76842 3.16264,1.11802 2.8382,0.53348 6.64212,1.60483 9.05217,2.54943 0.92419,0.36222 1.82944,0.66429 2.01168,0.67123 0.18224,0.007 2.32605,-0.28518 4.76403,-0.64918 z m -7.03422,-3.06237 c 0,-0.24394 0.44644,-0.42114 1.3572,-0.53872 2.52041,-0.32534 4.39473,-0.93547 7.20758,-2.34616 3.01903,-1.51411 4.61946,-1.83389 4.61946,-0.92299 0,0.37481 -0.25722,0.51716 -1.15767,0.64057 -0.63674,0.0872 -2.11996,0.64263 -3.29607,1.23412 -3.44466,1.73239 -5.17836,2.29668 -7.05605,2.29668 -1.2664,0 -1.67445,-0.0886 -1.67445,-0.3635 z m 42.40369,-4.18839 c -1.05368,-0.72601 -1.32628,-0.7517 -2.3514,-0.22159 -0.69097,0.35732 -0.78264,0.35699 -0.92089,-0.004 -0.27503,-0.71674 0.40531,-1.16907 1.7584,-1.16907 1.51749,0 2.79916,0.58789 2.79916,1.28396 0,0.75892 -0.30549,0.78506 -1.28527,0.10999 z m -63.60615,0.3344 c -0.74936,-2.00288 -2.46863,-3.44214 -4.56095,-3.81823 -0.83043,-0.14926 -2.06246,-0.43182 -2.73784,-0.62789 -0.67537,-0.1961 -1.22794,-0.31211 -1.22794,-0.25782 0,0.0543 0.90156,0.8229 2.00348,1.70802 1.10193,0.8851 2.53382,2.11687 3.18201,2.73724 1.11575,1.06786 3.64751,2.33346 3.80758,1.90334 0.0409,-0.10982 -0.16898,-0.84992 -0.46634,-1.64466 z"
       id="path3012"
       inkscape:connector-curvature="0" />
  </g>
</svg>
