<?xml version="1.0" encoding="UTF-8" standalone="no"?>
<!-- Created with Inkscape (http://www.inkscape.org/) -->

<svg
   xmlns:dc="http://purl.org/dc/elements/1.1/"
   xmlns:cc="http://creativecommons.org/ns#"
   xmlns:rdf="http://www.w3.org/1999/02/22-rdf-syntax-ns#"
   xmlns:svg="http://www.w3.org/2000/svg"
   xmlns="http://www.w3.org/2000/svg"
   xmlns:xlink="http://www.w3.org/1999/xlink"
   xmlns:sodipodi="http://sodipodi.sourceforge.net/DTD/sodipodi-0.dtd"
   xmlns:inkscape="http://www.inkscape.org/namespaces/inkscape"
   width="335.44565"
   height="223.6214"
   id="svg2"
   version="1.1"
   inkscape:version="0.48.3.1 r9886"
   sodipodi:docname="Push-ups-2.svg"
   inkscape:export-filename="/home/christian/Dokumente/Website/opentraining/cc_exercises/Push-ups-2.png"
   inkscape:export-xdpi="149.35077"
   inkscape:export-ydpi="149.35077">
  <defs
     id="defs4">
    <filter
       inkscape:collect="always"
       id="filter5427"
       x="-0.28619286"
       width="1.5723857"
       y="-0.28619286"
       height="1.5723857"
       color-interpolation-filters="sRGB">
      <feGaussianBlur
         inkscape:collect="always"
         stdDeviation="15.757641"
         id="feGaussianBlur5429" />
    </filter>
    <radialGradient
       gradientUnits="userSpaceOnUse"
       gradientTransform="matrix(1,0,0,0.91819829,-19.285714,-7.9105395)"
       r="209.56604"
       fy="287.50052"
       fx="398.1105"
       cy="287.50052"
       cx="398.1105"
       id="radialGradient5255"
       xlink:href="#linearGradient5249"
       inkscape:collect="always" />
    <linearGradient
       id="linearGradient5249"
       inkscape:collect="always">
      <stop
         id="stop5251"
         offset="0"
         style="stop-color:#e3e3e3;stop-opacity:1;" />
      <stop
         id="stop5253"
         offset="1"
         style="stop-color:#e3e3e3;stop-opacity:0;" />
    </linearGradient>
  </defs>
  <sodipodi:namedview
     id="base"
     pagecolor="#ffffff"
     bordercolor="#666666"
     borderopacity="1.0"
     inkscape:pageopacity="0.0"
     inkscape:pageshadow="2"
     inkscape:zoom="1.979899"
     inkscape:cx="-80.870151"
     inkscape:cy="145.89636"
     inkscape:document-units="px"
     inkscape:current-layer="layer1"
     showgrid="false"
     showguides="true"
     inkscape:guide-bbox="true"
     fit-margin-top="0"
     fit-margin-left="0"
     fit-margin-right="0"
     fit-margin-bottom="0"
     inkscape:window-width="1615"
     inkscape:window-height="1026"
     inkscape:window-x="65"
     inkscape:window-y="24"
     inkscape:window-maximized="1">
    <sodipodi:guide
       orientation="-0.70710678,0.70710678"
       position="-1700.8536,586.40588"
       id="guide2985" />
  </sodipodi:namedview>
  <metadata
     id="metadata7">
    <rdf:RDF>
      <cc:Work
         rdf:about="">
        <dc:format>image/svg+xml</dc:format>
        <dc:type
           rdf:resource="http://purl.org/dc/dcmitype/StillImage" />
        <dc:title />
      </cc:Work>
    </rdf:RDF>
  </metadata>
  <g
     inkscape:label="Ebene 1"
     inkscape:groupmode="layer"
     id="layer1"
     transform="translate(-272.28216,-389.43236)">
    <path
       style="fill:#000000"
       d="m 379.33305,575.90103 c -0.33611,-0.48443 -0.77908,-0.6014 -2.27753,-0.6014 -1.08124,0 -2.13181,-0.17903 -2.50874,-0.42752 -0.44054,-0.29043 -1.13684,-0.3756 -2.17143,-0.26563 -1.9744,0.20987 -3.34194,-0.7143 -3.43042,-2.31824 -0.0375,-0.67976 -0.32197,-1.24067 -0.80949,-1.59613 -0.51414,-0.37486 -0.75167,-0.87284 -0.75167,-1.57582 0,-0.83377 0.28874,-1.26954 1.52969,-2.30861 0.84134,-0.70446 1.90694,-1.94262 2.368,-2.75146 0.46106,-0.80885 1.78252,-2.29732 2.93657,-3.30771 1.15405,-1.0104 3.59849,-3.14867 5.43208,-4.75172 1.83359,-1.60305 3.6949,-2.98961 4.13625,-3.08124 0.44134,-0.0916 2.90713,-0.29621 5.47953,-0.45462 6.37149,-0.39235 8.49394,-1.16599 9.01089,-3.28448 0.42689,-1.74945 -1.46232,-8.22819 -3.05122,-10.46369 -0.33244,-0.46772 -1.91412,-2.51477 -3.51485,-4.549 -2.981,-3.78829 -3.90189,-5.50351 -4.60767,-8.58206 l -0.40261,-1.75613 -0.72272,0.61113 c -1.24048,1.04893 -4.38443,2.15703 -6.66357,2.3486 -2.12127,0.17829 -2.19157,0.2125 -3.3793,1.64448 -0.66713,0.80432 -1.82895,1.82931 -2.5818,2.27774 -2.67428,1.59295 -9.77047,1.21757 -14.47963,-0.76595 -2.5296,-1.06548 -4.26183,-2.62372 -5.63953,-5.0731 -0.97665,-1.73637 -1.29117,-2.00558 -4.46458,-3.82155 -1.87764,-1.07448 -4.17468,-2.24817 -5.10452,-2.60822 -1.02402,-0.39651 -2.26669,-1.23134 -3.15165,-2.11728 -1.71837,-1.72029 -2.64953,-1.85962 -4.90823,-0.73439 -0.80405,0.40056 -2.64705,1.03557 -4.09555,1.41115 -3.76212,0.97546 -4.73849,1.87089 -5.05103,4.63228 -0.2806,2.47925 -1.13469,4.42492 -2.22291,5.06395 -1.12296,0.65943 -3.75818,1.13049 -6.46226,1.15516 -2.80697,0.0256 -6.35683,-1.035 -12.0256,-3.59296 -5.05266,-2.27995 -6.95338,-3.42439 -9.77611,-5.88627 -2.67127,-2.32979 -3.78078,-3.83231 -4.88926,-6.62113 -0.70901,-1.7838 -0.78476,-1.858 -2.0561,-2.01413 -1.73573,-0.21316 -3.47066,-1.16207 -3.71288,-2.03074 -0.10665,-0.38248 0.20021,-1.94544 0.6819,-3.47325 0.4817,-1.52782 0.87582,-3.25332 0.87582,-3.83445 0,-1.59188 1.57545,-3.57302 4.00043,-5.03058 1.14527,-0.68837 2.49723,-1.76714 3.00436,-2.39728 2.28968,-2.84501 7.63166,-5.91304 11.70359,-6.72164 1.01059,-0.20068 3.34078,-0.37414 5.17821,-0.38546 2.7516,-0.017 3.61635,0.0941 4.90326,0.62939 1.42187,0.59146 1.58207,0.60499 1.78016,0.15035 0.11973,-0.27479 0.35715,-2.68628 0.52761,-5.35887 0.33833,-5.30468 0.99528,-7.92674 3.17171,-12.65914 2.8195,-6.13072 3.69955,-7.18225 9.60877,-11.48124 2.05042,-1.4917 4.06168,-3.157 4.46946,-3.70066 1.62331,-2.16421 3.12099,-3.11539 5.66817,-3.59985 2.234,-0.4249 2.49365,-0.41912 3.7404,0.0833 1.02041,0.41121 1.5431,0.90111 2.19292,2.05535 0.46925,0.83351 0.85434,1.6891 0.85576,1.90133 0.001,0.21223 0.74475,1.71524 1.65185,3.34001 1.82135,3.26236 2.50861,5.58206 2.1703,7.3254 -0.12243,0.63091 -0.78655,2.09431 -1.47583,3.25201 -1.20869,2.03008 -2.83626,5.82593 -2.59221,6.04559 0.10849,0.0977 2.97268,-0.30783 7.53668,-1.06698 1.83403,-0.30506 16.26644,0.25939 22.67213,0.88671 4.02455,0.39413 11.61017,-0.4898 16.97249,-1.97775 2.02117,-0.56084 5.87528,-1.35646 8.56469,-1.76803 5.78643,-0.88554 7.67667,-1.5007 10.12362,-3.29464 1.23031,-0.90199 2.61477,-1.56286 4.26195,-2.03443 1.86449,-0.5338 2.98987,-1.11108 4.77332,-2.44856 7.5726,-5.67897 16.75315,-6.41933 30.67281,-2.4736 3.47392,0.98474 4.28659,1.10822 6.8486,1.04064 5.50988,-0.14533 6.68967,-0.0658 7.82701,0.52735 0.99352,0.51819 1.29165,0.53628 3.26487,0.19813 3.50722,-0.60103 8.02678,-0.47378 12.69497,0.35743 2.29679,0.40896 4.94231,0.74408 5.87894,0.74472 1.59351,10e-4 1.88972,-0.1293 4.6086,-2.02858 8.36276,-5.84181 11.76306,-7.66757 16.42854,-8.82114 2.29077,-0.5664 3.19309,-0.63213 6.65878,-0.48501 2.20492,0.0936 5.32285,0.39659 6.92874,0.6733 l 2.9198,0.50313 4.05404,-0.81155 c 2.22973,-0.44636 4.97487,-1.12451 6.10032,-1.507 3.53393,-1.20106 10.55146,-5.05448 11.84744,-6.50561 1.98897,-2.22706 7.5866,-3.36249 10.34034,-2.09745 2.13901,0.98264 3.40098,2.82136 4.08537,5.95254 l 0.40355,1.84628 1.97505,-1.30869 c 2.55416,-1.69241 5.3767,-2.66001 7.05806,-2.4196 2.68155,0.38343 3.85103,1.0425 5.07934,2.86249 1.87393,2.77664 2.51065,5.81144 2.51343,11.97981 0.003,6.52129 0.41344,10.04392 1.71758,14.73895 1.6873,6.07441 1.20277,7.40613 -5.08982,13.98932 -0.7468,0.78129 -1.21656,0.95186 -3.34078,1.21302 -1.35949,0.16714 -3.46783,0.31257 -4.6852,0.32318 -1.88835,0.0164 -2.39928,-0.0998 -3.47913,-0.7918 -0.95026,-0.60894 -1.41311,-0.7401 -1.85709,-0.52623 -0.32525,0.15668 -1.14725,0.28487 -1.82667,0.28487 -0.97901,0 -1.46411,-0.21836 -2.33808,-1.05245 -0.60652,-0.57885 -1.21142,-1.05246 -1.34422,-1.05246 -0.13281,0 -0.74465,-0.34545 -1.35966,-0.76768 -0.61501,-0.42222 -1.60638,-0.91457 -2.20304,-1.0941 -1.98065,-0.59598 -3.59043,-2.38894 -3.59043,-3.999 0,-0.51735 -0.44853,-1.16277 -1.33632,-1.92292 -1.59239,-1.36347 -1.69189,-2.24196 -0.651,-5.74784 0.64178,-2.16158 0.64566,-2.30521 0.0935,-3.45806 -0.31683,-0.66154 -0.60448,-1.24369 -0.63921,-1.29367 -0.1958,-0.28177 -6.36402,3.67854 -8.49158,5.45203 -3.20367,2.67051 -7.05363,4.92445 -12.92855,7.56898 -3.80779,1.71403 -4.71217,2.2445 -4.87019,2.85666 -0.20672,0.80082 -3.70474,3.55743 -6.47565,5.10313 -0.88917,0.49601 -2.64438,1.12916 -3.90046,1.40701 -1.72646,0.38189 -2.86785,0.89447 -4.67709,2.10041 -4.60459,3.06914 -11.68258,5.98806 -17.42896,7.18758 -1.23213,0.25721 -2.56752,0.66066 -2.96752,0.89656 -1.08954,0.64257 -4.63568,0.99875 -12.06387,1.21172 -7.19297,0.20621 -10.37225,0.71944 -13.02905,2.10325 -1.43128,0.74549 -5.99708,1.6408 -8.36758,1.6408 -0.79484,0 -2.99568,-0.34353 -4.89075,-0.76341 -2.77615,-0.61508 -4.24245,-0.76046 -7.54712,-0.74825 -3.12448,0.0115 -4.3467,-0.099 -5.13068,-0.46387 -0.56602,-0.26346 -1.35119,-0.40524 -1.74482,-0.31507 -0.39364,0.0902 -2.11987,1.22931 -3.83608,2.53142 -3.43141,2.60345 -13.93575,8.73922 -16.19067,9.45726 -0.14773,0.047 0.0453,1.63922 0.42885,3.53817 1.15053,5.69554 1.42677,10.78174 0.84299,15.52107 -0.27617,2.24204 -0.50213,5.60533 -0.50213,7.47396 0,3.82532 -0.45582,8.52367 -1.15265,11.88087 -0.25745,1.24039 -0.56214,3.33778 -0.67708,4.66086 -0.1582,1.82108 -0.40513,2.67447 -1.01626,3.5121 -1.86992,2.56302 -7.09067,4.72072 -13.69088,5.65836 -3.34003,0.47449 -5.3684,1.42138 -8.38157,3.9127 -4.06924,3.36448 -5.16298,3.90644 -7.8838,3.90644 -1.9085,0 -2.33681,-0.0958 -2.68758,-0.6014 z m 7.56589,-3.36505 c 2.19539,-1.99875 5.76827,-4.23384 7.79864,-4.87863 0.69575,-0.22095 2.23878,-0.50199 3.42895,-0.62454 3.18018,-0.32746 7.61056,-1.56002 9.47979,-2.63735 0.90008,-0.51877 2.06518,-1.55162 2.5891,-2.29522 0.8131,-1.15402 0.95344,-1.66262 0.95839,-3.47321 0.003,-1.16666 0.22896,-3.06842 0.50172,-4.22612 0.75672,-3.21193 1.08519,-7.17611 1.51983,-18.34275 l 0.39795,-10.22383 -0.8583,-4.51051 c -0.67523,-3.54841 -1.50542,-6.26631 -3.89211,-12.74201 -1.66859,-4.52731 -3.33244,-8.60899 -3.69746,-9.07039 -0.36501,-0.4614 -1.33933,-1.13331 -2.16515,-1.49315 -1.41659,-0.61724 -1.93349,-0.65217 -9.14039,-0.61769 -4.20139,0.0201 -8.0723,0.15429 -8.60204,0.29818 -0.52973,0.1439 -2.692,1.00521 -4.80504,1.91403 -7.49978,3.22565 -11.37798,4.00808 -11.6387,2.3481 -0.10292,-0.65527 -0.0221,-0.70311 0.90576,-0.53608 1.12668,0.20283 1.49109,-0.0482 1.03569,-0.71336 -0.20712,-0.30254 -1.14969,-0.48288 -3.06818,-0.58705 -2.49081,-0.13523 -2.76921,-0.21081 -2.76921,-0.75175 0,-0.55985 0.19236,-0.59574 2.78425,-0.51943 1.96504,0.0578 3.16266,0.25573 4.07039,0.67255 2.13358,0.97973 4.53822,0.33659 11.51966,-3.081 1.83586,-0.89869 2.22928,-0.97636 4.6771,-0.92328 10.59312,0.22969 11.03478,0.20676 12.81459,-0.66515 2.2479,-1.10122 3.19357,-2.08477 3.89754,-4.05367 0.56721,-1.58635 2.9066,-4.20981 3.75397,-4.20981 0.95445,0 0.62069,1.15621 -1.08822,3.7698 -1.01133,1.54671 -1.83878,2.88737 -1.83878,2.97926 0,0.0919 1.91678,0.16546 4.2595,0.16349 5.33677,-0.004 7.23735,-0.42753 9.31471,-2.0734 0.85436,-0.67691 1.83288,-1.23074 2.1745,-1.23074 1.09952,0 0.69178,1.112 -0.79871,2.17824 -3.4172,2.44453 -5.83366,3.24701 -8.76955,2.91227 -2.48822,-0.2837 -7.28129,-0.34175 -7.99055,-0.0968 -0.80919,0.27949 -0.63104,0.62594 0.41909,0.81498 0.52115,0.0938 1.58845,0.65255 2.37179,1.24162 0.83317,0.62654 1.9476,1.14638 2.68526,1.25255 2.05918,0.29637 3.9895,1.46405 4.55511,2.75543 0.02,0.0455 0.77161,-0.20318 1.67039,-0.55262 1.8607,-0.72343 4.16435,-0.62717 5.20109,0.21733 1.30707,1.06471 0.29759,2.02697 -1.19992,1.14379 -1.01929,-0.60114 -2.61233,-0.41897 -3.85498,0.44084 l -0.81981,0.56724 1.65501,0.19708 c 0.91025,0.1084 1.88051,0.22417 2.15612,0.25727 0.27562,0.0331 0.50112,0.32896 0.50112,0.65746 0,0.83101 -1.45499,0.93182 -3.56977,0.24733 -1.74867,-0.56598 -3.27883,-1.86516 -3.27883,-2.78387 0,-0.29245 -0.27285,-0.75398 -0.60633,-1.02562 -0.68797,-0.5604 -2.68102,-1.25115 -2.93928,-1.01869 -0.58308,0.52483 3.85631,14.34951 4.60792,14.34951 1.23786,0 13.44771,-6.37548 14.59704,-7.62197 1.20133,-1.30289 9.70053,-5.60887 11.07087,-5.60887 0.48951,0 1.66642,-1.70617 1.66642,-2.41581 0,-0.15977 -0.48859,-0.29643 -1.08575,-0.30369 -1.37154,-0.0167 -3.4406,-0.6729 -4.28161,-1.35797 -0.62894,-0.51232 -0.91766,-2.23724 -0.37447,-2.23724 0.14937,0 0.70367,0.40594 1.23178,0.9021 0.89359,0.83952 1.12783,0.9021 3.37643,0.9021 l 2.41624,0 0.54805,-1.48518 c 0.35777,-0.96952 0.56175,-2.61386 0.58751,-4.73603 0.045,-3.70767 -0.4617,-5.36217 -2.62905,-8.58445 -2.69572,-4.00783 -6.204,-6.55986 -11.98298,-8.71677 -6.26612,-2.33872 -5.69169,-2.26621 -8.36276,-1.05579 -3.2074,1.45347 -5.06729,1.93691 -5.59573,1.4545 -0.57091,-0.52118 0.39239,-1.10849 2.82643,-1.72321 1.7497,-0.44189 2.94032,-1.11972 2.56314,-1.45921 -0.0798,-0.0718 -1.47197,-0.3389 -3.09365,-0.59345 l -2.94853,-0.4628 -3.05087,1.02053 c -2.22931,0.74572 -4.00052,1.10191 -6.57736,1.32274 -2.89147,0.2478 -4.61412,0.63363 -9.56676,2.14273 -5.51869,1.68158 -6.37926,1.86006 -9.96567,2.06693 -2.15896,0.12453 -5.14517,0.11303 -6.63603,-0.0256 -1.49085,-0.13859 -4.28916,-0.29321 -6.21847,-0.34361 -1.9293,-0.0504 -4.485,-0.24187 -5.67933,-0.4255 -5.56275,-0.85528 -13.06045,-0.36675 -20.21173,1.31692 -1.65368,0.38935 -3.71189,0.79731 -4.57379,0.9066 -1.39161,0.17645 -1.66283,0.11252 -2.42207,-0.57086 -0.47024,-0.42325 -0.85497,-0.91527 -0.85497,-1.09336 0,-0.53651 0.99721,-0.70968 1.81585,-0.31533 0.59909,0.2886 1.2018,0.29284 2.73361,0.0192 3.14645,-0.56198 3.00429,-0.46493 3.03118,-2.06934 0.0286,-1.70848 0.33219,-2.29109 2.45155,-4.70529 3.1039,-3.5357 3.0235,-4.17322 -1.7138,-13.59021 -0.34903,-0.69382 -0.6346,-1.52297 -0.6346,-1.84256 0,-0.3196 -0.2196,-0.74513 -0.48801,-0.94563 -0.76753,-0.57336 -2.9192,-0.71349 -4.07383,-0.26533 -0.57515,0.22324 -2.80124,2.06783 -4.94688,4.0991 -4.89943,4.63827 -5.50879,5.71675 -5.87914,10.40521 -0.30556,3.86831 -0.73119,5.09959 -2.97658,8.61071 -3.61777,5.65713 -3.68481,7.52357 -0.47761,13.29648 0.85093,1.53164 1.59191,2.82945 1.64662,2.88401 0.0547,0.0546 0.49305,-0.13292 0.97408,-0.41661 1.02841,-0.60652 1.34524,-0.43839 1.06536,0.56535 -0.35619,1.27739 -3.13102,2.14218 -6.76608,2.10869 l -3.04665,-0.0281 -2.04584,-1.81307 c -3.6668,-3.2496 -6.8572,-3.99024 -12.09019,-2.80667 -6.20469,1.40335 -10.29957,4.27438 -12.99224,9.10923 -1.76901,3.17636 -2.03866,5.40301 -1.21354,10.02121 0.69149,3.87033 1.95398,6.23169 4.65787,8.71212 2.67343,2.45249 5.81775,4.25336 11.65737,6.67661 7.94209,3.29572 8.91163,3.49715 12.27351,2.54995 1.76406,-0.49702 1.86698,-0.58451 2.57771,-2.19132 0.90121,-2.03745 1.7653,-7.6955 1.7653,-11.55914 l 0,-2.84746 -1.50335,-0.95379 c -0.82684,-0.52458 -1.50335,-1.06306 -1.50335,-1.1966 0,-0.45862 1.41363,-0.24218 2.71364,0.41546 2.03485,1.02939 2.41006,1.78202 2.63116,5.27781 0.10712,1.69368 0.35182,3.22078 0.54377,3.39356 0.44311,0.39884 4.76126,-1.00283 8.32477,-2.70222 2.79031,-1.33066 3.51266,-1.45468 4.30721,-0.73952 0.64674,0.58213 0.39514,1.02821 -0.57993,1.02821 -0.61005,0 -0.41629,0.28079 1.19313,1.72903 l 1.92147,1.72903 4.42239,0.004 c 5.40777,0.005 7.97915,0.60454 8.62578,2.00969 0.21813,0.47399 0.3178,0.93273 0.22149,1.01942 -0.0963,0.0867 -1.50064,-0.18829 -3.12074,-0.61105 -1.62011,-0.42276 -3.32798,-0.76267 -3.79529,-0.75536 -0.761,0.0119 -0.71023,0.0782 0.48668,0.63524 0.73497,0.34208 1.76394,0.97885 2.28659,1.41505 0.97254,0.81165 2.89162,3.89976 2.89162,4.65306 0,0.69564 1.32098,1.98442 2.66801,2.60296 1.87923,0.86294 6.51675,1.8679 8.70523,1.88646 3.26276,0.0277 4.83517,-0.5551 7.42019,-2.75004 1.27078,-1.07902 2.67605,-2.61115 3.12283,-3.40473 0.44677,-0.79358 0.96012,-1.44288 1.14077,-1.44288 0.18064,0 0.32845,0.54126 0.32845,1.2028 0,1.16563 0.0348,1.20281 1.12727,1.20281 3.06999,0 6.41293,-1.97336 8.13739,-4.80357 1.32108,-2.16817 2.65274,-3.61606 3.32577,-3.61606 0.66939,0 0.52309,1.15354 -0.27411,2.16125 -1.68659,2.13196 -2.47421,6.89875 -1.58251,9.57763 0.20756,0.62357 0.95016,1.78945 1.65021,2.59084 5.03233,5.76081 6.41193,7.85385 7.78826,11.81586 2.33897,6.73321 1.93387,8.83191 -1.96502,10.18008 -1.41355,0.48879 -8.34853,1.56266 -10.09151,1.56266 -1.9926,0 -3.51176,0.63425 -4.60268,1.92163 -0.50492,0.59584 -2.38522,2.23345 -4.17844,3.63915 -1.79323,1.40569 -3.8363,3.33439 -4.54015,4.286 -0.70385,0.95161 -2.11317,2.51676 -3.1318,3.47812 l -1.85207,1.74791 0.7949,0.58705 c 0.92437,0.68266 1.43125,0.44755 2.27231,-1.05397 0.28467,-0.5082 1.55634,-2.17677 2.82595,-3.70792 1.80769,-2.18007 2.86817,-3.12581 4.88917,-4.36016 1.41944,-0.86694 3.40764,-2.34228 4.41823,-3.27855 1.98688,-1.84076 3.12106,-2.4974 3.868,-2.2394 0.81349,0.28097 0.52904,0.73049 -0.95889,1.51536 -0.78865,0.416 -1.76908,1.16442 -2.17873,1.66314 -0.40965,0.49873 -2.10177,1.72803 -3.76025,2.73178 -2.57093,1.55597 -3.38242,2.26885 -5.50507,4.83605 -1.3693,1.65608 -2.48964,3.13633 -2.48964,3.28944 0,0.1531 -0.53834,0.81471 -1.1963,1.47024 -0.66172,0.65927 -1.14557,1.42891 -1.08279,1.72234 0.14901,0.69646 1.53548,1.30308 2.35478,1.03029 0.96234,-0.32043 4.18329,-3.84918 5.28109,-5.78575 0.57752,-1.0188 1.53096,-2.08882 2.39494,-2.6878 0.78949,-0.54733 2.41278,-1.8294 3.60732,-2.84903 1.19455,-1.01964 2.48717,-1.94395 2.87249,-2.05403 0.38533,-0.11008 0.86722,-0.52932 1.07088,-0.93165 0.49682,-0.98146 2.17163,-1.7175 3.65079,-1.60444 1.69248,0.12937 1.8611,0.84264 0.20061,0.84861 -1.47672,0.005 -1.86331,0.18584 -2.41425,1.12741 -0.21915,0.37454 -1.03092,1.03552 -1.80393,1.46887 -0.773,0.43334 -2.23761,1.48006 -3.25468,2.32604 -1.01708,0.84598 -2.2628,1.84598 -2.76829,2.22223 -0.50548,0.37625 -1.61079,1.66175 -2.45624,2.85666 -0.84545,1.19491 -2.15542,2.75684 -2.91105,3.47095 l -1.37386,1.29838 0.78868,0.581 c 1.11042,0.81802 2.56411,0.74606 3.44975,-0.17075 0.92395,-0.95647 1.39586,-0.95946 1.1937,-0.008 -0.17188,0.80928 0.47171,1.51247 1.58351,1.73015 1.18817,0.23264 2.90408,-0.6392 4.98277,-2.53168 z m -4.14758,-2.14637 c 0,-0.85596 2.22092,-3.34714 4.80696,-5.39192 1.49039,-1.17845 2.97296,-2.52589 3.29459,-2.99431 0.86899,-1.26558 3.15012,-1.87891 3.49729,-0.94033 0.0707,0.19108 -0.40552,0.50605 -1.05822,0.69994 -0.78571,0.2334 -1.25269,0.58908 -1.38193,1.05257 -0.11032,0.39563 -1.38199,1.54659 -2.92442,2.64681 -1.50107,1.07073 -3.32993,2.70077 -4.06414,3.62233 -1.28398,1.6116 -2.17013,2.14445 -2.17013,1.30491 z m 25.89106,-14.06186 c -0.55122,-0.32184 -0.98279,-0.68406 -0.95903,-0.80494 0.0238,-0.12089 0.3007,-1.28307 0.61543,-2.58264 0.74352,-3.07005 1.21681,-2.65733 1.28993,1.12486 0.0307,1.59063 0.0559,2.88212 0.0559,2.86997 0,-0.0122 -0.45101,-0.28541 -1.00224,-0.60725 z m -7.38926,-19.27473 c -0.13531,-0.19706 -0.29224,-2.01958 -0.34872,-4.05003 -0.17755,-6.38233 -1.80024,-11.3665 -3.81887,-11.72989 -0.74495,-0.1341 -0.97108,-0.34111 -0.97108,-0.88897 0,-2.00574 3.08353,0.52166 4.48738,3.67805 1.96849,4.42593 2.87997,13.34913 1.36357,13.34913 -0.25644,0 -0.57697,-0.16123 -0.71228,-0.35829 z m -43.33221,-16.85683 c -0.31318,-1.17029 0.30212,-3.13119 1.40717,-4.48452 1.88793,-2.31212 5.04894,-4.11169 5.04894,-2.87437 0,0.21128 -0.87981,1.08123 -1.95515,1.93321 -2.22085,1.75957 -3.05602,3.09039 -3.05602,4.86972 0,1.00852 -0.11486,1.23253 -0.63194,1.23253 -0.37898,0 -0.70442,-0.27082 -0.813,-0.67657 z m 37.52539,-4.3404 c 0,-0.9901 -1.11793,-3.13155 -2.01721,-3.86408 -0.93918,-0.76502 -2.31815,-0.67137 -3.8425,0.26096 -1.35936,0.83143 -2.64642,1.06783 -2.41526,0.44362 0.073,-0.19704 0.68915,-0.76364 1.36929,-1.25912 1.71614,-1.25022 4.60873,-1.47406 6.02744,-0.46642 1.53459,1.08993 2.35261,3.63346 1.67769,5.21656 -0.32078,0.75243 -0.79945,0.55393 -0.79945,-0.33152 z m -43.39544,-2.24426 c -1.12409,-0.91914 -1.15872,-0.92579 -3.76035,-0.72152 -3.19493,0.25086 -5.71081,-0.30455 -7.04116,-1.5544 -0.4911,-0.46139 -1.494,-2.00996 -2.22867,-3.44127 -1.4041,-2.73554 -2.14519,-3.43814 -3.94751,-3.74247 -0.88133,-0.14882 -1.09726,-0.3285 -1.09726,-0.91301 0,-0.40025 0.23916,-0.81033 0.53148,-0.9113 1.59505,-0.55093 5.2904,2.79598 6.93261,6.27892 0.86626,1.83723 1.07887,2.05837 2.42327,2.52051 1.17606,0.40427 2.04397,0.46493 4.29737,0.30035 3.01556,-0.22023 4.05438,0.0291 5.30539,1.27334 0.62581,0.62242 0.65523,1.58452 0.0534,1.74785 -0.18374,0.0499 -0.84462,-0.32678 -1.46862,-0.837 z m 7.88886,-3.32256 c -2.56626,-3.09541 -3.18036,-4.27362 -3.599,-6.90503 -0.41016,-2.57807 -0.40558,-2.61752 0.45745,-3.94304 0.93016,-1.42862 2.4777,-2.75404 4.18872,-3.5875 0.88583,-0.4315 1.05159,-0.68668 1.05159,-1.61897 0,-1.58654 0.65747,-3.34013 1.5553,-4.14826 0.59868,-0.53886 1.66957,-0.84978 4.7046,-1.36589 6.58219,-1.11932 11.44624,-1.20681 11.44624,-0.20587 0,0.30207 -0.88029,0.45851 -3.4243,0.60858 -4.03071,0.23776 -8.70002,0.95273 -9.91478,1.51814 -1.20593,0.56131 -1.99653,1.41829 -2.35958,2.5577 -0.2929,0.91924 -0.26823,0.96337 0.42771,0.76507 1.80796,-0.51516 2.57598,-0.52998 2.57598,-0.0497 0,0.73847 -1.27516,1.65087 -4.112,2.94223 -2.56205,1.16626 -2.62918,1.22605 -3.75838,3.34687 -1.72496,3.23978 -1.46918,4.88183 1.20889,7.76092 0.99793,1.07283 1.33393,1.68207 1.25583,2.27706 -0.1536,1.17012 -0.75966,1.18708 -1.70427,0.0477 z m 18.15242,-4.97913 c -0.68824,-0.50163 -0.7527,-0.73037 -0.54947,-1.95017 0.35567,-2.13482 1.86787,-2.79213 1.86787,-0.81191 0,0.86432 0.039,0.88435 1.72249,0.88435 1.63597,0 1.79957,-0.0749 3.25726,-1.49096 0.84413,-0.82003 2.21129,-1.76427 3.03813,-2.0983 1.85613,-0.74986 3.94551,-0.81851 4.23514,-0.13915 0.25987,0.60954 -0.29721,0.91831 -2.09443,1.16089 -1.74335,0.23532 -3.37214,1.18652 -4.40872,2.57468 -0.95169,1.27447 -2.3649,1.96057 -4.59938,2.23295 -1.38444,0.16876 -1.82985,0.10338 -2.46889,-0.36238 z m 24.23818,-0.63969 c -0.31309,-0.3114 -1.2116,-0.78698 -1.9967,-1.05686 -1.52665,-0.52478 -2.54878,-1.87776 -2.54878,-3.3738 0,-1.09022 0.66208,-0.76915 1.67019,0.80993 0.6409,1.00391 1.27448,1.50896 2.58264,2.05877 1.68698,0.70902 2.29198,1.29678 1.90899,1.85456 -0.30378,0.44242 -1.00494,0.31549 -1.61634,-0.2926 z M 329.4387,497.9799 c -0.12851,-0.18716 -0.0246,-0.44654 0.23085,-0.5764 0.25547,-0.12987 2.19335,-1.34241 4.3064,-2.69454 2.11304,-1.35213 4.36807,-2.70537 5.01117,-3.00719 1.48362,-0.69629 3.53427,-2.63533 5.28599,-4.99826 2.78836,-3.76129 5.31977,-4.93368 12.95932,-6.00192 4.39196,-0.61413 6.41813,-1.05888 9.1491,-2.00825 4.42347,-1.53774 6.58486,-1.68104 12.66018,-0.83939 8.11493,1.12422 11.39917,0.84206 18.44147,-1.58433 4.38673,-1.51143 11.99444,-2.33463 11.99444,-1.29787 0,0.28813 -0.71452,0.4613 -2.44741,0.59314 -2.8593,0.21756 -9.35053,1.67294 -11.74919,2.63427 -2.37164,0.95049 -4.74229,1.46988 -6.72784,1.47401 -1.38976,0.003 -1.7458,0.10976 -1.87765,0.56357 -0.12349,0.42506 -0.71648,0.65227 -2.46103,0.94292 -3.53747,0.58938 -4.63666,1.09048 -6.04481,2.75572 -1.38047,1.6325 -2.94649,2.65748 -4.06027,2.65748 -1.04911,0 -0.87514,-0.47051 0.62503,-1.69041 0.7355,-0.59809 1.66023,-1.60466 2.05496,-2.23681 0.81266,-1.30148 1.26646,-1.49292 5.45968,-2.30323 l 3.00556,-0.5808 -5.08279,-0.39827 c -6.53655,-0.51219 -10.1147,-0.29269 -13.79033,0.84593 -1.56181,0.48381 -5.1587,1.23599 -7.99307,1.67151 -3.98713,0.61264 -5.68827,1.02405 -7.51676,1.81785 -2.84622,1.23562 -4.99933,2.83953 -5.86709,4.37054 -1.1852,2.09106 -8.63171,7.47185 -13.27038,9.58905 -1.60382,0.73203 -1.96724,0.77979 -2.29553,0.30168 z m 34.03691,-9.47946 c -0.42176,-0.98929 2.78847,-2.80152 4.97419,-2.808 1.0805,-0.003 0.95801,0.58429 -0.21368,1.02494 -0.64847,0.24388 -1.84672,0.85689 -2.66276,1.36226 -1.72094,1.06573 -1.81477,1.08455 -2.09775,0.4208 z m -25.00334,-5.8367 c -0.12112,-0.17638 -0.16757,-0.35804 -0.10324,-0.40367 0.0643,-0.0456 1.16932,-0.71066 2.45552,-1.47783 1.2862,-0.76717 2.91393,-1.76095 3.61718,-2.2084 1.20919,-0.76936 1.55526,-0.82471 6.37206,-1.01915 5.05358,-0.204 6.54763,-0.50885 6.54763,-1.33601 0,-0.87056 1.3105,-1.12571 4.63096,-0.90164 3.22894,0.2179 4.72323,0.52898 4.72323,0.98327 0,0.13578 -1.42264,0.19086 -3.16142,0.12241 -3.49943,-0.13776 -4.85646,0.0498 -4.85646,0.67114 0,0.8243 -2.68311,1.42089 -7.38257,1.6415 l -4.56567,0.21433 -1.87034,1.27104 c -3.36998,2.29016 -5.85992,3.2396 -6.40688,2.44301 z m -2.35869,-20.88304 c -0.30272,-0.41585 -0.62641,-1.36306 -0.71931,-2.10491 -0.13567,-1.0834 -0.067,-1.34881 0.34911,-1.34881 0.30427,0 0.60911,0.37328 0.73877,0.9046 0.40049,1.64128 2.25405,1.96827 4.24712,0.74925 1.50785,-0.92223 2.01183,-0.95005 1.87243,-0.10332 -0.0716,0.43469 -0.76748,0.97866 -2.11123,1.65027 -2.44526,1.22215 -3.62185,1.29014 -4.37689,0.25292 z m -46.37025,46.0432 c 0.0983,-0.23069 0.13122,-0.94109 0.073,-1.57868 l -0.10578,-1.15925 -0.75043,1.05245 c -0.94698,1.32812 -0.9744,2.10491 -0.0743,2.10491 0.37325,0 0.7591,-0.18875 0.85745,-0.41943 z m -0.78989,-3.88325 c 0.63777,-0.80128 1.7248,-4.36399 1.42256,-4.66237 -0.12785,-0.12621 -1.75034,2.96462 -2.72343,5.18813 -0.96594,2.20714 -1.05594,3.5983 -0.11162,1.72534 0.36044,-0.7149 0.99606,-1.72789 1.41249,-2.2511 z m 169.13256,0.87377 c 0.91871,-0.22812 2.55532,-0.77424 3.6369,-1.21358 3.25959,-1.32408 6.90926,-1.94263 13.40109,-2.27125 9.42619,-0.47715 10.74281,-0.71883 12.58947,-2.3109 2.00483,-1.72843 3.27924,-6.17814 3.27924,-11.44976 0,-3.64888 -0.0829,-4.15124 -1.29451,-7.8402 -1.50182,-4.57277 -2.40574,-5.97523 -5.79015,-8.98361 l -2.43657,-2.16586 -4.67709,0.43058 c -2.5724,0.23682 -5.3869,0.43339 -6.25444,0.43683 -1.97278,0.008 -4.66262,-1.03448 -7.33359,-2.84168 -3.23399,-2.18815 -6.34941,-3.4101 -10.64143,-4.17385 -3.36036,-0.59797 -3.74311,-0.72623 -3.1034,-1.03997 0.40134,-0.19684 1.00268,-0.36892 1.33632,-0.38241 1.00803,-0.0408 -1.38376,-0.85077 -4.00538,-1.35647 -1.32202,-0.25501 -4.05735,-0.53892 -6.07853,-0.63091 -3.2197,-0.14653 -4.12195,-0.0698 -7.28459,0.61982 -4.40608,0.9607 -7.94877,2.2619 -9.8306,3.61069 l -1.41352,1.01314 1.67319,0.19978 c 1.44229,0.17221 1.96668,0.0737 3.79983,-0.71377 2.28968,-0.98359 4.20262,-1.20472 4.20262,-0.48582 0,0.23526 -0.56376,0.58862 -1.25279,0.78527 -0.68904,0.19664 -1.60361,0.55595 -2.03238,0.79846 -0.75873,0.42913 -0.68728,0.48051 2.67155,1.92104 1.89812,0.81407 3.61697,1.48012 3.81968,1.48012 0.76712,0 3.14143,1.81959 3.14143,2.40749 0,0.88272 -0.57498,0.75646 -4.04691,-0.88873 -4.92504,-2.33374 -9.40408,-3.62367 -12.58249,-3.62367 -2.41284,0 -5.87321,0.63034 -6.52651,1.18886 -0.14935,0.12769 0.4662,0.32024 1.3679,0.42791 3.18919,0.38079 13.73975,3.95139 18.61413,6.29953 3.28512,1.58255 5.06157,3.44415 7.46572,7.82359 1.91459,3.48763 2.7238,6.00082 2.7238,8.45935 0,2.04171 -1.82965,7.14113 -3.59834,10.02895 -1.12989,1.84484 -1.3874,2.03911 -3.91842,2.95622 -1.3167,0.47711 3.16771,0.44745 5.0042,-0.0331 1.70781,-0.44687 3.51479,-1.80731 3.51479,-2.64621 0,-0.18153 0.60169,-1.38192 1.33708,-2.66754 2.62519,-4.58937 2.92088,-8.39539 0.99792,-12.84493 -1.08977,-2.52162 -1.21592,-3.16924 -0.58109,-2.98328 0.64365,0.18853 1.83618,2.31179 2.40772,4.28688 1.12337,3.88198 0.38002,8.76053 -2.13487,14.01107 -1.39166,2.90549 -1.3766,3.24786 0.14475,3.28929 0.36749,0.01 1.34467,0.34425 2.17151,0.74277 1.77454,0.85528 4.85608,0.9905 7.51676,0.32985 z m -5.41252,-2.79074 c -0.98706,-0.1209 -1.04195,-0.18543 -0.71202,-0.8372 0.27303,-0.53935 0.87075,-0.82224 2.52997,-1.19738 3.54545,-0.80162 5.39437,-1.85499 5.90402,-3.36365 0.2108,-0.624 0.13343,-0.64113 -2.71663,-0.6014 -3.34967,0.0467 -4.12104,-0.13531 -3.89082,-0.91799 0.14056,-0.47789 0.58609,-0.54991 3.63582,-0.58775 3.21423,-0.0399 3.69266,-0.12705 6.36163,-1.15886 3.91905,-1.51509 5.73314,-1.62815 10.2147,-0.63662 4.174,0.92349 7.40792,1.00726 11.34187,0.29378 2.29321,-0.41591 2.75906,-0.42798 2.99957,-0.0777 0.15794,0.23001 0.15548,0.53103 -0.006,0.67594 -1.27253,1.14539 -11.30004,1.74005 -16.46575,0.97647 -3.8672,-0.57164 -5.92526,-0.60844 -7.09932,-0.12694 -0.47476,0.1947 -1.63582,1.31105 -2.58015,2.48078 -2.14763,2.66026 -3.53155,4.01973 -4.61037,4.52894 -0.9869,0.46582 -3.39176,0.73515 -4.907,0.54957 z m 8.60132,-19.01389 c -0.94115,-1.58287 2.17007,-8.68196 3.16799,-7.22861 0.10875,0.15838 -0.18711,1.29156 -0.65746,2.51816 -0.47036,1.22659 -0.8552,2.65611 -0.8552,3.17671 0,1.0339 -0.51109,2.1098 -1.00223,2.1098 -0.17082,0 -0.46471,-0.25923 -0.6531,-0.57606 z m -169.84505,13.71139 c 0.4688,-0.80588 0.46148,-0.83215 -0.14973,-0.53772 -0.95672,0.46086 -2.73871,2.3855 -2.73871,2.95794 0,0.6355 2.16719,-1.18039 2.88844,-2.42022 z m 204.09664,0.83833 c 6.49273,-1.88931 11.3087,-4.77093 14.425,-8.63115 2.15249,-2.66634 5.09794,-5.34251 5.88008,-5.34251 1.00941,0 0.78802,0.86505 -0.50983,1.99204 -0.73809,0.64093 -2.03146,1.96525 -2.87417,2.94293 l -1.53219,1.77761 1.14681,-0.20107 c 2.08267,-0.36517 5.24171,-1.97615 6.60128,-3.36639 0.72251,-0.73881 1.65105,-2.15534 2.06343,-3.14786 0.46702,-1.12403 1.1795,-2.14417 1.88929,-2.70511 1.42078,-1.12283 1.87616,-1.15687 1.43274,-0.1071 -0.18434,0.4364 -0.28263,0.84074 -0.21842,0.89853 0.0642,0.0578 1.91002,-0.70348 4.10181,-1.69172 4.11015,-1.85319 6.63652,-3.4175 12.6269,-7.81849 5.65525,-4.15477 9.55374,-5.98146 15.46038,-7.24412 2.14302,-0.45812 3.73333,-0.60103 5.85683,-0.52632 2.97459,0.10466 3.86729,0.43211 3.50362,1.28516 -0.15782,0.37016 -0.74071,0.47126 -2.71699,0.47126 -2.18836,0 -2.51607,0.0696 -2.51607,0.53449 0,0.71632 0.7691,1.71338 2.73848,3.55016 1.58697,1.48011 1.65488,1.61724 2.13749,4.31586 0.61292,3.42724 0.3551,4.3263 -1.85663,6.47453 -2.61677,2.54164 -3.01934,3.14205 -3.01934,4.50325 0,2.01822 0.55765,2.43708 3.11775,2.3418 1.80296,-0.0671 2.44167,0.0508 3.7851,0.69884 1.27427,0.61466 1.86348,0.73444 2.78542,0.56625 0.6431,-0.11732 2.22162,-0.29648 3.50782,-0.39814 l 2.33854,-0.18482 0.85967,-1.58675 c 0.47282,-0.87271 1.39648,-2.09055 2.05257,-2.70631 1.69391,-1.58976 2.71895,-3.55774 2.69754,-5.17902 -0.01,-0.74423 -0.47203,-2.646 -1.02713,-4.22613 -1.44557,-4.11493 -1.75411,-6.48395 -1.87959,-14.43177 -0.13093,-8.29339 -0.4087,-9.49125 -2.70869,-11.68122 -1.40994,-1.3425 -1.5141,-1.38454 -3.40812,-1.37539 -2.92963,0.0141 -4.81872,0.78736 -6.33706,2.59379 -1.09289,1.30025 -1.7956,1.74136 -4.94863,3.10641 -4.44029,1.92234 -5.62448,2.29175 -10.54371,3.28918 -4.4751,0.90738 -5.20213,0.93308 -8.22746,0.29087 -5.16579,-1.09658 -11.88135,0.20148 -17.35884,3.35532 -1.04622,0.60239 -3.34226,2.1504 -5.1023,3.44001 -3.51445,2.57509 -7.44252,4.50156 -10.74753,5.27098 -1.17745,0.27412 -2.18105,0.53383 -2.23023,0.57714 -0.0492,0.0433 1.04076,0.0135 2.42207,-0.0663 2.17988,-0.12593 2.51147,-0.0793 2.51147,0.35296 0,0.70604 -1.11611,1.00548 -5.23599,1.40473 -4.07008,0.39443 -6.61919,0.24024 -9.87259,-0.5972 -1.37725,-0.35451 -4.0036,-0.65967 -6.84287,-0.79509 l -4.60777,-0.21976 1.27937,1.27468 c 1.31607,1.31125 4.567,5.61798 4.567,6.05022 0,0.1334 0.13936,0.57247 0.3097,0.97571 l 0.30969,0.73318 2.94757,-0.55809 c 4.95504,-0.93817 9.79617,-0.56671 9.79617,0.75166 0,0.71838 -0.51004,0.80974 -1.65366,0.29623 -0.82962,-0.37252 -1.56248,-0.4315 -3.29784,-0.26543 -2.29459,0.2196 -7.11252,0.988 -7.31014,1.16587 -0.0611,0.055 0.13432,1.10113 0.43419,2.32483 0.85901,3.50555 0.80218,8.90739 -0.12408,11.79417 -0.41515,1.29385 -1.06693,2.90311 -1.4484,3.57615 l -0.69358,1.2237 1.30754,-0.1882 c 0.71915,-0.1035 2.49959,-0.53506 3.95653,-0.95901 z m -0.63699,-6.58638 c -0.23106,-0.54196 0.067,-0.70425 3.6395,-1.98161 1.45495,-0.52022 3.56358,-1.40806 4.68585,-1.97296 2.15542,-1.08495 3.47963,-1.31257 3.47963,-0.59812 0,0.52191 -2.48504,1.82504 -6.51453,3.41617 -3.78848,1.49596 -5.02405,1.76139 -5.29045,1.13652 z m 69.60051,-5.75319 c 0,-1.00839 0.56549,-1.93479 1.18102,-1.93479 0.57575,0 0.66054,1.25516 0.14354,2.12468 -0.50606,0.85109 -1.32456,0.73375 -1.32456,-0.18989 z m 3.65877,-1.168 c -0.1749,-0.15712 -0.31799,-0.48168 -0.31799,-0.72124 0,-0.3594 0.48406,-0.40483 2.76774,-0.25977 2.30165,0.1462 3.01059,0.0779 4.2098,-0.40531 0.79314,-0.31962 1.57718,-0.50597 1.74232,-0.4141 0.61275,0.34086 0.26824,1.06009 -0.78551,1.63989 -0.9117,0.50164 -1.5837,0.58529 -4.19206,0.5218 -1.70847,-0.0416 -3.24941,-0.20415 -3.4243,-0.36127 z m -42.07777,-6.91957 c 0,-0.2637 0.56784,-0.57418 1.41983,-0.77632 1.88269,-0.44668 4.06157,-1.59702 6.04954,-3.19386 1.62429,-1.3047 2.33322,-1.56629 2.71966,-1.0035 0.5161,0.75165 -1.86944,2.57049 -5.67952,4.33032 -2.45176,1.13244 -4.50951,1.42601 -4.50951,0.64336 z m -16.8065,-3.06771 c -0.34014,-0.0856 -0.55748,-0.37061 -0.49782,-0.65282 0.0782,-0.3701 0.58473,-0.54255 1.94002,-0.6605 1.92852,-0.16784 2.79019,-0.48818 4.61854,-1.71701 0.81789,-0.5497 1.21282,-0.65979 1.48574,-0.41414 0.55577,0.50025 -0.70488,1.8539 -2.46723,2.64924 -1.50046,0.67715 -3.99601,1.06787 -5.07925,0.79523 z m 16.65403,-1.88422 c -0.30994,-0.45139 0.0837,-0.92332 0.77016,-0.92332 4.26169,0 15.75287,-5.77449 17.45009,-8.76894 0.74437,-1.31332 1.41891,-1.38784 1.57928,-0.17448 0.14508,1.09768 -1.68635,2.83232 -5.02657,4.76091 -5.73386,3.31064 -14.0355,6.17985 -14.77296,5.10583 z m 24.02107,-14.18036 c -0.37072,-0.53992 0.22076,-0.76155 3.0247,-1.13331 2.55225,-0.3384 2.96776,-0.49769 6.42266,-2.46222 0.58215,-0.33102 0.83112,-0.34366 1.14815,-0.0583 0.90675,0.81616 -2.20145,2.59606 -6.2345,3.57015 -2.02534,0.48918 -4.05583,0.52814 -4.36101,0.0837 z m 22.23419,-1.77801 c -0.83887,-1.06038 -1.402,-1.11374 -3.17374,-0.3007 -1.64973,0.75705 -2.17151,0.75871 -2.17151,0.007 0,-1.62292 4.53509,-2.30033 6.16623,-0.92105 0.92107,0.77884 1.1556,2.11692 0.37104,2.11692 -0.2631,0 -0.79951,-0.40594 -1.19202,-0.9021 z m -247.06686,33.45298 c -1.58,-2.34466 -2.48955,-5.1107 -2.48955,-7.57103 0,-1.78394 0.177,-2.3472 1.51532,-4.82221 1.86328,-3.44583 3.01052,-6.82295 3.81361,-11.22602 0.20505,-1.12417 0.74555,-2.80259 1.20112,-3.7298 0.45558,-0.92722 0.76104,-1.74641 0.67881,-1.82043 -0.0822,-0.074 -0.89988,0.49719 -1.817,1.26933 -1.81946,1.53186 -2.80993,3.14482 -5.36112,8.73047 -2.37483,5.19954 -2.74632,6.75687 -3.04844,12.77979 l -0.26397,5.26227 1.61599,1.42833 c 1.53566,1.35731 1.70809,1.42833 3.46819,1.42833 l 1.85219,0 -1.16515,-1.72903 z m 233.36966,-5.01717 c 0,-1.90607 0.39897,-2.63096 2.64311,-4.80224 2.10201,-2.03376 2.6388,-3.24543 2.23763,-5.0509 -0.20171,-0.90776 -5.33494,-8.1044 -5.9264,-8.30862 -0.32807,-0.11328 -7.64038,2.03044 -7.64038,2.2399 0,0.0745 0.37584,0.80306 0.8352,1.61899 1.00352,1.78251 1.0287,2.31952 0.19472,4.15407 -1.25274,2.75571 -1.22864,2.98406 0.45891,4.34896 1.23367,0.9978 1.51788,1.41829 1.51788,2.24576 0,1.49148 0.48935,2.08976 2.43406,2.97587 0.95805,0.43654 1.93836,1.04527 2.17846,1.35275 0.70865,0.90751 1.06681,0.64748 1.06681,-0.77454 z m -2.67263,-1.89538 c 0,-1.58469 1.53423,-3.11177 2.18059,-2.17043 0.11855,0.17266 -0.0605,0.68009 -0.39788,1.12763 -0.33739,0.44753 -0.61343,1.08181 -0.61343,1.4095 0,0.32779 -0.26299,0.64206 -0.58464,0.69863 -0.47607,0.0837 -0.58464,-0.1141 -0.58464,-1.06533 z m 1.25975,-4.73961 c -1.41249,-0.74424 -2.71008,-1.35316 -2.88352,-1.35316 -0.17343,0 -0.47649,0.4161 -0.67345,0.92466 -0.41838,1.08026 -1.04356,0.9104 -1.04356,-0.28353 0,-1.16054 0.81727,-2.11856 1.38064,-1.61841 0.23286,0.20674 0.77904,0.37588 1.21372,0.37588 0.98514,0 1.98694,0.45438 3.14639,1.42709 0.73492,0.61657 1.10446,0.71712 2.04922,0.55758 1.23571,-0.20865 1.86152,0.33376 1.13722,0.9857 -0.67209,0.60494 -1.71557,0.35995 -4.32666,-1.01581 z m -49.82925,-10.37787 c 5.49487,-1.71261 5.946,-1.91359 8.56017,-3.81366 6.09617,-4.43089 12.48068,-7.5257 17.58026,-8.52181 2.53171,-0.49452 4.21915,-0.60297 8.85307,-0.56901 4.1509,0.0304 6.48888,-0.095 8.5026,-0.45627 3.11745,-0.55924 7.94018,-2.01002 9.83402,-2.95827 1.11349,-0.55754 1.2569,-0.76324 1.28977,-1.84989 0.0868,-2.86807 -0.72134,-4.80388 -2.52115,-6.03951 -1.50303,-1.03188 -2.75996,-1.1819 -5.19603,-0.62016 -1.7311,0.39918 -2.32131,0.71113 -3.36534,1.77871 -1.60381,1.63999 -5.73825,3.91248 -10.66954,5.8645 -3.42427,1.35547 -5.05861,1.84079 -10.27291,3.05058 -1.06342,0.24672 -1.41983,0.47747 -1.41983,0.91923 0,0.823 -1.29239,0.77222 -3.26837,-0.12841 -2.63254,-1.19988 -4.99764,-1.68739 -8.18622,-1.68739 -3.85056,0 -6.31662,0.57857 -10.3901,2.43764 -4.09296,1.86797 -11.95364,7.21635 -10.41531,7.08656 0.95711,-0.0808 0.99163,0.60616 0.0581,1.1567 -0.65593,0.38685 -1.77687,0.50636 -5.11543,0.5454 -3.77053,0.0441 -4.71241,-0.0541 -7.97566,-0.83105 l -3.70022,-0.88104 -4.38741,0.39111 -4.38741,0.39112 0.78327,0.94097 c 0.4308,0.51754 1.1196,1.5499 1.53065,2.29413 0.41106,0.74424 0.77548,1.3838 0.80982,1.42126 0.0343,0.0374 1.82968,-0.12923 3.98964,-0.3704 3.74214,-0.41784 3.96946,-0.41182 4.82415,0.12763 0.75315,0.47538 1.78066,0.59736 6.40924,0.76088 4.22546,0.14928 10.46697,0.825 12.31972,1.33378 0.0692,0.019 2.73611,-0.77899 5.92642,-1.77333 z m -9.22603,-2.15477 c 0,-0.26978 0.73785,-0.64673 1.92095,-0.9814 3.0481,-0.86221 4.97845,-1.81201 8.23579,-4.05233 3.6155,-2.48664 4.76097,-2.96406 5.50496,-2.2944 0.62507,0.56262 0.31438,0.86733 -1.38186,1.35525 -0.69015,0.19852 -2.64451,1.28024 -4.34302,2.40383 -3.81085,2.52091 -6.15452,3.60387 -8.29247,3.83178 -1.30631,0.13925 -1.64435,0.0852 -1.64435,-0.26273 z m 57.00299,-15.3509 c -1.25575,-0.61138 -1.3259,-0.61421 -2.39363,-0.0967 -1.5582,0.75531 -2.44492,0.16489 -1.30002,-0.86562 1.18654,-1.068 5.8225,-0.13093 5.8225,1.1769 0,0.60405 -0.56413,0.54717 -2.12885,-0.21463 z m -83.72924,17.28039 c 0,-0.82284 -2.39735,-3.34445 -3.9983,-4.20554 -1.61985,-0.87125 -2.09386,-0.97847 -4.33888,-0.98142 -1.3862,-0.002 -3.1217,-0.0815 -3.85668,-0.17717 -1.17888,-0.15338 -0.92305,0.0343 2.17151,1.59317 1.9293,0.97186 4.14458,2.1508 4.92284,2.61987 1.77366,1.06899 5.09951,1.81972 5.09951,1.15109 z"
       id="path2995"
       inkscape:connector-curvature="0" />
    <rect
       style="fill:#f5f2f2;fill-opacity:0;stroke:none"
       id="rect5431-9"
       width="335.91214"
       height="290.63861"
       x="390.73663"
       y="199.87378"
       inkscape:export-filename="/home/christian/Dokumente/Code/workspace/OpenTraining/res/drawable/background.png"
       inkscape:export-xdpi="150"
       inkscape:export-ydpi="150" />
  </g>
</svg>
