<?xml version="1.0" encoding="UTF-8" standalone="no"?>
<!-- Created with Inkscape (http://www.inkscape.org/) -->

<svg
   xmlns:dc="http://purl.org/dc/elements/1.1/"
   xmlns:cc="http://creativecommons.org/ns#"
   xmlns:rdf="http://www.w3.org/1999/02/22-rdf-syntax-ns#"
   xmlns:svg="http://www.w3.org/2000/svg"
   xmlns="http://www.w3.org/2000/svg"
   xmlns:xlink="http://www.w3.org/1999/xlink"
   xmlns:sodipodi="http://sodipodi.sourceforge.net/DTD/sodipodi-0.dtd"
   xmlns:inkscape="http://www.inkscape.org/namespaces/inkscape"
   width="360.62054"
   height="383.65421"
   id="svg2"
   version="1.1"
   inkscape:version="0.48.3.1 r9886"
   sodipodi:docname="Triceps-kickback-1.svg"
   inkscape:export-filename="/home/christian/Arbeitsfläche/Dropbox/Website/opentraining/cc_exercises/Triceps-kickback-1.png"
   inkscape:export-xdpi="199.63289"
   inkscape:export-ydpi="199.63289">
  <defs
     id="defs4">
    <filter
       inkscape:collect="always"
       id="filter5283"
       color-interpolation-filters="sRGB">
      <feGaussianBlur
         inkscape:collect="always"
         stdDeviation="10.211719"
         id="feGaussianBlur5285" />
    </filter>
    <filter
       inkscape:collect="always"
       id="filter5427"
       x="-0.28619286"
       width="1.5723857"
       y="-0.28619286"
       height="1.5723857"
       color-interpolation-filters="sRGB">
      <feGaussianBlur
         inkscape:collect="always"
         stdDeviation="15.757641"
         id="feGaussianBlur5429" />
    </filter>
    <radialGradient
       gradientUnits="userSpaceOnUse"
       gradientTransform="matrix(1,0,0,0.91819829,-19.285714,-7.9105395)"
       r="209.56604"
       fy="287.50052"
       fx="398.1105"
       cy="287.50052"
       cx="398.1105"
       id="radialGradient5255"
       xlink:href="#linearGradient5249"
       inkscape:collect="always" />
    <linearGradient
       id="linearGradient5249"
       inkscape:collect="always">
      <stop
         id="stop5251"
         offset="0"
         style="stop-color:#e3e3e3;stop-opacity:1;" />
      <stop
         id="stop5253"
         offset="1"
         style="stop-color:#e3e3e3;stop-opacity:0;" />
    </linearGradient>
  </defs>
  <sodipodi:namedview
     id="base"
     pagecolor="#ffffff"
     bordercolor="#666666"
     borderopacity="1.0"
     inkscape:pageopacity="0.0"
     inkscape:pageshadow="2"
     inkscape:zoom="0.98994949"
     inkscape:cx="285.39205"
     inkscape:cy="149.98275"
     inkscape:document-units="px"
     inkscape:current-layer="layer1"
     showgrid="false"
     showguides="true"
     inkscape:guide-bbox="true"
     fit-margin-top="0"
     fit-margin-left="0"
     fit-margin-right="0"
     fit-margin-bottom="0"
     inkscape:window-width="1615"
     inkscape:window-height="1026"
     inkscape:window-x="1431"
     inkscape:window-y="24"
     inkscape:window-maximized="1">
    <sodipodi:guide
       orientation="-0.70710678,0.70710678"
       position="-1659.5162,619.15945"
       id="guide2985" />
  </sodipodi:namedview>
  <metadata
     id="metadata7">
    <rdf:RDF>
      <cc:Work
         rdf:about="">
        <dc:format>image/svg+xml</dc:format>
        <dc:type
           rdf:resource="http://purl.org/dc/dcmitype/StillImage" />
        <dc:title></dc:title>
      </cc:Work>
    </rdf:RDF>
  </metadata>
  <g
     inkscape:label="Ebene 1"
     inkscape:groupmode="layer"
     id="layer1"
     transform="translate(-230.94479,-262.15313)">
    <g
       id="g5449"
       transform="matrix(1.0543403,0,0,1.258995,-111.42407,59.807553)"
       style="fill:#ffffff;fill-opacity:1"
       inkscape:export-filename="/home/christian/Arbeitsfläche/Dropbox/Website/opentraining/cc_exercises/Bench-dips-1.png"
       inkscape:export-xdpi="214.51434"
       inkscape:export-ydpi="214.51434">
      <rect
         inkscape:export-ydpi="150"
         inkscape:export-xdpi="150"
         inkscape:export-filename="/home/christian/Dokumente/Code/workspace/OpenTraining/res/drawable/background.png"
         y="185.22804"
         x="352.24948"
         height="255.71428"
         width="290"
         id="rect2987"
         style="fill:#ffffff;fill-opacity:1;stroke:none;filter:url(#filter5283)" />
      <path
         transform="matrix(1.6074318,0,0,0.77372547,-152.97598,82.347784)"
         d="m 467.14287,292.00504 c 0,36.49024 -29.58119,66.07142 -66.07143,66.07142 -36.49024,0 -66.07142,-29.58118 -66.07142,-66.07142 0,-36.49025 29.58118,-66.07143 66.07142,-66.07143 36.49024,0 66.07143,29.58118 66.07143,66.07143 z"
         sodipodi:ry="66.071426"
         sodipodi:rx="66.071426"
         sodipodi:cy="292.00504"
         sodipodi:cx="401.07144"
         id="path5317"
         style="fill:#ffffff;fill-opacity:1;stroke:none;filter:url(#filter5427)"
         sodipodi:type="arc" />
    </g>
    <path
       style="fill:#000000"
       d="m 342.79995,607.53439 c -2.17412,-1.24285 -7.93397,-2.28494 -12.79966,-2.31574 -13.43564,-0.0851 -14.83438,-2.35277 -13.43689,-21.78403 1.45828,-20.27639 1.24202,-26.30075 -1.50435,-41.90615 -3.61206,-20.52445 -3.11873,-25.75978 3.77074,-40.01676 6.91374,-14.30721 10.11659,-30.25795 5.7383,-28.57784 -1.42016,0.54496 -3.5438,0.99084 -4.71922,0.99084 -4.02847,0 -16.43709,14.57034 -19.01279,22.32503 -5.16884,15.56191 -13.82319,20.03201 -19.91586,10.28681 -3.47317,-5.55531 -3.01454,-16.4776 1.19255,-28.40177 1.25652,-3.56137 1.84615,-8.47138 1.31029,-10.91112 -1.48388,-6.75603 0.7794,-16.80574 4.5835,-20.35234 2.85359,-2.66043 4.66053,-3.0021 11.15718,-2.10961 4.26365,0.58573 10.11092,2.05053 12.99393,3.25513 2.88302,1.2046 7.32144,2.19018 9.86316,2.19018 4.1013,0 4.6938,-0.62062 5.2652,-5.51502 0.40118,-3.43644 -0.21022,-6.36911 -1.6222,-7.78108 -2.69792,-2.69795 -3.13662,-31.33465 -0.49352,-32.21569 4.59172,-1.53056 6.34261,15.77271 2.56619,25.36037 -0.84062,2.13417 0.13425,3.27772 4.21802,4.94789 8.4276,3.44671 22.43466,4.57985 29.7011,2.40279 l 6.44321,-1.93045 0,-9.89806 c 0,-10.52656 1.10099,-15.38364 3.19392,-14.09013 1.9737,1.21982 0.2638,35.3547 -2.21676,44.25351 -1.21209,4.34824 -2.69606,9.10049 -3.2977,10.56056 -0.98654,2.39414 0.12112,2.56787 11.28629,1.77014 7.72148,-0.55167 13.42143,-1.7916 15.14724,-3.29502 3.31157,-2.88484 3.72686,-14.91408 0.93275,-27.01877 -1.59001,-6.88825 -2.20796,-7.74672 -4.63959,-6.44534 -1.5429,0.82572 -4.80878,1.4857 -7.25748,1.4666 -4.04544,-0.0317 -3.80744,-0.32719 2.605,-3.236 3.88148,-1.76073 7.32026,-3.46436 7.64178,-3.78586 0.3215,-0.32151 -1.96482,-4.37017 -5.08073,-8.99702 -3.11592,-4.62687 -5.66528,-10.0229 -5.66528,-11.99122 0,-1.96832 -0.71153,-3.57877 -1.58118,-3.57877 -0.86965,0 -1.58118,1.38107 -1.58118,3.06905 0,1.68796 -0.65077,3.47123 -1.44614,3.9628 -2.16806,1.33993 -3.02761,-2.5809 -1.48175,-6.75907 0.90688,-2.45115 0.24894,-8.78776 -1.9701,-18.97416 -1.83244,-8.41168 -3.69247,-17.60644 -4.13339,-20.43281 -0.75421,-4.8345 -3.94938,-6.85919 -5.88417,-3.72862 -0.47936,0.77563 0.11526,4.51116 1.32137,8.30119 7.08962,22.27814 7.15693,22.58516 5.2215,23.81531 -3.14114,1.9965 -5.13553,1.45752 -9.96026,-2.69178 -5.39581,-4.64043 -3.25748,-5.31262 2.52115,-0.79252 5.95019,4.65432 6.41731,3.92656 3.29834,-5.13883 -1.57081,-4.56566 -2.87369,-8.65696 -2.89529,-9.09178 -0.0216,-0.43483 -0.93828,-3.7913 -2.03711,-7.45883 -2.03183,-6.78164 -5.02361,-8.12563 -3.63151,-1.63138 l 0.76227,3.55607 -3.14064,-3.55765 c -3.90706,-4.42583 -5.47191,-4.39208 -15.10301,0.32565 -5.26007,2.57661 -8.80616,5.71051 -11.11105,9.8195 -1.86191,3.31931 -4.72045,6.29224 -6.35231,6.6065 -2.75843,0.53123 -2.72914,0.269 0.41654,-3.73008 1.86095,-2.36581 3.05727,-4.8294 2.65847,-5.47464 -2.64129,-4.27371 20.15547,-15.24898 37.92588,-18.25902 3.4786,-0.58921 12.23623,-3.84547 19.4614,-7.2361 7.22518,-3.39064 14.05643,-6.16479 15.18055,-6.16479 4.21727,0 11.78328,-3.47188 12.6846,-5.82067 0.65658,-1.71101 0.22315,-2.16406 -1.45441,-1.52032 -1.31434,0.50436 -2.3897,0.283 -2.3897,-0.49191 0,-0.77492 2.43344,-2.21203 5.40765,-3.19362 7.395,-2.44058 9.88762,-5.59384 6.14358,-7.77192 -3.0898,-1.79749 -0.73222,-2.36004 3.34065,-0.79714 4.1197,1.58088 2.93991,3.97377 -6.30317,12.78441 -6.35212,6.05495 -10.04145,8.39234 -13.2464,8.39234 -2.4432,0 -5.30361,1.03798 -6.35651,2.30663 -3.37569,4.06746 5.51717,4.83899 18.50298,1.60529 6.40828,-1.59577 11.96373,-3.40671 12.34543,-4.02429 0.38167,-0.6176 -1.14048,-2.32487 -3.38259,-3.79396 -5.92175,-3.88008 -3.32595,-4.96386 2.97906,-1.24381 10.07764,5.94595 15.68225,7.03355 22.97888,4.45915 5.66853,-1.99996 6.607,-2.01206 6.607,-0.0851 0,3.13318 -5.08228,5.51963 -11.7549,5.51963 -3.10095,0 -5.63807,0.75352 -5.63807,1.6745 0,0.92096 -0.6177,1.29273 -1.37267,0.82613 -0.75496,-0.46659 -2.26203,3.3425 -3.34902,8.46467 -1.72603,8.1334 -1.6523,9.77569 0.58206,12.96571 3.42929,4.89598 3.22605,6.57995 -0.55021,4.55896 -3.9795,-2.12977 -6.42824,-11.34648 -5.61006,-21.11547 0.56187,-6.70881 0.31162,-7.50767 -2.04044,-6.51319 -8.68342,3.67143 -21.88306,5.67803 -26.51082,4.03013 -5.85288,-2.08414 -14.90895,-2.2781 -14.90895,-0.31933 0,0.77539 -1.77882,1.85623 -3.95294,2.4019 -3.13204,0.7861 -3.95296,1.99037 -3.95296,5.79887 0,5.90777 -3.07229,4.63195 -3.3777,-1.40265 -0.19061,-3.76658 -0.29437,-3.84345 -0.90413,-0.66993 -0.37884,1.97175 0.70573,7.664 2.41017,12.64943 1.70444,4.98545 3.60347,11.43419 4.22008,14.33053 l 1.1211,5.26609 7.70698,-1.05998 c 5.35749,-0.73684 10.06491,-0.2768 15.4418,1.50911 9.61322,3.193 18.78852,1.51596 29.75455,-5.43849 4.12141,-2.61373 8.84838,-4.75222 10.50438,-4.75222 3.65314,0 13.76293,-9.75645 13.76293,-13.28191 0,-1.39144 0.71153,-2.52989 1.58118,-2.52989 2.59938,0 1.84723,2.21854 -3.47764,10.25763 -3.49239,5.27251 -6.97315,8.38939 -11.241,10.06587 -6.13212,2.40875 -6.17451,2.48432 -5.23595,9.33186 0.52041,3.79688 2.0212,7.97842 3.3351,9.2923 1.31388,1.31389 2.38888,3.98091 2.38888,5.92669 0,1.94578 1.04467,4.91897 2.32148,6.60707 1.27681,1.6881 2.3441,4.58331 2.37178,6.43383 0.0695,4.6544 3.96586,13.54964 8.31207,18.97637 1.99942,2.49652 6.40999,8.67165 9.80124,13.72249 3.39126,5.05086 8.15014,10.20945 10.5753,11.46355 5.02155,2.59674 19.69647,3.08133 21.16882,0.699 0.53748,-0.86965 4.49289,-1.58117 8.7898,-1.58117 4.29693,0 7.81258,-0.57841 7.81258,-1.28535 0,-0.70696 -2.09093,-3.28861 -4.64652,-5.73702 -3.80463,-3.64506 -5.45193,-4.23627 -9.09177,-3.263 -2.4449,0.65375 -8.35245,1.2787 -13.12786,1.38877 -8.62974,0.19889 -8.70131,0.16161 -11.75571,-6.12461 -5.69359,-11.71788 -7.14202,-15.77631 -8.87812,-24.87599 -1.79262,-9.39596 -4.00962,-12.70345 -5.64987,-8.42899 -1.94846,5.07762 -3.08553,2.15305 -3.18849,-8.20098 -0.0584,-5.87013 -0.29579,-14.41456 -0.52758,-18.98761 -0.23178,-4.57306 0.28221,-9.19801 1.14221,-10.27766 0.85999,-1.07967 1.90494,-5.69856 2.3221,-10.26422 0.60034,-6.57043 0.2771,-8.30119 -1.55035,-8.30119 -1.45575,0 -1.95421,-0.92414 -1.34908,-2.50109 0.52787,-1.3756 0.98344,-4.39961 1.01236,-6.72001 l 0.0527,-4.21892 2.96791,3.55765 c 1.91529,2.29588 4.71858,3.55766 7.90407,3.55766 2.71491,0 7.51827,1.07886 10.67418,2.39748 7.58863,3.17073 10.34272,2.04724 16.90896,-6.89778 10.57954,-14.41219 10.92754,-28.7789 0.90148,-37.21527 -11.73265,-9.87235 -29.97478,-4.59544 -29.97478,8.67079 0,3.1937 -1.15867,4.67982 -4.83636,6.20316 -4.57012,1.89302 -5.15762,1.69623 -10.67296,-3.57516 -8.41057,-8.03854 -16.77803,-11.6195 -21.80196,-9.33045 -2.1715,0.9894 -9.07331,1.80587 -15.33734,1.81436 -8.79528,0.0111 -13.31551,0.91222 -19.84735,3.95295 -4.65201,2.16563 -11.12844,3.9375 -14.39209,3.9375 -3.81661,0 -7.8509,1.39838 -11.30654,3.91909 -2.95497,2.15552 -7.15148,4.752 -9.3256,5.77 -2.17413,1.01799 -8.22214,3.84997 -13.44003,6.29328 -5.2179,2.44333 -13.00743,6.51639 -17.31009,9.05125 -6.43114,3.78885 -8.67039,4.36582 -12.58567,3.24294 -2.93488,-0.84172 -5.36362,-0.76496 -6.32854,0.19996 -1.03375,1.03373 -0.0833,1.5659 2.7966,1.5659 2.39937,0 3.97598,0.62538 3.50357,1.38975 -0.47239,0.76438 -3.96793,1.03934 -7.76782,0.61103 -6.23632,-0.70291 -7.00633,-0.41488 -7.9093,2.95849 -0.5502,2.05547 -1.0101,6.69796 -1.02196,10.31667 -0.0283,8.64004 6.93947,15.1663 15.64834,14.65661 3.12179,-0.1827 6.56541,-0.23273 7.65247,-0.11115 2.86352,0.32021 2.61009,15.11974 -0.30028,17.53513 -1.2522,1.03924 -7.66371,2.29695 -14.24779,2.7949 -15.18941,1.14877 -18.26141,-0.94528 -18.26141,-12.44818 l 0,-7.66083 6.72001,-0.10028 c 5.48517,-0.0817 6.08527,-0.35598 3.26573,-1.49199 -5.17387,-2.08462 -6.92199,-6.68802 -5.80162,-15.27772 1.08988,-8.35583 2.72573,-11.21921 7.61983,-13.33768 2.4464,-1.05896 1.70188,-1.30071 -3.10746,-1.00901 l -6.32472,0.38363 -0.48645,-8.54686 c -0.31472,-5.52966 0.20042,-8.97132 1.45925,-9.74934 1.07015,-0.66138 6.71607,-1.68157 12.54649,-2.26711 14.30815,-1.4369 20.47607,1.47782 20.47607,9.6762 l 0,5.63409 4.84336,-4.07542 c 6.87241,-5.78276 42.067,-22.36295 50.21395,-23.65581 3.75723,-0.59625 8.38218,-2.05489 10.27766,-3.24141 4.83245,-3.02501 16.8101,-5.32933 33.67724,-6.47902 15.89991,-1.08375 20.70294,0.52241 27.53484,9.20774 4.88189,6.20632 8.56022,5.4921 10.83607,-2.10402 1.35883,-4.53533 3.67808,-7.52431 8.1185,-10.46283 5.40238,-3.57514 7.20182,-3.96594 13.74372,-2.98492 10.29137,1.54328 15.28448,4.43283 19.23767,11.13299 6.32491,10.71992 3.74235,21.88882 -9.01137,38.97194 -6.33865,8.49035 -10.75612,9.6658 -19.4431,5.17359 -2.62349,-1.35665 -6.67947,-2.24606 -9.01325,-1.97647 -4.08585,0.47201 -4.27935,0.93385 -5.21611,12.45023 -0.53508,6.57803 -1.80528,13.51545 -2.82269,15.4165 -1.30704,2.44219 -1.36955,4.35391 -0.21303,6.51487 0.90024,1.68213 1.6368,6.16883 1.6368,9.97048 0,4.81288 1.15231,8.47393 3.79427,12.05488 2.08684,2.82856 4.27749,7.7188 4.86814,10.86721 0.59063,3.1484 2.35666,8.62132 3.92448,12.16204 1.5678,3.54072 3.7388,8.76505 4.82445,11.6096 1.85337,4.85614 2.32337,5.10892 7.69777,4.14011 3.14814,-0.56748 6.9223,-1.64967 8.38701,-2.40486 4.10897,-2.11851 11.28856,-1.62932 15.08189,1.02762 1.8851,1.32038 4.00013,2.30342 4.70008,2.18453 7.02069,-1.19246 18.12168,0.63975 22.74237,3.75362 9.88248,6.65981 15.43304,19.42671 11.28332,25.95292 -2.07539,3.26393 -9.69013,5.23775 -20.20659,5.23775 l -10.17473,0 0,23.62437 c 0,14.04399 -0.64121,24.02068 -1.58117,24.6016 -0.99708,0.61622 -1.6493,-3.58407 -1.76557,-11.37023 -0.1013,-6.7911 -0.27929,-17.50497 -0.39529,-23.80858 l -0.21091,-11.46112 -4.74354,-0.005 -4.74355,-0.005 0.49274,15.41803 c 0.271,8.47993 -0.19118,18.26417 -1.02706,21.74277 -1.34356,5.5914 -1.53818,4.65448 -1.67861,-8.0805 -0.0874,-7.92287 -0.60046,-17.62724 -1.14022,-21.56527 l -0.9814,-7.16006 -33.40926,0.64675 c -18.37509,0.35727 -40.52457,1.32502 -49.22105,2.1521 -8.69649,0.8271 -24.52806,1.95856 -35.18125,2.51439 l -19.36945,1.0106 0,21.07788 c 0,11.59282 -0.66032,21.48597 -1.46735,21.98473 -2.38976,1.47696 -2.97347,-3.59248 -2.72279,-23.64732 0.18975,-15.1782 -0.23642,-19.34342 -2.1301,-20.81991 -2.90552,-2.26537 -6.3292,0.0805 -6.3292,4.33673 0,1.59189 -0.83454,4.72595 -1.85453,6.96458 -1.41857,3.11346 -1.41857,4.5062 0,5.92478 2.20886,2.20884 2.55372,24.93973 0.37838,24.93973 -0.81189,0 -1.7103,-1.9567 -1.99648,-4.34824 -0.44967,-3.75771 -1.02311,-3.05982 -4.22238,5.13883 -3.15517,8.08559 -3.56065,11.21982 -2.74475,21.21646 0.52651,6.45117 1.13414,11.78831 1.35029,11.86032 0.21614,0.072 4.66217,3.03942 9.88007,6.59425 5.21789,3.55484 11.94023,6.94429 14.93853,7.53213 9.05357,1.77504 13.18704,5.31556 11.95766,10.24237 -2.31396,9.27338 -11.37034,14.53267 -24.86895,14.4421 -4.59358,-0.0308 -10.13079,-1.07288 -12.30491,-2.31572 z m 28.85653,-6.55072 c 4.54233,-2.32637 6.28358,-9.85407 2.37178,-10.25346 -1.08707,-0.111 -3.4093,-0.36153 -5.16054,-0.55678 -4.28146,-0.47735 -12.3578,-4.75483 -15.0089,-7.94922 -1.18296,-1.42537 -4.73386,-3.90936 -7.89089,-5.51996 -5.27485,-2.69104 -5.89057,-3.74521 -7.59711,-13.00683 -1.27987,-6.94619 -1.37076,-11.77401 -0.29239,-15.53402 1.0404,-3.6277 1.03395,-5.63245 -0.0193,-5.98353 -0.87115,-0.29039 -1.53538,-2.78115 -1.47605,-5.53503 0.16799,-7.79687 5.27255,-25.60013 7.23428,-25.23107 0.96866,0.18224 2.22614,-2.57612 2.79437,-6.12968 0.56824,-3.55356 2.78916,-9.45743 4.9354,-13.1197 2.14623,-3.66226 3.90224,-8.64676 3.90224,-11.07664 0,-2.4299 1.33636,-6.63658 2.96969,-9.34817 3.43987,-5.71071 10.40565,-27.65843 9.17032,-28.89376 -0.45926,-0.45925 -3.20989,0.0238 -6.11252,1.07337 -5.14801,1.86154 -21.14645,0.49368 -28.5593,-2.44183 -2.36306,-0.93576 -2.76707,-0.15084 -2.76707,5.37544 0,3.55916 0.85102,9.65304 1.89115,13.54195 1.59053,5.94688 1.46487,8.42296 -0.7906,15.57816 -1.47496,4.67908 -2.68172,10.34229 -2.68172,12.58493 0,2.24261 -0.57231,4.31467 -1.27179,4.60456 -0.6995,0.28988 -3.24765,5.21474 -5.66257,10.94411 -3.85742,9.15163 -4.31078,11.93668 -3.73223,22.9271 0.3622,6.88054 1.51666,18.55807 2.56546,25.95008 1.55302,10.9457 1.50495,15.35169 -0.25896,23.74054 -2.14816,10.21624 -1.40167,16.85718 2.44127,21.71837 0.8956,1.13288 5.1142,1.97648 9.88383,1.97648 4.57674,0 10.71551,1.06184 13.64172,2.35963 6.07439,2.69405 18.41245,1.82487 25.48041,-1.79504 z m -46.92715,-9.37402 c -2.70495,-2.70495 -3.4491,-13.32709 -0.93365,-13.32709 0.85308,0 1.96335,1.95672 2.46728,4.34824 0.50391,2.39154 1.58476,5.58377 2.40188,7.09386 2.73951,5.06276 0.37486,6.19536 -3.93551,1.88499 z m 9.76036,-6.35261 c -1.76554,-1.76555 -1.41601,-8.22119 0.50956,-9.41127 2.54712,-1.5742 2.92059,-0.42944 1.74117,5.33728 -0.59065,2.88795 -1.60348,4.72124 -2.25073,4.07399 z m 5.14791,-89.85464 c 0,-4.08428 0.69002,-5.66589 2.47195,-5.66589 1.82654,0 2.34258,1.30991 1.97648,5.01707 -0.71587,7.24866 -4.44843,7.79308 -4.44843,0.64882 z m -12.52462,1.58118 c -0.0686,-1.66682 0.30506,-2.60071 0.83047,-2.0753 0.52542,0.52541 0.58159,1.88918 0.12491,3.0306 -0.50475,1.26136 -0.87942,0.88669 -0.95528,-0.9553 z m 15.84427,-18.31533 c -0.0709,-2.96873 2.80682,-6.52202 7.36343,-9.09178 5.34354,-3.01357 7.58424,-2.40103 4.33813,1.18589 -1.57406,1.73929 -4.06596,3.16235 -5.53759,3.16235 -1.47159,0 -3.44775,1.60095 -4.39145,3.55766 -1.03499,2.14605 -1.7383,2.61658 -1.77252,1.18588 z m -2.75241,-11.85885 c 0.53852,-3.47859 0.98696,-9.70448 0.99653,-13.83532 0.0111,-4.43584 0.73547,-7.5106 1.77141,-7.5106 2.58289,0 1.15045,23.06157 -1.5928,25.64327 -1.80469,1.69842 -1.99537,1.00116 -1.17514,-4.29735 z m 4.78343,54.5507 0.96975,-8.69649 -2.26787,6.94037 c -1.24733,3.81721 -2.65971,9.86521 -3.13862,13.44002 l -0.87075,6.49966 2.16887,-4.74353 c 1.19287,-2.60895 2.60526,-8.65696 3.13862,-13.44003 z m -54.91956,-14.97044 c 1.82253,-1.27655 4.08163,-5.37075 5.02023,-9.09826 1.75669,-6.97647 13.56289,-22.49611 19.83803,-26.07772 1.85059,-1.05626 5.32142,-1.94567 7.71295,-1.97646 4.1563,-0.0536 4.34824,-0.40503 4.34824,-7.96194 l 0,-7.9059 -5.92942,-0.0238 c -3.26118,-0.0127 -8.77555,-1.04917 -12.25414,-2.30236 -3.4786,-1.25321 -9.02926,-2.3098 -12.33483,-2.34797 -5.38077,-0.0621 -6.24818,0.50038 -8.28366,5.37198 -1.48203,3.54699 -1.93551,7.90763 -1.30257,12.52538 0.58178,4.24454 0.17448,9.19355 -1.01614,12.3469 -2.1633,5.72956 -3.52977,22.56456 -2.19187,27.0041 1.01586,3.37088 2.10856,3.44713 6.39318,0.44606 z m 6.87705,-43.04307 c 0,-2.83854 5.69513,-6.81716 9.61157,-6.71462 l 3.82844,0.10028 -3.92043,1.56422 c -2.15625,0.8603 -5.18024,2.70431 -6.72002,4.09779 -1.53976,1.39343 -2.79956,1.82202 -2.79956,0.95237 z m 144.67791,24.86081 c 62.38394,-2.21895 98.90493,-4.19712 102.21737,-5.53661 5.25132,-2.12356 4.47836,-8.50499 -2.02705,-16.73493 -6.04502,-7.64754 -7.5676,-8.44841 -18.92784,-9.95603 -5.67235,-0.75279 -5.70151,-0.72624 -5.53412,5.03641 l 0.16827,5.79316 -8.08671,0.81427 c -4.44768,0.44785 -9.16148,1.70626 -10.47512,2.79648 -1.6921,1.40433 -5.55775,1.68444 -13.25924,0.96079 -10.51979,-0.98847 -11.03505,-1.24033 -15.95826,-7.80073 -3.42371,-4.56224 -6.00919,-6.56717 -7.9059,-6.13074 -7.18031,1.65224 -55.16253,3.38415 -58.50889,2.11187 -3.06094,-1.16377 -3.93354,-0.79669 -5.06438,2.13042 -3.18242,8.23769 -7.90578,10.48634 -23.06442,10.98018 l -14.18592,0.46218 -0.0647,5.53413 c -0.0356,3.04377 -0.65418,7.23185 -1.37466,9.30682 l -1.30996,3.7727 17.17248,-0.89845 c 9.44486,-0.49413 39.22994,-1.683 66.18904,-2.64192 z m -62.45658,-9.14363 c 0,-2.11596 25.46034,-3.21824 100.80019,-4.36404 34.18374,-0.51987 58.89893,-0.30315 58.89893,0.51651 0,1.49568 -31.52914,2.76208 -111.07786,4.46153 -33.42591,0.71411 -48.62126,0.52222 -48.62126,-0.614 z m 81.85485,-24.80084 c 0.47279,-0.4728 -2.44503,-5.06594 -6.48404,-10.20696 -5.26988,-6.70772 -7.96053,-11.99153 -9.52806,-18.71089 -1.2014,-5.14996 -2.98842,-10.86595 -3.97115,-12.7022 -0.98274,-1.83624 -1.78678,-4.72134 -1.78678,-6.41132 0,-1.69 -1.0673,-3.95849 -2.37177,-5.04111 -1.37491,-1.14106 -2.37177,-4.59056 -2.37177,-8.20717 l 0,-6.23878 -4.68766,3.3379 c -6.70286,4.77287 -18.37683,5.78046 -28.84042,2.48927 -9.52081,-2.99468 -19.73426,-1.6937 -19.0959,2.43239 1.17935,7.62288 3.15134,12.62734 7.90221,20.05416 3.46853,5.42219 5.02759,9.45911 4.40755,11.41264 -0.52767,1.66253 0.14453,5.1576 1.49385,7.76682 1.37589,2.66068 2.45324,8.70583 2.45324,13.76547 l 0,9.02141 31.01054,-0.951 c 17.05578,-0.52305 31.39735,-1.33784 31.87016,-1.81063 z m -140.67826,-60.97838 0.47083,-5.53412 -12.72497,0.5157 c -12.71103,0.51514 -12.72497,0.52048 -12.72497,4.8753 0,2.39778 0.50256,4.86217 1.1168,5.47641 0.61424,0.61424 6.12861,0.91072 12.25414,0.65882 l 11.13734,-0.45797 0.47083,-5.53414 z m 3.23661,-45.14629 c 0.2998,-0.26423 0.65556,-2.84406 0.79059,-5.73299 l 0.24551,-5.25258 -8.69648,-0.49432 c -4.78307,-0.27189 -11.00897,-0.0618 -13.83532,0.46693 -4.62451,0.86507 -5.13883,1.50987 -5.13883,6.44244 0,5.44455 0.0397,5.47497 5.92942,4.55368 3.26117,-0.5101 7.70825,-0.21448 9.88237,0.65695 3.3668,1.34947 8.9393,1.01989 10.82274,-0.64011 z m 57.16798,28.17495 c 0,-0.75495 3.20875,-2.93159 7.13054,-4.83694 3.92182,-1.90537 8.46823,-5.66393 10.10317,-8.35235 1.66982,-2.74583 3.41904,-4.16569 3.99126,-3.23982 0.56026,0.90652 0.10515,3.12212 -1.01136,4.92355 -3.63349,5.86234 -20.21361,15.29972 -20.21361,11.50556 z m 13.44003,-2.00281 c -0.58039,-0.93907 1.27012,-1.58117 4.55691,-1.58117 3.04377,0 5.97387,0.71153 6.51134,1.58117 0.58039,0.93908 -1.27014,1.58118 -4.55691,1.58118 -3.04377,0 -5.97387,-0.71153 -6.51134,-1.58118 z m 18.34046,-0.44557 c 1.39077,-1.05941 2.45806,-2.57843 2.37177,-3.37561 -0.0864,-0.79718 0.73251,-1.74588 1.81957,-2.10824 1.08706,-0.36236 1.97648,0.002 1.97648,0.80905 0,1.85181 -5.29715,6.71833 -7.23981,6.65128 -0.80118,-0.0277 -0.31877,-0.91709 1.07199,-1.97648 z m -5.69801,-3.0923 c -0.60871,-1.51101 -0.32282,-4.9961 0.63533,-7.74466 1.32571,-3.80294 1.26986,-5.57208 -0.2337,-7.40178 -1.72164,-2.09506 -1.28931,-2.26835 3.36065,-1.34711 2.93507,0.58149 6.3621,1.05727 7.61563,1.05727 2.93634,0 2.16643,8.1607 -0.86389,9.15691 -1.54784,0.50885 -1.84738,-0.22522 -1.07934,-2.64512 0.74258,-2.33967 0.38537,-3.34943 -1.1849,-3.34943 -1.28417,0 -3.29734,3.22014 -4.6955,7.51061 -1.83619,5.63472 -2.72394,6.82442 -3.55428,4.76331 z m -48.219,-21.761 c -1.81941,-1.1758 -1.25705,-1.53839 2.41467,-1.55697 5.4021,-0.0273 11.95981,-5.35498 18.14067,-14.73797 3.92675,-5.96111 4.01579,-5.99771 13.44002,-5.52592 7.57583,0.37926 9.49549,-0.003 9.52887,-1.89683 0.0697,-3.95834 2.33039,-6.32774 5.98096,-6.26869 l 3.46433,0.0559 -3.57292,1.98425 c -2.78865,1.5487 -3.15437,2.40277 -1.66617,3.89099 3.22173,3.22173 -3.12416,6.7595 -11.3633,6.33498 -8.47757,-0.43684 -13.35873,1.96051 -16.54769,8.12727 -2.4082,4.65695 -11.35529,11.19312 -15.26254,11.14983 -1.20182,-0.0127 -3.25243,-0.71395 -4.5569,-1.55697 z m 119.67839,0.39101 c -0.70502,-1.08941 -1.89019,-5.71436 -2.63371,-10.27767 -1.04962,-6.44189 -0.82316,-9.12299 1.01289,-11.99174 2.92274,-4.56668 4.64863,-3.41655 2.07877,1.38528 -1.4334,2.67835 -1.43702,4.30578 -0.0158,6.96201 2.07466,3.87651 1.65246,17.15933 -0.44251,13.92212 z m -129.16546,-6.43546 c 0,-1.77111 13.85286,-8.57561 16.00088,-7.8596 0.94615,0.31538 -1.82965,2.50552 -6.16842,4.86697 -8.45927,4.60411 -9.83246,5.02206 -9.83246,2.99263 z m 115.80295,-6.1102 c 1.51175,-0.39575 4.35788,-0.41012 6.32472,-0.032 1.96685,0.3782 0.72998,0.70201 -2.74862,0.71956 -3.47859,0.0176 -5.08785,-0.2919 -3.5761,-0.68766 z m -18.97685,-10.27289 c -1.04519,-2.76901 -1.54961,-5.38531 -1.12091,-5.814 1.21141,-1.21142 5.38377,4.98688 5.44002,8.0815 0.0805,4.42765 -2.25472,3.2017 -4.31911,-2.2675 z"
       id="path3040"
       inkscape:connector-curvature="0" />
  </g>
</svg>
